<?xml version="1.0" encoding="utf-8"?>
<!-- Generator: Adobe Illustrator 16.0.2, SVG Export Plug-In . SVG Version: 6.00 Build 0)  -->
<!DOCTYPE svg PUBLIC "-//W3C//DTD SVG 1.1//EN" "http://www.w3.org/Graphics/SVG/1.1/DTD/svg11.dtd">
<svg version="1.1" id="Layer_1" xmlns="http://www.w3.org/2000/svg" xmlns:xlink="http://www.w3.org/1999/xlink" x="0px" y="0px"
	 width="49px" height="49px" viewBox="0 0 49 49" enable-background="new 0 0 49 49" xml:space="preserve">
<g>
	<path fill="none" stroke="#000000" stroke-width="3" stroke-linecap="round" stroke-miterlimit="10" d="M36.415,26.819v20.702
		h-7.717V26.819h-3.112v-6.173h3.112c0.035-2.768,0.235-4.785,0.599-6.055c0.363-1.268,1.299-2.395,2.808-3.379
		c1.507-0.984,3.557-1.477,6.147-1.477c1.063,0,2.287,0.098,3.671,0.293v6.12c-1.135-0.089-2.075-0.133-2.821-0.133
		c-1.082,0-1.801,0.283-2.154,0.851c-0.355,0.568-0.532,1.49-0.532,2.768v1.012h4.87l-0.826,6.173H36.415z"/>
</g>
<rect x="1.5" y="1.5" fill="none" stroke="#000000" stroke-width="3" stroke-linecap="round" stroke-linejoin="round" stroke-miterlimit="10" width="46" height="46"/>
</svg>
