<?xml version="1.0" encoding="utf-8"?>
<!-- Generator: Adobe Illustrator 16.0.2, SVG Export Plug-In . SVG Version: 6.00 Build 0)  -->
<!DOCTYPE svg PUBLIC "-//W3C//DTD SVG 1.1//EN" "http://www.w3.org/Graphics/SVG/1.1/DTD/svg11.dtd">
<svg version="1.1" id="Layer_1" xmlns="http://www.w3.org/2000/svg" xmlns:xlink="http://www.w3.org/1999/xlink" x="0px" y="0px"
	 width="69.339px" height="52.308px" viewBox="0 0 69.339 52.308" enable-background="new 0 0 69.339 52.308" xml:space="preserve">
<g>
	<g>
		<path fill="none" stroke="#000000" stroke-width="3" stroke-miterlimit="10" d="M20.211,38.819
			C20.211,38.898,20.211,38.819,20.211,38.819L20.211,38.819v11.988H1.586l-0.081-12c0,0-0.005-0.153-0.005-0.236
			c0-8.324,6.745-15.069,15.072-15.069c3.414,0,6.696,1.14,9.222,3.053C22.166,29.306,20.211,33.91,20.211,38.819z"/>
		<path fill="none" stroke="#000000" stroke-width="3" stroke-miterlimit="10" d="M23.748,12.502c0,2.302,0.706,4.437,1.911,6.2
			c-1.977,2.898-5.311,4.809-9.087,4.809c-6.078,0-11.007-4.929-11.007-11.009C5.565,6.425,10.495,1.5,16.572,1.5
			c3.776,0,7.11,1.905,9.087,4.805C24.454,8.068,23.748,10.204,23.748,12.502z"/>
	</g>
	<g>
		<path fill="none" stroke="#000000" stroke-width="3" stroke-miterlimit="10" d="M48.211,50.808h-28c0,0,0-11.909,0-11.988
			c0-4.91,1.954-9.511,5.583-12.263c2.529-1.913,5.607-3.045,9.02-3.045c3.417,0,6.536,1.132,9.062,3.042
			c3.632,2.752,4.661,7.117,4.661,12.027C48.536,38.66,48.211,50.808,48.211,50.808z"/>
		<path fill="none" stroke="#000000" stroke-width="3" stroke-miterlimit="10" d="M45.755,12.502c0,2.302-0.708,4.437-1.916,6.2
			c-1.979,2.898-5.313,4.809-9.092,4.809c-3.774,0-7.107-1.911-9.089-4.809c-1.205-1.763-1.911-3.897-1.911-6.2
			c0-2.299,0.706-4.434,1.911-6.197c1.982-2.9,5.315-4.805,9.089-4.805c3.779,0,7.112,1.905,9.092,4.805
			C45.047,8.068,45.755,10.204,45.755,12.502z"/>
	</g>
	<g>
		<path fill="none" stroke="#000000" stroke-width="3" stroke-miterlimit="10" d="M67.795,50.808H48.211
			c0,0,0.306-12.148,0.306-12.227c0-4.91-1.012-9.274-4.642-12.027c2.526-1.913,5.314-3.042,8.73-3.042
			c8.326,0,15.233,6.736,15.233,15.06C67.839,38.654,67.795,50.808,67.795,50.808z"/>
		<path fill="none" stroke="#000000" stroke-width="3" stroke-miterlimit="10" d="M63.934,12.502c0,6.08-4.926,11.009-11.006,11.009
			c-3.771,0-7.107-1.911-9.088-4.809c1.208-1.763,1.916-3.897,1.916-6.2c0-2.299-0.708-4.434-1.916-6.197
			c1.98-2.9,5.317-4.805,9.088-4.805C59.007,1.5,63.934,6.425,63.934,12.502z"/>
	</g>
</g>
</svg>
