<?xml version="1.0" encoding="utf-8"?>
<!-- Generator: Adobe Illustrator 16.0.2, SVG Export Plug-In . SVG Version: 6.00 Build 0)  -->
<!DOCTYPE svg PUBLIC "-//W3C//DTD SVG 1.1//EN" "http://www.w3.org/Graphics/SVG/1.1/DTD/svg11.dtd">
<svg version="1.1" id="Layer_1" xmlns="http://www.w3.org/2000/svg" xmlns:xlink="http://www.w3.org/1999/xlink" x="0px" y="0px"
	 width="45.241px" height="45.249px" viewBox="0 0 45.241 45.249" enable-background="new 0 0 45.241 45.249" xml:space="preserve">
<g>
	<path fill="none" stroke="#000000" stroke-width="3" stroke-linejoin="round" stroke-miterlimit="10" d="M39.479,26.346
		c-4.59,4.59-11.492,5.476-16.958,2.639c-1.307-0.663-2.531-1.549-3.625-2.639c-1.09-1.093-1.978-2.318-2.639-3.625
		c-2.836-5.468-1.951-12.369,2.639-16.958c5.683-5.683,14.9-5.683,20.583,0S45.162,20.663,39.479,26.346z"/>
	<path fill="none" stroke="#000000" stroke-width="3" stroke-linejoin="round" stroke-miterlimit="10" d="M22.521,28.985
		L9.054,42.454c-1.729,1.727-4.539,1.727-6.266,0c-0.859-0.859-1.296-1.997-1.288-3.133c-0.008-1.136,0.429-2.273,1.288-3.133
		l13.469-13.467c0.661,1.307,1.549,2.531,2.639,3.625C19.989,27.436,21.214,28.322,22.521,28.985z"/>
</g>
</svg>
