<?xml version="1.0" encoding="utf-8"?>
<!-- Generator: Adobe Illustrator 16.0.2, SVG Export Plug-In . SVG Version: 6.00 Build 0)  -->
<!DOCTYPE svg PUBLIC "-//W3C//DTD SVG 1.1//EN" "http://www.w3.org/Graphics/SVG/1.1/DTD/svg11.dtd">
<svg version="1.1" xmlns="http://www.w3.org/2000/svg" xmlns:xlink="http://www.w3.org/1999/xlink" x="0px" y="0px"
	 width="70.325px" height="71.847px" viewBox="250.9 -14.689 70.325 71.847" enable-background="new 250.9 -14.689 70.325 71.847"
	 xml:space="preserve">
<g id="fond">
	<rect x="-48.933" y="-74.267" fill="#FFFFFF" width="488" height="311.333"/>
</g>
<g id="Layer_1">
	<g>
		<g>
			
				<rect x="297.115" y="-6.532" transform="matrix(-0.9551 -0.2962 0.2962 -0.9551 592.7179 119.6939)" fill="none" stroke="#000000" stroke-width="3" stroke-linecap="round" stroke-linejoin="round" stroke-miterlimit="10" width="16.621" height="42.965"/>
			
				<rect x="291.166" y="35.284" transform="matrix(-0.9551 -0.2961 0.2961 -0.9551 570.6296 165.2969)" fill="none" stroke="#000000" stroke-width="3" stroke-linecap="round" stroke-linejoin="round" stroke-miterlimit="10" width="13.335" height="8.297"/>
			
				<rect x="306.623" y="-11.527" transform="matrix(-0.9551 -0.2962 0.2962 -0.9551 613.8647 76.0408)" fill="none" stroke="#000000" stroke-width="3" stroke-linecap="round" stroke-linejoin="round" stroke-miterlimit="10" width="12.139" height="6.096"/>
			
				<rect x="291.595" y="43.236" transform="matrix(-0.9551 -0.2963 0.2963 -0.9551 564.0062 178.9673)" fill="none" stroke="#000000" stroke-width="3" stroke-linecap="round" stroke-linejoin="round" stroke-miterlimit="10" width="7.934" height="7.032"/>
			
				<polygon fill="none" stroke="#000000" stroke-width="3" stroke-linecap="round" stroke-linejoin="round" stroke-miterlimit="10" points="
				288.65,55.652 296.954,55.658 298.311,51.286 290.732,48.935 			"/>
		</g>
		
			<line fill="none" stroke="#000000" stroke-width="3" stroke-linecap="round" stroke-linejoin="round" stroke-miterlimit="10" x1="252.4" y1="55.652" x2="296.954" y2="55.652"/>
	</g>
</g>
</svg>
