<?xml version="1.0" encoding="utf-8"?>
<!-- Generator: Adobe Illustrator 16.0.2, SVG Export Plug-In . SVG Version: 6.00 Build 0)  -->
<!DOCTYPE svg PUBLIC "-//W3C//DTD SVG 1.1//EN" "http://www.w3.org/Graphics/SVG/1.1/DTD/svg11.dtd">
<svg version="1.1" id="Layer_1" xmlns="http://www.w3.org/2000/svg" xmlns:xlink="http://www.w3.org/1999/xlink" x="0px" y="0px"
	 width="300px" height="300px" viewBox="0 0 300 300" enable-background="new 0 0 300 300" xml:space="preserve">
<g>
	<path fill="none" stroke="#C1272D" stroke-width="8" stroke-linejoin="round" stroke-miterlimit="10" d="M198,82.86v38.23
		c0,16.92-9.17,31.97-21.89,41.59c-9.101,6.88-18.755,10.98-27.235,10.98c-8.93,0-20.178-4.061-29.188-10.891
		C107.018,153.15,96,138.06,96,121.09V82.86c0-29.03,21.9-52.57,51-52.57C176.1,30.29,198,53.83,198,82.86z"/>
	<path fill="none" stroke="#C1272D" stroke-width="8" stroke-linejoin="round" stroke-miterlimit="10" d="M237,235.95V282H59v-48.91
		c0-35.41,26.54-67.149,61-70.32c9.01,6.83,19.945,10.891,28.875,10.891c8.48,0,17.822-4.101,26.923-10.98
		C210.957,165.44,237,200.13,237,235.95z"/>
</g>
<polyline fill="none" stroke="#C1272D" stroke-width="8" stroke-linecap="round" stroke-linejoin="round" stroke-miterlimit="10" points="
	147,95 147,136 133,130 "/>
<path fill="none" stroke="#C1272D" stroke-width="8" stroke-linecap="round" stroke-linejoin="round" stroke-miterlimit="10" d="
	M179.325,94.888c0-7.708-6.248-13.888-13.956-13.888h-4.347c-7.708,0-13.956,6.214-13.956,13.921"/>
</svg>
