<?xml version="1.0" encoding="utf-8"?>
<!-- Generator: Adobe Illustrator 16.0.2, SVG Export Plug-In . SVG Version: 6.00 Build 0)  -->
<!DOCTYPE svg PUBLIC "-//W3C//DTD SVG 1.1//EN" "http://www.w3.org/Graphics/SVG/1.1/DTD/svg11.dtd">
<svg version="1.1" id="Layer_1" xmlns="http://www.w3.org/2000/svg" xmlns:xlink="http://www.w3.org/1999/xlink" x="0px" y="0px"
	 width="53px" height="65.789px" viewBox="0 0 53 65.789" enable-background="new 0 0 53 65.789" xml:space="preserve">
<g>
	<g>
		<path fill="none" stroke="#000000" stroke-width="3" stroke-miterlimit="10" d="M19.079,6.977l-0.03,8.313H8.131L8.098,7.027l0,0
			C8.142,3.908,10.522,1.5,13.559,1.5C16.617,1.5,19.079,3.918,19.079,6.977z"/>
		<path fill="none" stroke="#000000" stroke-width="3" stroke-miterlimit="10" d="M40.892,9.468c0-3.062-2.284-5.394-5.345-5.394
			c-3.034,0-5.008,2.471-5.047,5.59l0,0v13.281l0,0c0,0,0,0.159,0,0.211c0,3.063,2.174,5.571,5.234,5.571s5.224-2.568,5.224-5.63
			C40.958,22.964,40.892,9.603,40.892,9.468z"/>
		<path fill="none" stroke="#000000" stroke-width="3" stroke-miterlimit="10" d="M51.958,12.881c0-3.059-2.766-5.569-5.42-5.569
			c-2.627,0-5.58,2.315-5.58,5.436l0,0v10.14l0,0c0,0,0,0.159,0,0.211c0,3.063,2.93,5.571,5.58,5.571c2.654,0,5.42-2.453,5.42-5.515
			C51.958,23.021,51.958,13.017,51.958,12.881z"/>
		<path fill="none" stroke="#000000" stroke-width="3" stroke-miterlimit="10" d="M24.924,27.418
			c4.196,1.98,7.098,6.251,7.098,11.197"/>
		<path fill="none" stroke="#000000" stroke-width="3" stroke-miterlimit="10" d="M24.597,15.289H7.377
			c-3.063,0-5.596,2.643-5.596,5.705l-0.043,0.064L1.5,34.257v0.198c0,6.083,4.773,11.778,10.857,11.778"/>
		<path fill="none" stroke="#000000" stroke-width="3" stroke-miterlimit="10" d="M13,27.508c0,0,11.688,0.015,11.758,0.015
			c2.965-0.111,5.391-3.132,5.391-6.122v-0.43c0-3.063-2.492-5.682-5.552-5.682h-5.548l0.03-8.262l0,0
			c0.046-3.119,2.702-5.365,5.739-5.365c3.063,0,5.682,2.575,5.682,5.634v17.219"/>
		<path fill="none" stroke="#000000" stroke-width="3" stroke-miterlimit="10" d="M49.464,27.696l0.036,7.229v0.198
			c0,6.083-4.115,11.063-9.404,11.063"/>
		<line fill="none" stroke="#000000" stroke-width="3" stroke-miterlimit="10" x1="12.357" y1="46.233" x2="25" y2="46.233"/>
		<line fill="none" stroke="#000000" stroke-width="3" stroke-miterlimit="10" x1="40.502" y1="46.186" x2="33.703" y2="46.186"/>
		<polyline fill="none" stroke="#000000" stroke-width="3" stroke-miterlimit="10" points="39.5,46.186 39.5,64.289 13.5,64.289 
			13.5,46.233 		"/>
	</g>
</g>
</svg>
