<svg width="35" height="46" viewBox="0 0 35 46" fill="none" xmlns="http://www.w3.org/2000/svg">
<path d="M35 46H0C0 46 0 37.7105 0 37.6555C0 34.2378 2.41439 31.0351 6.89843 29.1195C10.0233 27.788 13.8265 27 18.0437 27C22.2658 27 26.1196 27.788 29.2408 29.1175C33.7286 31.033 35 34.0714 35 37.4891C34.9988 37.5441 35 46 35 46Z" fill="white"/>
<path d="M29.008 11.002C29.008 13.304 28.3 15.439 27.092 17.202C25.113 20.1 21.779 22.011 18 22.011C14.226 22.011 10.893 20.1 8.911 17.202C7.706 15.439 7 13.305 7 11.002C7 8.703 7.706 6.568 8.911 4.805C10.893 1.905 14.226 0 18 0C21.779 0 25.112 1.905 27.092 4.805C28.3 6.568 29.008 8.704 29.008 11.002Z" fill="white"/>
</svg>
