<?xml version="1.0" encoding="utf-8"?>
<!-- Generator: Adobe Illustrator 16.0.2, SVG Export Plug-In . SVG Version: 6.00 Build 0)  -->
<!DOCTYPE svg PUBLIC "-//W3C//DTD SVG 1.1//EN" "http://www.w3.org/Graphics/SVG/1.1/DTD/svg11.dtd">
<svg version="1.1" id="Layer_1" xmlns="http://www.w3.org/2000/svg" xmlns:xlink="http://www.w3.org/1999/xlink" x="0px" y="0px"
	 width="49px" height="49px" viewBox="0 0 49 49" enable-background="new 0 0 49 49" xml:space="preserve">
<g>
	
		<rect x="1.5" y="1.5" fill="none" stroke="#000000" stroke-width="3" stroke-linecap="round" stroke-linejoin="round" stroke-miterlimit="10" width="46" height="46"/>
	<g>
		
			<path fill-rule="evenodd" clip-rule="evenodd" fill="none" stroke="#000000" stroke-width="3" stroke-linecap="round" stroke-linejoin="round" stroke-miterlimit="10" d="
			M5.884,37.159c4.175,0.388,7.821-0.633,11.13-3.082c-0.453-0.193-0.881-0.143-1.283-0.236c-2.646-0.616-4.494-2.171-5.551-4.669
			c-0.054-0.127-0.184-0.287-0.08-0.406c0.102-0.114,0.277-0.02,0.421-0.003c0.913,0.101,1.819,0.101,2.812-0.2
			c-1.264-0.334-2.346-0.829-3.266-1.619c-1.684-1.448-2.601-3.282-2.701-5.516c-0.019-0.385,0.121-0.362,0.387-0.233
			c0.889,0.429,1.824,0.691,2.943,0.746c-0.719-0.589-1.334-1.12-1.795-1.789c-1.754-2.531-1.971-5.197-0.686-7.992
			c0.159-0.345,0.276-0.339,0.523-0.052c3.223,3.777,7.277,6.172,12.129,7.211c0.943,0.202,1.898,0.331,2.863,0.385
			c0.323,0.019,0.373-0.032,0.322-0.356c-0.431-2.659,0.303-4.959,2.229-6.844c2.89-2.826,7.612-2.829,10.518-0.016
			c0.232,0.225,0.433,0.284,0.733,0.21c1.293-0.316,2.537-0.761,3.717-1.379c0.186-0.098,0.37-0.198,0.674-0.36
			c-0.587,1.83-1.696,3.099-3.217,4.166c1.484-0.174,2.807-0.557,4.131-1.118c0.006,0.215-0.119,0.323-0.205,0.443
			c-0.881,1.214-1.906,2.287-3.107,3.187c-0.23,0.172-0.33,0.349-0.33,0.649c0.044,5.881-1.873,11.05-5.777,15.438
			c-2.951,3.316-6.652,5.419-10.996,6.334c-5.645,1.188-10.988,0.371-15.988-2.541C6.285,37.43,6.144,37.329,5.884,37.159z"/>
	</g>
</g>
</svg>
