<svg id="Layer_1" data-name="Layer 1" xmlns="http://www.w3.org/2000/svg" viewBox="0 0 81 81"><path d="M17.27,25.48h4.37V36.94H10.11V27.27q0-7.08,3.44-10.17t9.81-3.22l.93,4.51Q16.7,19.19,17.27,25.48Zm18.19,0h4.37V36.94H28.3V27.27q0-7.08,3.44-10.17t9.8-3.22l.94,4.51Q34.89,19.19,35.46,25.48Z"/><path d="M45.54,55.52H41.17V44.06H52.7v9.67c0,4.72-1.14,8.13-3.44,10.2s-5.56,3.14-9.8,3.19l-.94-4.51Q46.11,61.82,45.54,55.52Zm18.19,0H59.36V44.06H70.89v9.67c0,4.72-1.15,8.13-3.44,10.2s-5.56,3.14-9.81,3.19l-.93-4.51Q64.3,61.82,63.73,55.52Z"/></svg>