<svg id="Layer_1" data-name="Layer 1" xmlns="http://www.w3.org/2000/svg" viewBox="0 0 81 81"><defs><style>.cls-1,.cls-3{fill:none;}.cls-1,.cls-2{stroke:#000;}.cls-1,.cls-2,.cls-3{stroke-miterlimit:10;stroke-width:3px;}.cls-3{stroke:#fff;}</style></defs><path class="cls-1" d="M49.2,45.56h0a9,9,0,0,1-12.07,4L24.6,43.35a9,9,0,0,1-4-12.07h0a9,9,0,0,1,12.07-4l12.53,6.25a9,9,0,0,1,3.89,3.76"/><path class="cls-1" d="M42.05,46.46h0a9,9,0,0,1,12.07-4l12.53,6.25a9,9,0,0,1,4,12.07h0a9,9,0,0,1-12.07,4L46.08,58.53a8.93,8.93,0,0,1-4-3.92"/><circle class="cls-2" cx="20.75" cy="22.53" r="11.5"/><line class="cls-3" x1="20.75" y1="16.03" x2="20.75" y2="29.03"/><line class="cls-3" x1="27.25" y1="22.53" x2="14.25" y2="22.53"/></svg>