<svg width="25" height="25" viewBox="0 0 25 25" fill="none" xmlns="http://www.w3.org/2000/svg">
<path d="M12.9067 6.34326C12.9067 6.34326 13.4007 4.81426 17.6237 4.65626C17.7096 4.64815 17.7963 4.65715 17.8788 4.68272C17.9612 4.70829 18.0378 4.74993 18.1041 4.80524C18.1704 4.86056 18.2251 4.92845 18.265 5.005C18.3049 5.08155 18.3293 5.16525 18.3367 5.25126V11.5243C18.3207 11.6907 18.2412 11.8446 18.1148 11.9541C17.9884 12.0636 17.8247 12.1202 17.6577 12.1123C13.4067 12.2633 12.9067 13.8003 12.9067 13.8003M12.9067 6.34326V13.8003M12.9067 6.34326C12.9067 6.34326 12.4137 4.81426 8.19066 4.65626C8.10471 4.64815 8.018 4.65715 7.93554 4.68272C7.85309 4.70829 7.77651 4.74993 7.71022 4.80524C7.64394 4.86056 7.58926 4.92845 7.54935 5.005C7.50943 5.08155 7.48507 5.16525 7.47766 5.25126V11.5243C7.49365 11.6907 7.57309 11.8446 7.69951 11.9541C7.82592 12.0636 7.98962 12.1202 8.15666 12.1123C12.4067 12.2633 12.9067 13.8003 12.9067 13.8003M1.70166 16.8173H24.2017M5.70166 20.3173H20.2017M8.70166 19.3173V21.3173M3.70166 1.31726H22.2017C23.3062 1.31726 24.2017 2.21269 24.2017 3.31726V21.8173C24.2017 22.9218 23.3062 23.8173 22.2017 23.8173H3.70166C2.59709 23.8173 1.70166 22.9218 1.70166 21.8173V3.31726C1.70166 2.21269 2.59709 1.31726 3.70166 1.31726Z" stroke="#7D7898" stroke-width="1.5" stroke-linecap="round" stroke-linejoin="round"/>
</svg>
