<svg width="24" height="25" viewBox="0 0 24 25" fill="none" xmlns="http://www.w3.org/2000/svg">
<path d="M8 1V4M8 7.5V12M8 20.5V23.5M17 23.5V20.5M17 17V12.5M17 4V1M17 7.5V9M8 15.5V17M3.5 1H21.5C22.3284 1 23 1.67157 23 2.5V22C23 22.8284 22.3284 23.5 21.5 23.5H3.5C2.67157 23.5 2 22.8284 2 22V2.5C2 1.67157 2.67157 1 3.5 1ZM10.5 5.75C10.5 6.21413 10.3156 6.65925 9.98744 6.98744C9.65925 7.31563 9.21413 7.5 8.75 7.5H7.25C6.78587 7.5 6.34075 7.31563 6.01256 6.98744C5.68437 6.65925 5.5 6.21413 5.5 5.75C5.5 5.28587 5.68437 4.84075 6.01256 4.51256C6.34075 4.18437 6.78587 4 7.25 4H8.75C9.21413 4 9.65925 4.18437 9.98744 4.51256C10.3156 4.84075 10.5 5.28587 10.5 5.75ZM10.5 13.75C10.5 14.2141 10.3156 14.6592 9.98744 14.9874C9.65925 15.3156 9.21413 15.5 8.75 15.5H7.25C6.78587 15.5 6.34075 15.3156 6.01256 14.9874C5.68437 14.6592 5.5 14.2141 5.5 13.75C5.5 13.2859 5.68437 12.8408 6.01256 12.5126C6.34075 12.1844 6.78587 12 7.25 12H8.75C9.21413 12 9.65925 12.1844 9.98744 12.5126C10.3156 12.8408 10.5 13.2859 10.5 13.75ZM10.5 18.75C10.5 19.2141 10.3156 19.6592 9.98744 19.9874C9.65925 20.3156 9.21413 20.5 8.75 20.5H7.25C6.78587 20.5 6.34075 20.3156 6.01256 19.9874C5.68437 19.6592 5.5 19.2141 5.5 18.75C5.5 18.2859 5.68437 17.8408 6.01256 17.5126C6.34075 17.1844 6.78587 17 7.25 17H8.75C9.21413 17 9.65925 17.1844 9.98744 17.5126C10.3156 17.8408 10.5 18.2859 10.5 18.75ZM19.5 18.75C19.5 18.2859 19.3156 17.8408 18.9874 17.5126C18.6592 17.1844 18.2141 17 17.75 17H16.25C15.7859 17 15.3408 17.1844 15.0126 17.5126C14.6844 17.8408 14.5 18.2859 14.5 18.75C14.5 19.2141 14.6844 19.6592 15.0126 19.9874C15.3408 20.3156 15.7859 20.5 16.25 20.5H17.75C18.2141 20.5 18.6592 20.3156 18.9874 19.9874C19.3156 19.6592 19.5 19.2141 19.5 18.75ZM19.5 10.75C19.5 10.2859 19.3156 9.84075 18.9874 9.51256C18.6592 9.18437 18.2141 9 17.75 9H16.25C15.7859 9 15.3408 9.18437 15.0126 9.51256C14.6844 9.84075 14.5 10.2859 14.5 10.75C14.5 11.2141 14.6844 11.6592 15.0126 11.9874C15.3408 12.3156 15.7859 12.5 16.25 12.5H17.75C18.2141 12.5 18.6592 12.3156 18.9874 11.9874C19.3156 11.6592 19.5 11.2141 19.5 10.75ZM19.5 5.75C19.5 5.28587 19.3156 4.84075 18.9874 4.51256C18.6592 4.18437 18.2141 4 17.75 4H16.25C15.7859 4 15.3408 4.18437 15.0126 4.51256C14.6844 4.84075 14.5 5.28587 14.5 5.75C14.5 6.21413 14.6844 6.65925 15.0126 6.98744C15.3408 7.31563 15.7859 7.5 16.25 7.5H17.75C18.2141 7.5 18.6592 7.31563 18.9874 6.98744C19.3156 6.65925 19.5 6.21413 19.5 5.75Z" stroke="#7D7898" stroke-width="1.5" stroke-linecap="round" stroke-linejoin="round"/>
</svg>
