<svg width="25" height="25" viewBox="0 0 25 25" fill="none" xmlns="http://www.w3.org/2000/svg">
<path d="M8.5 18.25C8.91421 18.25 9.25 17.9142 9.25 17.5C9.25 17.0858 8.91421 16.75 8.5 16.75V18.25ZM1 16H0.25H1ZM1 4H0.25H1ZM2.5 2.5V1.75V2.5ZM16.75 8.5C16.75 8.91421 17.0858 9.25 17.5 9.25C17.9142 9.25 18.25 8.91421 18.25 8.5H16.75ZM4.75 4C4.75 4.41421 5.08579 4.75 5.5 4.75C5.91421 4.75 6.25 4.41421 6.25 4H4.75ZM6.25 1C6.25 0.585786 5.91421 0.25 5.5 0.25C5.08579 0.25 4.75 0.585786 4.75 1H6.25ZM12.25 4C12.25 4.41421 12.5858 4.75 13 4.75C13.4142 4.75 13.75 4.41421 13.75 4H12.25ZM13.75 1C13.75 0.585786 13.4142 0.25 13 0.25C12.5858 0.25 12.25 0.585786 12.25 1H13.75ZM18.25 14.5C18.25 14.0858 17.9142 13.75 17.5 13.75C17.0858 13.75 16.75 14.0858 16.75 14.5H18.25ZM16.75 20.5C16.75 20.9142 17.0858 21.25 17.5 21.25C17.9142 21.25 18.25 20.9142 18.25 20.5H16.75ZM14.5 16.75C14.0858 16.75 13.75 17.0858 13.75 17.5C13.75 17.9142 14.0858 18.25 14.5 18.25V16.75ZM20.5 18.25C20.9142 18.25 21.25 17.9142 21.25 17.5C21.25 17.0858 20.9142 16.75 20.5 16.75V18.25ZM8.5 16.75H2.5V18.25H8.5V16.75ZM2.5 16.75C2.30109 16.75 2.11032 16.671 1.96967 16.5303L0.90901 17.591C1.33097 18.0129 1.90326 18.25 2.5 18.25V16.75ZM1.96967 16.5303C1.82902 16.3897 1.75 16.1989 1.75 16H0.25C0.25 16.5967 0.487053 17.169 0.90901 17.591L1.96967 16.5303ZM1.75 16V4H0.25V16H1.75ZM1.75 4C1.75 3.80109 1.82902 3.61032 1.96967 3.46967L0.90901 2.40901C0.487053 2.83097 0.25 3.40326 0.25 4H1.75ZM1.96967 3.46967C2.11032 3.32902 2.30109 3.25 2.5 3.25V1.75C1.90326 1.75 1.33097 1.98705 0.90901 2.40901L1.96967 3.46967ZM2.5 3.25H16V1.75H2.5V3.25ZM16 3.25C16.1989 3.25 16.3897 3.32902 16.5303 3.46967L17.591 2.40901C17.169 1.98705 16.5967 1.75 16 1.75V3.25ZM16.5303 3.46967C16.671 3.61032 16.75 3.80109 16.75 4H18.25C18.25 3.40326 18.0129 2.83097 17.591 2.40901L16.5303 3.46967ZM16.75 4V8.5H18.25V4H16.75ZM1 7.75H17.5V6.25H1V7.75ZM6.25 4V1H4.75V4H6.25ZM13.75 4V1H12.25V4H13.75ZM10.75 17.5C10.75 19.2902 11.4612 21.0071 12.727 22.273L13.7877 21.2123C12.8031 20.2277 12.25 18.8924 12.25 17.5H10.75ZM12.727 22.273C13.9929 23.5388 15.7098 24.25 17.5 24.25V22.75C16.1076 22.75 14.7723 22.1969 13.7877 21.2123L12.727 22.273ZM17.5 24.25C19.2902 24.25 21.0071 23.5388 22.273 22.273L21.2123 21.2123C20.2277 22.1969 18.8924 22.75 17.5 22.75V24.25ZM22.273 22.273C23.5388 21.0071 24.25 19.2902 24.25 17.5H22.75C22.75 18.8924 22.1969 20.2277 21.2123 21.2123L22.273 22.273ZM24.25 17.5C24.25 15.7098 23.5388 13.9929 22.273 12.727L21.2123 13.7877C22.1969 14.7723 22.75 16.1076 22.75 17.5H24.25ZM22.273 12.727C21.0071 11.4612 19.2902 10.75 17.5 10.75V12.25C18.8924 12.25 20.2277 12.8031 21.2123 13.7877L22.273 12.727ZM17.5 10.75C15.7098 10.75 13.9929 11.4612 12.727 12.727L13.7877 13.7877C14.7723 12.8031 16.1076 12.25 17.5 12.25V10.75ZM12.727 12.727C11.4612 13.9929 10.75 15.7098 10.75 17.5H12.25C12.25 16.1076 12.8031 14.7723 13.7877 13.7877L12.727 12.727ZM16.75 14.5V20.5H18.25V14.5H16.75ZM14.5 18.25H20.5V16.75H14.5V18.25Z" fill="#7D7898"/>
</svg>
