<svg width="26" height="24" viewBox="0 0 26 24" fill="none" xmlns="http://www.w3.org/2000/svg">
<path d="M11.9025 20.3518V22.1887C11.9025 22.3332 11.942 22.4747 12.0164 22.5966C12.0907 22.7185 12.1968 22.8158 12.3222 22.8771C12.4476 22.9384 12.5872 22.9612 12.7246 22.9427C12.8619 22.9242 12.9914 22.8652 13.0978 22.7728L16.0132 20.2376C16.0954 20.1664 16.1615 20.0771 16.2069 19.9761C16.2522 19.8752 16.2757 19.765 16.2756 19.6535V12.1749C18.6141 11.6773 20.7325 10.3952 22.3075 8.52396C23.8824 6.65275 24.8275 4.29528 24.9985 1.81124C25.005 1.70739 24.991 1.60325 24.9575 1.50524C24.9239 1.40724 24.8714 1.31746 24.8033 1.24144C24.7352 1.16541 24.6529 1.10477 24.5614 1.06324C24.47 1.02172 24.3713 1.00019 24.2716 1H3.91038C3.8106 1.00005 3.71189 1.02147 3.62037 1.06295C3.52885 1.10442 3.44646 1.16506 3.37832 1.24112C3.31017 1.31717 3.25771 1.40701 3.2242 1.50508C3.19068 1.60315 3.17682 1.70736 3.18347 1.81124C3.22711 2.44523 3.32116 3.07098 3.46324 3.6825M4.27285 12.9526H9.7274M7.00016 10.1067V15.7984M12.8636 12.8814C12.8636 16.2999 10.2079 19.0712 6.93182 19.0712C3.65577 19.0712 1 16.2999 1 12.8814C1 9.46295 3.65577 6.69172 6.93182 6.69172C10.2079 6.69172 12.8636 9.46295 12.8636 12.8814Z" stroke="#7D7898" stroke-width="1.5" stroke-linecap="round" stroke-linejoin="round"/>
</svg>
