<svg width="24" height="24" viewBox="0 0 24 24" fill="none" xmlns="http://www.w3.org/2000/svg">
<path d="M16.8 13.92V19.68M13.92 16.8H19.68M0.959961 16.8C0.960691 15.7287 1.22688 14.6743 1.73474 13.7311C2.24259 12.7879 2.97628 11.9852 3.87019 11.3948C4.76411 10.8044 5.79039 10.4448 6.85729 10.348C7.92418 10.2513 8.99842 10.4204 9.98396 10.8403M11.04 16.8C11.04 18.3277 11.6468 19.7927 12.727 20.8729C13.8072 21.9532 15.2723 22.56 16.8 22.56C18.3276 22.56 19.7927 21.9532 20.8729 20.8729C21.9531 19.7927 22.56 18.3277 22.56 16.8C22.56 15.2724 21.9531 13.8073 20.8729 12.7271C19.7927 11.6469 18.3276 11.04 16.8 11.04C15.2723 11.04 13.8072 11.6469 12.727 12.7271C11.6468 13.8073 11.04 15.2724 11.04 16.8ZM3.47996 4.92001C3.47996 5.97026 3.89717 6.97751 4.63982 7.72015C5.38246 8.46279 6.3897 8.88001 7.43996 8.88001C8.49022 8.88001 9.49746 8.46279 10.2401 7.72015C10.9827 6.97751 11.4 5.97026 11.4 4.92001C11.4 3.86975 10.9827 2.86251 10.2401 2.11986C9.49746 1.37722 8.49022 0.960007 7.43996 0.960007C6.3897 0.960007 5.38246 1.37722 4.63982 2.11986C3.89717 2.86251 3.47996 3.86975 3.47996 4.92001Z" stroke="#7D7898" stroke-width="1.5" stroke-linecap="round" stroke-linejoin="round"/>
</svg>
