<svg width="24" height="24" viewBox="0 0 24 24" fill="none" xmlns="http://www.w3.org/2000/svg">
<path d="M12.2793 5.87365C14.5916 5.4088 16.4533 3.52447 16.9189 1.15234C17.3844 3.52447 19.2457 5.4088 21.558 5.87365M21.558 5.87635C19.2457 6.3412 17.384 8.22553 16.9184 10.5977C16.4529 8.22553 14.5916 6.3412 12.2793 5.87635M12.7227 2.23957C11.6766 1.5537 10.4335 1.15234 9.1101 1.15234C5.4737 1.15234 2.44336 4.18268 2.44336 7.81908C2.44336 9.63728 3.17064 11.3343 4.38277 12.4252C5.4737 13.5161 6.07976 15.0919 6.07976 16.6677V18.7283C6.07976 20.0616 7.17068 21.1526 8.50403 21.1526H9.71617C11.0495 21.1526 12.1404 20.0616 12.1404 18.7283V16.6677C12.1404 15.0919 12.7465 13.5161 13.8374 12.4252C14.0672 12.2184 14.2796 11.9898 14.4729 11.7427M9.11133 21.1523V22.8493M6.08008 16.3047H12.1408" stroke="#7D7898" stroke-width="1.5" stroke-miterlimit="10" stroke-linecap="round" stroke-linejoin="round"/>
</svg>
