<svg width="24" height="25" viewBox="0 0 24 25" fill="none" xmlns="http://www.w3.org/2000/svg">
<path d="M10 22C10.127 22.4327 10.3908 22.8126 10.7518 23.0828C11.1127 23.3531 11.5516 23.4992 12.0025 23.4992C12.4534 23.4992 12.8923 23.3531 13.2532 23.0828C13.6142 22.8126 13.878 22.4327 14.005 22M12 3.25V1M12 3.25C13.9891 3.25 15.8968 4.04018 17.3033 5.4467C18.7098 6.85322 19.5 8.76088 19.5 10.75C19.5 17.796 21 19 21 19H3C3 19 4.5 17.084 4.5 10.75C4.5 8.76088 5.29018 6.85322 6.6967 5.4467C8.10322 4.04018 10.0109 3.25 12 3.25Z" stroke="#7D7898" stroke-width="1.5" stroke-linecap="round" stroke-linejoin="round"/>
</svg>
