<svg width="25" height="25" viewBox="0 0 25 25" fill="none" xmlns="http://www.w3.org/2000/svg">
<path d="M12.2139 15.9506C12.2139 16.3648 12.5497 16.7006 12.9639 16.7006C13.3781 16.7006 13.7139 16.3648 13.7139 15.9506H12.2139ZM13.7139 8.45056C13.7139 8.03635 13.3781 7.70056 12.9639 7.70056C12.5497 7.70056 12.2139 8.03635 12.2139 8.45056H13.7139ZM14.5849 1.96057L15.2581 1.63008L15.2581 1.62996L14.5849 1.96057ZM13.9188 1.22389L14.3153 0.587312L14.3153 0.587311L13.9188 1.22389ZM12.009 1.22389L11.6124 0.587311L11.6124 0.587312L12.009 1.22389ZM11.3429 1.96057L10.6697 1.62996L10.6696 1.63008L11.3429 1.96057ZM1.86988 21.2586L2.54297 21.5894L2.54314 21.5891L1.86988 21.2586ZM1.71578 22.0059L2.46484 21.9682L2.46484 21.9682L1.71578 22.0059ZM1.944 22.734L2.58055 22.3373L2.58047 22.3372L1.944 22.734ZM2.49711 23.2597L2.86096 22.6038L2.86095 22.6038L2.49711 23.2597ZM3.23588 23.4506V22.7006H3.2353L3.23588 23.4506ZM22.6919 23.4506L22.6924 22.7006H22.6919V23.4506ZM23.4307 23.2597L23.7944 23.9155L23.7946 23.9155L23.4307 23.2597ZM23.9838 22.734L23.3473 22.3372L23.3472 22.3373L23.9838 22.734ZM24.212 22.0059L23.4629 21.9681L23.4629 21.9681L24.212 22.0059ZM24.0579 21.2586L23.3846 21.5891L23.3847 21.5893L24.0579 21.2586ZM12.9639 18.9506C13.171 18.9506 13.3389 19.1184 13.3389 19.3256H11.8389C11.8389 19.9469 12.3426 20.4506 12.9639 20.4506V18.9506ZM13.3389 19.3256C13.3389 19.5327 13.171 19.7006 12.9639 19.7006V18.2006C12.3426 18.2006 11.8389 18.7042 11.8389 19.3256H13.3389ZM12.9639 20.4506C13.5852 20.4506 14.0889 19.9469 14.0889 19.3256H12.5889C12.5889 19.1184 12.7568 18.9506 12.9639 18.9506V20.4506ZM14.0889 19.3256C14.0889 18.7042 13.5852 18.2006 12.9639 18.2006V19.7006C12.7568 19.7006 12.5889 19.5327 12.5889 19.3256H14.0889ZM13.7139 15.9506V8.45056H12.2139V15.9506H13.7139ZM15.2581 1.62996C15.0474 1.20107 14.7208 0.839885 14.3153 0.587312L13.5222 1.86047C13.6898 1.96486 13.8247 2.11409 13.9117 2.29118L15.2581 1.62996ZM14.3153 0.587311C13.9098 0.334697 13.4416 0.200806 12.9639 0.200806V1.70081C13.1613 1.70081 13.3547 1.75613 13.5222 1.86047L14.3153 0.587311ZM12.9639 0.200806C12.4861 0.200806 12.0179 0.334697 11.6124 0.587311L12.4055 1.86047C12.573 1.75613 12.7664 1.70081 12.9639 1.70081V0.200806ZM11.6124 0.587312C11.207 0.839885 10.8803 1.20107 10.6697 1.62996L12.0161 2.29118C12.103 2.11409 12.238 1.96486 12.4055 1.86047L11.6124 0.587312ZM10.6696 1.63008L1.19662 20.9281L2.54314 21.5891L12.0161 2.29106L10.6696 1.63008ZM1.19679 20.9277C1.02656 21.2741 0.94736 21.6581 0.966729 22.0435L2.46484 21.9682C2.45827 21.8374 2.48514 21.7071 2.54297 21.5894L1.19679 20.9277ZM0.966728 22.0435C0.986091 22.429 1.10336 22.8032 1.30754 23.1307L2.58047 22.3372C2.51124 22.2262 2.47142 22.0992 2.46484 21.9682L0.966728 22.0435ZM1.30746 23.1306C1.51159 23.4582 1.79583 23.7283 2.13327 23.9155L2.86095 22.6038C2.74631 22.5402 2.64982 22.4485 2.58055 22.3373L1.30746 23.1306ZM2.13326 23.9155C2.47078 24.1027 2.85047 24.2009 3.23646 24.2006L3.2353 22.7006C3.10432 22.7007 2.97549 22.6674 2.86096 22.6038L2.13326 23.9155ZM3.23588 24.2006H22.6919V22.7006H3.23588V24.2006ZM22.6913 24.2006C23.0773 24.2009 23.4569 24.1027 23.7944 23.9155L23.0669 22.6038C22.9522 22.6674 22.8234 22.7007 22.6924 22.7006L22.6913 24.2006ZM23.7946 23.9155C24.1319 23.7283 24.4162 23.4582 24.6203 23.1306L23.3472 22.3373C23.278 22.4485 23.1815 22.5402 23.0668 22.6039L23.7946 23.9155ZM24.6202 23.1307C24.8245 22.8031 24.9416 22.4289 24.961 22.0436L23.4629 21.9681C23.4563 22.0992 23.4165 22.2262 23.3473 22.3372L24.6202 23.1307ZM24.961 22.0436C24.9804 21.658 24.9011 21.274 24.731 20.9278L23.3847 21.5893C23.4426 21.7071 23.4695 21.8375 23.4629 21.9681L24.961 22.0436ZM24.7311 20.9281L15.2581 1.63008L13.9116 2.29106L23.3846 21.5891L24.7311 20.9281Z" fill="#7D7898"/>
</svg>
