<svg width="25" height="25" viewBox="0 0 25 25" fill="none" xmlns="http://www.w3.org/2000/svg">
<path d="M7.29992 5.4133L3.28992 9.4233M14.7299 6.6133L10.0599 5.3733M20.8099 3.1833L17.2299 5.9833M1.16992 23.5433H23.6699M10.1699 4.7933C10.1699 5.62173 9.49835 6.2933 8.66992 6.2933C7.84149 6.2933 7.16992 5.62173 7.16992 4.7933C7.16992 3.96488 7.84149 3.2933 8.66992 3.2933C9.49835 3.2933 10.1699 3.96488 10.1699 4.7933ZM23.6699 2.5433C23.6699 3.37173 22.9983 4.0433 22.1699 4.0433C21.3415 4.0433 20.6699 3.37173 20.6699 2.5433C20.6699 1.71488 21.3415 1.0433 22.1699 1.0433C22.9983 1.0433 23.6699 1.71488 23.6699 2.5433ZM17.6699 7.0433C17.6699 7.87173 16.9983 8.5433 16.1699 8.5433C15.3415 8.5433 14.6699 7.87173 14.6699 7.0433C14.6699 6.21488 15.3415 5.5433 16.1699 5.5433C16.9983 5.5433 17.6699 6.21488 17.6699 7.0433ZM4.16992 10.7933C4.16992 11.6217 3.49835 12.2933 2.66992 12.2933C1.84149 12.2933 1.16992 11.6217 1.16992 10.7933C1.16992 9.96488 1.84149 9.2933 2.66992 9.2933C3.49835 9.2933 4.16992 9.96488 4.16992 10.7933ZM6.41992 18.0433H3.41992C3.22181 18.0459 3.03255 18.1257 2.89246 18.2658C2.75236 18.4059 2.67251 18.5952 2.66992 18.7933V23.5433H7.16992V18.7933C7.16992 18.5944 7.0909 18.4036 6.95025 18.263C6.8096 18.1223 6.61883 18.0433 6.41992 18.0433ZM13.9199 11.0433H10.9199C10.7218 11.0459 10.5326 11.1257 10.3925 11.2658C10.2524 11.4059 10.1725 11.5952 10.1699 11.7933V23.5433H14.6699V11.7933C14.6699 11.5944 14.5909 11.4036 14.4503 11.263C14.3096 11.1223 14.1188 11.0433 13.9199 11.0433ZM21.4199 15.0433H18.4199C18.2218 15.0459 18.0326 15.1257 17.8925 15.2658C17.7524 15.4059 17.6725 15.5952 17.6699 15.7933V23.5433H22.1699V15.7933C22.1699 15.5944 22.0909 15.4036 21.9503 15.263C21.8096 15.1223 21.6188 15.0433 21.4199 15.0433Z" stroke="#7D7898" stroke-width="1.5" stroke-linecap="round" stroke-linejoin="round"/>
</svg>
