<svg width="25" height="25" viewBox="0 0 25 25" fill="none" xmlns="http://www.w3.org/2000/svg">
<path d="M22 5.5V1M22 1H17.5M22 1L16.95 6.05C16.6627 6.33794 16.3023 6.54219 15.9077 6.64085C15.5131 6.73951 15.099 6.72884 14.71 6.61L9 5.09C8.61925 4.98708 8.21808 4.98651 7.83705 5.08835C7.45601 5.19019 7.10862 5.39084 6.83 5.67L1 11.5M1 23.5H23.5M6.25 17H3.25C3.05189 17.0026 2.86263 17.0824 2.72253 17.2225C2.58244 17.3626 2.50259 17.5519 2.5 17.75V23.5H7V17.75C6.99741 17.5519 6.91756 17.3626 6.77747 17.2225C6.63737 17.0824 6.44811 17.0026 6.25 17ZM13.75 10.5H10.75C10.5519 10.5026 10.3626 10.5824 10.2225 10.7225C10.0824 10.8626 10.0026 11.0519 10 11.25V23.5H14.5V11.25C14.4974 11.0519 14.4176 10.8626 14.2775 10.7225C14.1374 10.5824 13.9481 10.5026 13.75 10.5ZM21.25 14H18.25C18.0519 14.0026 17.8626 14.0824 17.7225 14.2225C17.5824 14.3626 17.5026 14.5519 17.5 14.75V23.5H22V14.75C21.9974 14.5519 21.9176 14.3626 21.7775 14.2225C21.6374 14.0824 21.4481 14.0026 21.25 14Z" stroke="#7D7898" stroke-width="1.5" stroke-linecap="round" stroke-linejoin="round"/>
</svg>
