<svg width="24" height="26" viewBox="0 0 24 26" fill="none" xmlns="http://www.w3.org/2000/svg">
<path d="M20.245 25.1875V18.109M18.938 18.109H21.551M18.938 25.1875H21.551M11.097 25.1875V22.3556M1.94896 25.1875L2.68596 19.8586C2.75754 19.3754 2.98568 18.9356 3.32948 18.6182C3.67328 18.3007 4.11023 18.1263 4.56196 18.1263C5.0137 18.1263 5.45065 18.3007 5.79445 18.6182C6.13825 18.9356 6.36639 19.3754 6.43797 19.8586L7.17597 25.1875M2.29196 22.7099H6.83297M16.694 14.859C18.0933 14.8845 19.4447 14.3068 20.451 13.2531C21.4573 12.1993 22.036 10.7557 22.06 9.23972C22.0358 7.72395 21.4569 6.28062 20.4507 5.22709C19.4444 4.17355 18.0932 3.59605 16.694 3.62155C16.2399 3.62151 15.7876 3.68154 15.347 3.8003C14.9377 2.89758 14.3015 2.1383 13.5117 1.60976C12.7218 1.08122 11.8103 0.804865 10.882 0.812471C9.67076 0.792976 8.49658 1.2647 7.58998 2.13501C6.68337 3.00532 6.10983 4.21135 5.98196 5.5163C4.89353 5.60765 3.87576 6.13585 3.12795 6.99748C2.38013 7.85911 1.95613 8.99211 1.93896 10.1746C1.95948 11.4376 2.44187 12.64 3.28017 13.5179C4.11848 14.3958 5.24416 14.8774 6.40996 14.8568L16.694 14.859ZM11.1 22.3556H13.06C13.5798 22.3556 14.0783 22.1319 14.4459 21.7337C14.8135 21.3355 15.02 20.7954 15.02 20.2323C15.02 19.6692 14.8135 19.1291 14.4459 18.7309C14.0783 18.3327 13.5798 18.109 13.06 18.109H11.1V22.3556Z" stroke="#7D7898" stroke-width="1.5" stroke-linecap="round" stroke-linejoin="round"/>
</svg>
