<svg width="25" height="25" viewBox="0 0 25 25" fill="none" xmlns="http://www.w3.org/2000/svg">
<path d="M22 8.25299V2.25299C22 1.85517 21.842 1.47364 21.5607 1.19233C21.2794 0.911026 20.8978 0.752991 20.5 0.752991H2.5C2.10218 0.752991 1.72064 0.911026 1.43934 1.19233C1.15804 1.47364 1 1.85517 1 2.25299V18.753C1 19.1508 1.15804 19.5323 1.43934 19.8137C1.72064 20.095 2.10218 20.253 2.5 20.253H8.5M1 5.25299H22M19.748 15.753H23.498V11.253M23.309 15.753C22.9706 14.4444 22.2002 13.2883 21.1227 12.4722C20.0452 11.6561 18.7237 11.2278 17.3724 11.2565C16.021 11.2853 14.7189 11.7696 13.6772 12.6308C12.6354 13.492 11.9149 14.6798 11.6325 16.0016C11.3501 17.3234 11.5223 18.7019 12.1212 19.9137C12.7201 21.1254 13.7106 22.0994 14.9322 22.6779C16.1539 23.2564 17.535 23.4055 18.852 23.1009C20.1689 22.7964 21.3444 22.0561 22.188 21" stroke="#7D7898" stroke-width="1.5" stroke-linecap="round" stroke-linejoin="round"/>
</svg>
