<svg width="25" height="24" viewBox="0 0 25 24" fill="none" xmlns="http://www.w3.org/2000/svg">
<path d="M22 10V19.5C22 20.2956 21.6839 21.0587 21.1213 21.6213C20.5587 22.1839 19.7956 22.5 19 22.5H5.5C4.70435 22.5 3.94129 22.1839 3.37868 21.6213C2.81607 21.0587 2.5 20.2956 2.5 19.5V10M22 2H2.5C2.10218 2 1.72064 2.15804 1.43934 2.43934C1.15804 2.72064 1 3.10218 1 3.5V6.5H23.5V3.5C23.5 3.10218 23.342 2.72064 23.0607 2.43934C22.7794 2.15804 22.3978 2 22 2ZM10.25 10.5H14.25C15.0784 10.5 15.75 11.1716 15.75 12V13C15.75 13.8284 15.0784 14.5 14.25 14.5H10.25C9.42157 14.5 8.75 13.8284 8.75 13V12C8.75 11.1716 9.42157 10.5 10.25 10.5Z" stroke="#7D7898" stroke-width="1.5" stroke-linecap="round" stroke-linejoin="round"/>
</svg>
