<svg width="24" height="24" viewBox="0 0 24 24" fill="none" xmlns="http://www.w3.org/2000/svg">
<path d="M5.8291 9L11.7091 3.12054C11.7473 3.08233 11.7926 3.05201 11.8425 3.03133C11.8924 3.01065 11.9458 3 11.9998 3C12.0538 3 12.1073 3.01065 12.1572 3.03133C12.2071 3.05201 12.2524 3.08233 12.2905 3.12054L18.1705 9M18.1705 15L12.2905 20.8795C12.2524 20.9177 12.2071 20.948 12.1572 20.9687C12.1073 20.9894 12.0538 21 11.9998 21C11.9458 21 11.8924 20.9894 11.8425 20.9687C11.7926 20.948 11.7473 20.9177 11.7091 20.8795L5.8291 15" stroke="#7D7898" stroke-width="1.5" stroke-linecap="round" stroke-linejoin="round"/>
</svg>
