<svg width="24" height="24" viewBox="0 0 24 24" fill="none" xmlns="http://www.w3.org/2000/svg">
<path d="M23.25 9.89997L12.273 20.878C11.0072 22.1439 9.29026 22.855 7.50004 22.855C5.70982 22.855 3.99292 22.1439 2.72704 20.878C1.46116 19.6121 0.75 17.8952 0.75 16.105C0.75 14.3148 1.46116 12.5979 2.72704 11.332L11.743 2.31697C12.1582 1.88718 12.6547 1.54436 13.2037 1.30852C13.7527 1.07268 14.3432 0.948538 14.9407 0.943346C15.5382 0.938154 16.1308 1.05201 16.6838 1.27828C17.2369 1.50454 17.7393 1.83868 18.1618 2.2612C18.5843 2.68371 18.9185 3.18615 19.1447 3.73918C19.371 4.29221 19.4849 4.88477 19.4797 5.48228C19.4745 6.07979 19.3503 6.67028 19.1145 7.21929C18.8787 7.76831 18.5358 8.26486 18.106 8.67997L9.09104 17.7C8.66675 18.1099 8.09843 18.3368 7.50849 18.3317C6.91854 18.3267 6.35418 18.0902 5.93694 17.6731C5.51971 17.256 5.28299 16.6917 5.27777 16.1017C5.27255 15.5118 5.49925 14.9434 5.90904 14.519L14.925 5.49997" stroke="#7D7898" stroke-width="1.5" stroke-linecap="round" stroke-linejoin="round"/>
</svg>
