<svg width="24" height="25" viewBox="0 0 24 25" fill="none" xmlns="http://www.w3.org/2000/svg">
<path d="M9.5 16.329C9.5 16.7268 9.34196 17.1084 9.06066 17.3897C8.77936 17.671 8.39782 17.829 8 17.829C7.60218 17.829 7.22064 17.671 6.93934 17.3897C6.65804 17.1084 6.5 16.7268 6.5 16.329C6.5 15.9312 6.65804 15.5496 6.93934 15.2683C7.22064 14.987 7.60218 14.829 8 14.829C8.39782 14.829 8.77936 14.987 9.06066 15.2683C9.34196 15.5496 9.5 15.9312 9.5 16.329ZM9.5 16.329V10C9.50004 9.66554 9.61185 9.34069 9.81768 9.07706C10.0235 8.81344 10.3115 8.62616 10.636 8.545L15.136 7.795C15.3571 7.73968 15.588 7.7355 15.811 7.78276C16.034 7.83002 16.2433 7.92748 16.423 8.06774C16.6027 8.20801 16.748 8.38738 16.848 8.59224C16.948 8.7971 17 9.02205 17 9.25V14.829M17 14.829C17 15.2268 16.842 15.6084 16.5607 15.8897C16.2794 16.171 15.8978 16.329 15.5 16.329C15.1022 16.329 14.7206 16.171 14.4393 15.8897C14.158 15.6084 14 15.2268 14 14.829C14 14.4312 14.158 14.0496 14.4393 13.7683C14.7206 13.487 15.1022 13.329 15.5 13.329C15.8978 13.329 16.2794 13.487 16.5607 13.7683C16.842 14.0496 17 14.4312 17 14.829ZM23 22C23 22.3978 22.842 22.7794 22.5607 23.0607C22.2794 23.342 21.8978 23.5 21.5 23.5H3.5C3.10218 23.5 2.72064 23.342 2.43934 23.0607C2.15804 22.7794 2 22.3978 2 22V2.5C2 2.10218 2.15804 1.72064 2.43934 1.43934C2.72064 1.15804 3.10218 1 3.5 1H18.5C18.8912 1.00004 19.2669 1.1529 19.547 1.426L22.547 4.309C22.6904 4.44873 22.8043 4.61575 22.8821 4.8002C22.9599 4.98465 23 5.18281 23 5.383V22Z" stroke="#7D7898" stroke-width="1.5" stroke-linecap="round" stroke-linejoin="round"/>
</svg>
