<svg width="24" height="24" viewBox="0 0 24 24" fill="none" xmlns="http://www.w3.org/2000/svg">
<path d="M12 22.548C9.81196 22.548 7.71354 21.6788 6.16637 20.1316C4.61919 18.5845 3.75 16.486 3.75 14.298C3.75 12.11 4.61919 10.0115 6.16637 8.46437C7.71354 6.91719 9.81196 6.048 12 6.048C14.188 6.048 16.2865 6.91719 17.8336 8.46437C19.3808 10.0115 20.25 12.11 20.25 14.298C20.25 16.486 19.3808 18.5845 17.8336 20.1316C16.2865 21.6788 14.188 22.548 12 22.548ZM12 22.548V10.548M4.658 10.548H19.342M4.292 11.351C3.45564 10.8258 2.48757 10.5485 1.5 10.551M1.5 21.048C2.24207 21.0486 2.97582 20.8916 3.65264 20.5873C4.32947 20.2831 4.93393 19.8385 5.426 19.283M1.5 15.048H3.785M19.708 11.351C20.5444 10.8258 21.5124 10.5485 22.5 10.551M22.5 21.048C21.7579 21.0486 21.0242 20.8916 20.3474 20.5873C19.6705 20.2831 19.0661 19.8385 18.574 19.283M22.5 15.048H20.215M5.96 1.5C5.96 4.437 6.188 5.527 8.647 6.758M17.96 1.5C17.96 4.437 17.732 5.527 15.273 6.758" stroke="#7D7898" stroke-width="1.5" stroke-linecap="round" stroke-linejoin="round"/>
</svg>
