<svg width="24" height="25" viewBox="0 0 24 25" fill="none" xmlns="http://www.w3.org/2000/svg">
<path d="M15.5 17.5V22C15.5 22.3978 15.342 22.7794 15.0607 23.0607C14.7794 23.342 14.3978 23.5 14 23.5H11C10.6022 23.5 10.2206 23.342 9.93934 23.0607C9.65804 22.7794 9.5 22.3978 9.5 22V17.5M9.5 20.5H15.5M12.5 1V2.5M2 11.5H3.5M4.25 4L5.35 5.06M23 11.5H21.5M20.75 4L19.65 5.06M9.5 11C9.89782 11 10.2794 11.158 10.5607 11.4393C10.842 11.7206 11 12.1022 11 12.5V17.5M14 17.5V12.5C14 12.1022 14.158 11.7206 14.4393 11.4393C14.7206 11.158 15.1022 11 15.5 11M9.42 17.5H15.58C16.6952 16.9476 17.6315 16.0912 18.2808 15.0296C18.9302 13.968 19.2662 12.7444 19.25 11.5C19.2192 9.71942 18.4981 8.02039 17.2389 6.76115C15.9796 5.5019 14.2806 4.78084 12.5 4.75C10.7194 4.78084 9.02039 5.5019 7.76115 6.76115C6.5019 8.02039 5.78084 9.71942 5.75 11.5C5.73383 12.7444 6.06981 13.968 6.71917 15.0296C7.36854 16.0912 8.30482 16.9476 9.42 17.5Z" stroke="#7D7898" stroke-width="1.5" stroke-linecap="round" stroke-linejoin="round"/>
</svg>
