<svg width="25" height="25" viewBox="0 0 25 25" fill="none" xmlns="http://www.w3.org/2000/svg">
<path d="M8.5 17.5H2.5C2.10218 17.5 1.72064 17.342 1.43934 17.0607C1.15804 16.7794 1 16.3978 1 16V4C1 3.60218 1.15804 3.22064 1.43934 2.93934C1.72064 2.65804 2.10218 2.5 2.5 2.5H16C16.3978 2.5 16.7794 2.65804 17.0607 2.93934C17.342 3.22064 17.5 3.60218 17.5 4V8.5M1 7H17.5M5.5 4V1M13 4V1M20.152 17.5H17.5V14.849M11.5 17.5C11.5 19.0913 12.1321 20.6174 13.2574 21.7426C14.3826 22.8679 15.9087 23.5 17.5 23.5C19.0913 23.5 20.6174 22.8679 21.7426 21.7426C22.8679 20.6174 23.5 19.0913 23.5 17.5C23.5 15.9087 22.8679 14.3826 21.7426 13.2574C20.6174 12.1321 19.0913 11.5 17.5 11.5C15.9087 11.5 14.3826 12.1321 13.2574 13.2574C12.1321 14.3826 11.5 15.9087 11.5 17.5Z" stroke="#7D7898" stroke-width="1.5" stroke-linecap="round" stroke-linejoin="round"/>
</svg>
