<svg width="25" height="25" viewBox="0 0 25 25" fill="none" xmlns="http://www.w3.org/2000/svg">
<path d="M5.34972 9.62502L1.33272 11.703C1.23246 11.7549 1.14839 11.8334 1.08971 11.9299C1.03103 12.0264 1 12.1371 1 12.25C1 12.3629 1.03103 12.4737 1.08971 12.5701C1.14839 12.6666 1.23246 12.7451 1.33272 12.797L11.5417 18.078C11.7606 18.1911 12.0034 18.25 12.2497 18.25C12.4961 18.25 12.7388 18.1911 12.9577 18.078L23.1667 12.797C23.267 12.7451 23.3511 12.6666 23.4097 12.5701C23.4684 12.4737 23.4994 12.3629 23.4994 12.25C23.4994 12.1371 23.4684 12.0264 23.4097 11.9299C23.3511 11.8334 23.267 11.7549 23.1667 11.703L19.1497 9.62502M5.34972 14.875L1.33272 16.95C1.23246 17.0019 1.14839 17.0804 1.08971 17.1769C1.03103 17.2734 1 17.3841 1 17.497C1 17.6099 1.03103 17.7207 1.08971 17.8171C1.14839 17.9136 1.23246 17.9921 1.33272 18.044L11.5417 23.325C11.7606 23.4381 12.0034 23.497 12.2497 23.497C12.4961 23.497 12.7388 23.4381 12.9577 23.325L23.1667 18.05C23.267 17.9981 23.3511 17.9196 23.4097 17.8231C23.4684 17.7267 23.4994 17.6159 23.4994 17.503C23.4994 17.3901 23.4684 17.2794 23.4097 17.1829C23.3511 17.0864 23.267 17.0079 23.1667 16.956L19.1497 14.875M23.1667 6.45002L12.9577 1.17202C12.7388 1.05898 12.4961 1 12.2497 1C12.0034 1 11.7606 1.05898 11.5417 1.17202L1.33272 6.45002C1.23246 6.50195 1.14839 6.58043 1.08971 6.6769C1.03103 6.77337 1 6.88411 1 6.99702C1 7.10993 1.03103 7.22067 1.08971 7.31714C1.14839 7.41361 1.23246 7.4921 1.33272 7.54402L11.5417 12.825C11.7606 12.9381 12.0034 12.997 12.2497 12.997C12.4961 12.997 12.7388 12.9381 12.9577 12.825L23.1667 7.55002C23.267 7.4981 23.3511 7.41961 23.4097 7.32314C23.4684 7.22667 23.4994 7.11593 23.4994 7.00302C23.4994 6.89011 23.4684 6.77937 23.4097 6.6829C23.3511 6.58643 23.267 6.50795 23.1667 6.45602V6.45002Z" stroke="#7D7898" stroke-width="1.5" stroke-linecap="round" stroke-linejoin="round"/>
</svg>
