<svg width="25" height="25" viewBox="0 0 25 25" fill="none" xmlns="http://www.w3.org/2000/svg">
<path d="M11.5 18.25C11.9142 18.25 12.25 17.9142 12.25 17.5C12.25 17.0858 11.9142 16.75 11.5 16.75V18.25ZM1 17.5H0.25C0.25 17.9142 0.585786 18.25 1 18.25L1 17.5ZM1 1V0.25C0.585786 0.25 0.25 0.585786 0.25 1L1 1ZM23.5 1H24.25C24.25 0.585786 23.9142 0.25 23.5 0.25V1ZM22.75 5.5C22.75 5.91421 23.0858 6.25 23.5 6.25C23.9142 6.25 24.25 5.91421 24.25 5.5H22.75ZM1.53033 9.46967C1.23744 9.17678 0.762563 9.17678 0.46967 9.46967C0.176777 9.76256 0.176777 10.2374 0.46967 10.5303L1.53033 9.46967ZM7.96967 18.0303C8.26256 18.3232 8.73744 18.3232 9.03033 18.0303C9.32322 17.7374 9.32322 17.2626 9.03033 16.9697L7.96967 18.0303ZM16.5303 0.46967C16.2374 0.176777 15.7626 0.176777 15.4697 0.46967C15.1768 0.762563 15.1768 1.23744 15.4697 1.53033L16.5303 0.46967ZM19.9697 6.03033C20.2626 6.32322 20.7374 6.32322 21.0303 6.03033C21.3232 5.73744 21.3232 5.26256 21.0303 4.96967L19.9697 6.03033ZM17.2302 16.8341C17.286 16.4237 16.9986 16.0457 16.5881 15.9898C16.1777 15.934 15.7997 16.2214 15.7438 16.6319L17.2302 16.8341ZM15.687 22.612L16.425 22.7456C16.427 22.7348 16.4287 22.724 16.4302 22.7131L15.687 22.612ZM15.7511 23.0754L16.4252 22.7466L16.425 22.7462L15.7511 23.0754ZM16.077 23.411L16.4257 22.747L16.4255 22.7469L16.077 23.411ZM16.5383 23.4886L16.6504 24.2302L16.6509 24.2301L16.5383 23.4886ZM16.956 23.278L17.4854 23.8093L17.4865 23.8082L16.956 23.278ZM19.005 21.228L19.5355 20.6978C19.3948 20.5571 19.204 20.478 19.005 20.478C18.806 20.478 18.6152 20.5571 18.4745 20.6978L19.005 21.228ZM21.054 23.278L20.5235 23.8082L20.5246 23.8093L21.054 23.278ZM21.4717 23.4886L21.3591 24.2301L21.3596 24.2302L21.4717 23.4886ZM21.933 23.411L21.5845 22.7469L21.5843 22.747L21.933 23.411ZM22.2589 23.0754L21.585 22.7462L21.5848 22.7466L22.2589 23.0754ZM22.323 22.612L21.5798 22.7131C21.5813 22.724 21.583 22.7348 21.585 22.7456L22.323 22.612ZM22.2662 16.6319C22.2103 16.2214 21.8323 15.934 21.4219 15.9898C21.0114 16.0457 20.724 16.4237 20.7799 16.8341L22.2662 16.6319ZM0.46967 7.96967C0.176777 8.26256 0.176777 8.73744 0.46967 9.03033C0.762563 9.32322 1.23744 9.32322 1.53033 9.03033L0.46967 7.96967ZM9.03033 1.53033C9.32322 1.23744 9.32322 0.762563 9.03033 0.46967C8.73744 0.176777 8.26256 0.176777 7.96967 0.46967L9.03033 1.53033ZM11.5 16.75H1V18.25H11.5V16.75ZM1.75 17.5V1H0.25V17.5H1.75ZM1 1.75H23.5V0.25H1V1.75ZM22.75 1V5.5H24.25V1H22.75ZM0.46967 10.5303L7.96967 18.0303L9.03033 16.9697L1.53033 9.46967L0.46967 10.5303ZM15.4697 1.53033L19.9697 6.03033L21.0303 4.96967L16.5303 0.46967L15.4697 1.53033ZM15.7438 16.6319L14.9438 22.5109L16.4302 22.7131L17.2302 16.8341L15.7438 16.6319ZM14.949 22.4784C14.8921 22.7927 14.9368 23.1171 15.0772 23.4046L16.425 22.7462L16.425 22.7456L14.949 22.4784ZM15.077 23.4042C15.2172 23.6915 15.4455 23.9266 15.7285 24.0751L16.4255 22.7469L16.4252 22.7466L15.077 23.4042ZM15.7283 24.075C16.0113 24.2236 16.3345 24.2779 16.6504 24.2302L16.4262 22.747L16.4257 22.747L15.7283 24.075ZM16.6509 24.2301C16.9665 24.1822 17.2589 24.035 17.4854 23.8093L16.4266 22.7467L16.4257 22.7471L16.6509 24.2301ZM17.4865 23.8082L19.5355 21.7582L18.4745 20.6978L16.4255 22.7478L17.4865 23.8082ZM18.4745 21.7582L20.5235 23.8082L21.5845 22.7478L19.5355 20.6978L18.4745 21.7582ZM20.5246 23.8093C20.7511 24.035 21.0435 24.1822 21.3591 24.2301L21.5843 22.7471L21.5834 22.7467L20.5246 23.8093ZM21.3596 24.2302C21.6755 24.2779 21.9987 24.2236 22.2817 24.075L21.5843 22.747L21.5838 22.747L21.3596 24.2302ZM22.2815 24.0751C22.5645 23.9266 22.7928 23.6915 22.933 23.4042L21.5848 22.7466L21.5845 22.7469L22.2815 24.0751ZM22.9328 23.4046C23.0732 23.1171 23.1179 22.7927 23.061 22.4784L21.585 22.7456L21.585 22.7462L22.9328 23.4046ZM23.0662 22.5109L22.2662 16.6319L20.7799 16.8341L21.5798 22.7131L23.0662 22.5109ZM19 18.25C21.8995 18.25 24.25 15.8995 24.25 13H22.75C22.75 15.0711 21.0711 16.75 19 16.75V18.25ZM24.25 13C24.25 10.1005 21.8995 7.75 19 7.75V9.25C21.0711 9.25 22.75 10.9289 22.75 13H24.25ZM19 7.75C16.1005 7.75 13.75 10.1005 13.75 13H15.25C15.25 10.9289 16.9289 9.25 19 9.25V7.75ZM13.75 13C13.75 15.8995 16.1005 18.25 19 18.25V16.75C16.9289 16.75 15.25 15.0711 15.25 13H13.75ZM1.53033 9.03033L9.03033 1.53033L7.96967 0.46967L0.46967 7.96967L1.53033 9.03033ZM19 12.625C19.2071 12.625 19.375 12.7929 19.375 13H17.875C17.875 13.6213 18.3787 14.125 19 14.125V12.625ZM19.375 13C19.375 13.2071 19.2071 13.375 19 13.375V11.875C18.3787 11.875 17.875 12.3787 17.875 13H19.375ZM19 14.125C19.6213 14.125 20.125 13.6213 20.125 13H18.625C18.625 12.7929 18.7929 12.625 19 12.625V14.125ZM20.125 13C20.125 12.3787 19.6213 11.875 19 11.875V13.375C18.7929 13.375 18.625 13.2071 18.625 13H20.125Z" fill="#7D7898"/>
</svg>
