<svg width="24" height="24" viewBox="0 0 24 24" fill="none" xmlns="http://www.w3.org/2000/svg">
<path d="M6 13.223L8.45 16.7C8.54293 16.8388 8.66768 16.9534 8.81385 17.0343C8.96002 17.1152 9.12339 17.16 9.29037 17.165C9.45735 17.1699 9.6231 17.135 9.77384 17.063C9.92458 16.991 10.0559 16.884 10.157 16.751L18 6.82799M2.25 0.748993H21.75C22.5784 0.748993 23.25 1.42057 23.25 2.24899V21.749C23.25 22.5774 22.5784 23.249 21.75 23.249H2.25C1.42157 23.249 0.75 22.5774 0.75 21.749V2.24899C0.75 1.42057 1.42157 0.748993 2.25 0.748993Z" stroke="#7D7898" stroke-width="1.5" stroke-linecap="round" stroke-linejoin="round"/>
</svg>
