<svg width="25" height="24" viewBox="0 0 25 24" fill="none" xmlns="http://www.w3.org/2000/svg">
<path fill-rule="evenodd" clip-rule="evenodd" d="M24.3777 2.05371C24.5513 2.1971 24.6949 2.37328 24.8004 2.57219C24.9059 2.7711 24.9712 2.98885 24.9925 3.21299C25.0138 3.43713 24.9908 3.66328 24.9247 3.87852C24.8586 4.09375 24.7508 4.29387 24.6074 4.46743L10.8245 21.1474L10.8194 21.1509C10.5061 21.5276 10.1127 21.8298 9.66784 22.0353C9.22301 22.2408 8.73793 22.3445 8.24795 22.3389C7.75064 22.3328 7.26114 22.2143 6.81612 21.9923C6.3711 21.7702 5.98209 21.4503 5.67824 21.0566L5.67652 21.0531L1.35995 15.5057C1.21582 15.3287 1.1085 15.1246 1.04429 14.9055C0.980087 14.6865 0.960285 14.4568 0.986051 14.2299C1.01182 14.0031 1.08263 13.7837 1.19434 13.5846C1.30604 13.3855 1.45639 13.2107 1.63656 13.0705C1.81673 12.9303 2.02308 12.8275 2.24352 12.7681C2.46396 12.7087 2.69403 12.694 2.92025 12.7247C3.14646 12.7555 3.36426 12.8311 3.56085 12.9472C3.75745 13.0632 3.92888 13.2174 4.06509 13.4006L8.28909 18.8297L21.9622 2.28343C22.1056 2.10984 22.2818 1.96619 22.4807 1.8607C22.6796 1.75521 22.8974 1.68993 23.1215 1.6686C23.3457 1.64727 23.5718 1.6703 23.787 1.73638C24.0023 1.80246 24.2024 1.91029 24.3759 2.05371H24.3777Z" fill="#7D7898"/>
</svg>
