<svg width="24" height="24" viewBox="0 0 24 24" fill="none" xmlns="http://www.w3.org/2000/svg">
<path d="M23.7102 22.29L12.4002 11L15.0902 2.16C15.1088 2.11181 15.1418 2.07055 15.1848 2.0419C15.2278 2.01325 15.2786 1.99861 15.3302 2H21.3302C21.3714 2.00038 21.4119 2.01055 21.4485 2.02968C21.485 2.0488 21.5164 2.07633 21.5402 2.11C21.557 2.14424 21.5657 2.18187 21.5657 2.22C21.5657 2.25813 21.557 2.29576 21.5402 2.33L21.1102 3.61C21.0688 3.73476 21.0524 3.86644 21.062 3.99753C21.0715 4.12862 21.1067 4.25655 21.1657 4.37402C21.2247 4.49148 21.3062 4.59618 21.4056 4.68214C21.505 4.7681 21.6204 4.83364 21.7452 4.875C21.9971 4.95855 22.272 4.93858 22.5092 4.81949C22.7464 4.70041 22.9266 4.49196 23.0102 4.24L23.5502 2.64C23.6514 2.34031 23.6801 2.02088 23.6339 1.70794C23.5878 1.395 23.468 1.09748 23.2845 0.839807C23.101 0.582136 22.859 0.371664 22.5784 0.225676C22.2978 0.0796873 21.9865 0.00234573 21.6702 2.27382e-06H6.50019C6.23497 2.27382e-06 5.98062 0.105359 5.79308 0.292895C5.60554 0.480432 5.50019 0.734786 5.50019 1C5.50019 1.26522 5.60554 1.51957 5.79308 1.70711C5.98062 1.89465 6.23497 2 6.50019 2H12.7102C12.7493 1.99828 12.7882 2.00656 12.8232 2.02406C12.8582 2.04156 12.8881 2.0677 12.9102 2.1C12.9277 2.13402 12.9369 2.17173 12.9369 2.21C12.9369 2.24827 12.9277 2.28599 12.9102 2.32L10.8002 9.38L1.71019 0.290002C1.52188 0.101699 1.26649 -0.00408936 1.00019 -0.00408936C0.733884 -0.00408936 0.478489 0.101699 0.290185 0.290002C0.101882 0.478306 -0.00390625 0.733701 -0.00390625 1C-0.00390625 1.2663 0.101882 1.5217 0.290185 1.71L22.2902 23.71C22.3831 23.8037 22.4937 23.8781 22.6156 23.9289C22.7375 23.9797 22.8682 24.0058 23.0002 24.0058C23.1322 24.0058 23.2629 23.9797 23.3848 23.9289C23.5066 23.8781 23.6172 23.8037 23.7102 23.71C23.8039 23.617 23.8783 23.5064 23.9291 23.3846C23.9798 23.2627 24.006 23.132 24.006 23C24.006 22.868 23.9798 22.7373 23.9291 22.6154C23.8783 22.4936 23.8039 22.383 23.7102 22.29Z" fill="#7D7898"/>
<path d="M11.0002 22H9.38019C9.34151 21.9993 9.30349 21.9899 9.26889 21.9726C9.23429 21.9553 9.20398 21.9305 9.18019 21.9C9.16341 21.8658 9.15468 21.8281 9.15468 21.79C9.15468 21.7519 9.16341 21.7142 9.18019 21.68L10.8202 16.29C10.8679 16.1621 10.8889 16.0257 10.882 15.8893C10.875 15.7529 10.8401 15.6194 10.7796 15.497C10.719 15.3746 10.634 15.2659 10.5298 15.1776C10.4257 15.0893 10.3045 15.0233 10.1738 14.9836C10.0432 14.9439 9.90575 14.9314 9.77006 14.9469C9.63437 14.9623 9.50329 15.0054 9.3849 15.0735C9.2665 15.1415 9.1633 15.2331 9.08165 15.3426C9.00001 15.4521 8.94165 15.5771 8.91018 15.71L7.00019 21.82C6.98504 21.8719 6.95346 21.9175 6.91019 21.95C6.86691 21.9825 6.81428 22 6.76019 22H4.35019C4.08497 22 3.83062 22.1054 3.64308 22.2929C3.45554 22.4804 3.35019 22.7348 3.35019 23C3.35019 23.2652 3.45554 23.5196 3.64308 23.7071C3.83062 23.8946 4.08497 24 4.35019 24H11.0002C11.2654 24 11.5198 23.8946 11.7073 23.7071C11.8948 23.5196 12.0002 23.2652 12.0002 23C12.0002 22.7348 11.8948 22.4804 11.7073 22.2929C11.5198 22.1054 11.2654 22 11.0002 22Z" fill="#7D7898"/>
</svg>
