<svg width="25" height="24" viewBox="0 0 25 24" fill="none" xmlns="http://www.w3.org/2000/svg">
<path d="M12.9999 14.25V23.25M12.9999 23.25L16.7499 19.5M12.9999 23.25L9.24986 19.5M17.4999 15.75H19.3749C20.1397 15.7513 20.8941 15.5726 21.5771 15.2284C22.2602 14.8842 22.8526 14.3841 23.3066 13.7685C23.7605 13.153 24.0633 12.4392 24.1904 11.685C24.3174 10.9308 24.2653 10.1572 24.0381 9.42691C23.8109 8.69659 23.415 8.02997 22.8825 7.48093C22.35 6.9319 21.6958 6.51587 20.9728 6.26647C20.2497 6.01706 19.4782 5.94129 18.7204 6.04527C17.9627 6.14924 17.24 6.43005 16.6109 6.865C16.3541 5.4979 15.7222 4.22915 14.7858 3.20054C13.8494 2.17194 12.6454 1.42401 11.3083 1.04036C9.97127 0.656707 8.55387 0.652447 7.21454 1.02806C5.87521 1.40366 4.66673 2.14434 3.72416 3.1673C2.78159 4.19026 2.14207 5.45519 1.87709 6.82072C1.61211 8.18625 1.7321 9.59857 2.22366 10.8998C2.71521 12.2011 3.55896 13.34 4.6606 14.1893C5.76224 15.0385 7.07836 15.5647 8.46186 15.709" stroke="#7D7898" stroke-width="1.5" stroke-linecap="round" stroke-linejoin="round"/>
</svg>
