<svg width="25" height="25" viewBox="0 0 25 25" fill="none" xmlns="http://www.w3.org/2000/svg">
<path d="M15.9519 19.3173H12.2019V23.0673M23.6189 20.0503C23.2217 21.211 22.4525 22.2082 21.4307 22.8872C20.4089 23.5661 19.1916 23.8889 17.9676 23.8053C16.7436 23.7218 15.5814 23.2367 14.6614 22.4252C13.7413 21.6137 13.1147 20.5212 12.8789 19.3173M20.4519 16.3173H24.2019V12.5673M12.7849 15.5843C13.1821 14.4235 13.9513 13.4263 14.9731 12.7473C15.9949 12.0684 17.2122 11.7456 18.4362 11.8292C19.6602 11.9127 20.8224 12.3978 21.7425 13.2093C22.6625 14.0208 23.2891 15.1133 23.5249 16.3173M23.8289 9.56725C23.5502 8.89685 23.125 8.29726 22.5846 7.81239C22.0442 7.32752 21.4022 6.96965 20.7056 6.76496C20.0091 6.56028 19.2755 6.51397 18.5587 6.62943C17.8419 6.74489 17.16 7.01919 16.5629 7.43225C16.2998 6.03224 15.6435 4.73609 14.6707 3.69547C13.6979 2.65485 12.4488 1.9128 11.0697 1.55614C9.69055 1.19948 8.23835 1.24296 6.88302 1.6815C5.52768 2.12004 4.32527 2.9355 3.41646 4.03246C2.50766 5.12942 1.93005 6.46251 1.75123 7.87576C1.5724 9.28901 1.79976 10.724 2.40669 12.0127C3.01362 13.3015 3.97502 14.3907 5.17841 15.153C6.38179 15.9153 7.77739 16.3192 9.20191 16.3173" stroke="#7D7898" stroke-width="1.5" stroke-linecap="round" stroke-linejoin="round"/>
</svg>
