<svg width="24" height="24" viewBox="0 0 24 24" fill="none" xmlns="http://www.w3.org/2000/svg">
<path d="M20.25 9.75V6.75C20.25 6.35218 20.092 5.97064 19.8107 5.68934C19.5294 5.40804 19.1478 5.25 18.75 5.25H8.25V3.75C8.25 3.35218 8.09196 2.97064 7.81066 2.68934C7.52936 2.40804 7.14782 2.25 6.75 2.25H2.25C1.85218 2.25 1.47064 2.40804 1.18934 2.68934C0.908035 2.97064 0.75 3.35218 0.75 3.75V20.05C0.755644 20.4585 0.908176 20.8512 1.17968 21.1564C1.45119 21.4616 1.82352 21.6589 2.22854 21.712C2.63355 21.7652 3.04418 21.6708 3.38527 21.446C3.72636 21.2212 3.97511 20.8812 4.086 20.488L6.437 10.831C6.52779 10.5189 6.71749 10.2448 6.97756 10.0498C7.23762 9.85484 7.55397 9.74963 7.879 9.75H21.75C21.9799 9.74992 22.2068 9.8027 22.4131 9.90426C22.6194 10.0058 22.7995 10.1535 22.9397 10.3357C23.0798 10.518 23.1762 10.7301 23.2213 10.9555C23.2665 11.181 23.2592 11.4138 23.2 11.636L21 20.636C20.9149 20.9555 20.7266 21.238 20.4644 21.4395C20.2021 21.641 19.8807 21.7501 19.55 21.75H2.447" stroke="#7D7898" stroke-width="1.5" stroke-linecap="round" stroke-linejoin="round"/>
</svg>
