<svg width="25" height="25" viewBox="0 0 25 25" fill="none" xmlns="http://www.w3.org/2000/svg">
<path d="M8.64638 18.3655C6.70854 17.7223 4.68727 17.3652 2.64638 17.3055C2.2635 17.2849 1.90329 17.1175 1.64067 16.8381C1.37806 16.5587 1.23325 16.1889 1.23638 15.8055V2.44545C1.23601 2.24066 1.27758 2.03796 1.35853 1.84985C1.43947 1.66174 1.55808 1.49219 1.70704 1.35166C1.85601 1.21113 2.03217 1.10259 2.22468 1.03273C2.41718 0.962865 2.62196 0.933164 2.82638 0.945452C9.15638 1.27545 12.4764 3.53545 12.4764 5.25545M12.4764 5.25545C12.4764 3.54545 16.1964 1.30545 22.1164 0.955452C22.3227 0.938767 22.5303 0.965273 22.7259 1.03328C22.9214 1.10129 23.1007 1.2093 23.2521 1.35043C23.4036 1.49157 23.524 1.66272 23.6057 1.85298C23.6873 2.04324 23.7284 2.24842 23.7264 2.45545V15.0555M12.4764 5.25545V9.14545M9.81638 6.69545C8.01774 6.0431 6.14797 5.60671 4.24638 5.39545M19.8864 9.36545C20.2364 9.30545 20.5864 9.25545 20.9564 9.21545M9.81638 10.5055C8.0153 9.86335 6.14636 9.43051 4.24638 9.21545M9.81638 14.5555C7.99934 13.9052 6.11366 13.4657 4.19638 13.2455M15.3764 6.70545C17.1966 6.0542 19.0857 5.61464 21.0064 5.39545M23.6164 23.3955L23.7164 22.2754C23.7822 21.5487 23.581 20.8229 23.1502 20.2339C22.7195 19.6449 22.0889 19.233 21.3764 19.0755L17.7264 18.2655V12.5255C17.7452 12.2677 17.7107 12.0089 17.625 11.765C17.5393 11.5212 17.4043 11.2977 17.2283 11.1084C17.0524 10.9192 16.8393 10.7682 16.6024 10.6649C16.3655 10.5617 16.1098 10.5084 15.8514 10.5084C15.5929 10.5084 15.3373 10.5617 15.1004 10.6649C14.8635 10.7682 14.6504 10.9192 14.4744 11.1084C14.2985 11.2977 14.1634 11.5212 14.0777 11.765C13.992 12.0089 13.9575 12.2677 13.9764 12.5255V21.7255L12.4764 20.6154C12.1814 20.3905 11.8147 20.2805 11.4445 20.3058C11.0744 20.331 10.7261 20.4899 10.4644 20.7529C10.2027 21.0158 10.0454 21.3648 10.0219 21.7351C9.99833 22.1053 10.1101 22.4715 10.3364 22.7655L10.8064 23.3955" stroke="#7D7898" stroke-width="1.5" stroke-linecap="round" stroke-linejoin="round"/>
</svg>
