<svg width="25" height="25" viewBox="0 0 25 25" fill="none" xmlns="http://www.w3.org/2000/svg">
<path d="M20.5 8.49999V5.49999C20.5 5.10216 20.342 4.72063 20.0607 4.43933C19.7794 4.15802 19.3978 3.99999 19 3.99999H15M6.5 3.99999H2.5C2.10218 3.99999 1.72064 4.15802 1.43934 4.43933C1.15804 4.72063 1 5.10216 1 5.49999V22C1 22.3978 1.15804 22.7793 1.43934 23.0606C1.72064 23.342 2.10218 23.5 2.5 23.5H8.5M14.5 14.5H20.5M14.5 17.5H20.5M14.5 20.5H16.75M14.671 4.98699C14.6211 5.13635 14.5255 5.26625 14.3977 5.3583C14.27 5.45036 14.1165 5.49993 13.959 5.49999H7.541C7.38352 5.49993 7.23004 5.45036 7.10227 5.3583C6.9745 5.26625 6.87891 5.13635 6.829 4.98699L5.829 1.98699C5.79121 1.87422 5.78081 1.75407 5.79868 1.63648C5.81654 1.51889 5.86216 1.40725 5.93174 1.31079C6.00132 1.21433 6.09287 1.13583 6.19882 1.08179C6.30477 1.02774 6.42206 0.9997 6.541 0.999989H14.959C15.0779 0.9997 15.1952 1.02774 15.3012 1.08179C15.4071 1.13583 15.4987 1.21433 15.5683 1.31079C15.6378 1.40725 15.6835 1.51889 15.7013 1.63648C15.7192 1.75407 15.7088 1.87422 15.671 1.98699L14.671 4.98699ZM11.5 11.5H23.5V23.5H11.5V11.5Z" stroke="#7D7898" stroke-width="1.5" stroke-linecap="round" stroke-linejoin="round"/>
</svg>
