<svg width="25" height="25" viewBox="0 0 25 25" fill="none" xmlns="http://www.w3.org/2000/svg">
<path d="M2.67383 19.4557C2.276 19.4557 1.89447 19.2977 1.61317 19.0164C1.33186 18.7351 1.17383 18.3536 1.17383 17.9557V2.95575C1.17383 2.55792 1.33186 2.17639 1.61317 1.89509C1.89447 1.61378 2.276 1.45575 2.67383 1.45575H17.6738C18.0717 1.45575 18.4532 1.61378 18.7345 1.89509C19.0158 2.17639 19.1738 2.55792 19.1738 2.95575M7.17383 5.95575H22.1738C22.1738 5.95575 23.6738 5.95575 23.6738 7.45575V22.4557C23.6738 22.4557 23.6738 23.9557 22.1738 23.9557H7.17383C7.17383 23.9557 5.67383 23.9557 5.67383 22.4557V7.45575C5.67383 7.45575 5.67383 5.95575 7.17383 5.95575Z" stroke="#7D7898" stroke-width="1.5" stroke-linecap="round" stroke-linejoin="round"/>
</svg>
