<svg width="25" height="25" viewBox="0 0 25 25" fill="none" xmlns="http://www.w3.org/2000/svg">
<path d="M8.5 2.5C8.5 1.67157 7.82843 1 7 1H4C3.17157 1 2.5 1.67157 2.5 2.5V16.75C2.5 17.5784 3.17157 18.25 4 18.25H7C7.82843 18.25 8.5 17.5784 8.5 16.75M8.5 2.5V16.75M8.5 2.5C8.5 1.67157 9.17157 1 10 1H13C13.8284 1 14.5 1.67157 14.5 2.5V16.75C14.5 17.5784 13.8284 18.25 13 18.25H10C9.17157 18.25 8.5 17.5784 8.5 16.75M3.25 21.25V23.5M21.25 21.25V23.5M16.7358 2.66381L18.2202 2.44813C19.04 2.32902 19.8012 2.89705 19.9203 3.71687L21.7536 16.3344C21.8727 17.1542 21.3047 17.9154 20.4848 18.0345L19.0004 18.2502C18.1806 18.3693 17.4194 17.8012 17.3003 16.9814L15.4671 4.36391C15.3479 3.54409 15.916 2.78293 16.7358 2.66381ZM1 19.75C1 20.1478 1.15804 20.5294 1.43934 20.8107C1.72064 21.092 2.10218 21.25 2.5 21.25H22C22.3978 21.25 22.7794 21.092 23.0607 20.8107C23.342 20.5294 23.5 20.1478 23.5 19.75C23.5 19.3522 23.342 18.9706 23.0607 18.6893C22.7794 18.408 22.3978 18.25 22 18.25H2.5C2.10218 18.25 1.72064 18.408 1.43934 18.6893C1.15804 18.9706 1 19.3522 1 19.75Z" stroke="#7D7898" stroke-width="1.5" stroke-linecap="round" stroke-linejoin="round"/>
</svg>
