<svg width="24" height="25" viewBox="0 0 24 25" fill="none" xmlns="http://www.w3.org/2000/svg">
<path d="M21 23.5H5.25C4.65326 23.5 4.08097 23.2629 3.65901 22.841C3.23705 22.419 3 21.8467 3 21.25M3 21.25V5.5C3 4.70435 3.31607 3.94129 3.87868 3.37868C4.44129 2.81607 5.20435 2.5 6 2.5H12M3 21.25C3 20.6533 3.23705 20.081 3.65901 19.659C4.08097 19.2371 4.65326 19 5.25 19H20.25C20.4489 19 20.6397 18.921 20.7803 18.7803C20.921 18.6397 21 18.4489 21 18.25V3.25C21 3.05109 20.921 2.86032 20.7803 2.71967C20.6397 2.57902 20.4489 2.5 20.25 2.5H18M12 2.5V13L15 10L18 13V2.5M12 2.5C12 2.10218 12.158 1.72064 12.4393 1.43934C12.7206 1.15804 13.1022 1 13.5 1H16.5C16.8978 1 17.2794 1.15804 17.5607 1.43934C17.842 1.72064 18 2.10218 18 2.5M19.5 23.5V19" stroke="#7D7898" stroke-width="1.5" stroke-linecap="round" stroke-linejoin="round"/>
</svg>
