<svg width="24" height="25" viewBox="0 0 24 25" fill="none" xmlns="http://www.w3.org/2000/svg">
<path d="M15.5505 15.8798C15.8505 19.7398 21.5505 17.0898 21.1105 18.4198C18.5905 25.8998 8.47051 24.1098 4.11051 19.5898C2.10283 17.5387 0.985171 14.7785 1.00015 11.9083C1.01513 9.03822 2.16153 6.28983 4.19051 4.25979C8.42051 0.0697861 15.5505 -0.240214 19.4805 4.25979C27.1105 13.1198 15.3105 12.4398 15.5505 15.8798Z" stroke="#7D7898" stroke-width="1.5" stroke-linecap="round" stroke-linejoin="round"/>
<path d="M6.74051 15.0898C7.57999 15.0898 8.26051 14.4093 8.26051 13.5698C8.26051 12.7303 7.57999 12.0498 6.74051 12.0498C5.90104 12.0498 5.22051 12.7303 5.22051 13.5698C5.22051 14.4093 5.90104 15.0898 6.74051 15.0898Z" stroke="#7D7898" stroke-width="1.5" stroke-linecap="round" stroke-linejoin="round"/>
<path d="M10.5005 19.9198C11.34 19.9198 12.0205 19.2393 12.0205 18.3998C12.0205 17.5603 11.34 16.8798 10.5005 16.8798C9.66104 16.8798 8.98051 17.5603 8.98051 18.3998C8.98051 19.2393 9.66104 19.9198 10.5005 19.9198Z" stroke="#7D7898" stroke-width="1.5" stroke-linecap="round" stroke-linejoin="round"/>
<path d="M14.1405 7.68979C14.98 7.68979 15.6605 7.00926 15.6605 6.16979C15.6605 5.33031 14.98 4.64979 14.1405 4.64979C13.301 4.64979 12.6205 5.33031 12.6205 6.16979C12.6205 7.00926 13.301 7.68979 14.1405 7.68979Z" stroke="#7D7898" stroke-width="1.5" stroke-linecap="round" stroke-linejoin="round"/>
<path d="M7.69051 9.29979C8.52999 9.29979 9.21051 8.61926 9.21051 7.77979C9.21051 6.94031 8.52999 6.25979 7.69051 6.25979C6.85104 6.25979 6.17051 6.94031 6.17051 7.77979C6.17051 8.61926 6.85104 9.29979 7.69051 9.29979Z" stroke="#7D7898" stroke-width="1.5" stroke-linecap="round" stroke-linejoin="round"/>
</svg>
