<svg width="25" height="25" viewBox="0 0 25 25" fill="none" xmlns="http://www.w3.org/2000/svg">
<path d="M5.5 23.5H2.5C2.10218 23.5 1.72064 23.342 1.43934 23.0607C1.15804 22.7793 1 22.3978 1 22V2.49999C1 2.10216 1.15804 1.72063 1.43934 1.43933C1.72064 1.15802 2.10218 0.99999 2.5 0.99999H13.129C13.5265 1.00007 13.9078 1.15797 14.189 1.43899L20.061 7.30999C20.2003 7.44935 20.3107 7.61477 20.386 7.79682C20.4614 7.97887 20.5001 8.17397 20.5 8.37099V13M20.5 8.49999H14.5C14.1022 8.49999 13.7206 8.34195 13.4393 8.06065C13.158 7.77934 13 7.39781 13 6.99999V0.99999M11.5 16C10.7044 16 9.94129 16.3161 9.37868 16.8787C8.81607 17.4413 8.5 18.2043 8.5 19V20.5C8.5 21.2956 8.81607 22.0587 9.37868 22.6213C9.94129 23.1839 10.7044 23.5 11.5 23.5M17.5 16H16C15.6022 16 15.2206 16.158 14.9393 16.4393C14.658 16.7206 14.5 17.1022 14.5 17.5C14.5 19.75 17.5 19.75 17.5 22C17.5 22.3978 17.342 22.7793 17.0607 23.0607C16.7794 23.342 16.3978 23.5 16 23.5H14.5M20.5 16V18.546C20.5001 20.3095 21.022 22.0335 22 23.501C22.978 22.0335 23.4999 20.3095 23.5 18.546V16" stroke="#7D7898" stroke-width="1.5" stroke-linecap="round" stroke-linejoin="round"/>
</svg>
