<svg width="25" height="25" viewBox="0 0 25 25" fill="none" xmlns="http://www.w3.org/2000/svg">
<path d="M7 23.5H17.5M1 11L5 7C5.14063 6.85955 5.33125 6.78066 5.53 6.78066C5.72875 6.78066 5.91937 6.85955 6.06 7L7.97 8.97C8.11063 9.11045 8.30125 9.18934 8.5 9.18934C8.69875 9.18934 8.88937 9.11045 9.03 8.97L13.03 4.97M1 15H23.5M14.5 9V11.75M20.5 9V11.75M17.5 6.75V11.75M15.25 23.5H9.25L10 19H14.5L15.25 23.5ZM4 1H20.5C22.1569 1 23.5 2.34315 23.5 4V16C23.5 17.6569 22.1569 19 20.5 19H4C2.34315 19 1 17.6569 1 16V4C1 2.34315 2.34315 1 4 1Z" stroke="#7D7898" stroke-width="1.5" stroke-linecap="round" stroke-linejoin="round"/>
</svg>
