<svg width="25" height="24" viewBox="0 0 25 24" fill="none" xmlns="http://www.w3.org/2000/svg">
<path d="M9.65381 17.5769V10.6538M14.8462 17.5769V10.6538M1 5.46152H23.5M18.3076 22.7692H6.19219C5.73317 22.7692 5.29294 22.5869 4.96836 22.2623C4.64377 21.9377 4.46143 21.4975 4.46143 21.0384V5.46152H20.0383V21.0384C20.0383 21.4975 19.856 21.9377 19.5314 22.2623C19.2068 22.5869 18.7666 22.7692 18.3076 22.7692ZM14.8462 1.99999H9.65386C9.19484 1.99999 8.75461 2.18234 8.43003 2.50692C8.10544 2.8315 7.9231 3.27173 7.9231 3.73076V5.46153H16.5769V3.73076C16.5769 3.27173 16.3946 2.8315 16.07 2.50692C15.7454 2.18234 15.3052 1.99999 14.8462 1.99999Z" stroke="#7D7898" stroke-width="1.5" stroke-linecap="round" stroke-linejoin="round"/>
</svg>
