<svg width="24" height="24" viewBox="0 0 24 24" fill="none" xmlns="http://www.w3.org/2000/svg">
<path d="M16.6248 13.7238C11.6371 15.4046 9.99283 17.2761 8.77699 21.9374C7.56115 17.2761 5.91692 15.4046 0.929199 13.7238C5.91692 12.0431 7.56115 10.1716 8.77699 5.51025C9.99283 10.1716 11.6371 12.0431 16.6248 13.7238Z" stroke="#7D7898" stroke-width="1.5" stroke-linecap="round" stroke-linejoin="round"/>
<path d="M22.8123 5.94817C19.9988 6.89245 19.0714 7.94396 18.3855 10.5628C17.6997 7.94396 16.7722 6.89245 13.9588 5.94817C16.7722 5.00389 17.6997 3.95238 18.3855 1.3335C19.0714 3.95238 19.9988 5.00389 22.8123 5.94817Z" stroke="#7D7898" stroke-width="1.5" stroke-linecap="round" stroke-linejoin="round"/>
<path d="M23.178 19.5622C21.0956 20.2464 20.4091 21.0084 19.9014 22.9061C19.3938 21.0084 18.7073 20.2464 16.6248 19.5622C18.7073 18.8779 19.3938 18.116 19.9014 16.2183C20.4091 18.116 21.0956 18.8779 23.178 19.5622Z" stroke="#7D7898" stroke-width="1.5" stroke-linecap="round" stroke-linejoin="round"/>
</svg>
