<svg width="24" height="25" viewBox="0 0 24 25" fill="none" xmlns="http://www.w3.org/2000/svg">
<path d="M5.59383 8.61182H17.5938M5.59383 13.1118H17.5938M5.59383 17.6118H11.5938M22.0488 22.1118C22.0488 22.5096 21.8908 22.8912 21.6095 23.1725C21.3282 23.4538 20.9467 23.6118 20.5488 23.6118H2.54883C2.151 23.6118 1.76947 23.4538 1.48817 23.1725C1.20686 22.8912 1.04883 22.5096 1.04883 22.1118V2.61182C1.04883 2.21399 1.20686 1.83246 1.48817 1.55116C1.76947 1.26985 2.151 1.11182 2.54883 1.11182H17.5938C17.9854 1.11159 18.3615 1.26448 18.6418 1.53782L21.5958 4.42082C21.7392 4.56055 21.8531 4.72756 21.9309 4.91201C22.0087 5.09647 22.0488 5.29463 22.0488 5.49482V22.1118Z" stroke="#7D7898" stroke-width="1.5" stroke-linecap="round" stroke-linejoin="round"/>
</svg>
