<svg width="25" height="24" viewBox="0 0 25 24" fill="none" xmlns="http://www.w3.org/2000/svg">
<path d="M5.5 7.45399H11.5M5.5 11.954H13M5.5 16.454H19M2.5 2.99999C2.10218 2.99999 1.72064 3.15803 1.43934 3.43933C1.15804 3.72064 1 4.10217 1 4.49999V19.454C1 19.8518 1.15804 20.2333 1.43934 20.5147C1.72064 20.796 2.10218 20.954 2.5 20.954H22C22.3978 20.954 22.7794 20.796 23.0607 20.5147C23.342 20.2333 23.5 19.8518 23.5 19.454V7.45399C23.5 7.0628 23.3471 6.68709 23.074 6.40699L20.191 3.45199C20.0512 3.30882 19.8841 3.19507 19.6997 3.11744C19.5152 3.03982 19.3171 2.99988 19.117 2.99999H2.5Z" stroke="#7D7898" stroke-width="1.5" stroke-linecap="round" stroke-linejoin="round"/>
</svg>
