<svg width="25" height="25" viewBox="0 0 25 25" fill="none" xmlns="http://www.w3.org/2000/svg">
<path d="M8.5 20.5H2.5C2.10218 20.5 1.72064 20.342 1.43934 20.0607C1.15804 19.7794 1 19.3978 1 19V2.5C1 2.10218 1.15804 1.72064 1.43934 1.43934C1.72064 1.15804 2.10218 1 2.5 1H17.5C17.8978 1 18.2794 1.15804 18.5607 1.43934C18.842 1.72064 19 2.10218 19 2.5V9.25M8.5 5.5H14.5M5.5 10H14.5M5.5 14.5H13M22.881 15.12L15.254 22.75L11.504 23.5L12.254 19.75L19.885 12.12C20.0813 11.9234 20.3144 11.7674 20.571 11.6609C20.8276 11.5545 21.1027 11.4997 21.3805 11.4997C21.6583 11.4997 21.9334 11.5545 22.19 11.6609C22.4466 11.7674 22.6797 11.9234 22.876 12.12L22.885 12.128C23.2812 12.5253 23.5033 13.0637 23.5025 13.6248C23.5018 14.1859 23.2782 14.7237 22.881 15.12Z" stroke="#7D7898" stroke-width="1.5" stroke-linecap="round" stroke-linejoin="round"/>
</svg>
