<svg width="24" height="24" viewBox="0 0 24 24" fill="none" xmlns="http://www.w3.org/2000/svg">
<path d="M10.2689 3.34615C10.2689 4.77997 9.10663 5.94231 7.67281 5.94231C6.23899 5.94231 5.07666 4.77997 5.07666 3.34615C5.07666 1.91234 6.23899 0.75 7.67281 0.75C9.10663 0.75 10.2689 1.91234 10.2689 3.34615Z" stroke="#7D7898" stroke-width="1.5"/>
<path d="M10.2689 12C10.2689 13.4338 9.10663 14.5961 7.67281 14.5961C6.23899 14.5961 5.07666 13.4338 5.07666 12C5.07666 10.5661 6.23899 9.40381 7.67281 9.40381C9.10663 9.40381 10.2689 10.5661 10.2689 12Z" stroke="#7D7898" stroke-width="1.5"/>
<path d="M10.2689 20.6538C10.2689 22.0876 9.10663 23.2499 7.67281 23.2499C6.23899 23.2499 5.07666 22.0876 5.07666 20.6538C5.07666 19.22 6.23899 18.0576 7.67281 18.0576C9.10663 18.0576 10.2689 19.22 10.2689 20.6538Z" stroke="#7D7898" stroke-width="1.5"/>
<path d="M18.923 3.34615C18.923 4.77997 17.7607 5.94231 16.3268 5.94231C14.893 5.94231 13.7307 4.77997 13.7307 3.34615C13.7307 1.91234 14.893 0.75 16.3268 0.75C17.7607 0.75 18.923 1.91234 18.923 3.34615Z" stroke="#7D7898" stroke-width="1.5"/>
<path d="M18.923 12C18.923 13.4338 17.7607 14.5961 16.3268 14.5961C14.893 14.5961 13.7307 13.4338 13.7307 12C13.7307 10.5661 14.893 9.40381 16.3268 9.40381C17.7607 9.40381 18.923 10.5661 18.923 12Z" stroke="#7D7898" stroke-width="1.5"/>
<path d="M18.923 20.6538C18.923 22.0876 17.7607 23.2499 16.3268 23.2499C14.893 23.2499 13.7307 22.0876 13.7307 20.6538C13.7307 19.22 14.893 18.0576 16.3268 18.0576C17.7607 18.0576 18.923 19.22 18.923 20.6538Z" stroke="#7D7898" stroke-width="1.5"/>
</svg>
