<svg width="24" height="24" viewBox="0 0 24 24" fill="none" xmlns="http://www.w3.org/2000/svg">
<path d="M6 6.30799L11.25 1.05799C11.449 0.859157 11.7187 0.747467 12 0.747467C12.2813 0.747467 12.551 0.859157 12.75 1.05799L18 6.30799M18 17.687L12.75 22.937C12.551 23.1358 12.2813 23.2475 12 23.2475C11.7187 23.2475 11.449 23.1358 11.25 22.937L6 17.687M9.75 11.998C9.75 12.5947 9.98705 13.167 10.409 13.589C10.831 14.0109 11.4033 14.248 12 14.248C12.5967 14.248 13.169 14.0109 13.591 13.589C14.0129 13.167 14.25 12.5947 14.25 11.998C14.25 11.4012 14.0129 10.829 13.591 10.407C13.169 9.98504 12.5967 9.74799 12 9.74799C11.4033 9.74799 10.831 9.98504 10.409 10.407C9.98705 10.829 9.75 11.4012 9.75 11.998Z" stroke="#7D7898" stroke-width="1.5" stroke-linecap="round" stroke-linejoin="round"/>
</svg>
