<svg width="25" height="25" viewBox="0 0 25 25" fill="none" xmlns="http://www.w3.org/2000/svg">
<path d="M17.42 6.03277C17.5391 5.63603 17.3139 5.21791 16.9172 5.09889C16.5204 4.97987 16.1023 5.20501 15.9833 5.60175L17.42 6.03277ZM14.4517 13.3173V14.0673C14.7829 14.0673 15.0749 13.85 15.17 13.5328L14.4517 13.3173ZM8.45166 13.3173L7.74015 13.5544C7.84223 13.8607 8.12884 14.0673 8.45166 14.0673V13.3173ZM6.95166 8.81726V8.06726C6.71058 8.06726 6.48419 8.18315 6.34323 8.37873C6.20227 8.57431 6.16391 8.82572 6.24015 9.05443L6.95166 8.81726ZM15.8017 9.56726C16.2159 9.56726 16.5517 9.23147 16.5517 8.81726C16.5517 8.40305 16.2159 8.06726 15.8017 8.06726V9.56726ZM15.0642 20.9285C15.4533 20.7863 15.6533 20.3556 15.511 19.9666C15.3688 19.5776 14.9381 19.3775 14.5491 19.5198L15.0642 20.9285ZM8.38391 20.3175L8.62092 19.6059L8.62089 19.6059L8.38391 20.3175ZM3.29976 16.3917L3.92825 15.9824L3.92824 15.9824L3.29976 16.3917ZM1.76547 10.1542L2.5121 10.2252H2.5121L1.76547 10.1542ZM4.44835 4.31782L3.90831 3.79738L4.44835 4.31782ZM10.1815 1.42106L10.2801 2.16455V2.16455L10.1815 1.42106ZM16.4715 2.72376L16.0857 3.36694L16.0857 3.36695L16.4715 2.72376ZM20.0132 13.8498C19.8855 14.2438 20.1013 14.6668 20.4953 14.7946C20.8893 14.9224 21.3123 14.7065 21.4401 14.3125L20.0132 13.8498ZM17.3077 16.9223L17.5769 16.2223C17.3003 16.1159 16.987 16.1823 16.7774 16.3919C16.5678 16.6014 16.5013 16.9148 16.6076 17.1914L17.3077 16.9223ZM19.9587 23.8173L19.2586 24.0864C19.3615 24.3541 19.6081 24.5396 19.8938 24.5644C20.1794 24.5893 20.4543 24.449 20.6018 24.2031L19.9587 23.8173ZM21.5497 21.1653L21.1638 20.5221C21.0582 20.5855 20.9699 20.6738 20.9065 20.7794L21.5497 21.1653ZM24.2017 19.5743L24.5875 20.2174C24.8334 20.0699 24.9736 19.7951 24.9489 19.5094C24.9241 19.2237 24.7386 18.9772 24.4709 18.8743L24.2017 19.5743ZM23.6714 24.3475C23.9644 24.6404 24.4392 24.6404 24.7321 24.3475C25.025 24.0546 25.025 23.5797 24.7321 23.2868L23.6714 24.3475ZM15.9833 5.60175L13.7333 13.1017L15.17 13.5328L17.42 6.03277L15.9833 5.60175ZM14.4517 12.5673H8.45166V14.0673H14.4517V12.5673ZM9.16317 13.0801L7.66317 8.58009L6.24015 9.05443L7.74015 13.5544L9.16317 13.0801ZM6.95166 9.56726H15.8017V8.06726H6.95166V9.56726ZM8.82666 15.5673C9.03378 15.5673 9.20166 15.7352 9.20166 15.9423H7.70166C7.70166 16.5636 8.20532 17.0673 8.82666 17.0673V15.5673ZM9.20166 15.9423C9.20166 16.1494 9.03378 16.3173 8.82666 16.3173V14.8173C8.20532 14.8173 7.70166 15.321 7.70166 15.9423H9.20166ZM8.82666 17.0673C9.448 17.0673 9.95166 16.5636 9.95166 15.9423H8.45166C8.45166 15.7352 8.61954 15.5673 8.82666 15.5673V17.0673ZM9.95166 15.9423C9.95166 15.321 9.448 14.8173 8.82666 14.8173V16.3173C8.61954 16.3173 8.45166 16.1494 8.45166 15.9423H9.95166ZM14.0767 15.5673C14.2838 15.5673 14.4517 15.7351 14.4517 15.9423H12.9517C12.9517 16.5636 13.4553 17.0673 14.0767 17.0673V15.5673ZM14.4517 15.9423C14.4517 16.1494 14.2838 16.3173 14.0767 16.3173V14.8173C13.4553 14.8173 12.9517 15.3209 12.9517 15.9423H14.4517ZM14.0767 17.0673C14.698 17.0673 15.2017 16.5636 15.2017 15.9423H13.7017C13.7017 15.7351 13.8695 15.5673 14.0767 15.5673V17.0673ZM15.2017 15.9423C15.2017 15.3209 14.698 14.8173 14.0767 14.8173V16.3173C13.8695 16.3173 13.7017 16.1494 13.7017 15.9423H15.2017ZM14.5491 19.5198C12.6396 20.218 10.5499 20.2484 8.62092 19.6059L8.1469 21.029C10.3977 21.7787 12.8361 21.7433 15.0642 20.9285L14.5491 19.5198ZM8.62089 19.6059C6.69194 18.9635 5.03772 17.6862 3.92825 15.9824L2.67127 16.8009C3.96586 18.789 5.8961 20.2794 8.14693 21.029L8.62089 19.6059ZM3.92824 15.9824C2.81877 14.2787 2.31955 12.2491 2.5121 10.2252L1.01884 10.0831C0.794169 12.4448 1.37667 14.813 2.67128 16.8009L3.92824 15.9824ZM2.5121 10.2252C2.70465 8.20118 3.57757 6.30223 4.98839 4.83826L3.90831 3.79738C2.26209 5.50562 1.24351 7.72142 1.01884 10.0831L2.5121 10.2252ZM4.98839 4.83826C6.39922 3.37428 8.26462 2.43177 10.2801 2.16455L10.083 0.677563C7.73118 0.98937 5.55454 2.08914 3.90831 3.79738L4.98839 4.83826ZM10.2801 2.16455C12.2956 1.89733 14.3422 2.32119 16.0857 3.36694L16.8572 2.08058C14.8228 0.860334 12.4347 0.365758 10.083 0.677563L10.2801 2.16455ZM16.0857 3.36695C17.8293 4.4127 19.1669 6.01858 19.8802 7.92247L21.2849 7.39621C20.4526 5.17464 18.8918 3.3008 16.8572 2.08057L16.0857 3.36695ZM19.8802 7.92247C20.5935 9.82637 20.6404 11.9158 20.0132 13.8498L21.4401 14.3125C22.1719 12.0559 22.1172 9.61777 21.2849 7.39621L19.8802 7.92247ZM16.6076 17.1914L19.2586 24.0864L20.6587 23.5481L18.0077 16.6531L16.6076 17.1914ZM20.6018 24.2031L22.1928 21.5511L20.9065 20.7794L19.3155 23.4314L20.6018 24.2031ZM21.9355 21.8084L24.5875 20.2174L23.8158 18.9311L21.1638 20.5221L21.9355 21.8084ZM24.4709 18.8743L17.5769 16.2223L17.0384 17.6223L23.9324 20.2743L24.4709 18.8743ZM24.7321 23.2868L22.08 20.6349L21.0194 21.6956L23.6714 24.3475L24.7321 23.2868Z" fill="#7D7898"/>
</svg>
