<svg width="24" height="24" viewBox="0 0 24 24" fill="none" xmlns="http://www.w3.org/2000/svg">
<path d="M5.50049 19.247C5.08627 19.247 4.75049 19.5828 4.75049 19.997C4.75049 20.4112 5.08627 20.747 5.50049 20.747V19.247ZM15.4215 19.997L15.4217 19.247H15.4215V19.997ZM16.3895 19.643L15.9056 19.07L15.9056 19.07L16.3895 19.643ZM16.9005 18.748L16.1611 18.6222L16.1611 18.6225L16.9005 18.748ZM19.5375 3.248L18.7981 3.12201L18.7981 3.12221L19.5375 3.248ZM20.0488 2.3536L20.5324 2.92681L20.5325 2.9268L20.0488 2.3536ZM21.0165 2L21.0163 2.75H21.0165V2ZM22.0005 2.75C22.4147 2.75 22.7505 2.41421 22.7505 2C22.7505 1.58579 22.4147 1.25 22.0005 1.25V2.75ZM17.4534 16.2472C17.8676 16.2472 18.2034 15.9114 18.2034 15.4972C18.2034 15.083 17.8676 14.7472 17.4534 14.7472V16.2472ZM5.38242 15.4972L5.38231 16.2472H5.38242V15.4972ZM3.53654 14.8618L3.99812 14.2706L3.99805 14.2706L3.53654 14.8618ZM2.47242 13.2252L1.74481 13.4071L1.74484 13.4072L2.47242 13.2252ZM1.02242 7.42516L1.75002 7.24326L1.75 7.24315L1.02242 7.42516ZM1.01632 7.08755L0.282642 6.93192L0.282628 6.93198L1.01632 7.08755ZM1.15895 6.78148L1.75001 7.24316L1.75004 7.24312L1.15895 6.78148ZM1.42138 6.56899L1.74998 7.24317L1.75001 7.24316L1.42138 6.56899ZM1.75042 6.49316L1.75002 7.24316H1.75042V6.49316ZM18.9844 7.24316C19.3986 7.24316 19.7344 6.90737 19.7344 6.49316C19.7344 6.07895 19.3986 5.74316 18.9844 5.74316V7.24316ZM6.25049 9.49707C6.25049 9.08286 5.9147 8.74707 5.50049 8.74707C5.08627 8.74707 4.75049 9.08286 4.75049 9.49707H6.25049ZM4.75049 11.7471C4.75049 12.1613 5.08627 12.4971 5.50049 12.4971C5.9147 12.4971 6.25049 12.1613 6.25049 11.7471H4.75049ZM10.7505 9.49707C10.7505 9.08286 10.4147 8.74707 10.0005 8.74707C9.58627 8.74707 9.25049 9.08286 9.25049 9.49707H10.7505ZM9.25049 11.7471C9.25049 12.1613 9.58627 12.4971 10.0005 12.4971C10.4147 12.4971 10.7505 12.1613 10.7505 11.7471H9.25049ZM15.2505 9.49707C15.2505 9.08286 14.9147 8.74707 14.5005 8.74707C14.0863 8.74707 13.7505 9.08286 13.7505 9.49707H15.2505ZM13.7505 11.7471C13.7505 12.1613 14.0863 12.4971 14.5005 12.4971C14.9147 12.4971 15.2505 12.1613 15.2505 11.7471H13.7505ZM5.50049 20.747H15.4215V19.247H5.50049V20.747ZM15.4213 20.747C15.9529 20.7471 16.4673 20.559 16.8734 20.216L15.9056 19.07C15.7701 19.1844 15.5987 19.247 15.4217 19.247L15.4213 20.747ZM16.8734 20.216C17.2795 19.8731 17.551 19.3975 17.6399 18.8735L16.1611 18.6225C16.1314 18.7972 16.0409 18.9557 15.9056 19.07L16.8734 20.216ZM17.6399 18.8738L20.2769 3.37379L18.7981 3.12221L16.1611 18.6222L17.6399 18.8738ZM20.2768 3.37399C20.3066 3.19937 20.3971 3.04098 20.5324 2.92681L19.5651 1.78039C19.159 2.12304 18.8874 2.59833 18.7981 3.12201L20.2768 3.37399ZM20.5325 2.9268C20.6678 2.81259 20.8392 2.74996 21.0163 2.75L21.0167 1.25C20.4854 1.24988 19.9712 1.43777 19.5651 1.7804L20.5325 2.9268ZM21.0165 2.75H22.0005V1.25H21.0165V2.75ZM7.37549 22.2471C7.5826 22.2471 7.75049 22.415 7.75049 22.6221H6.25049C6.25049 23.2434 6.75415 23.7471 7.37549 23.7471V22.2471ZM7.75049 22.6221C7.75049 22.8292 7.5826 22.9971 7.37549 22.9971V21.4971C6.75415 21.4971 6.25049 22.0008 6.25049 22.6221H7.75049ZM7.37549 23.7471C7.99682 23.7471 8.50049 23.2434 8.50049 22.6221H7.00049C7.00049 22.415 7.16837 22.2471 7.37549 22.2471V23.7471ZM8.50049 22.6221C8.50049 22.0008 7.99682 21.4971 7.37549 21.4971V22.9971C7.16837 22.9971 7.00049 22.8292 7.00049 22.6221H8.50049ZM14.8755 22.2471C15.0826 22.2471 15.2505 22.415 15.2505 22.6221H13.7505C13.7505 23.2434 14.2542 23.7471 14.8755 23.7471V22.2471ZM15.2505 22.6221C15.2505 22.8292 15.0826 22.9971 14.8755 22.9971V21.4971C14.2542 21.4971 13.7505 22.0008 13.7505 22.6221H15.2505ZM14.8755 23.7471C15.4968 23.7471 16.0005 23.2434 16.0005 22.6221H14.5005C14.5005 22.415 14.6684 22.2471 14.8755 22.2471V23.7471ZM16.0005 22.6221C16.0005 22.0008 15.4968 21.4971 14.8755 21.4971V22.9971C14.6684 22.9971 14.5005 22.8292 14.5005 22.6221H16.0005ZM17.4534 14.7472H5.38242V16.2472H17.4534V14.7472ZM5.38253 14.7472C4.8808 14.7471 4.39352 14.5794 3.99812 14.2706L3.07495 15.4529C3.73405 15.9676 4.5462 16.247 5.38231 16.2472L5.38253 14.7472ZM3.99805 14.2706C3.60266 13.9619 3.32174 13.5299 3.2 13.0432L1.74484 13.4072C1.94773 14.2183 2.41591 14.9384 3.07502 15.453L3.99805 14.2706ZM3.20002 13.0433L1.75002 7.24326L0.29481 7.60706L1.74481 13.4071L3.20002 13.0433ZM1.75 7.24315L1.75001 7.24311L0.282628 6.93198C0.23534 7.15501 0.23949 7.38592 0.294837 7.60717L1.75 7.24315ZM1.74999 7.24318L1.75001 7.24316L0.567887 6.3198C0.427528 6.49949 0.329965 6.70883 0.282642 6.93192L1.74999 7.24318ZM1.75004 7.24312L1.74998 7.24317L1.09277 5.89481C0.887767 5.99473 0.708241 6.14009 0.567855 6.31984L1.75004 7.24312ZM1.75001 7.24316L1.75002 7.24316L1.75081 5.74316C1.5228 5.74304 1.29774 5.79489 1.09275 5.89482L1.75001 7.24316ZM1.75042 7.24316H18.9844V5.74316H1.75042V7.24316ZM4.75049 9.49707V11.7471H6.25049V9.49707H4.75049ZM9.25049 9.49707V11.7471H10.7505V9.49707H9.25049ZM13.7505 9.49707V11.7471H15.2505V9.49707H13.7505Z" fill="#7D7898"/>
</svg>
