<svg width="25" height="25" viewBox="0 0 25 25" fill="none" xmlns="http://www.w3.org/2000/svg">
<path d="M6.25 23.5H18.25M19 7.75V10M19 7.75L12.25 10.75L5.5 7.75L12.25 4.75L19 7.75ZM16 9.084V13C14.9776 13.9406 13.6461 14.4742 12.257 14.5C10.8642 14.472 9.52905 13.939 8.5 13V9.084M2.5 1H22C22.8284 1 23.5 1.67157 23.5 2.5V17.5C23.5 18.3284 22.8284 19 22 19H2.5C1.67157 19 1 18.3284 1 17.5V2.5C1 1.67157 1.67157 1 2.5 1ZM16 23.5H8.5L9.25 19H15.25L16 23.5Z" stroke="#7D7898" stroke-width="1.5" stroke-linecap="round" stroke-linejoin="round"/>
</svg>
