<svg width="24" height="24" viewBox="0 0 24 24" fill="none" xmlns="http://www.w3.org/2000/svg">
<path d="M19.45 7.5H4.55C4.48083 7.49978 4.41237 7.51391 4.34895 7.5415C4.28552 7.56909 4.22851 7.60954 4.18152 7.66029C4.13452 7.71105 4.09857 7.771 4.07594 7.83635C4.0533 7.90171 4.04447 7.97105 4.05 8.04L5.33 22.18C5.37506 22.6786 5.6055 23.1423 5.9758 23.4792C6.34611 23.8162 6.82933 24.002 7.33 24H16.67C17.1707 24.002 17.6539 23.8162 18.0242 23.4792C18.3945 23.1423 18.6249 22.6786 18.67 22.18L20 8C20.0055 7.93105 19.9967 7.86171 19.9741 7.79635C19.9514 7.731 19.9155 7.67105 19.8685 7.62029C19.8215 7.56954 19.7645 7.52909 19.7011 7.5015C19.6376 7.47391 19.5692 7.45978 19.5 7.46L19.45 7.5ZM10.25 20.5C10.25 20.6989 10.171 20.8897 10.0303 21.0303C9.88968 21.171 9.69891 21.25 9.5 21.25C9.30109 21.25 9.11032 21.171 8.96967 21.0303C8.82902 20.8897 8.75 20.6989 8.75 20.5V11.5C8.75 11.3011 8.82902 11.1103 8.96967 10.9697C9.11032 10.829 9.30109 10.75 9.5 10.75C9.69891 10.75 9.88968 10.829 10.0303 10.9697C10.171 11.1103 10.25 11.3011 10.25 11.5V20.5ZM15.25 20.5C15.25 20.6989 15.171 20.8897 15.0303 21.0303C14.8897 21.171 14.6989 21.25 14.5 21.25C14.3011 21.25 14.1103 21.171 13.9697 21.0303C13.829 20.8897 13.75 20.6989 13.75 20.5V11.5C13.75 11.3011 13.829 11.1103 13.9697 10.9697C14.1103 10.829 14.3011 10.75 14.5 10.75C14.6989 10.75 14.8897 10.829 15.0303 10.9697C15.171 11.1103 15.25 11.3011 15.25 11.5V20.5Z" fill="#7D7898"/>
<path d="M22 4H17.25C17.1837 4 17.1201 3.97366 17.0732 3.92678C17.0263 3.87989 17 3.8163 17 3.75V2.5C17 1.83696 16.7366 1.20107 16.2678 0.732233C15.7989 0.263392 15.163 0 14.5 0H9.5C8.83696 0 8.20107 0.263392 7.73223 0.732233C7.26339 1.20107 7 1.83696 7 2.5V3.75C7 3.8163 6.97366 3.87989 6.92678 3.92678C6.87989 3.97366 6.8163 4 6.75 4H2C1.73478 4 1.48043 4.10536 1.29289 4.29289C1.10536 4.48043 1 4.73478 1 5C1 5.26522 1.10536 5.51957 1.29289 5.70711C1.48043 5.89464 1.73478 6 2 6H22C22.2652 6 22.5196 5.89464 22.7071 5.70711C22.8946 5.51957 23 5.26522 23 5C23 4.73478 22.8946 4.48043 22.7071 4.29289C22.5196 4.10536 22.2652 4 22 4ZM9 3.75V2.5C9 2.36739 9.05268 2.24021 9.14645 2.14645C9.24021 2.05268 9.36739 2 9.5 2H14.5C14.6326 2 14.7598 2.05268 14.8536 2.14645C14.9473 2.24021 15 2.36739 15 2.5V3.75C15 3.8163 14.9737 3.87989 14.9268 3.92678C14.8799 3.97366 14.8163 4 14.75 4H9.25C9.1837 4 9.12011 3.97366 9.07322 3.92678C9.02634 3.87989 9 3.8163 9 3.75Z" fill="#7D7898"/>
</svg>
