<svg width="25" height="24" viewBox="0 0 25 24" fill="none" xmlns="http://www.w3.org/2000/svg">
<path d="M23.1372 0.366638H15.4972C15.1657 0.366638 14.8477 0.498334 14.6133 0.732755C14.3789 0.967175 14.2472 1.28512 14.2472 1.61664C14.2472 1.94816 14.3789 2.2661 14.6133 2.50052C14.8477 2.73494 15.1657 2.86664 15.4972 2.86664H16.6372C16.682 2.86753 16.7257 2.87997 16.7643 2.90275C16.8028 2.92552 16.8348 2.95786 16.8572 2.99664C16.8791 3.03464 16.8907 3.07775 16.8907 3.12164C16.8907 3.16552 16.8791 3.20863 16.8572 3.24664L5.41721 21.1166C5.37203 21.1871 5.30991 21.245 5.23653 21.2852C5.16315 21.3254 5.08087 21.3465 4.99721 21.3466H2.13721C1.80569 21.3466 1.48774 21.4783 1.25332 21.7128C1.0189 21.9472 0.887207 22.2651 0.887207 22.5966C0.887207 22.9282 1.0189 23.2461 1.25332 23.4805C1.48774 23.7149 1.80569 23.8466 2.13721 23.8466H9.77721C10.1087 23.8466 10.4267 23.7149 10.6611 23.4805C10.8955 23.2461 11.0272 22.9282 11.0272 22.5966C11.0272 22.2651 10.8955 21.9472 10.6611 21.7128C10.4267 21.4783 10.1087 21.3466 9.77721 21.3466H8.68721C8.64245 21.3457 8.59868 21.3333 8.56013 21.3105C8.52159 21.2878 8.48958 21.2554 8.46721 21.2166C8.44532 21.1768 8.43385 21.1321 8.43385 21.0866C8.43385 21.0412 8.44532 20.9965 8.46721 20.9566L19.8572 3.11664C19.9024 3.04622 19.9645 2.98827 20.0379 2.94809C20.1113 2.90791 20.1935 2.88678 20.2772 2.88664H23.1372C23.4687 2.88664 23.7867 2.75494 24.0211 2.52052C24.2555 2.2861 24.3872 1.96816 24.3872 1.63664C24.3872 1.30512 24.2555 0.987175 24.0211 0.752755C23.7867 0.518334 23.4687 0.386638 23.1372 0.386638V0.366638Z" fill="#7D7898"/>
</svg>
