<svg width="24" height="24" viewBox="0 0 24 24" fill="none" xmlns="http://www.w3.org/2000/svg">
<path d="M23.15 5.40002L20.35 2.60002C20.2565 2.50841 20.1308 2.45709 20 2.45709C19.8691 2.45709 19.7434 2.50841 19.65 2.60002L7.84996 14.4C7.7565 14.4916 7.63084 14.5429 7.49996 14.5429C7.36908 14.5429 7.24342 14.4916 7.14996 14.4L4.34996 11.6C4.2565 11.5084 4.13084 11.4571 3.99996 11.4571C3.86908 11.4571 3.74342 11.5084 3.64996 11.6L0.84996 14.4C0.758346 14.4935 0.707031 14.6191 0.707031 14.75C0.707031 14.8809 0.758346 15.0066 0.84996 15.1L7.14996 21.4C7.24342 21.4916 7.36908 21.5429 7.49996 21.5429C7.63084 21.5429 7.7565 21.4916 7.84996 21.4L23.15 6.10002C23.2416 6.00656 23.2929 5.8809 23.2929 5.75002C23.2929 5.61914 23.2416 5.49349 23.15 5.40002Z" fill="#7D7898"/>
</svg>
