<svg width="24" height="24" viewBox="0 0 24 24" fill="none" xmlns="http://www.w3.org/2000/svg">
<path d="M22.6098 0.159983C22.5174 0.12256 22.416 0.113035 22.3183 0.132585C22.2205 0.152135 22.1307 0.199903 22.0598 0.269983L19.4698 2.85998C19.4338 2.89933 19.3858 2.92559 19.3333 2.93465C19.2808 2.9437 19.2268 2.93502 19.1798 2.90998C17.142 1.84865 14.8519 1.36756 12.5593 1.51922C10.2668 1.67088 8.05993 2.44947 6.17976 3.76998C4.60355 4.89897 3.31783 6.38597 2.42831 8.10871C1.5388 9.83145 1.0709 11.7407 1.06309 13.6795C1.05528 15.6183 1.50778 17.5313 2.38339 19.2612C3.25899 20.991 4.5327 22.4883 6.09976 23.63C6.31186 23.7846 6.56727 23.8686 6.82976 23.87C7.0251 23.8712 7.21789 23.8256 7.3919 23.7368C7.56592 23.6481 7.71608 23.5188 7.82976 23.36C7.92721 23.2274 7.99753 23.077 8.03671 22.9172C8.07588 22.7574 8.08314 22.5915 8.05805 22.4289C8.03297 22.2664 7.97604 22.1103 7.89053 21.9698C7.80503 21.8293 7.69262 21.707 7.55976 21.61C6.31402 20.6996 5.30237 19.5063 4.60816 18.1284C3.91394 16.7504 3.55702 15.2273 3.56678 13.6844C3.57655 12.1415 3.95272 10.623 4.66433 9.25394C5.37593 7.8849 6.4026 6.70451 7.65976 5.80998C9.02079 4.85453 10.5986 4.25357 12.2504 4.0615C13.9022 3.86943 15.5758 4.09232 17.1198 4.70998C17.159 4.72486 17.194 4.749 17.2219 4.78034C17.2497 4.81168 17.2696 4.8493 17.2798 4.88998C17.2866 4.92958 17.2839 4.97025 17.2717 5.00855C17.2595 5.04684 17.2383 5.08164 17.2098 5.10998L15.3698 6.99998C15.2973 7.06938 15.248 7.15933 15.2283 7.25769C15.2086 7.35604 15.2196 7.45807 15.2598 7.54998C15.2973 7.64129 15.361 7.71946 15.4428 7.77462C15.5247 7.82979 15.621 7.85949 15.7198 7.85998H22.4198C22.5516 7.85742 22.6773 7.80392 22.7705 7.7107C22.8637 7.61749 22.9172 7.49179 22.9198 7.35998V0.619983C22.918 0.521571 22.8878 0.425775 22.8328 0.344152C22.7778 0.262528 22.7003 0.198567 22.6098 0.159983Z" fill="#7D7898"/>
</svg>
