<svg width="24" height="24" viewBox="0 0 24 24" fill="none" xmlns="http://www.w3.org/2000/svg">
<path d="M14.7098 0.420005C14.6169 0.326276 14.5063 0.251882 14.3844 0.201113C14.2625 0.150345 14.1318 0.124207 13.9998 0.124207C13.8678 0.124207 13.7371 0.150345 13.6152 0.201113C13.4934 0.251882 13.3828 0.326276 13.2898 0.420005L7.67982 6C7.63031 6.04428 7.56623 6.06876 7.49982 6.06876C7.4334 6.06876 7.36932 6.04428 7.31982 6L1.70982 0.420005C1.61685 0.326276 1.50625 0.251882 1.38439 0.201113C1.26253 0.150345 1.13183 0.124207 0.999816 0.124207C0.867804 0.124207 0.737099 0.150345 0.61524 0.201113C0.49338 0.251882 0.382779 0.326276 0.289816 0.420005C0.103565 0.607367 -0.000976562 0.860819 -0.000976562 1.125C-0.000976562 1.38919 0.103565 1.64264 0.289816 1.83L5.90982 7.45C5.93373 7.47245 5.95279 7.49956 5.96582 7.52966C5.97885 7.55976 5.98558 7.59221 5.98558 7.625C5.98558 7.6578 5.97885 7.69025 5.96582 7.72035C5.95279 7.75045 5.93373 7.77756 5.90982 7.8L0.289816 13.42C0.197234 13.5132 0.123924 13.6238 0.0740699 13.7454C0.0242161 13.8669 -0.00120425 13.9971 -0.000739962 14.1285C0.00019772 14.3939 0.106512 14.648 0.294816 14.835C0.388055 14.9276 0.498616 15.0009 0.620186 15.0508C0.741757 15.1006 0.871957 15.126 1.00335 15.1256C1.26872 15.1246 1.52284 15.0183 1.70982 14.83L7.31982 9.22001C7.34314 9.19581 7.3711 9.17656 7.40202 9.16342C7.43295 9.15027 7.46621 9.1435 7.49982 9.1435C7.53342 9.1435 7.56668 9.15027 7.59761 9.16342C7.62854 9.17656 7.65649 9.19581 7.67982 9.22001L13.2898 14.83C13.3824 14.9232 13.4924 14.9973 13.6137 15.048C13.7349 15.0988 13.8649 15.1251 13.9963 15.1256C14.1277 15.126 14.2579 15.1006 14.3794 15.0508C14.501 15.0009 14.6116 14.9276 14.7048 14.835C14.7981 14.7424 14.8721 14.6324 14.9229 14.5112C14.9736 14.39 14.9999 14.2599 15.0004 14.1285C15.0008 13.9971 14.9754 13.8669 14.9256 13.7454C14.8757 13.6238 14.8024 13.5132 14.7098 13.42L9.08982 7.8C9.0659 7.77756 9.04684 7.75045 9.03381 7.72035C9.02078 7.69025 9.01406 7.6578 9.01406 7.625C9.01406 7.59221 9.02078 7.55976 9.03381 7.52966C9.04684 7.49956 9.0659 7.47245 9.08982 7.45L14.7098 1.83C14.8961 1.64264 15.0006 1.38919 15.0006 1.125C15.0006 0.860819 14.8961 0.607367 14.7098 0.420005Z" fill="#7D7898"/>
<path d="M22.9998 21.87H20.4198C20.3736 21.8704 20.3282 21.8573 20.2891 21.8325C20.2501 21.8077 20.2191 21.7721 20.1998 21.73C20.1757 21.6928 20.1629 21.6494 20.1629 21.605C20.1629 21.5606 20.1757 21.5172 20.1998 21.48L23.3498 17C23.6614 16.5595 23.8659 16.0524 23.9471 15.519C24.0284 14.9856 23.9842 14.4406 23.8179 13.9273C23.6517 13.414 23.3681 12.9466 22.9896 12.5621C22.6111 12.1776 22.1481 11.8866 21.6375 11.7124C21.1268 11.5381 20.5826 11.4853 20.048 11.5582C19.5134 11.6311 19.0032 11.8276 18.5578 12.1322C18.1125 12.4368 17.7443 12.841 17.4825 13.3128C17.2207 13.7846 17.0726 14.3109 17.0498 14.85C17.0392 15.1152 17.1344 15.3738 17.3144 15.5688C17.4945 15.7639 17.7446 15.8794 18.0098 15.89C18.275 15.9006 18.5336 15.8054 18.7286 15.6254C18.9237 15.4454 19.0392 15.1952 19.0498 14.93C19.0654 14.5515 19.2274 14.1939 19.5017 13.9327C19.776 13.6715 20.1411 13.5271 20.5198 13.53C20.7899 13.5282 21.0553 13.5998 21.2878 13.7372C21.5203 13.8746 21.7111 14.0726 21.8398 14.31C21.9673 14.5559 22.0227 14.8328 21.9997 15.1087C21.9767 15.3847 21.8762 15.6486 21.7098 15.87L17.1998 22.3C17.1012 22.4458 17.0428 22.615 17.0305 22.7906C17.0182 22.9662 17.0524 23.1419 17.1298 23.3C17.2143 23.4631 17.342 23.5997 17.499 23.6949C17.656 23.7902 17.8362 23.8404 18.0198 23.84H22.9998C23.265 23.84 23.5194 23.7346 23.7069 23.5471C23.8945 23.3596 23.9998 23.1052 23.9998 22.84C23.9998 22.5748 23.8945 22.3204 23.7069 22.1329C23.5194 21.9454 23.265 21.84 22.9998 21.84V21.87Z" fill="#7D7898"/>
</svg>
