<svg width="24" height="24" viewBox="0 0 24 24" fill="none" xmlns="http://www.w3.org/2000/svg">
<path d="M22.5 23.27H1.5C1.16848 23.27 0.850537 23.1383 0.616117 22.9039C0.381696 22.6694 0.25 22.3515 0.25 22.02C0.25 21.6885 0.381696 21.3705 0.616117 21.1361C0.850537 20.9017 1.16848 20.77 1.5 20.77H22.5C22.8315 20.77 23.1495 20.9017 23.3839 21.1361C23.6183 21.3705 23.75 21.6885 23.75 22.02C23.75 22.3515 23.6183 22.6694 23.3839 22.9039C23.1495 23.1383 22.8315 23.27 22.5 23.27Z" fill="#7D7898"/>
<path d="M19.64 3.22998H1.5C1.16848 3.22998 0.850537 3.09828 0.616117 2.86386C0.381696 2.62944 0.25 2.3115 0.25 1.97998C0.25 1.64846 0.381696 1.33052 0.616117 1.0961C0.850537 0.861677 1.16848 0.72998 1.5 0.72998H19.64C19.9715 0.72998 20.2895 0.861677 20.5239 1.0961C20.7583 1.33052 20.89 1.64846 20.89 1.97998C20.89 2.3115 20.7583 2.62944 20.5239 2.86386C20.2895 3.09828 19.9715 3.22998 19.64 3.22998Z" fill="#7D7898"/>
<path d="M15.82 9.90998H1.5C1.16848 9.90998 0.850537 9.77828 0.616117 9.54386C0.381696 9.30944 0.25 8.9915 0.25 8.65998C0.25 8.32846 0.381696 8.01052 0.616117 7.7761C0.850537 7.54168 1.16848 7.40998 1.5 7.40998H15.82C16.1515 7.40998 16.4695 7.54168 16.7039 7.7761C16.9383 8.01052 17.07 8.32846 17.07 8.65998C17.07 8.9915 16.9383 9.30944 16.7039 9.54386C16.4695 9.77828 16.1515 9.90998 15.82 9.90998Z" fill="#7D7898"/>
<path d="M18.68 16.59H1.5C1.16848 16.59 0.850537 16.4583 0.616117 16.2239C0.381696 15.9894 0.25 15.6715 0.25 15.34C0.25 15.0085 0.381696 14.6905 0.616117 14.4561C0.850537 14.2217 1.16848 14.09 1.5 14.09H18.68C19.0115 14.09 19.3295 14.2217 19.5639 14.4561C19.7983 14.6905 19.93 15.0085 19.93 15.34C19.93 15.6715 19.7983 15.9894 19.5639 16.2239C19.3295 16.4583 19.0115 16.59 18.68 16.59Z" fill="#7D7898"/>
</svg>
