<svg width="24" height="24" viewBox="0 0 24 24" fill="none" xmlns="http://www.w3.org/2000/svg">
<path d="M21.0601 10.29L5.00008 0.560023C4.69693 0.384988 4.35314 0.292587 4.00308 0.292056C3.65303 0.291524 3.30896 0.38288 3.00528 0.556992C2.70159 0.731105 2.44892 0.981876 2.27253 1.28424C2.09613 1.58661 2.00219 1.92997 2.00008 2.28002V21.72C1.99691 22.0741 2.08782 22.4227 2.26351 22.7302C2.43921 23.0377 2.69339 23.293 3.00008 23.47C3.30601 23.6399 3.65016 23.729 4.00008 23.729C4.35 23.729 4.69415 23.6399 5.00008 23.47L21.0001 13.74C21.294 13.5618 21.537 13.3107 21.7056 13.0112C21.8742 12.7117 21.9628 12.3738 21.9628 12.03C21.9628 11.6863 21.8742 11.3484 21.7056 11.0488C21.537 10.7493 21.294 10.4983 21.0001 10.32L21.0601 10.29Z" fill="#7D7898"/>
</svg>
