<svg width="24" height="24" viewBox="0 0 24 24" fill="none" xmlns="http://www.w3.org/2000/svg">
<path d="M17.7901 3.76999C15.9099 2.44947 13.7031 1.67088 11.4105 1.51922C9.11798 1.36756 6.82782 1.84866 4.79008 2.90999C4.74305 2.93503 4.68902 2.9437 4.63652 2.93465C4.58401 2.9256 4.53601 2.89933 4.50008 2.85999L1.94008 0.269988C1.86787 0.202042 1.77805 0.155714 1.68082 0.136269C1.5836 0.116824 1.48287 0.125041 1.39008 0.159988C1.29953 0.198571 1.22208 0.262533 1.16707 0.344156C1.11206 0.425779 1.08185 0.521576 1.08008 0.619988V7.31999C1.08264 7.4518 1.13614 7.57749 1.22936 7.67071C1.32258 7.76393 1.44827 7.81743 1.58008 7.81999H8.28008C8.37879 7.8195 8.47515 7.78979 8.55701 7.73463C8.63887 7.67946 8.70257 7.6013 8.74008 7.50999C8.77164 7.42325 8.77806 7.32936 8.7586 7.23913C8.73914 7.1489 8.69459 7.06601 8.63008 6.99999L6.78008 5.10999C6.75093 5.0823 6.72993 5.04715 6.71935 5.00837C6.70877 4.96958 6.70902 4.92864 6.72008 4.88999C6.72666 4.8493 6.74405 4.81112 6.77044 4.77946C6.79683 4.74779 6.83124 4.7238 6.87008 4.70999C8.41296 4.08689 10.0876 3.86108 11.7404 4.05327C13.3932 4.24545 14.9713 4.84949 16.3301 5.80999C17.5872 6.70451 18.6139 7.88491 19.3255 9.25395C20.0371 10.623 20.4133 12.1415 20.4231 13.6844C20.4328 15.2273 20.0759 16.7505 19.3817 18.1284C18.6875 19.5063 17.6758 20.6996 16.4301 21.61C16.2972 21.707 16.1848 21.8293 16.0993 21.9698C16.0138 22.1103 15.9569 22.2664 15.9318 22.4289C15.9067 22.5915 15.914 22.7574 15.9531 22.9172C15.9923 23.077 16.0626 23.2275 16.1601 23.36C16.2738 23.5188 16.4239 23.6481 16.5979 23.7368C16.772 23.8256 16.9647 23.8712 17.1601 23.87C17.4226 23.8686 17.678 23.7847 17.8901 23.63C19.4554 22.486 20.7269 20.9867 21.5999 19.2556C22.4729 17.5244 22.9226 15.6107 22.9118 13.6719C22.9011 11.733 22.4303 9.82446 21.5382 8.10306C20.646 6.38165 19.358 4.89659 17.7801 3.76999H17.7901Z" fill="#7D7898"/>
</svg>
