<svg width="24" height="24" viewBox="0 0 24 24" fill="none" xmlns="http://www.w3.org/2000/svg">
<path d="M7.75001 4.5H22.75C23.0152 4.5 23.2696 4.39464 23.4571 4.20711C23.6447 4.01957 23.75 3.76522 23.75 3.5C23.75 3.23478 23.6447 2.98043 23.4571 2.79289C23.2696 2.60536 23.0152 2.5 22.75 2.5H7.75001C7.4848 2.5 7.23044 2.60536 7.04291 2.79289C6.85537 2.98043 6.75001 3.23478 6.75001 3.5C6.75001 3.76522 6.85537 4.01957 7.04291 4.20711C7.23044 4.39464 7.4848 4.5 7.75001 4.5Z" fill="#7D7898"/>
<path d="M22.75 11H7.75001C7.4848 11 7.23044 11.1054 7.04291 11.2929C6.85537 11.4804 6.75001 11.7348 6.75001 12C6.75001 12.2652 6.85537 12.5196 7.04291 12.7071C7.23044 12.8946 7.4848 13 7.75001 13H22.75C23.0152 13 23.2696 12.8946 23.4571 12.7071C23.6447 12.5196 23.75 12.2652 23.75 12C23.75 11.7348 23.6447 11.4804 23.4571 11.2929C23.2696 11.1054 23.0152 11 22.75 11Z" fill="#7D7898"/>
<path d="M22.75 19.5H7.75001C7.4848 19.5 7.23044 19.6054 7.04291 19.7929C6.85537 19.9804 6.75001 20.2348 6.75001 20.5C6.75001 20.7652 6.85537 21.0196 7.04291 21.2071C7.23044 21.3946 7.4848 21.5 7.75001 21.5H22.75C23.0152 21.5 23.2696 21.3946 23.4571 21.2071C23.6447 21.0196 23.75 20.7652 23.75 20.5C23.75 20.2348 23.6447 19.9804 23.4571 19.7929C23.2696 19.6054 23.0152 19.5 22.75 19.5Z" fill="#7D7898"/>
<path d="M2.21001 17.25C1.77037 17.2503 1.34307 17.3954 0.994195 17.6629C0.645322 17.9305 0.39432 18.3055 0.280013 18.73C0.228296 18.9223 0.255081 19.1272 0.354475 19.2998C0.453869 19.4723 0.617731 19.5983 0.810013 19.65C1.0023 19.7017 1.20725 19.6749 1.37978 19.5755C1.55231 19.4761 1.6783 19.3123 1.73001 19.12C1.75848 19.0143 1.82085 18.9208 1.90757 18.854C1.99428 18.7871 2.10053 18.7506 2.21001 18.75C2.34262 18.75 2.4698 18.8027 2.56357 18.8964C2.65733 18.9902 2.71001 19.1174 2.71001 19.25C2.71001 19.3826 2.65733 19.5098 2.56357 19.6036C2.4698 19.6973 2.34262 19.75 2.21001 19.75C2.0111 19.75 1.82034 19.829 1.67968 19.9697C1.53903 20.1103 1.46001 20.3011 1.46001 20.5C1.46001 20.6989 1.53903 20.8897 1.67968 21.0303C1.82034 21.171 2.0111 21.25 2.21001 21.25C2.34262 21.25 2.4698 21.3027 2.56357 21.3964C2.65733 21.4902 2.71001 21.6174 2.71001 21.75C2.72725 21.8826 2.69111 22.0166 2.60953 22.1226C2.52795 22.2285 2.40762 22.2978 2.27501 22.315C2.1424 22.3322 2.00838 22.2961 1.90242 22.2145C1.79646 22.1329 1.72725 22.0126 1.71001 21.88C1.68802 21.7801 1.64581 21.6857 1.58598 21.6027C1.52615 21.5197 1.44996 21.4498 1.36211 21.3973C1.27426 21.3448 1.1766 21.3109 1.07514 21.2976C0.973686 21.2843 0.870577 21.2918 0.77216 21.3199C0.673743 21.3479 0.582102 21.3957 0.502875 21.4605C0.423648 21.5253 0.358511 21.6056 0.311474 21.6964C0.264436 21.7873 0.236492 21.8869 0.229362 21.9889C0.222232 22.091 0.236066 22.1935 0.270013 22.29C0.404268 22.7506 0.699623 23.1476 1.1022 23.4086C1.50478 23.6695 1.98776 23.7771 2.46304 23.7116C2.93832 23.6461 3.37423 23.412 3.69125 23.0519C4.00828 22.6918 4.1853 22.2297 4.19001 21.75C4.19264 21.354 4.07399 20.9666 3.85001 20.64C3.82544 20.5974 3.8125 20.5492 3.8125 20.5C3.8125 20.4508 3.82544 20.4026 3.85001 20.36C4.07399 20.0334 4.19264 19.646 4.19001 19.25C4.19004 18.723 3.98207 18.2173 3.61132 17.8428C3.24056 17.4683 2.73697 17.2553 2.21001 17.25Z" fill="#7D7898"/>
<path d="M4.25001 10.75C4.25001 10.2196 4.0393 9.71086 3.66423 9.33579C3.28915 8.96071 2.78045 8.75 2.25001 8.75C1.71958 8.75 1.21087 8.96071 0.8358 9.33579C0.460727 9.71086 0.250013 10.2196 0.250013 10.75C0.252603 10.9481 0.332452 11.1374 0.472547 11.2775C0.612642 11.4176 0.801906 11.4974 1.00001 11.5C1.19812 11.4974 1.38738 11.4176 1.52748 11.2775C1.66757 11.1374 1.74742 10.9481 1.75001 10.75C1.75001 10.6174 1.80269 10.4902 1.89646 10.3964C1.99023 10.3027 2.1174 10.25 2.25001 10.25C2.38262 10.25 2.5098 10.3027 2.60357 10.3964C2.69733 10.4902 2.75001 10.6174 2.75001 10.75C2.75047 10.9837 2.66909 11.2101 2.52001 11.39L0.410013 14C0.323533 14.1105 0.269347 14.2429 0.253461 14.3823C0.237576 14.5217 0.260611 14.6628 0.320013 14.79C0.381768 14.9181 0.478236 15.0263 0.598446 15.1024C0.718657 15.1784 0.857787 15.2191 1.00001 15.22H3.50001C3.69893 15.22 3.88969 15.141 4.03034 15.0003C4.171 14.8597 4.25001 14.6689 4.25001 14.47C4.25001 14.2711 4.171 14.0803 4.03034 13.9397C3.88969 13.799 3.69893 13.72 3.50001 13.72H3.08001C3.03401 13.7192 2.98913 13.7057 2.95031 13.681C2.9115 13.6563 2.88025 13.6213 2.86001 13.58C2.83293 13.5402 2.81844 13.4932 2.81844 13.445C2.81844 13.3968 2.83293 13.3498 2.86001 13.31L3.67001 12.31C4.02971 11.868 4.23357 11.3196 4.25001 10.75Z" fill="#7D7898"/>
<path d="M4.00001 5.25H3.75001C3.68371 5.25 3.62012 5.22366 3.57324 5.17678C3.52635 5.12989 3.50001 5.0663 3.50001 5V1.62C3.49737 1.25574 3.35082 0.907292 3.0923 0.650651C2.83379 0.394009 2.48429 0.24999 2.12001 0.25H1.50001C1.3011 0.25 1.11034 0.329018 0.969683 0.46967C0.829031 0.610322 0.750013 0.801088 0.750013 1C0.750013 1.19891 0.829031 1.38968 0.969683 1.53033C1.11034 1.67098 1.3011 1.75 1.50001 1.75H1.75001C1.81632 1.75 1.87991 1.77634 1.92679 1.82322C1.97367 1.87011 2.00001 1.9337 2.00001 2V5C2.00001 5.0663 1.97367 5.12989 1.92679 5.17678C1.87991 5.22366 1.81632 5.25 1.75001 5.25H1.50001C1.3011 5.25 1.11034 5.32902 0.969683 5.46967C0.829031 5.61032 0.750013 5.80109 0.750013 6C0.750013 6.19891 0.829031 6.38968 0.969683 6.53033C1.11034 6.67098 1.3011 6.75 1.50001 6.75H4.00001C4.19893 6.75 4.38969 6.67098 4.53034 6.53033C4.671 6.38968 4.75001 6.19891 4.75001 6C4.75001 5.80109 4.671 5.61032 4.53034 5.46967C4.38969 5.32902 4.19893 5.25 4.00001 5.25Z" fill="#7D7898"/>
</svg>
