<svg width="24" height="24" viewBox="0 0 24 24" fill="none" xmlns="http://www.w3.org/2000/svg">
<path d="M24 3C24 2.20435 23.6839 1.44129 23.1213 0.87868C22.5587 0.31607 21.7956 0 21 0H3C2.20435 0 1.44129 0.31607 0.87868 0.87868C0.31607 1.44129 0 2.20435 0 3V21C0 21.7956 0.31607 22.5587 0.87868 23.1213C1.44129 23.6839 2.20435 24 3 24H21C21.7956 24 22.5587 23.6839 23.1213 23.1213C23.6839 22.5587 24 21.7956 24 21V3ZM22 21C22 21.2652 21.8946 21.5196 21.7071 21.7071C21.5196 21.8946 21.2652 22 21 22H3C2.73478 22 2.48043 21.8946 2.29289 21.7071C2.10536 21.5196 2 21.2652 2 21V3C2 2.73478 2.10536 2.48043 2.29289 2.29289C2.48043 2.10536 2.73478 2 3 2H21C21.2652 2 21.5196 2.10536 21.7071 2.29289C21.8946 2.48043 22 2.73478 22 3V21Z" fill="#7D7898"/>
<path d="M4 8C4 8.53043 4.21071 9.03914 4.58579 9.41421C4.96086 9.78929 5.46957 10 6 10H9C9.79565 10 10.5587 9.68393 11.1213 9.12132C11.6839 8.55871 12 7.79565 12 7C12 6.20435 11.6839 5.44129 11.1213 4.87868C10.5587 4.31607 9.79565 4 9 4C8.41 4.00131 7.83348 4.17657 7.34256 4.50384C6.85165 4.83112 6.46813 5.29588 6.24 5.84C6.22142 5.88819 6.18838 5.92945 6.1454 5.9581C6.10243 5.98675 6.05163 6.00139 6 6C5.59598 5.99551 5.20074 6.11793 4.87 6.35C4.60183 6.53364 4.38245 6.77986 4.23086 7.06736C4.07927 7.35487 4.00003 7.67498 4 8Z" fill="#7D7898"/>
<path d="M4.27 20.22C4.17627 20.2196 4.08454 20.1928 4.00529 20.1427C3.92604 20.0927 3.86246 20.0214 3.8218 19.9369C3.78113 19.8525 3.76503 19.7583 3.77532 19.6651C3.78561 19.5719 3.82188 19.4835 3.88 19.41L6.67 15.78C6.82949 15.5892 7.02562 15.4323 7.24681 15.3186C7.468 15.2048 7.70974 15.1367 7.95774 15.118C8.20575 15.0994 8.45497 15.1306 8.69067 15.21C8.92638 15.2893 9.14377 15.4152 9.33 15.58L11.18 17.85C11.2301 17.9092 11.2931 17.9562 11.3642 17.9874C11.4352 18.0186 11.5125 18.0332 11.59 18.03C11.6678 18.027 11.7438 18.0054 11.8116 17.9672C11.8794 17.9289 11.9372 17.875 11.98 17.81L14.87 13.57C15.0106 13.3276 15.2143 13.1278 15.4594 12.9919C15.7045 12.8561 15.9818 12.7892 16.2619 12.7984C16.542 12.8077 16.8144 12.8926 17.05 13.0444C17.2856 13.1961 17.4757 13.4088 17.6 13.66L20.52 19.5C20.5621 19.573 20.5843 19.6557 20.5843 19.74C20.5843 19.8243 20.5621 19.907 20.52 19.98C20.4767 20.0529 20.4153 20.1134 20.3417 20.1554C20.2681 20.1975 20.1848 20.2198 20.1 20.22H4.27Z" fill="#7D7898"/>
</svg>
