<svg width="24" height="24" viewBox="0 0 24 24" fill="none" xmlns="http://www.w3.org/2000/svg">
<path d="M9.08019 16.65C9.05628 16.6275 9.03722 16.6004 9.02419 16.5703C9.01116 16.5402 9.00443 16.5078 9.00443 16.475C9.00443 16.4422 9.01116 16.4097 9.02419 16.3796C9.03722 16.3495 9.05628 16.3224 9.08019 16.3L14.6702 10.71C14.8585 10.5217 14.9643 10.2663 14.9643 9.99999C14.9643 9.73369 14.8585 9.47829 14.6702 9.28999C14.4819 9.10169 14.2265 8.9959 13.9602 8.9959C13.6939 8.9959 13.4385 9.10169 13.2502 9.28999L7.66019 14.88C7.63775 14.9039 7.61064 14.923 7.58054 14.936C7.55044 14.949 7.51799 14.9557 7.48519 14.9557C7.45239 14.9557 7.41994 14.949 7.38985 14.936C7.35975 14.923 7.33264 14.9039 7.31019 14.88L1.72019 9.28999C1.62695 9.19675 1.51626 9.12279 1.39444 9.07233C1.27262 9.02187 1.14205 8.9959 1.01019 8.9959C0.743891 8.9959 0.488497 9.10169 0.300193 9.28999C0.111889 9.47829 0.00610123 9.73369 0.00610123 9.99999C0.00610123 10.2663 0.111889 10.5217 0.300193 10.71L5.89019 16.3C5.91411 16.3224 5.93317 16.3495 5.9462 16.3796C5.95923 16.4097 5.96595 16.4422 5.96595 16.475C5.96595 16.5078 5.95923 16.5402 5.9462 16.5703C5.93317 16.6004 5.91411 16.6275 5.89019 16.65L0.300193 22.24C0.206464 22.333 0.13207 22.4436 0.0813015 22.5654C0.0305328 22.6873 0.00439453 22.818 0.00439453 22.95C0.00439453 23.082 0.0305328 23.2127 0.0813015 23.3346C0.13207 23.4564 0.206464 23.567 0.300193 23.66C0.393156 23.7537 0.503757 23.8281 0.625616 23.8789C0.747476 23.9296 0.878181 23.9558 1.01019 23.9558C1.1422 23.9558 1.27291 23.9296 1.39477 23.8789C1.51663 23.8281 1.62723 23.7537 1.72019 23.66L7.31019 18.06C7.35806 18.0164 7.42046 17.9923 7.48519 17.9923C7.54992 17.9923 7.61232 18.0164 7.66019 18.06L13.3002 23.71C13.3932 23.8037 13.5038 23.8781 13.6256 23.9289C13.7475 23.9797 13.8782 24.0058 14.0102 24.0058C14.1422 24.0058 14.2729 23.9797 14.3948 23.9289C14.5166 23.8781 14.6272 23.8037 14.7202 23.71C14.8139 23.617 14.8883 23.5064 14.9391 23.3846C14.9899 23.2627 15.016 23.132 15.016 23C15.016 22.868 14.9899 22.7373 14.9391 22.6154C14.8883 22.4936 14.8139 22.383 14.7202 22.29L9.08019 16.65Z" fill="#7D7898"/>
<path d="M23.0002 10.35H20.4102C20.3652 10.3501 20.321 10.3381 20.2823 10.3152C20.2436 10.2923 20.2118 10.2594 20.1902 10.22C20.1652 10.1812 20.1519 10.1361 20.1519 10.09C20.1519 10.0439 20.1652 9.99875 20.1902 9.95999L23.3202 5.47999C23.6249 5.03883 23.8233 4.53306 23.8997 4.00236C23.9761 3.47166 23.9285 2.93048 23.7606 2.42127C23.5927 1.91206 23.3091 1.44869 22.932 1.06751C22.555 0.686333 22.0947 0.397719 21.5873 0.224318C21.08 0.0509177 20.5393 -0.00255239 20.0078 0.068104C19.4763 0.13876 18.9684 0.331621 18.524 0.631552C18.0796 0.931482 17.7107 1.33032 17.4463 1.79678C17.1819 2.26323 17.0292 2.78461 17.0002 3.31999C17.0002 3.45131 17.0261 3.58135 17.0763 3.70267C17.1266 3.824 17.2002 3.93424 17.2931 4.0271C17.4806 4.21463 17.735 4.31999 18.0002 4.31999C18.2654 4.31999 18.5198 4.21463 18.7073 4.0271C18.8948 3.83956 19.0002 3.58521 19.0002 3.31999C19.0381 2.94788 19.2164 2.60421 19.4988 2.35896C19.7812 2.11372 20.1465 1.98535 20.5202 1.99999C20.793 1.99717 21.0612 2.07087 21.2943 2.21272C21.5274 2.35457 21.716 2.5589 21.8389 2.80253C21.9617 3.04616 22.0139 3.31934 21.9894 3.59109C21.9648 3.86284 21.8647 4.12228 21.7002 4.33999L17.1902 10.78C17.0867 10.9292 17.0257 11.1038 17.0139 11.285C17.0021 11.4662 17.0398 11.6472 17.1231 11.8086C17.2064 11.9699 17.332 12.1056 17.4865 12.201C17.641 12.2964 17.8186 12.3479 18.0002 12.35H23.0002C23.2654 12.35 23.5198 12.2446 23.7073 12.0571C23.8948 11.8696 24.0002 11.6152 24.0002 11.35C24.0002 11.0848 23.8948 10.8304 23.7073 10.6429C23.5198 10.4553 23.2654 10.35 23.0002 10.35Z" fill="#7D7898"/>
</svg>
