<svg width="25" height="25" viewBox="0 0 25 25" fill="none" xmlns="http://www.w3.org/2000/svg">
<path d="M16.856 2.51033L21.99 7.64433M2.771 16.5943L7.91 21.7243M22.44 2.06033C22.0994 1.72114 21.6949 1.4528 21.2499 1.27082C20.805 1.08884 20.3284 0.996814 19.8477 1.00007C19.367 1.00332 18.8917 1.10179 18.4493 1.28978C18.0068 1.47777 17.606 1.75156 17.27 2.09533L2.77 16.5953L1 23.5003L7.905 21.7293L22.405 7.22933C22.7489 6.89347 23.0227 6.49277 23.2108 6.05041C23.3988 5.60805 23.4973 5.1328 23.5006 4.65213C23.5039 4.17147 23.4118 3.69493 23.2298 3.25006C23.0477 2.8052 22.7793 2.40083 22.44 2.06033Z" stroke="#7D7898" stroke-width="1.5" stroke-linecap="round" stroke-linejoin="round"/>
</svg>
