<svg width="24" height="24" viewBox="0 0 24 24" fill="none" xmlns="http://www.w3.org/2000/svg">
<path d="M22.5 21.25H1.5C1.16848 21.25 0.850537 21.3817 0.616117 21.6161C0.381696 21.8505 0.25 22.1685 0.25 22.5C0.25 22.8315 0.381696 23.1495 0.616117 23.3839C0.850537 23.6183 1.16848 23.75 1.5 23.75H22.5C22.8315 23.75 23.1495 23.6183 23.3839 23.3839C23.6183 23.1495 23.75 22.8315 23.75 22.5C23.75 22.1685 23.6183 21.8505 23.3839 21.6161C23.1495 21.3817 22.8315 21.25 22.5 21.25Z" fill="#7D7898"/>
<path d="M2 2.75H3.34C3.4063 2.75 3.46989 2.77634 3.51678 2.82322C3.56366 2.87011 3.59 2.9337 3.59 3V11.52C3.59 13.7505 4.47605 15.8896 6.05323 17.4668C7.63041 19.0439 9.76953 19.93 12 19.93C14.2305 19.93 16.3696 19.0439 17.9468 17.4668C19.5239 15.8896 20.41 13.7505 20.41 11.52V3C20.41 2.9337 20.4363 2.87011 20.4832 2.82322C20.5301 2.77634 20.5937 2.75 20.66 2.75H22C22.3315 2.75 22.6495 2.6183 22.8839 2.38388C23.1183 2.14946 23.25 1.83152 23.25 1.5C23.25 1.16848 23.1183 0.850537 22.8839 0.616117C22.6495 0.381696 22.3315 0.25 22 0.25H16.3C15.9685 0.25 15.6505 0.381696 15.4161 0.616117C15.1817 0.850537 15.05 1.16848 15.05 1.5C15.05 1.83152 15.1817 2.14946 15.4161 2.38388C15.6505 2.6183 15.9685 2.75 16.3 2.75H17.66C17.7263 2.75 17.7899 2.77634 17.8368 2.82322C17.8837 2.87011 17.91 2.9337 17.91 3V11.52C17.91 13.0874 17.2873 14.5907 16.179 15.699C15.0707 16.8073 13.5674 17.43 12 17.43C10.4326 17.43 8.92934 16.8073 7.821 15.699C6.71266 14.5907 6.09 13.0874 6.09 11.52V3C6.09 2.9337 6.11634 2.87011 6.16322 2.82322C6.21011 2.77634 6.2737 2.75 6.34 2.75H7.7C8.03152 2.75 8.34946 2.6183 8.58388 2.38388C8.8183 2.14946 8.95 1.83152 8.95 1.5C8.95 1.16848 8.8183 0.850537 8.58388 0.616117C8.34946 0.381696 8.03152 0.25 7.7 0.25H2C1.66848 0.25 1.35054 0.381696 1.11612 0.616117C0.881696 0.850537 0.75 1.16848 0.75 1.5C0.75 1.83152 0.881696 2.14946 1.11612 2.38388C1.35054 2.6183 1.66848 2.75 2 2.75Z" fill="#7D7898"/>
</svg>
