<svg width="24" height="24" viewBox="0 0 24 24" fill="none" xmlns="http://www.w3.org/2000/svg">
<path d="M21 0.529973C20.696 0.354436 20.3511 0.262024 20 0.262024C19.649 0.262024 19.3041 0.354436 19 0.529973L2.93003 10.29C2.63614 10.4682 2.39315 10.7193 2.22451 11.0188C2.05588 11.3183 1.96729 11.6562 1.96729 12C1.96729 12.3437 2.05588 12.6816 2.22451 12.9812C2.39315 13.2807 2.63614 13.5317 2.93003 13.71L19 23.44C19.3032 23.615 19.647 23.7074 19.997 23.7079C20.3471 23.7085 20.6911 23.6171 20.9948 23.443C21.2985 23.2689 21.5512 23.0181 21.7276 22.7158C21.904 22.4134 21.9979 22.07 22 21.72V2.26997C22.0014 1.91755 21.9097 1.57102 21.7341 1.26547C21.5585 0.95991 21.3052 0.706182 21 0.529973Z" fill="#7D7898"/>
</svg>
