<svg width="24" height="24" viewBox="0 0 24 24" fill="none" xmlns="http://www.w3.org/2000/svg">
<path d="M12.4162 14.7984C12.1712 14.8982 11.9758 15.0911 11.8727 15.3348C11.7696 15.5784 11.7673 15.853 11.8662 16.0984C11.9428 16.2805 11.9637 16.4812 11.9264 16.6752C11.889 16.8692 11.795 17.0478 11.6562 17.1884L8.82624 20.0184C8.64049 20.2043 8.41991 20.3518 8.17712 20.4525C7.93432 20.5531 7.67407 20.6049 7.41124 20.6049C7.14841 20.6049 6.88815 20.5531 6.64536 20.4525C6.40256 20.3518 6.18198 20.2043 5.99624 20.0184L3.87624 17.8884C3.69028 17.7026 3.54277 17.4821 3.44212 17.2393C3.34147 16.9965 3.28966 16.7362 3.28966 16.4734C3.28966 16.2105 3.34147 15.9503 3.44212 15.7075C3.54277 15.4647 3.69028 15.2441 3.87624 15.0584L6.70624 12.2384C6.84686 12.0996 7.02543 12.0056 7.21942 11.9682C7.41341 11.9309 7.61413 11.9518 7.79624 12.0284C8.04156 12.1292 8.31687 12.1284 8.56161 12.0262C8.80634 11.9239 9.00045 11.7287 9.10124 11.4834C9.20202 11.2381 9.20122 10.9627 9.09901 10.718C8.9968 10.4733 8.80156 10.2792 8.55624 10.1784C8.00801 9.95114 7.4047 9.8916 6.82263 10.0073C6.24056 10.123 5.70588 10.4087 5.28624 10.8284L2.45624 13.6584C1.70818 14.4082 1.28809 15.4242 1.28809 16.4834C1.28809 17.5426 1.70818 18.5585 2.45624 19.3084L4.58624 21.4384C5.3361 22.1864 6.35205 22.6065 7.41124 22.6065C8.47042 22.6065 9.48637 22.1864 10.2362 21.4384L13.0662 18.6084C13.4859 18.1887 13.7716 17.6541 13.8873 17.072C14.003 16.4899 13.9435 15.8866 13.7162 15.3384C13.6145 15.0952 13.4208 14.902 13.1773 14.8009C12.9339 14.6998 12.6604 14.6989 12.4162 14.7984Z" fill="#7D7898"/>
<path d="M7.76624 16.1284C7.9536 16.3146 8.20705 16.4192 8.47124 16.4192C8.73542 16.4192 8.98887 16.3146 9.17624 16.1284L17.0062 8.34838C17.1701 8.15708 17.2557 7.911 17.2459 7.65932C17.2362 7.40765 17.1319 7.16891 16.9538 6.99081C16.7757 6.81272 16.537 6.70839 16.2853 6.69867C16.0336 6.68894 15.7875 6.77455 15.5962 6.93838L7.76624 14.7184C7.57998 14.9057 7.47544 15.1592 7.47544 15.4234C7.47544 15.6876 7.57998 15.941 7.76624 16.1284Z" fill="#7D7898"/>
<path d="M21.5562 4.45838L19.4262 2.33838C18.6764 1.59033 17.6604 1.17023 16.6012 1.17023C15.542 1.17023 14.5261 1.59033 13.7762 2.33838L10.9462 5.16838C10.3835 5.73045 10.0669 6.493 10.0662 7.28838C10.0665 7.68311 10.1447 8.07391 10.2962 8.43838C10.397 8.6837 10.5911 8.87894 10.8359 8.98115C11.0806 9.08336 11.3559 9.08416 11.6012 8.98338C11.8466 8.8826 12.0418 8.68849 12.144 8.44375C12.2462 8.19902 12.247 7.9237 12.1462 7.67838C12.0937 7.55505 12.0665 7.42242 12.0662 7.28838C12.0673 7.02604 12.1715 6.77464 12.3562 6.58838L15.1862 3.75838C15.372 3.57242 15.5926 3.42491 15.8354 3.32426C16.0782 3.22361 16.3384 3.1718 16.6012 3.1718C16.8641 3.1718 17.1243 3.22361 17.3671 3.32426C17.6099 3.42491 17.8305 3.57242 18.0162 3.75838L20.1362 5.88838C20.3222 6.07412 20.4697 6.2947 20.5704 6.5375C20.671 6.78029 20.7228 7.04055 20.7228 7.30338C20.7228 7.56621 20.671 7.82646 20.5704 8.06926C20.4697 8.31205 20.3222 8.53263 20.1362 8.71838L17.3062 11.5284C17.1667 11.6688 16.9887 11.7647 16.7946 11.8039C16.6006 11.843 16.3993 11.8237 16.2162 11.7484C15.9721 11.6489 15.6986 11.6498 15.4551 11.7509C15.2117 11.852 15.018 12.0452 14.9162 12.2884C14.8654 12.4098 14.8391 12.5401 14.8387 12.6717C14.8384 12.8034 14.864 12.9338 14.9142 13.0555C14.9644 13.1772 15.0381 13.2878 15.1311 13.381C15.2241 13.4742 15.3346 13.548 15.4562 13.5984C16.0045 13.8256 16.6078 13.8851 17.1898 13.7694C17.7719 13.6537 18.3066 13.368 18.7262 12.9484L21.5562 10.1184C21.9281 9.74688 22.2232 9.30573 22.4245 8.82014C22.6258 8.33455 22.7294 7.81404 22.7294 7.28838C22.7294 6.76271 22.6258 6.24221 22.4245 5.75662C22.2232 5.27102 21.9281 4.82987 21.5562 4.45838Z" fill="#7D7898"/>
</svg>
