<svg width="24" height="24" viewBox="0 0 24 24" fill="none" xmlns="http://www.w3.org/2000/svg">
<path d="M9.93006 3.92999C8.65389 3.96622 7.39739 4.25376 6.23248 4.77615C5.06757 5.29854 4.01711 6.04553 3.14122 6.97436C2.26533 7.9032 1.5812 8.99564 1.128 10.1892C0.674797 11.3827 0.461411 12.6539 0.500055 13.93V15.17C0.500055 16.147 0.789781 17.1021 1.3326 17.9145C1.87541 18.7269 2.64693 19.3601 3.5496 19.734C4.45227 20.1079 5.44553 20.2057 6.4038 20.0151C7.36207 19.8245 8.24229 19.354 8.93316 18.6631C9.62403 17.9722 10.0945 17.092 10.2851 16.1337C10.4757 15.1755 10.3779 14.1822 10.004 13.2795C9.63012 12.3769 8.99695 11.6053 8.18457 11.0625C7.37219 10.5197 6.41709 10.23 5.44005 10.23C5.06567 10.2303 4.69279 10.2773 4.33005 10.37C4.28272 10.3835 4.23239 10.382 4.18588 10.3659C4.13937 10.3498 4.09894 10.3198 4.07006 10.28C4.04334 10.2382 4.02914 10.1896 4.02914 10.14C4.02914 10.0904 4.04334 10.0418 4.07006 9.99999C4.64502 8.94084 5.48999 8.05268 6.51919 7.42567C7.54839 6.79867 8.72517 6.45515 9.93006 6.42999C10.2616 6.42999 10.5795 6.2983 10.8139 6.06388C11.0484 5.82946 11.1801 5.51151 11.1801 5.17999C11.1801 4.84847 11.0484 4.53053 10.8139 4.29611C10.5795 4.06169 10.2616 3.92999 9.93006 3.92999Z" fill="#7D7898"/>
<path d="M22.2501 6.42999C22.5816 6.42999 22.8995 6.2983 23.1339 6.06388C23.3684 5.82946 23.5001 5.51151 23.5001 5.17999C23.5001 4.84847 23.3684 4.53053 23.1339 4.29611C22.8995 4.06169 22.5816 3.92999 22.2501 3.92999C20.9739 3.96622 19.7174 4.25376 18.5525 4.77615C17.3876 5.29854 16.3371 6.04553 15.4612 6.97436C14.5853 7.9032 13.9012 8.99564 13.448 10.1892C12.9948 11.3827 12.7814 12.6539 12.8201 13.93V15.17C12.8181 16.1499 13.107 17.1083 13.6501 17.9238C14.1933 18.7394 14.9662 19.3754 15.8711 19.7513C16.776 20.1272 17.7722 20.226 18.7333 20.0354C19.6944 19.8447 20.5774 19.373 21.2702 18.6802C21.9631 17.9873 22.4347 17.1044 22.6254 16.1432C22.8161 15.1821 22.7172 14.186 22.3413 13.2811C21.9654 12.3762 21.3294 11.6032 20.5139 11.0601C19.6983 10.5169 18.7399 10.228 17.7601 10.23C17.3857 10.2309 17.0129 10.2779 16.6501 10.37C16.6027 10.3835 16.5524 10.382 16.5059 10.3659C16.4594 10.3498 16.4189 10.3198 16.3901 10.28C16.3633 10.2382 16.3491 10.1896 16.3491 10.14C16.3491 10.0904 16.3633 10.0418 16.3901 9.99999C16.965 8.94084 17.81 8.05268 18.8392 7.42567C19.8684 6.79867 21.0452 6.45515 22.2501 6.42999Z" fill="#7D7898"/>
</svg>
