<svg width="24" height="24" viewBox="0 0 24 24" fill="none" xmlns="http://www.w3.org/2000/svg">
<path d="M22 23.75H2C1.66848 23.75 1.35054 23.6183 1.11612 23.3839C0.881696 23.1495 0.75 22.8315 0.75 22.5C0.75 22.1685 0.881696 21.8505 1.11612 21.6161C1.35054 21.3817 1.66848 21.25 2 21.25H22C22.3315 21.25 22.6495 21.3817 22.8839 21.6161C23.1183 21.8505 23.25 22.1685 23.25 22.5C23.25 22.8315 23.1183 23.1495 22.8839 23.3839C22.6495 23.6183 22.3315 23.75 22 23.75Z" fill="#7D7898"/>
<path d="M22 2.75H2C1.66848 2.75 1.35054 2.6183 1.11612 2.38388C0.881696 2.14946 0.75 1.83152 0.75 1.5C0.75 1.16848 0.881696 0.850537 1.11612 0.616117C1.35054 0.381696 1.66848 0.25 2 0.25H22C22.3315 0.25 22.6495 0.381696 22.8839 0.616117C23.1183 0.850537 23.25 1.16848 23.25 1.5C23.25 1.83152 23.1183 2.14946 22.8839 2.38388C22.6495 2.6183 22.3315 2.75 22 2.75Z" fill="#7D7898"/>
<path d="M20 9.75H4C3.66848 9.75 3.35054 9.6183 3.11612 9.38388C2.8817 9.14946 2.75 8.83152 2.75 8.5C2.75 8.16848 2.8817 7.85054 3.11612 7.61612C3.35054 7.3817 3.66848 7.25 4 7.25H20C20.3315 7.25 20.6495 7.3817 20.8839 7.61612C21.1183 7.85054 21.25 8.16848 21.25 8.5C21.25 8.83152 21.1183 9.14946 20.8839 9.38388C20.6495 9.6183 20.3315 9.75 20 9.75Z" fill="#7D7898"/>
<path d="M17.5 16.75H6.5C6.16848 16.75 5.85054 16.6183 5.61612 16.3839C5.3817 16.1495 5.25 15.8315 5.25 15.5C5.25 15.1685 5.3817 14.8505 5.61612 14.6161C5.85054 14.3817 6.16848 14.25 6.5 14.25H17.5C17.8315 14.25 18.1495 14.3817 18.3839 14.6161C18.6183 14.8505 18.75 15.1685 18.75 15.5C18.75 15.8315 18.6183 16.1495 18.3839 16.3839C18.1495 16.6183 17.8315 16.75 17.5 16.75Z" fill="#7D7898"/>
</svg>
