<svg width="24" height="24" viewBox="0 0 24 24" fill="none" xmlns="http://www.w3.org/2000/svg">
<path d="M20.41 23.63H4.53002C4.09848 23.6252 3.67807 23.4925 3.32203 23.2486C2.96599 23.0047 2.69034 22.6607 2.53002 22.26C2.36502 21.8452 2.33516 21.3889 2.4447 20.9562C2.55423 20.5235 2.79756 20.1363 3.14002 19.85L12.14 12.19C12.1679 12.1668 12.1904 12.1377 12.206 12.1049C12.2215 12.0721 12.2297 12.0363 12.23 12C12.2312 11.9635 12.2236 11.9272 12.208 11.8941C12.1923 11.8611 12.169 11.8322 12.14 11.81L3.14002 4.15C2.79881 3.86273 2.5564 3.47561 2.44695 3.04322C2.33751 2.61083 2.36656 2.15499 2.53002 1.74C2.68808 1.33776 2.96316 0.992194 3.3197 0.747962C3.67624 0.503731 4.09785 0.372068 4.53002 0.369995H20.41C20.7415 0.369995 21.0595 0.501691 21.2939 0.736112C21.5283 0.970532 21.66 1.28847 21.66 1.62C21.66 1.95152 21.5283 2.26946 21.2939 2.50388C21.0595 2.7383 20.7415 2.87 20.41 2.87H6.13002C6.08317 2.86679 6.0364 2.87739 5.99552 2.9005C5.95464 2.92361 5.92143 2.9582 5.90002 3C5.87689 3.05509 5.87426 3.11665 5.8926 3.17352C5.91095 3.23038 5.94905 3.2788 6.00002 3.31L14.32 10.37C14.5577 10.5699 14.7488 10.8194 14.8799 11.101C15.011 11.3826 15.0789 11.6894 15.0789 12C15.0789 12.3106 15.011 12.6174 14.8799 12.899C14.7488 13.1806 14.5577 13.4301 14.32 13.63L6.00002 20.69C5.94905 20.7212 5.91095 20.7696 5.8926 20.8265C5.87426 20.8833 5.87689 20.9449 5.90002 21C5.91677 21.0474 5.94798 21.0883 5.98925 21.117C6.03051 21.1457 6.07975 21.1608 6.13002 21.16H20.41C20.7415 21.16 21.0595 21.2917 21.2939 21.5261C21.5283 21.7605 21.66 22.0785 21.66 22.41C21.66 22.7415 21.5283 23.0595 21.2939 23.2939C21.0595 23.5283 20.7415 23.66 20.41 23.66V23.63Z" fill="#7D7898"/>
</svg>
