<svg width="24" height="24" viewBox="0 0 24 24" fill="none" xmlns="http://www.w3.org/2000/svg">
<path d="M12 0.5C10.8073 0.502642 9.66428 0.977596 8.82094 1.82094C7.9776 2.66428 7.50264 3.80734 7.5 5V8.13C7.5 8.39522 7.60536 8.64957 7.79289 8.83711C7.98043 9.02464 8.23478 9.13 8.5 9.13C8.76522 9.13 9.01957 9.02464 9.20711 8.83711C9.39464 8.64957 9.5 8.39522 9.5 8.13V5C9.5 4.33696 9.76339 3.70107 10.2322 3.23223C10.7011 2.76339 11.337 2.5 12 2.5C12.663 2.5 13.2989 2.76339 13.7678 3.23223C14.2366 3.70107 14.5 4.33696 14.5 5V10.5C14.5 11.163 14.2366 11.7989 13.7678 12.2678C13.2989 12.7366 12.663 13 12 13C11.7348 13 11.4804 13.1054 11.2929 13.2929C11.1054 13.4804 11 13.7348 11 14C11 14.2652 11.1054 14.5196 11.2929 14.7071C11.4804 14.8946 11.7348 15 12 15C13.1927 14.9974 14.3357 14.5224 15.1791 13.6791C16.0224 12.8357 16.4974 11.6927 16.5 10.5V5C16.4974 3.80734 16.0224 2.66428 15.1791 1.82094C14.3357 0.977596 13.1927 0.502642 12 0.5Z" fill="#7D7898"/>
<path d="M15.5 15.63C15.2348 15.63 14.9804 15.7354 14.7929 15.9229C14.6054 16.1104 14.5 16.3648 14.5 16.63V19C14.5 19.663 14.2366 20.2989 13.7678 20.7678C13.2989 21.2366 12.663 21.5 12 21.5C11.337 21.5 10.7011 21.2366 10.2322 20.7678C9.76339 20.2989 9.5 19.663 9.5 19V14C9.5 13.337 9.76339 12.7011 10.2322 12.2322C10.7011 11.7634 11.337 11.5 12 11.5C12.2652 11.5 12.5196 11.3946 12.7071 11.2071C12.8946 11.0196 13 10.7652 13 10.5C13 10.2348 12.8946 9.98043 12.7071 9.79289C12.5196 9.60536 12.2652 9.5 12 9.5C10.8073 9.50264 9.66428 9.9776 8.82094 10.8209C7.9776 11.6643 7.50264 12.8073 7.5 14V19C7.5 20.1935 7.97411 21.3381 8.81802 22.182C9.66193 23.0259 10.8065 23.5 12 23.5C13.1935 23.5 14.3381 23.0259 15.182 22.182C16.0259 21.3381 16.5 20.1935 16.5 19V16.63C16.5 16.3648 16.3946 16.1104 16.2071 15.9229C16.0196 15.7354 15.7652 15.63 15.5 15.63Z" fill="#7D7898"/>
<path d="M5.24 6.88L3.94 6.13C3.70926 5.99739 3.4353 5.96188 3.17837 6.03126C2.92145 6.10065 2.70261 6.26926 2.57 6.5C2.43739 6.73074 2.40188 7.0047 2.47126 7.26163C2.54065 7.51855 2.70926 7.73739 2.94 7.87L4.24 8.62C4.46962 8.75037 4.74148 8.78464 4.99626 8.71532C5.25105 8.646 5.46808 8.47873 5.6 8.25C5.66653 8.13646 5.71 8.01091 5.72791 7.88054C5.74583 7.75017 5.73783 7.61754 5.70439 7.49027C5.67094 7.363 5.61271 7.24357 5.53302 7.13885C5.45333 7.03413 5.35375 6.94616 5.24 6.88Z" fill="#7D7898"/>
<path d="M4 12.5C4.26522 12.5 4.51957 12.3946 4.70711 12.2071C4.89464 12.0196 5 11.7652 5 11.5C5 11.2348 4.89464 10.9804 4.70711 10.7929C4.51957 10.6054 4.26522 10.5 4 10.5H2.5C2.23478 10.5 1.98043 10.6054 1.79289 10.7929C1.60536 10.9804 1.5 11.2348 1.5 11.5C1.5 11.7652 1.60536 12.0196 1.79289 12.2071C1.98043 12.3946 2.23478 12.5 2.5 12.5H4Z" fill="#7D7898"/>
<path d="M4.24 14.38L2.94 15.13C2.70926 15.2626 2.54065 15.4814 2.47126 15.7384C2.40188 15.9953 2.43739 16.2693 2.57 16.5C2.70261 16.7307 2.92145 16.8993 3.17837 16.9687C3.4353 17.0381 3.70926 17.0026 3.94 16.87L5.24 16.12C5.47074 15.9874 5.63935 15.7686 5.70874 15.5116C5.77812 15.2547 5.74261 14.9807 5.61 14.75C5.47739 14.5193 5.25855 14.3507 5.00163 14.2813C4.7447 14.2119 4.47074 14.2474 4.24 14.38Z" fill="#7D7898"/>
<path d="M19.26 8.75C19.4352 8.75121 19.6076 8.70638 19.76 8.62L21.06 7.87C21.2907 7.73739 21.4593 7.51855 21.5287 7.26163C21.5981 7.0047 21.5626 6.73074 21.43 6.5C21.2974 6.26926 21.0786 6.10065 20.8216 6.03126C20.5647 5.96188 20.2907 5.99739 20.06 6.13L18.76 6.88C18.5674 6.98916 18.4164 7.15918 18.3308 7.36338C18.2452 7.56758 18.2298 7.79442 18.2869 8.00833C18.3441 8.22224 18.4707 8.41111 18.6468 8.54534C18.8229 8.67956 19.0386 8.75155 19.26 8.75Z" fill="#7D7898"/>
<path d="M21.5 10.5H20C19.7348 10.5 19.4804 10.6054 19.2929 10.7929C19.1054 10.9804 19 11.2348 19 11.5C19 11.7652 19.1054 12.0196 19.2929 12.2071C19.4804 12.3946 19.7348 12.5 20 12.5H21.5C21.7652 12.5 22.0196 12.3946 22.2071 12.2071C22.3946 12.0196 22.5 11.7652 22.5 11.5C22.5 11.2348 22.3946 10.9804 22.2071 10.7929C22.0196 10.6054 21.7652 10.5 21.5 10.5Z" fill="#7D7898"/>
<path d="M21.06 15.13L19.76 14.38C19.5293 14.2474 19.2553 14.2119 18.9984 14.2813C18.7414 14.3507 18.5226 14.5193 18.39 14.75C18.2574 14.9807 18.2219 15.2547 18.2913 15.5116C18.3607 15.7686 18.5293 15.9874 18.76 16.12L20.06 16.87C20.2907 17.0026 20.5647 17.0381 20.8216 16.9687C21.0786 16.8993 21.2974 16.7307 21.43 16.5C21.5626 16.2693 21.5981 15.9953 21.5287 15.7384C21.4593 15.4814 21.2907 15.2626 21.06 15.13Z" fill="#7D7898"/>
</svg>
