<svg width="25" height="24" viewBox="0 0 25 24" fill="none" xmlns="http://www.w3.org/2000/svg">
<path d="M17.8369 20.6022C17.7854 20.6023 17.7352 20.5858 17.6938 20.5552C17.6524 20.5246 17.6219 20.4814 17.6069 20.4322L11.4769 2.61218C11.3806 2.32198 11.1956 2.06936 10.948 1.88994C10.7004 1.71052 10.4027 1.61336 10.0969 1.61218C9.79052 1.61571 9.49265 1.71362 9.24392 1.89257C8.99518 2.07152 8.80766 2.3228 8.70691 2.61218L2.63691 20.4322C2.62057 20.4806 2.58975 20.5229 2.54863 20.5533C2.5075 20.5837 2.45804 20.6008 2.40691 20.6022H1.83691C1.5717 20.6022 1.31734 20.7075 1.12981 20.8951C0.942271 21.0826 0.836914 21.337 0.836914 21.6022C0.836914 21.8674 0.942271 22.1218 1.12981 22.3093C1.31734 22.4968 1.5717 22.6022 1.83691 22.6022H4.83691C5.10213 22.6022 5.35648 22.4968 5.54402 22.3093C5.73156 22.1218 5.83691 21.8674 5.83691 21.6022C5.84157 21.3721 5.76168 21.1484 5.6124 20.9733C5.46312 20.7982 5.2548 20.684 5.02691 20.6522C4.95775 20.6337 4.89745 20.5912 4.85691 20.5322C4.83229 20.4678 4.83229 20.3966 4.85691 20.3322L6.35691 15.9122C6.37549 15.864 6.40854 15.8227 6.45151 15.7941C6.49449 15.7654 6.54528 15.7508 6.59691 15.7522H13.8269C13.8768 15.7528 13.9254 15.7684 13.9664 15.7969C14.0074 15.8255 14.0389 15.8656 14.0569 15.9122L15.5569 20.3322C15.572 20.3634 15.5798 20.3976 15.5798 20.4322C15.5798 20.4668 15.572 20.501 15.5569 20.5322C15.5164 20.5912 15.4561 20.6337 15.3869 20.6522C15.1678 20.6991 14.9709 20.8183 14.8276 20.9906C14.6844 21.1628 14.6031 21.3782 14.5969 21.6022C14.5969 21.8674 14.7023 22.1218 14.8898 22.3093C15.0773 22.4968 15.3317 22.6022 15.5969 22.6022H18.5969C18.8621 22.6022 19.1165 22.4968 19.304 22.3093C19.4916 22.1218 19.5969 21.8674 19.5969 21.6022C19.5969 21.337 19.4916 21.0826 19.304 20.8951C19.1165 20.7075 18.8621 20.6022 18.5969 20.6022H17.8369ZM7.31691 13.7722C7.27824 13.7714 7.24021 13.7621 7.20561 13.7448C7.17102 13.7275 7.14071 13.7027 7.11691 13.6722C7.09766 13.6369 7.08757 13.5974 7.08757 13.5572C7.08757 13.517 7.09766 13.4775 7.11691 13.4422L9.83691 5.29218C9.85068 5.23405 9.88404 5.18243 9.93139 5.14601C9.97875 5.10958 10.0372 5.09058 10.0969 5.09218C10.1477 5.09493 10.1965 5.1125 10.2374 5.14272C10.2783 5.17293 10.3094 5.21447 10.3269 5.26218L13.1069 13.4122C13.1238 13.4482 13.1326 13.4874 13.1326 13.5272C13.1326 13.5669 13.1238 13.6062 13.1069 13.6422C13.0831 13.6727 13.0528 13.6975 13.0182 13.7148C12.9836 13.7321 12.9456 13.7414 12.9069 13.7422L7.31691 13.7722Z" fill="#7D7898"/>
<path d="M23.8369 20.6022H23.6369C23.5854 20.6023 23.5352 20.5858 23.4938 20.5552C23.4524 20.5246 23.4219 20.4814 23.4069 20.4322L19.1469 7.98218C19.0425 7.68215 18.8473 7.42205 18.5883 7.238C18.3294 7.05394 18.0196 6.95505 17.7019 6.95505C17.3842 6.95505 17.0744 7.05394 16.8155 7.238C16.5565 7.42205 16.3613 7.68215 16.2569 7.98218L15.0969 11.3722C15.0654 11.6024 15.115 11.8364 15.2373 12.034C15.3596 12.2315 15.5468 12.3804 15.7669 12.4549C15.9869 12.5295 16.2261 12.5251 16.4433 12.4424C16.6604 12.3598 16.842 12.2041 16.9569 12.0022L17.4669 10.4922C17.4844 10.4445 17.5156 10.4029 17.5564 10.3727C17.5973 10.3425 17.6462 10.3249 17.6969 10.3222C17.7494 10.323 17.8004 10.3396 17.8433 10.37C17.8861 10.4003 17.9187 10.4429 17.9369 10.4922L19.3969 14.7822C19.4162 14.8156 19.4264 14.8536 19.4264 14.8922C19.4264 14.9308 19.4162 14.9687 19.3969 15.0022C19.3753 15.0357 19.3457 15.0633 19.3108 15.0825C19.2759 15.1017 19.2368 15.1119 19.1969 15.1122H17.8369C17.5717 15.1122 17.3173 15.2175 17.1298 15.4051C16.9423 15.5926 16.8369 15.847 16.8369 16.1122C16.8369 16.3774 16.9423 16.6318 17.1298 16.8193C17.3173 17.0068 17.5717 17.1122 17.8369 17.1122H20.0369C20.0868 17.1128 20.1354 17.1284 20.1764 17.1569C20.2174 17.1855 20.2489 17.2256 20.2669 17.2722L21.3669 20.4822C21.3819 20.5384 21.3784 20.598 21.3567 20.6521C21.3351 20.7062 21.2966 20.7518 21.2469 20.7822C21.0935 20.866 20.9647 20.9887 20.8735 21.1378C20.7823 21.2869 20.7317 21.4574 20.7269 21.6322C20.7269 21.8974 20.8323 22.1518 21.0198 22.3393C21.2073 22.5268 21.4617 22.6322 21.7269 22.6322H23.8369C24.1021 22.6322 24.3565 22.5268 24.544 22.3393C24.7316 22.1518 24.8369 21.8974 24.8369 21.6322C24.8369 21.367 24.7316 21.1126 24.544 20.9251C24.3565 20.7375 24.1021 20.6322 23.8369 20.6322V20.6022Z" fill="#7D7898"/>
</svg>
