<svg width="24" height="24" viewBox="0 0 24 24" fill="none" xmlns="http://www.w3.org/2000/svg">
<path d="M0 4C0 4.66304 0.263392 5.29893 0.732233 5.76777C1.20107 6.23661 1.83696 6.5 2.5 6.5C3.16304 6.5 3.79893 6.23661 4.26777 5.76777C4.73661 5.29893 5 4.66304 5 4C5 3.33696 4.73661 2.70107 4.26777 2.23223C3.79893 1.76339 3.16304 1.5 2.5 1.5C1.83696 1.5 1.20107 1.76339 0.732233 2.23223C0.263392 2.70107 0 3.33696 0 4Z" fill="#7D7898"/>
<path d="M8.5 5H23C23.2652 5 23.5196 4.89464 23.7071 4.70711C23.8946 4.51957 24 4.26522 24 4C24 3.73478 23.8946 3.48043 23.7071 3.29289C23.5196 3.10536 23.2652 3 23 3H8.5C8.23478 3 7.98043 3.10536 7.79289 3.29289C7.60536 3.48043 7.5 3.73478 7.5 4C7.5 4.26522 7.60536 4.51957 7.79289 4.70711C7.98043 4.89464 8.23478 5 8.5 5Z" fill="#7D7898"/>
<path d="M0 12C0 12.663 0.263392 13.2989 0.732233 13.7678C1.20107 14.2366 1.83696 14.5 2.5 14.5C3.16304 14.5 3.79893 14.2366 4.26777 13.7678C4.73661 13.2989 5 12.663 5 12C5 11.337 4.73661 10.7011 4.26777 10.2322C3.79893 9.76339 3.16304 9.5 2.5 9.5C1.83696 9.5 1.20107 9.76339 0.732233 10.2322C0.263392 10.7011 0 11.337 0 12Z" fill="#7D7898"/>
<path d="M23 11H8.5C8.23478 11 7.98043 11.1054 7.79289 11.2929C7.60536 11.4804 7.5 11.7348 7.5 12C7.5 12.2652 7.60536 12.5196 7.79289 12.7071C7.98043 12.8946 8.23478 13 8.5 13H23C23.2652 13 23.5196 12.8946 23.7071 12.7071C23.8946 12.5196 24 12.2652 24 12C24 11.7348 23.8946 11.4804 23.7071 11.2929C23.5196 11.1054 23.2652 11 23 11Z" fill="#7D7898"/>
<path d="M0 20C0 20.663 0.263392 21.2989 0.732233 21.7678C1.20107 22.2366 1.83696 22.5 2.5 22.5C3.16304 22.5 3.79893 22.2366 4.26777 21.7678C4.73661 21.2989 5 20.663 5 20C5 19.337 4.73661 18.7011 4.26777 18.2322C3.79893 17.7634 3.16304 17.5 2.5 17.5C1.83696 17.5 1.20107 17.7634 0.732233 18.2322C0.263392 18.7011 0 19.337 0 20Z" fill="#7D7898"/>
<path d="M23 19H8.5C8.23478 19 7.98043 19.1054 7.79289 19.2929C7.60536 19.4804 7.5 19.7348 7.5 20C7.5 20.2652 7.60536 20.5196 7.79289 20.7071C7.98043 20.8946 8.23478 21 8.5 21H23C23.2652 21 23.5196 20.8946 23.7071 20.7071C23.8946 20.5196 24 20.2652 24 20C24 19.7348 23.8946 19.4804 23.7071 19.2929C23.5196 19.1054 23.2652 19 23 19Z" fill="#7D7898"/>
</svg>
