<svg width="24" height="24" viewBox="0 0 24 24" fill="none" xmlns="http://www.w3.org/2000/svg">
<path d="M23.47 3.00002C23.2938 2.69481 23.0401 2.44158 22.7345 2.26597C22.429 2.09037 22.0824 1.99862 21.73 2.00002H2.27001C1.92081 2.00385 1.5787 2.09906 1.27772 2.27616C0.976737 2.45327 0.727373 2.70609 0.554438 3.00949C0.381502 3.31288 0.291022 3.65627 0.292 4.0055C0.292978 4.35472 0.385379 4.69759 0.560011 5.00002L10.29 21.07C10.4683 21.3639 10.7193 21.6069 11.0188 21.7755C11.3183 21.9442 11.6563 22.0328 12 22.0328C12.3437 22.0328 12.6817 21.9442 12.9812 21.7755C13.2807 21.6069 13.5317 21.3639 13.71 21.07L23.44 5.00002C23.6201 4.69862 23.7177 4.35511 23.723 4.00404C23.7283 3.65296 23.641 3.30668 23.47 3.00002Z" fill="#7D7898"/>
</svg>
