<svg width="24" height="24" viewBox="0 0 24 24" fill="none" xmlns="http://www.w3.org/2000/svg">
<path d="M9 18C9.41421 18 9.75 17.6642 9.75 17.25C9.75 16.8358 9.41421 16.5 9 16.5V18ZM1.18934 16.8107L1.71967 16.2804L1.71967 16.2804L1.18934 16.8107ZM1.18934 2.68934L1.71967 3.21967L1.71967 3.21967L1.18934 2.68934ZM16.5 8C16.5 8.41421 16.8358 8.75 17.25 8.75C17.6642 8.75 18 8.41421 18 8H16.5ZM0.75 6C0.335786 6 0 6.33579 0 6.75C0 7.16421 0.335786 7.5 0.75 7.5V6ZM17.25 7.5C17.6642 7.5 18 7.16421 18 6.75C18 6.33579 17.6642 6 17.25 6V7.5ZM4.5 3.75C4.5 4.16421 4.83579 4.5 5.25 4.5C5.66421 4.5 6 4.16421 6 3.75H4.5ZM6 0.75C6 0.335786 5.66421 0 5.25 0C4.83579 0 4.5 0.335786 4.5 0.75H6ZM12 3.75C12 4.16421 12.3358 4.5 12.75 4.5C13.1642 4.5 13.5 4.16421 13.5 3.75H12ZM13.5 0.75C13.5 0.335786 13.1642 0 12.75 0C12.3358 0 12 0.335786 12 0.75H13.5ZM16.491 17.2498C16.491 17.664 16.8268 17.9998 17.241 17.9998C17.6552 17.9998 17.991 17.664 17.991 17.2498H16.491ZM17.991 14.9998C17.991 14.5856 17.6552 14.2498 17.241 14.2498C16.8268 14.2498 16.491 14.5856 16.491 14.9998H17.991ZM23.0509 20.6798L22.3805 21.0162L22.3833 21.0216L23.0509 20.6798ZM22.9909 22.4098L23.6254 22.8098C23.628 22.8055 23.6306 22.8013 23.6332 22.7971L22.9909 22.4098ZM22.3433 23.0228L21.9789 22.3673L21.9786 22.3674L22.3433 23.0228ZM21.4809 23.2498V23.9998L21.4861 23.9998L21.4809 23.2498ZM12.9909 23.2498L12.9857 23.9998H12.9909V23.2498ZM12.1286 23.0228L12.4933 22.3674L12.493 22.3673L12.1286 23.0228ZM11.4809 22.4098L10.8407 22.8007L10.8466 22.8099L11.4809 22.4098ZM11.2214 21.5539L10.472 21.5841L10.472 21.5844L11.2214 21.5539ZM11.4109 20.6798L12.0805 21.0177L12.0819 21.0149L11.4109 20.6798ZM15.6309 12.2298L14.961 11.8926L14.9599 11.8947L15.6309 12.2298ZM16.2871 11.5146L15.8937 10.8761L15.8936 10.8761L16.2871 11.5146ZM18.1548 11.5146L18.5483 10.8761L18.5482 10.8761L18.1548 11.5146ZM18.8109 12.2298L19.4812 11.8934L19.4809 11.8928L18.8109 12.2298ZM9 16.5H2.25V18H9V16.5ZM2.25 16.5C2.05104 16.5 1.86028 16.421 1.71967 16.2804L0.65901 17.341C1.081 17.763 1.65332 18 2.25 18V16.5ZM1.71967 16.2804C1.57904 16.1397 1.5 15.9489 1.5 15.75H0C0 16.3467 0.237031 16.9191 0.659015 17.341L1.71967 16.2804ZM1.5 15.75V3.75H0V15.75H1.5ZM1.5 3.75C1.5 3.55109 1.57902 3.36032 1.71967 3.21967L0.659015 2.15901C0.237049 2.58096 0 3.15327 0 3.75H1.5ZM1.71967 3.21967C1.86032 3.07902 2.05109 3 2.25 3V1.5C1.65327 1.5 1.08096 1.73706 0.65901 2.15901L1.71967 3.21967ZM2.25 3H15.75V1.5H2.25V3ZM15.75 3C15.9489 3 16.1397 3.07904 16.2804 3.21967L17.341 2.15901C16.9191 1.73704 16.3467 1.5 15.75 1.5V3ZM16.2804 3.21967C16.421 3.36028 16.5 3.55104 16.5 3.75H18C18 3.15332 17.763 2.581 17.341 2.15901L16.2804 3.21967ZM16.5 3.75V8H18V3.75H16.5ZM0.75 7.5H17.25V6H0.75V7.5ZM6 3.75V0.75H4.5V3.75H6ZM13.5 3.75V0.75H12V3.75H13.5ZM17.1746 19.5048C17.3817 19.5048 17.5496 19.6727 17.5496 19.8798H16.0496C16.0496 20.5011 16.5533 21.0048 17.1746 21.0048V19.5048ZM17.5496 19.8798C17.5496 20.0869 17.3817 20.2548 17.1746 20.2548V18.7548C16.5533 18.7548 16.0496 19.2585 16.0496 19.8798H17.5496ZM17.1746 21.0048C17.7959 21.0048 18.2996 20.5011 18.2996 19.8798H16.7996C16.7996 19.6727 16.9675 19.5048 17.1746 19.5048V21.0048ZM18.2996 19.8798C18.2996 19.2585 17.7959 18.7548 17.1746 18.7548V20.2548C16.9675 20.2548 16.7996 20.0869 16.7996 19.8798H18.2996ZM17.991 17.2498V14.9998H16.491V17.2498H17.991ZM22.3833 21.0216C22.4632 21.1776 22.5019 21.3514 22.4958 21.5266L23.9949 21.5786C24.0099 21.1484 23.9148 20.7214 23.7185 20.338L22.3833 21.0216ZM22.4958 21.5266C22.4898 21.7017 22.4391 21.8725 22.3486 22.0225L23.6332 22.7971C23.8555 22.4283 23.98 22.0089 23.9949 21.5786L22.4958 21.5266ZM22.3564 22.0098C22.2625 22.1589 22.1326 22.2818 21.9789 22.3673L22.7077 23.6783C23.0818 23.4704 23.3973 23.1715 23.6254 22.8098L22.3564 22.0098ZM21.9786 22.3674C21.8248 22.453 21.6518 22.4986 21.4757 22.4998L21.4861 23.9998C21.914 23.9968 22.3342 23.8862 22.708 23.6782L21.9786 22.3674ZM21.4809 22.4998H12.9909V23.9998H21.4809V22.4998ZM12.9961 22.4998C12.8201 22.4986 12.6471 22.4531 12.4933 22.3674L11.7639 23.6782C12.1377 23.8861 12.5579 23.9968 12.9857 23.9998L12.9961 22.4998ZM12.493 22.3673C12.3393 22.2818 12.2094 22.1589 12.1152 22.0097L10.8466 22.8099C11.0746 23.1715 11.3901 23.4704 11.7642 23.6783L12.493 22.3673ZM12.121 22.019C12.0296 21.8693 11.9779 21.6987 11.9708 21.5234L10.472 21.5844C10.4895 22.0145 10.6164 22.4331 10.8408 22.8006L12.121 22.019ZM11.9708 21.5237C11.9637 21.3484 12.0015 21.1742 12.0805 21.0177L10.7413 20.3419C10.5473 20.7264 10.4547 21.154 10.472 21.5841L11.9708 21.5237ZM12.0819 21.0149L16.3019 12.5649L14.9599 11.8947L10.7399 20.3447L12.0819 21.0149ZM16.3008 12.567C16.3866 12.3965 16.5182 12.2532 16.6806 12.1531L15.8936 10.8761C15.4946 11.122 15.1718 11.4739 14.961 11.8926L16.3008 12.567ZM16.6805 12.1531C16.843 12.053 17.0302 12 17.2209 12V10.5C16.7522 10.5 16.2928 10.6302 15.8937 10.8761L16.6805 12.1531ZM17.2209 12C17.4118 12 17.5989 12.053 17.7614 12.1531L18.5482 10.8761C18.1491 10.6302 17.6896 10.5 17.2209 10.5V12ZM17.7613 12.1531C17.9238 12.2532 18.0552 12.3965 18.1409 12.5668L19.4809 11.8928C19.2702 11.4739 18.9472 11.122 18.5483 10.8761L17.7613 12.1531ZM18.1406 12.5662L22.3806 21.0162L23.7212 20.3434L19.4812 11.8934L18.1406 12.5662Z" fill="#7D7898"/>
</svg>
