<svg width="24" height="25" viewBox="0 0 24 25" fill="none" xmlns="http://www.w3.org/2000/svg">
<path d="M21.8481 5.54654H13.5981C12.8025 5.54654 12.0394 5.86261 11.4768 6.42522C10.9142 6.98783 10.5981 7.75089 10.5981 8.54654V12.2965M21.8481 5.54654L17.3481 10.0465M21.8481 5.54654L17.3481 1.04654M18.8481 14.5465V22.0465C18.8481 22.4444 18.6901 22.8259 18.4088 23.1072C18.1275 23.3885 17.746 23.5465 17.3481 23.5465H3.84814C3.45032 23.5465 3.06879 23.3885 2.78748 23.1072C2.50618 22.8259 2.34814 22.4444 2.34814 22.0465V10.0465C2.34814 9.64871 2.50618 9.26718 2.78748 8.98588C3.06879 8.70457 3.45032 8.54654 3.84814 8.54654H6.09814" stroke="#7D7898" stroke-width="1.5" stroke-linecap="round" stroke-linejoin="round"/>
</svg>
