<svg width="50" height="49" viewBox="0 0 50 49" fill="none" xmlns="http://www.w3.org/2000/svg">
<g clip-path="url(#clip0_1_186)">
<path d="M36.915 26.819V47.521H29.198V26.819H26.086V20.646H29.198C29.233 17.878 29.433 15.861 29.797 14.591C30.16 13.323 31.096 12.196 32.605 11.212C34.112 10.228 36.162 9.735 38.752 9.735C39.815 9.735 41.039 9.833 42.423 10.028V16.148C41.288 16.059 40.348 16.015 39.602 16.015C38.52 16.015 37.801 16.298 37.448 16.866C37.093 17.434 36.916 18.356 36.916 19.634V20.646H41.786L40.96 26.819H36.915Z" stroke="black" stroke-width="3" stroke-miterlimit="10" stroke-linecap="round"/>
<path d="M48 1.5H2V47.5H48V1.5Z" stroke="black" stroke-width="3" stroke-miterlimit="10" stroke-linecap="round" stroke-linejoin="round"/>
</g>
<defs>
<clipPath id="clip0_1_186">
<rect width="49" height="49" fill="white" transform="translate(0.5)"/>
</clipPath>
</defs>
</svg>
