<svg width="24" height="24" viewBox="0 0 24 24" fill="none" xmlns="http://www.w3.org/2000/svg">
<path d="M0 22.1537V1.84629C0 1.35662 0.194519 0.88701 0.540765 0.540765C0.88701 0.194519 1.35662 0 1.84629 0H22.1537C22.3962 0 22.6363 0.0477556 22.8603 0.14054C23.0843 0.233325 23.2878 0.369321 23.4592 0.540765C23.6307 0.712208 23.7667 0.915741 23.8595 1.13974C23.9522 1.36374 24 1.60383 24 1.84629V22.1537C24 22.3962 23.9522 22.6363 23.8595 22.8603C23.7667 23.0843 23.6307 23.2878 23.4592 23.4592C23.2878 23.6307 23.0843 23.7667 22.8603 23.8595C22.6363 23.9522 22.3962 24 22.1537 24H16.6166V15.2486H17.9263C18.225 15.2486 18.5115 15.1299 18.7227 14.9187C18.9339 14.7075 19.0526 14.421 19.0526 14.1223V12.7029C19.053 12.5548 19.0242 12.4082 18.9678 12.2713C18.9113 12.1345 18.8284 12.0101 18.7237 11.9054C18.619 11.8008 18.4947 11.7178 18.3578 11.6614C18.221 11.6049 18.0743 11.5761 17.9263 11.5766H16.6886V9.84C16.6886 8.28857 17.3914 8.28857 18.0926 8.28857H18.996C19.1447 8.29515 19.2931 8.26891 19.4306 8.21173C19.568 8.15456 19.6912 8.06783 19.7914 7.95771C19.8989 7.85539 19.984 7.73185 20.0413 7.59493C20.0985 7.458 20.1267 7.31067 20.124 7.16229V5.79771C20.1332 5.49392 20.0217 5.19885 19.8138 4.97713C19.6059 4.75542 19.3186 4.62515 19.0149 4.61486H16.8926C16.273 4.59139 15.6558 4.70273 15.0835 4.94119C14.5112 5.17964 13.9975 5.53952 13.5779 5.99594C13.1583 6.45237 12.8428 6.99447 12.6533 7.58476C12.4637 8.17506 12.4046 8.79947 12.48 9.41486V11.5749H11.2971C11.1478 11.5726 10.9995 11.6 10.8609 11.6556C10.7222 11.7112 10.596 11.7938 10.4896 11.8986C10.3832 12.0034 10.2987 12.1284 10.2411 12.2661C10.1834 12.4039 10.1537 12.5518 10.1537 12.7011V14.124C10.1539 14.2734 10.1838 14.4212 10.2417 14.5589C10.2996 14.6966 10.3843 14.8214 10.4908 14.926C10.5974 15.0307 10.7237 15.1131 10.8625 15.1685C11.0012 15.2238 11.1495 15.2511 11.2989 15.2486H12.48V24H1.84629C1.60383 24 1.36374 23.9522 1.13974 23.8595C0.915741 23.7667 0.712208 23.6307 0.540765 23.4592C0.369321 23.2878 0.233325 23.0843 0.14054 22.8603C0.0477556 22.6363 0 22.3962 0 22.1537Z" fill="#7D7898"/>
</svg>
