<svg width="24" height="24" viewBox="0 0 24 24" fill="none" xmlns="http://www.w3.org/2000/svg">
<mask id="path-1-inside-1_24_30173" fill="white">
<path d="M20.1586 1.71265C20.1643 1.62142 20.152 1.52994 20.1225 1.44384C20.093 1.35775 20.0468 1.27888 19.9868 1.21209C19.9269 1.14531 19.8545 1.09204 19.774 1.05556C19.6935 1.01908 19.6067 1.00017 19.5189 1H1.60107C1.51326 1.00004 1.4264 1.01886 1.34586 1.0553C1.26532 1.09173 1.19282 1.145 1.13285 1.21181C1.07288 1.27862 1.02672 1.35755 0.997225 1.4437C0.967732 1.52985 0.955534 1.62139 0.961388 1.71265C1.1118 3.89427 1.94301 5.9648 3.32829 7.60851C4.71356 9.25222 6.57687 10.3789 8.63411 10.8168V19.6136C8.63416 19.7406 8.66893 19.8649 8.73434 19.972C8.79976 20.0791 8.89312 20.1646 9.00349 20.2185C9.11386 20.2723 9.23668 20.2923 9.35755 20.276C9.47842 20.2598 9.59235 20.208 9.68599 20.1268L12.2515 17.8997C12.3239 17.8371 12.3821 17.7587 12.422 17.67C12.4619 17.5813 12.4825 17.4846 12.4824 17.3866V10.8168C14.5404 10.3798 16.4045 9.25339 17.7905 7.60959C19.1765 5.96579 20.0081 3.89481 20.1586 1.71265Z"/>
<path d="M24 20C24 22.2091 22.2807 24 20.16 24C18.0392 24 16.32 22.2091 16.32 20C16.32 17.7909 18.0392 16 20.16 16C22.2807 16 24 17.7909 24 20Z"/>
</mask>
<path d="M20.1586 1.71265L21.6551 1.81584L21.6556 1.80663L20.1586 1.71265ZM19.5189 1L19.5218 -0.5H19.5189V1ZM1.60107 1V-0.5L1.60038 -0.5L1.60107 1ZM0.961388 1.71265L-0.535553 1.80867L-0.53506 1.81583L0.961388 1.71265ZM8.63411 10.8168H10.1341C10.1341 10.1087 9.63896 9.4971 8.9464 9.34968L8.63411 10.8168ZM8.63411 19.6136H7.13411V19.6142L8.63411 19.6136ZM9.68599 20.1268L10.669 21.2598L10.6693 21.2595L9.68599 20.1268ZM12.2515 17.8997L11.27 16.7655L11.2683 16.767L12.2515 17.8997ZM12.4824 17.3866H10.9824L10.9824 17.3879L12.4824 17.3866ZM12.4824 10.8168L12.1708 9.34954C11.4779 9.4967 10.9824 10.1085 10.9824 10.8168H12.4824ZM21.6556 1.80663C21.6737 1.51939 21.6351 1.2305 21.5413 0.957029L18.7037 1.93066C18.6689 1.82937 18.655 1.72345 18.6615 1.61868L21.6556 1.80663ZM21.5413 0.957029C21.4474 0.683462 21.2994 0.428787 21.1031 0.210128L18.8706 2.21406C18.7942 2.12897 18.7385 2.03204 18.7037 1.93066L21.5413 0.957029ZM21.1031 0.210128C20.9067 -0.0086776 20.6658 -0.187099 20.3932 -0.310652L19.1547 2.42177C19.0431 2.37117 18.9471 2.2993 18.8706 2.21406L21.1031 0.210128ZM20.3932 -0.310652C20.1204 -0.434291 19.8237 -0.499411 19.5218 -0.499997L19.516 2.5C19.3897 2.49975 19.2665 2.47245 19.1547 2.42177L20.3932 -0.310652ZM19.5189 -0.5H1.60107V2.5H19.5189V-0.5ZM1.60038 -0.5C1.29811 -0.499861 1.00085 -0.434976 0.727605 -0.311366L1.96411 2.42196C1.85195 2.4727 1.72841 2.49994 1.60176 2.5L1.60038 -0.5ZM0.727605 -0.311366C0.45455 -0.187841 0.213242 -0.00925446 0.0165766 0.209847L2.24912 2.21378C2.17239 2.29926 2.07609 2.3713 1.96411 2.42196L0.727605 -0.311366ZM0.0165766 0.209847C-0.179952 0.428796 -0.328116 0.68387 -0.421916 0.957863L2.41637 1.92954C2.38155 2.03123 2.32571 2.12845 2.24912 2.21378L0.0165766 0.209847ZM-0.421916 0.957863C-0.515687 1.23177 -0.553982 1.5211 -0.535536 1.80867L2.45831 1.61664C2.46505 1.72169 2.45115 1.82793 2.41637 1.92954L-0.421916 0.957863ZM-0.53506 1.81583C-0.363158 4.30916 0.587069 6.68351 2.1813 8.57516L4.47528 6.64186C3.29896 5.24608 2.58676 3.47939 2.45784 1.60948L-0.53506 1.81583ZM2.1813 8.57516C3.77633 10.4678 5.93079 11.775 8.32183 12.2839L8.9464 9.34968C7.22296 8.98284 5.65078 8.03667 4.47528 6.64186L2.1813 8.57516ZM7.13411 10.8168V19.6136H10.1341V10.8168H7.13411ZM7.13411 19.6142C7.13426 20.0135 7.24336 20.4086 7.45421 20.7539L10.0145 19.1902C10.0945 19.3212 10.1341 19.4677 10.1341 19.6131L7.13411 19.6142ZM7.45421 20.7539C7.66536 21.0996 7.97227 21.3844 8.34586 21.5666L9.66113 18.8703C9.81397 18.9449 9.93416 19.0587 10.0145 19.1902L7.45421 20.7539ZM8.34586 21.5666C8.72014 21.7492 9.14105 21.8186 9.55728 21.7627L9.15782 18.7894C9.3323 18.7659 9.50758 18.7954 9.66113 18.8703L8.34586 21.5666ZM9.55728 21.7627C9.97321 21.7068 10.3582 21.5294 10.669 21.2598L8.70297 18.9938C8.82645 18.8866 8.98363 18.8128 9.15782 18.7894L9.55728 21.7627ZM10.6693 21.2595L13.2348 19.0325L11.2683 16.767L8.7027 18.994L10.6693 21.2595ZM13.2331 19.0339C13.4733 18.8261 13.662 18.5697 13.7899 18.2855L11.0541 17.0545C11.1021 16.9477 11.1745 16.8481 11.27 16.7655L13.2331 19.0339ZM13.7899 18.2855C13.9177 18.0015 13.9827 17.6944 13.9824 17.3853L10.9824 17.3879C10.9824 17.2747 11.0061 17.1611 11.0541 17.0545L13.7899 18.2855ZM13.9824 17.3866V10.8168H10.9824V17.3866H13.9824ZM12.7941 12.2841C15.186 11.7761 17.3414 10.4692 18.9373 8.57649L16.6437 6.64268C15.4677 8.03754 13.8948 8.9834 12.1708 9.34954L12.7941 12.2841ZM18.9373 8.57649C20.5323 6.68471 21.4831 4.30981 21.655 1.81584L18.6621 1.60947C18.5332 3.47982 17.8206 5.24686 16.6437 6.64268L18.9373 8.57649ZM22.5 20C22.5 21.439 21.3952 22.5 20.16 22.5V25.5C23.1663 25.5 25.5 22.9793 25.5 20H22.5ZM20.16 22.5C18.9247 22.5 17.82 21.439 17.82 20H14.82C14.82 22.9793 17.1536 25.5 20.16 25.5V22.5ZM17.82 20C17.82 18.561 18.9247 17.5 20.16 17.5V14.5C17.1536 14.5 14.82 17.0207 14.82 20H17.82ZM20.16 17.5C21.3952 17.5 22.5 18.561 22.5 20H25.5C25.5 17.0207 23.1663 14.5 20.16 14.5V17.5Z" fill="#7D7898" mask="url(#path-1-inside-1_24_30173)"/>
</svg>
