<svg width="24" height="24" viewBox="0 0 24 24" fill="none" xmlns="http://www.w3.org/2000/svg">
<path d="M21.9986 1.71265C22.0045 1.62142 21.9917 1.52994 21.961 1.44384C21.9302 1.35775 21.8821 1.27888 21.8197 1.21209C21.7572 1.14531 21.6818 1.09204 21.5979 1.05556C21.5141 1.01908 21.4237 1.00017 21.3322 1H2.66782C2.57635 1.00004 2.48587 1.01886 2.40198 1.0553C2.31808 1.09173 2.24256 1.145 2.18009 1.21181C2.11762 1.27862 2.06954 1.35755 2.03882 1.4437C2.00809 1.52985 1.99539 1.62139 2.00149 1.71265C2.15816 3.89427 3.02401 5.9648 4.467 7.60851C5.91 9.25222 7.85095 10.3789 9.99391 10.8168V19.6136C9.99396 19.7406 10.0302 19.8649 10.0983 19.972C10.1665 20.0791 10.2637 20.1646 10.3787 20.2185C10.4936 20.2723 10.6216 20.2923 10.7475 20.276C10.8734 20.2598 10.9921 20.208 11.0896 20.1268L13.7621 17.8997C13.8374 17.8371 13.898 17.7587 13.9396 17.67C13.9812 17.5813 14.0027 17.4846 14.0026 17.3866V10.8168C16.1463 10.3797 18.0881 9.25339 19.5318 7.60959C20.9755 5.96579 21.8418 3.89481 21.9986 1.71265Z" stroke="#7D7898" stroke-width="1.5" stroke-linecap="round" stroke-linejoin="round"/>
</svg>
