<svg width="24" height="24" viewBox="0 0 24 24" fill="none" xmlns="http://www.w3.org/2000/svg">
<path d="M5.08008 7.03907H1.26074M22.7383 7.03907H10.0059M13.9941 17.0938H1.26074M22.7383 17.0938H18.9199M5.08 6.90001C5.08 7.22346 5.14371 7.54374 5.26749 7.84256C5.39126 8.14139 5.57269 8.41291 5.8014 8.64162C6.03011 8.87033 6.30163 9.05175 6.60045 9.17553C6.89928 9.2993 7.21956 9.36301 7.543 9.36301C7.86645 9.36301 8.18673 9.2993 8.48555 9.17553C8.78438 9.05175 9.0559 8.87033 9.28461 8.64162C9.51332 8.41291 9.69474 8.14139 9.81852 7.84256C9.9423 7.54374 10.006 7.22346 10.006 6.90001C10.006 6.57657 9.9423 6.25629 9.81852 5.95746C9.69474 5.65864 9.51332 5.38712 9.28461 5.15841C9.0559 4.9297 8.78438 4.74827 8.48555 4.6245C8.18673 4.50072 7.86645 4.43701 7.543 4.43701C7.21956 4.43701 6.89928 4.50072 6.60045 4.6245C6.30163 4.74827 6.03011 4.9297 5.8014 5.15841C5.57269 5.38712 5.39126 5.65864 5.26749 5.95746C5.14371 6.25629 5.08 6.57657 5.08 6.90001ZM13.994 17.096C13.994 17.7492 14.2535 18.3757 14.7154 18.8376C15.1773 19.2995 15.8038 19.559 16.457 19.559C17.1102 19.559 17.7367 19.2995 18.1986 18.8376C18.6605 18.3757 18.92 17.7492 18.92 17.096C18.92 16.4428 18.6605 15.8163 18.1986 15.3544C17.7367 14.8925 17.1102 14.633 16.457 14.633C15.8038 14.633 15.1773 14.8925 14.7154 15.3544C14.2535 15.8163 13.994 16.4428 13.994 17.096Z" stroke="#7D7898" stroke-width="1.5" stroke-linecap="round"/>
</svg>
