<svg width="24" height="24" viewBox="0 0 24 24" fill="none" xmlns="http://www.w3.org/2000/svg">
<path d="M21.5 8.5C21.5 8.10218 21.342 7.72064 21.0607 7.43934C20.7794 7.15804 20.3978 7 20 7H10.25L8.45 4.6C8.31028 4.41371 8.1291 4.2625 7.92082 4.15836C7.71254 4.05422 7.48287 4 7.25 4H3.5C3.10218 4 2.72064 4.15804 2.43934 4.43934C2.15804 4.72064 2 5.10218 2 5.5V19C2 19.3978 2.15804 19.7794 2.43934 20.0607C2.72064 20.342 3.10218 20.5 3.5 20.5H20C20.3978 20.5 20.7794 20.342 21.0607 20.0607C21.342 19.7794 21.5 19.3978 21.5 19V8.5Z" stroke="#7D7898" stroke-width="1.5" stroke-linecap="round" stroke-linejoin="round"/>
</svg>
