<svg width="24" height="24" viewBox="0 0 24 24" fill="none" xmlns="http://www.w3.org/2000/svg">
<path d="M14.92 1.37C14.9394 1.33118 14.9495 1.28839 14.9495 1.245C14.9495 1.20162 14.9394 1.15882 14.92 1.12C14.8958 1.08371 14.8631 1.05383 14.8248 1.03293C14.7865 1.01203 14.7436 1.00073 14.7 1H8.7C8.57404 0.999599 8.45257 1.04675 8.35987 1.13203C8.26717 1.21732 8.21008 1.33445 8.2 1.46C8.11566 1.55144 8.04187 1.65208 7.98 1.76L0.530004 14.76C0.414444 14.977 0.354004 15.2191 0.354004 15.465C0.354004 15.7109 0.414444 15.953 0.530004 16.17L3.59 22.29C3.61408 22.3257 3.64699 22.3547 3.68554 22.3739C3.72409 22.3932 3.76696 22.4022 3.81 22.4C3.8503 22.3969 3.88908 22.3833 3.92244 22.3605C3.9558 22.3377 3.98255 22.3065 4 22.27L14.92 1.37Z" fill="#7D7898"/>
<path d="M5.47 22.63C5.44868 22.6689 5.43808 22.7127 5.43929 22.757C5.44049 22.8014 5.45346 22.8446 5.47687 22.8822C5.50028 22.9199 5.53328 22.9506 5.57249 22.9713C5.6117 22.992 5.65571 23.0019 5.7 23H19.12C19.3849 23.0012 19.6452 22.9314 19.8739 22.7977C20.1026 22.664 20.2911 22.4714 20.42 22.24L23.63 16.62C23.6541 16.5828 23.6669 16.5394 23.6669 16.495C23.6669 16.4506 23.6541 16.4072 23.63 16.37C23.6088 16.3332 23.5781 16.3027 23.5412 16.2816C23.5043 16.2605 23.4625 16.2496 23.42 16.25H9.12C9.0288 16.2496 8.9393 16.2747 8.86156 16.3224C8.78383 16.3701 8.72095 16.4385 8.68001 16.52L5.47 22.63Z" fill="#7D7898"/>
<path d="M23.42 14.75C23.4625 14.7504 23.5043 14.7395 23.5412 14.7184C23.5781 14.6973 23.6088 14.6668 23.63 14.63C23.6541 14.5928 23.6669 14.5494 23.6669 14.505C23.6669 14.4606 23.6541 14.4172 23.63 14.38C21.3047 10.2954 18.9714 6.21539 16.63 2.14C16.6115 2.09947 16.582 2.0649 16.5449 2.04017C16.5078 2.01544 16.4646 2.00153 16.42 2C16.3752 2.0009 16.3315 2.01333 16.2929 2.03611C16.2544 2.05888 16.2224 2.09123 16.2 2.13L13.2 7.93C13.1606 8.00025 13.1399 8.07945 13.1399 8.16C13.1399 8.24055 13.1606 8.31976 13.2 8.39L16.38 14.46C16.42 14.5422 16.4827 14.6114 16.5606 14.6592C16.6386 14.707 16.7286 14.7316 16.82 14.73L23.42 14.75Z" fill="#7D7898"/>
</svg>
