<svg width="25" height="25" viewBox="0 0 25 25" fill="none" xmlns="http://www.w3.org/2000/svg">
<path d="M4.75 10C3.75544 10 2.80161 10.3951 2.09835 11.0984C1.39509 11.8016 1 12.7555 1 13.75V16H2.5L3.25 22H6.25M19.75 10C20.7446 10 21.6984 10.3951 22.4017 11.0984C23.1049 11.8016 23.5 12.7555 23.5 13.75V16H22L21.25 22H18.25M2.5 6.25002C2.5 6.84675 2.73705 7.41905 3.15901 7.84101C3.58097 8.26296 4.15326 8.50002 4.75 8.50002C5.34674 8.50002 5.91903 8.26296 6.34099 7.84101C6.76295 7.41905 7 6.84675 7 6.25002C7 5.65328 6.76295 5.08098 6.34099 4.65903C5.91903 4.23707 5.34674 4.00002 4.75 4.00002C4.15326 4.00002 3.58097 4.23707 3.15901 4.65903C2.73705 5.08098 2.5 5.65328 2.5 6.25002ZM17.5 6.25002C17.5 6.84675 17.7371 7.41905 18.159 7.84101C18.581 8.26296 19.1533 8.50002 19.75 8.50002C20.3467 8.50002 20.919 8.26296 21.341 7.84101C21.7629 7.41905 22 6.84675 22 6.25002C22 5.65328 21.7629 5.08098 21.341 4.65903C20.919 4.23707 20.3467 4.00002 19.75 4.00002C19.1533 4.00002 18.581 4.23707 18.159 4.65903C17.7371 5.08098 17.5 5.65328 17.5 6.25002ZM9.25 4.00002C9.25 4.79566 9.56607 5.55873 10.1287 6.12134C10.6913 6.68394 11.4544 7.00002 12.25 7.00002C13.0456 7.00002 13.8087 6.68394 14.3713 6.12134C14.9339 5.55873 15.25 4.79566 15.25 4.00002C15.25 3.20437 14.9339 2.4413 14.3713 1.87869C13.8087 1.31609 13.0456 1.00002 12.25 1.00002C11.4544 1.00002 10.6913 1.31609 10.1287 1.87869C9.56607 2.4413 9.25 3.20437 9.25 4.00002ZM17.5 13.75C17.5 12.3576 16.9469 11.0223 15.9623 10.0377C14.9777 9.05314 13.6424 8.50002 12.25 8.50002C10.8576 8.50002 9.52226 9.05314 8.53769 10.0377C7.55312 11.0223 7 12.3576 7 13.75V16H9.25L10 23.5H14.5L15.25 16H17.5V13.75Z" stroke="#7D7898" stroke-width="1.5" stroke-linecap="round" stroke-linejoin="round"/>
</svg>
