<svg width="24" height="24" viewBox="0 0 24 24" fill="none" xmlns="http://www.w3.org/2000/svg">
<path d="M1.15723 8.88902C1.15716 7.62859 1.54589 6.39882 2.27039 5.36743C2.99489 4.33603 4.01991 3.55322 5.20563 3.12576C6.39136 2.69829 7.68008 2.64698 8.89605 2.97882C10.112 3.31066 11.196 4.00949 12.0002 4.98002C12.5411 4.32619 13.212 3.79186 13.9702 3.41092C14.7285 3.02997 15.5576 2.81071 16.4051 2.76703C17.2525 2.72335 18.0998 2.85622 18.8932 3.15719C19.6866 3.45817 20.4088 3.92069 21.014 4.51545C21.6193 5.11021 22.0944 5.82423 22.4092 6.61224C22.724 7.40025 22.8717 8.24508 22.8428 9.09316C22.814 9.94123 22.6093 10.7741 22.2416 11.5389C21.874 12.3037 21.3515 12.9838 20.7072 13.536L12.6802 20.971C12.4954 21.1422 12.2527 21.2373 12.0007 21.2373C11.7488 21.2373 11.5061 21.1422 11.3212 20.971L3.30423 13.546C2.63057 12.9715 2.08977 12.2575 1.71924 11.4534C1.34871 10.6494 1.15729 9.77437 1.15823 8.88902H1.15723Z" stroke="#7D7898" stroke-width="1.5" stroke-linecap="round" stroke-linejoin="round"/>
</svg>
