<svg width="25" height="25" viewBox="0 0 25 25" fill="none" xmlns="http://www.w3.org/2000/svg">
<path d="M11.5 19V18.25C11.3377 18.25 11.1798 18.3026 11.05 18.4L11.5 19ZM5.5 23.5H4.75C4.75 23.7841 4.9105 24.0438 5.16459 24.1708C5.41868 24.2979 5.72274 24.2704 5.95 24.1L5.5 23.5ZM5.5 19H6.25C6.25 18.5858 5.91421 18.25 5.5 18.25V19ZM1.43934 18.5607L1.96967 18.0304L1.96967 18.0304L1.43934 18.5607ZM1.43934 1.43934L1.96967 1.96967L1.96967 1.96967L1.43934 1.43934ZM23.0607 1.43934L22.5304 1.96967L22.5304 1.96967L23.0607 1.43934ZM9.25 6.99983C9.24992 7.41404 9.58564 7.7499 9.99985 7.74998C10.4141 7.75006 10.7499 7.41434 10.75 7.00013L9.25 6.99983ZM10.4373 5.44084L9.79667 5.05085L9.79661 5.05094L10.4373 5.44084ZM11.6213 4.33613L11.966 5.00225L11.966 5.00222L11.6213 4.33613ZM13.2069 4.0077L13.1552 4.75591L13.1552 4.75591L13.2069 4.0077ZM15.7529 5.80837L15.0646 6.10635L15.0647 6.10647L15.7529 5.80837ZM14 9.82898L14.25 10.5361L14.25 10.5361L14 9.82898ZM13.2753 10.3771L13.8876 10.8102L13.8876 10.8102L13.2753 10.3771ZM12.25 11.5C12.25 11.9142 12.5858 12.25 13 12.25C13.4142 12.25 13.75 11.9142 13.75 11.5H12.25ZM22 18.25H11.5V19.75H22V18.25ZM11.05 18.4L5.05 22.9L5.95 24.1L11.95 19.6L11.05 18.4ZM6.25 23.5V19H4.75V23.5H6.25ZM5.5 18.25H2.5V19.75H5.5V18.25ZM2.5 18.25C2.30104 18.25 2.11028 18.171 1.96967 18.0304L0.90901 19.091C1.331 19.513 1.90332 19.75 2.5 19.75V18.25ZM1.96967 18.0304C1.82904 17.8897 1.75 17.6989 1.75 17.5H0.25C0.25 18.0967 0.487031 18.6691 0.909015 19.091L1.96967 18.0304ZM1.75 17.5V2.5H0.25V17.5H1.75ZM1.75 2.5C1.75 2.30109 1.82902 2.11032 1.96967 1.96967L0.909015 0.909005C0.487049 1.33096 0.25 1.90327 0.25 2.5H1.75ZM1.96967 1.96967C2.11032 1.82902 2.30109 1.75 2.5 1.75V0.25C1.90327 0.25 1.33096 0.487049 0.909005 0.909015L1.96967 1.96967ZM2.5 1.75H22V0.25H2.5V1.75ZM22 1.75C22.1989 1.75 22.3897 1.82904 22.5304 1.96967L23.591 0.909015C23.1691 0.487031 22.5967 0.25 22 0.25V1.75ZM22.5304 1.96967C22.671 2.11028 22.75 2.30104 22.75 2.5H24.25C24.25 1.90332 24.013 1.331 23.591 0.90901L22.5304 1.96967ZM22.75 2.5V17.5H24.25V2.5H22.75ZM22.75 17.5C22.75 17.699 22.671 17.8898 22.5304 18.0304L23.591 19.091C24.013 18.669 24.25 18.0966 24.25 17.5H22.75ZM22.5304 18.0304C22.3898 18.171 22.199 18.25 22 18.25V19.75C22.5966 19.75 23.169 19.513 23.591 19.091L22.5304 18.0304ZM10.75 7.00013C10.7501 6.58764 10.8635 6.18311 11.078 5.83074L9.79661 5.05094C9.43923 5.63819 9.25014 6.31238 9.25 6.99983L10.75 7.00013ZM11.0779 5.83083C11.2925 5.47839 11.5996 5.19178 11.966 5.00225L11.2766 3.67001C10.666 3.98598 10.1541 4.46369 9.79667 5.05085L11.0779 5.83083ZM11.966 5.00222C12.3323 4.81268 12.7437 4.72746 13.1552 4.75591L13.2586 3.25949C12.5729 3.21206 11.8871 3.35408 11.2766 3.67004L11.966 5.00222ZM13.1552 4.75591C13.5667 4.78436 13.9625 4.92539 14.2992 5.16355L15.1654 3.93891C14.6041 3.54193 13.9445 3.3069 13.2586 3.25949L13.1552 4.75591ZM14.2992 5.16355C14.636 5.40174 14.9008 5.7279 15.0646 6.10635L16.4412 5.51039C16.168 4.87948 15.7266 4.33586 15.1654 3.93891L14.2992 5.16355ZM15.0647 6.10647C15.2286 6.48493 15.2853 6.90119 15.2286 7.30975L16.7144 7.51595C16.8089 6.83501 16.7144 6.14117 16.4411 5.51027L15.0647 6.10647ZM15.2286 7.30975C15.1719 7.7184 15.004 8.10352 14.7433 8.42305L15.9055 9.37137C16.3402 8.83868 16.6199 8.1968 16.7144 7.51595L15.2286 7.30975ZM14.7433 8.42305C14.4826 8.7426 14.1389 8.98437 13.75 9.12188L14.25 10.5361C14.8981 10.3069 15.4708 9.90404 15.9055 9.37137L14.7433 8.42305ZM13.75 9.12187C13.3114 9.27694 12.9316 9.56417 12.663 9.94405L13.8876 10.8102C13.9772 10.6835 14.1038 10.5878 14.25 10.5361L13.75 9.12187ZM12.663 9.94399C12.3943 10.3238 12.25 10.7776 12.25 11.243H13.75C13.75 11.088 13.7981 10.9368 13.8876 10.8102L12.663 9.94399ZM12.25 11.243V11.5H13.75V11.243H12.25ZM13 14.5C13.2071 14.5 13.375 14.6679 13.375 14.875H11.875C11.875 15.4963 12.3787 16 13 16V14.5ZM13.375 14.875C13.375 15.0821 13.2071 15.25 13 15.25V13.75C12.3787 13.75 11.875 14.2537 11.875 14.875H13.375ZM13 16C13.6213 16 14.125 15.4963 14.125 14.875H12.625C12.625 14.6679 12.7929 14.5 13 14.5V16ZM14.125 14.875C14.125 14.2537 13.6213 13.75 13 13.75V15.25C12.7929 15.25 12.625 15.0821 12.625 14.875H14.125Z" fill="#7D7898"/>
</svg>
