<svg width="24" height="24" viewBox="0 0 24 24" fill="none" xmlns="http://www.w3.org/2000/svg">
<path d="M2.78016 20.5L21.5302 2.5M9.00016 18.55C9.97114 18.8531 10.983 19.0049 12.0002 19C16.1002 19.07 20.2602 16.19 22.8202 13.36C23.0963 13.0563 23.2493 12.6605 23.2493 12.25C23.2493 11.8395 23.0963 11.4437 22.8202 11.14C21.8945 10.1169 20.8657 9.19197 19.7502 8.38M17.0902 6.77C15.5165 5.95359 13.7729 5.51855 12.0002 5.5C8.00016 5.43 3.80016 8.25 1.18016 11.14C0.903999 11.4437 0.750977 11.8395 0.750977 12.25C0.750977 12.6605 0.903999 13.0563 1.18016 13.36C2.60004 14.9473 4.26434 16.2977 6.11016 17.36M9.00016 14.57C8.45768 13.8174 8.2052 12.8942 8.28915 11.9703C8.37311 11.0464 8.78786 10.1839 9.45711 9.54141C10.1264 8.89893 11.0051 8.51971 11.9317 8.47352C12.8582 8.42733 13.7703 8.71727 14.5002 9.29M15.7502 12.25C15.7502 12.7425 15.6532 13.2301 15.4647 13.6851C15.2763 14.14 15 14.5534 14.6518 14.9017C14.3036 15.2499 13.8902 15.5261 13.4352 15.7145C12.9802 15.903 12.4926 16 12.0002 16" stroke="#7D7898" stroke-width="1.5" stroke-linecap="round" stroke-linejoin="round"/>
</svg>
