<svg width="25" height="25" viewBox="0 0 25 25" fill="none" xmlns="http://www.w3.org/2000/svg">
<path d="M16.75 23.25V15.75C16.75 15.3522 16.5919 14.9706 16.3106 14.6893C16.0293 14.408 15.6478 14.25 15.25 14.25H10.75C10.3522 14.25 9.97062 14.408 9.68932 14.6893C9.40802 14.9706 9.24998 15.3522 9.24998 15.75V23.25H2.72998C2.46476 23.25 2.21041 23.1446 2.02287 22.9571C1.83534 22.7696 1.72998 22.5152 1.72998 22.25V9.75C1.76458 9.45869 1.90734 9.19101 2.12998 9L13 0.75L17 3.75V1.25H21.5V7.16L23.87 9C24.0966 9.20657 24.233 9.49384 24.25 9.8V22.27C24.25 22.5352 24.1446 22.7896 23.9571 22.9771C23.7696 23.1646 23.5152 23.27 23.25 23.27L16.75 23.25Z" stroke="#7D7898" stroke-width="1.5" stroke-linecap="round" stroke-linejoin="round"/>
</svg>
