<svg width="25" height="25" viewBox="0 0 25 25" fill="none" xmlns="http://www.w3.org/2000/svg">
<path d="M1 13V2.5C1 2.10218 1.15804 1.72064 1.43934 1.43934C1.72064 1.15804 2.10218 1 2.5 1H13.129C13.5267 1.00035 13.908 1.15861 14.189 1.44L20.061 7.311C20.2003 7.45036 20.3107 7.61578 20.386 7.79783C20.4614 7.97988 20.5001 8.17498 20.5 8.372V13M20.5 8.5H14.5C14.1022 8.5 13.7206 8.34196 13.4393 8.06066C13.158 7.77936 13 7.39782 13 7V1M1 23.5V16M4 23.5V16M1 20.5H4M8.5 23.5V16M7 16H10M17.5 23.5V16L15.25 19.75L13 16V23.5M20.5 16V22C20.5 22.3978 20.658 22.7794 20.9393 23.0607C21.2206 23.342 21.6022 23.5 22 23.5H23.5" stroke="#7D7898" stroke-width="1.5" stroke-linecap="round" stroke-linejoin="round"/>
</svg>
