<svg width="24" height="24" viewBox="0 0 24 24" fill="none" xmlns="http://www.w3.org/2000/svg">
<path d="M4.06976 20.73L11.6698 23.41C11.8825 23.4897 12.117 23.4897 12.3298 23.41L19.9298 20.73C20.1011 20.6705 20.253 20.5656 20.3692 20.4264C20.4855 20.2873 20.5617 20.1191 20.5898 19.94L23.3298 1.67997C23.3515 1.53665 23.3418 1.39031 23.3014 1.2511C23.261 1.11188 23.1908 0.983119 23.0957 0.873729C23.0006 0.764338 22.8828 0.676937 22.7505 0.61758C22.6183 0.558223 22.4747 0.52833 22.3298 0.529971H1.65976C1.51481 0.52833 1.37123 0.558223 1.23898 0.61758C1.10672 0.676937 0.988954 0.764338 0.893832 0.873729C0.79871 0.983119 0.728509 1.11188 0.688091 1.2511C0.647674 1.39031 0.638008 1.53665 0.659761 1.67997L3.40976 19.94C3.43781 20.1191 3.51404 20.2873 3.6303 20.4264C3.74656 20.5656 3.89846 20.6705 4.06976 20.73ZM5.99976 4.05997C6.13877 3.89283 6.31312 3.7586 6.51024 3.66695C6.70737 3.57531 6.92237 3.52852 7.13976 3.52997H17.4998C17.765 3.52997 18.0193 3.63533 18.2069 3.82286C18.3944 4.0104 18.4998 4.26476 18.4998 4.52997C18.4998 4.79519 18.3944 5.04954 18.2069 5.23708C18.0193 5.42461 17.765 5.52997 17.4998 5.52997H7.99976C7.96178 5.52879 7.92402 5.53627 7.88937 5.55187C7.85471 5.56746 7.82406 5.59075 7.79976 5.61997C7.77514 5.68436 7.77514 5.75558 7.79976 5.81997L8.34976 9.10997C8.36866 9.22658 8.42823 9.33273 8.51793 9.40961C8.60762 9.48649 8.72163 9.52913 8.83976 9.52997H15.9898C16.2049 9.52929 16.4176 9.57489 16.6136 9.66367C16.8096 9.75246 16.9841 9.88235 17.1254 10.0445C17.2668 10.2067 17.3716 10.3974 17.4327 10.6037C17.4938 10.81 17.5099 11.027 17.4798 11.24L16.6098 17.35C16.567 17.6371 16.4424 17.9059 16.2509 18.124C16.0593 18.3422 15.809 18.5005 15.5298 18.58L12.4798 19.45C12.2123 19.53 11.9272 19.53 11.6598 19.45L8.59976 18.58C8.32592 18.5021 8.07988 18.3479 7.89041 18.1354C7.70094 17.9229 7.57585 17.6609 7.52976 17.38L6.99976 14.69C6.97875 14.5586 6.98381 14.4245 7.01465 14.2951C7.0455 14.1657 7.10152 14.0437 7.17952 13.936C7.25752 13.8283 7.35597 13.737 7.46926 13.6673C7.58254 13.5977 7.70844 13.551 7.83976 13.53C7.97108 13.509 8.10526 13.514 8.23462 13.5449C8.36399 13.5757 8.48601 13.6317 8.59373 13.7097C8.70145 13.7877 8.79274 13.8862 8.86241 13.9995C8.93208 14.1128 8.97875 14.2386 8.99976 14.37L9.33976 16.43C9.35419 16.5245 9.39597 16.6127 9.45994 16.6838C9.5239 16.7549 9.60727 16.8057 9.69976 16.83L11.8698 17.45C11.9607 17.4797 12.0588 17.4797 12.1498 17.45L14.2998 16.84C14.3919 16.8117 14.4743 16.7584 14.5379 16.686C14.6014 16.6136 14.6436 16.525 14.6598 16.43L15.3198 11.82C15.3262 11.7843 15.3242 11.7475 15.3138 11.7128C15.3033 11.678 15.2848 11.6462 15.2598 11.62C15.2365 11.5921 15.2075 11.5696 15.1747 11.554C15.1419 11.5385 15.1061 11.5303 15.0698 11.53H7.91976C7.56511 11.5302 7.22185 11.4048 6.95091 11.1759C6.67997 10.9471 6.49887 10.6297 6.43976 10.28L5.60976 5.27997C5.57997 5.06041 5.59952 4.83698 5.66698 4.62593C5.73445 4.41488 5.84813 4.22153 5.99976 4.05997Z" fill="#7D7898"/>
</svg>
