<svg width="25" height="24" viewBox="0 0 25 24" fill="none" xmlns="http://www.w3.org/2000/svg">
<path d="M20.45 16.932L16.078 10.377C16.0017 10.2629 15.8988 10.1692 15.7781 10.1038C15.6574 10.0385 15.5227 10.0036 15.3855 10.0021C15.2482 10.0007 15.1127 10.0327 14.9907 10.0954C14.8686 10.1581 14.7637 10.2496 14.685 10.362L12.44 13.577L11.05 12.46C10.9587 12.3869 10.8532 12.3335 10.7401 12.3034C10.6271 12.2732 10.509 12.2669 10.3934 12.2849C10.2778 12.3029 10.1673 12.3447 10.0687 12.4077C9.97015 12.4707 9.88579 12.5536 9.821 12.651L6.956 16.951M5.455 8.477C5.455 8.97428 5.65254 9.4512 6.00417 9.80283C6.35581 10.1545 6.83272 10.352 7.33 10.352C7.82728 10.352 8.30419 10.1545 8.65583 9.80283C9.00746 9.4512 9.205 8.97428 9.205 8.477C9.205 7.97972 9.00746 7.50281 8.65583 7.15118C8.30419 6.79954 7.82728 6.602 7.33 6.602C6.83272 6.602 6.35581 6.79954 6.00417 7.15118C5.65254 7.50281 5.455 7.97972 5.455 8.477ZM2.5 3C2.10218 3 1.72064 3.15804 1.43934 3.43934C1.15804 3.72064 1 4.10218 1 4.5V19.454C1 19.8518 1.15804 20.2334 1.43934 20.5147C1.72064 20.796 2.10218 20.954 2.5 20.954H22C22.3978 20.954 22.7794 20.796 23.0607 20.5147C23.342 20.2334 23.5 19.8518 23.5 19.454V7.454C23.5 7.0628 23.3471 6.6871 23.074 6.407L20.191 3.452C20.0512 3.30883 19.8841 3.19508 19.6997 3.11745C19.5152 3.03982 19.3171 2.99989 19.117 3H2.5Z" stroke="#7D7898" stroke-width="1.5" stroke-linecap="round" stroke-linejoin="round"/>
</svg>
