<svg width="24" height="25" viewBox="0 0 24 25" fill="none" xmlns="http://www.w3.org/2000/svg">
<path d="M19.29 18.45L15.365 12.562C15.2738 12.4248 15.1505 12.312 15.0057 12.2333C14.861 12.1547 14.6992 12.1126 14.5345 12.1107C14.3698 12.1088 14.2071 12.1472 14.0606 12.2226C13.9141 12.2979 13.7883 12.4079 13.694 12.543L11.003 16.388L9.335 15.05C9.22551 14.9623 9.09896 14.8983 8.96339 14.8621C8.82783 14.8259 8.68622 14.8184 8.54757 14.8399C8.40893 14.8615 8.27629 14.9116 8.15808 14.9872C8.03988 15.0628 7.93871 15.1622 7.861 15.279L5.75 18.45M22.954 22C22.954 22.3978 22.796 22.7794 22.5147 23.0607C22.2334 23.342 21.8518 23.5 21.454 23.5H3.5C3.10218 23.5 2.72064 23.342 2.43934 23.0607C2.15804 22.7794 2 22.3978 2 22V2.5C2 2.10218 2.15804 1.72064 2.43934 1.43934C2.72064 1.15804 3.10218 1 3.5 1H18.5C18.8912 1.00004 19.2669 1.1529 19.547 1.426L22.502 4.309C22.6452 4.44882 22.7589 4.61587 22.8365 4.80032C22.9142 4.98476 22.9541 5.18288 22.954 5.383V22ZM6.5 7.75C6.5 8.34674 6.73705 8.91903 7.15901 9.34099C7.58097 9.76295 8.15326 10 8.75 10C9.34674 10 9.91903 9.76295 10.341 9.34099C10.7629 8.91903 11 8.34674 11 7.75C11 7.15326 10.7629 6.58097 10.341 6.15901C9.91903 5.73705 9.34674 5.5 8.75 5.5C8.15326 5.5 7.58097 5.73705 7.15901 6.15901C6.73705 6.58097 6.5 7.15326 6.5 7.75Z" stroke="#7D7898" stroke-width="1.5" stroke-linecap="round" stroke-linejoin="round"/>
</svg>
