<svg width="25" height="25" viewBox="0 0 25 25" fill="none" xmlns="http://www.w3.org/2000/svg">
<path d="M14.5 17.5C14.9142 17.5 15.25 17.1642 15.25 16.75C15.25 16.3358 14.9142 16 14.5 16V17.5ZM12.0303 10.9697L11.4998 11.4998L11.5002 11.5002L12.0303 10.9697ZM10.75 9.99998C10.3358 9.99998 10 10.3358 10 10.75C10 11.1642 10.3358 11.5 10.75 11.5V9.99998ZM14.5 16H13.75V17.5H14.5V16ZM13.75 16C13.551 16 13.3602 15.9209 13.2196 15.7804L12.159 16.841C12.581 17.263 13.1534 17.5 13.75 17.5V16ZM13.2196 15.7804C13.079 15.6398 13 15.4489 13 15.25H11.5C11.5 15.8466 11.737 16.419 12.159 16.841L13.2196 15.7804ZM13 15.25V11.5H11.5V15.25H13ZM13 11.5C13 11.1023 12.842 10.7206 12.5604 10.4392L11.5002 11.5002L11.5 11.5H13ZM12.5608 10.4395C12.2794 10.1579 11.8977 9.99998 11.5 9.99998V11.5L11.4998 11.4998L12.5608 10.4395ZM11.5 9.99998H10.75V11.5H11.5V9.99998ZM11.875 6.99998C12.0821 6.99998 12.25 7.16787 12.25 7.37498H10.75C10.75 7.99632 11.2537 8.49998 11.875 8.49998V6.99998ZM12.25 7.37498C12.25 7.5821 12.0821 7.74998 11.875 7.74998V6.24998C11.2537 6.24998 10.75 6.75365 10.75 7.37498H12.25ZM11.875 8.49998C12.4963 8.49998 13 7.99632 13 7.37498H11.5C11.5 7.16787 11.6679 6.99998 11.875 6.99998V8.49998ZM13 7.37498C13 6.75365 12.4963 6.24998 11.875 6.24998V7.74998C11.6679 7.74998 11.5 7.5821 11.5 7.37498H13ZM12.25 24.25C18.8774 24.25 24.25 18.8774 24.25 12.25H22.75C22.75 18.049 18.049 22.75 12.25 22.75V24.25ZM24.25 12.25C24.25 5.62257 18.8774 0.249985 12.25 0.249985V1.74998C18.049 1.74998 22.75 6.451 22.75 12.25H24.25ZM12.25 0.249985C5.62259 0.249985 0.25 5.62257 0.25 12.25H1.75C1.75 6.451 6.45101 1.74998 12.25 1.74998V0.249985ZM0.25 12.25C0.25 18.8774 5.62259 24.25 12.25 24.25V22.75C6.45101 22.75 1.75 18.049 1.75 12.25H0.25Z" fill="#7D7898"/>
</svg>
