<svg width="25" height="25" viewBox="0 0 25 25" fill="none" xmlns="http://www.w3.org/2000/svg">
<path d="M20.152 17.5H17.5V14.848M8.5 16H2.5C2.10218 16 1.72064 15.842 1.43934 15.5607C1.15804 15.2794 1 14.8978 1 14.5V2.5C1 2.10218 1.15804 1.72064 1.43934 1.43934C1.72064 1.15804 2.10218 1 2.5 1H20.5C20.8978 1 21.2794 1.15804 21.5607 1.43934C21.842 1.72064 22 2.10218 22 2.5V9.25M21.661 1.55L13.517 7.814C12.9387 8.25886 12.2296 8.50006 11.5 8.50006C10.7704 8.50006 10.0613 8.25886 9.483 7.814L1.339 1.55M11.5 17.5C11.5 19.0913 12.1321 20.6174 13.2574 21.7426C14.3826 22.8679 15.9087 23.5 17.5 23.5C19.0913 23.5 20.6174 22.8679 21.7426 21.7426C22.8679 20.6174 23.5 19.0913 23.5 17.5C23.5 15.9087 22.8679 14.3826 21.7426 13.2574C20.6174 12.1321 19.0913 11.5 17.5 11.5C15.9087 11.5 14.3826 12.1321 13.2574 13.2574C12.1321 14.3826 11.5 15.9087 11.5 17.5Z" stroke="#7D7898" stroke-width="1.5" stroke-linecap="round" stroke-linejoin="round"/>
</svg>
