<svg width="25" height="25" viewBox="0 0 25 25" fill="none" xmlns="http://www.w3.org/2000/svg">
<path d="M7.67822 5.36798H9.92822M8.42822 9.11798H14.4282M8.42822 12.868H14.4282M8.42822 16.618H14.4282M8.42822 20.368H11.4282M18.1782 8.36798H21.6782C21.9434 8.36798 22.1978 8.26262 22.3853 8.07509C22.5729 7.88755 22.6782 7.6332 22.6782 7.36798V3.11798C22.6782 2.72016 22.5202 2.33863 22.2389 2.05732C21.9576 1.77602 21.576 1.61798 21.1782 1.61798H19.6782C19.2804 1.61798 18.8989 1.77602 18.6176 2.05732C18.3363 2.33863 18.1782 2.72016 18.1782 3.11798V8.36798ZM18.1782 8.36798V19.618C18.1782 20.8115 17.7041 21.956 16.8602 22.8C16.0163 23.6439 14.8717 24.118 13.6782 24.118H1.67822C3.17822 23.494 4.67822 22.618 4.67822 19.618V4.61798C4.67822 3.82233 4.99429 3.05927 5.5569 2.49666C6.11951 1.93405 6.88257 1.61798 7.67822 1.61798H20.4282" stroke="#7D7898" stroke-width="1.5" stroke-linecap="round" stroke-linejoin="round"/>
</svg>
