<svg width="25" height="25" viewBox="0 0 25 25" fill="none" xmlns="http://www.w3.org/2000/svg">
<path d="M8.5 1H2.5C1.67157 1 1 1.67158 1 2.5V8.5C1 9.32843 1.67157 10 2.5 10H8.5C9.32843 10 10 9.32843 10 8.5V2.5C10 1.67158 9.32843 1 8.5 1Z" stroke="#7D7898" stroke-width="1.5" stroke-linecap="round" stroke-linejoin="round"/>
<path d="M8.5 14.5H2.5C1.67157 14.5 1 15.1716 1 16V22C1 22.8284 1.67157 23.5 2.5 23.5H8.5C9.32843 23.5 10 22.8284 10 22V16C10 15.1716 9.32843 14.5 8.5 14.5Z" stroke="#7D7898" stroke-width="1.5" stroke-linecap="round" stroke-linejoin="round"/>
<path d="M22 1H16C15.1716 1 14.5 1.67158 14.5 2.5V8.5C14.5 9.32843 15.1716 10 16 10H22C22.8284 10 23.5 9.32843 23.5 8.5V2.5C23.5 1.67158 22.8284 1 22 1Z" stroke="#7D7898" stroke-width="1.5" stroke-linecap="round" stroke-linejoin="round"/>
<path d="M22 14.5H16C15.1716 14.5 14.5 15.1716 14.5 16V22C14.5 22.8284 15.1716 23.5 16 23.5H22C22.8284 23.5 23.5 22.8284 23.5 22V16C23.5 15.1716 22.8284 14.5 22 14.5Z" stroke="#7D7898" stroke-width="1.5" stroke-linecap="round" stroke-linejoin="round"/>
</svg>
