<svg width="25" height="25" viewBox="0 0 25 25" fill="none" xmlns="http://www.w3.org/2000/svg">
<path d="M22 1H2.5C1.67157 1 1 1.67157 1 2.5V4C1 4.82843 1.67157 5.5 2.5 5.5H22C22.8284 5.5 23.5 4.82843 23.5 4V2.5C23.5 1.67157 22.8284 1 22 1Z" stroke="#7D7898" stroke-width="1.5" stroke-linecap="round" stroke-linejoin="round"/>
<path d="M22 10H2.5C1.67157 10 1 10.6716 1 11.5V13C1 13.8284 1.67157 14.5 2.5 14.5H22C22.8284 14.5 23.5 13.8284 23.5 13V11.5C23.5 10.6716 22.8284 10 22 10Z" stroke="#7D7898" stroke-width="1.5" stroke-linecap="round" stroke-linejoin="round"/>
<path d="M22 19H2.5C1.67157 19 1 19.6716 1 20.5V22C1 22.8284 1.67157 23.5 2.5 23.5H22C22.8284 23.5 23.5 22.8284 23.5 22V20.5C23.5 19.6716 22.8284 19 22 19Z" stroke="#7D7898" stroke-width="1.5" stroke-linecap="round" stroke-linejoin="round"/>
</svg>
