<svg width="24" height="24" viewBox="0 0 24 24" fill="none" xmlns="http://www.w3.org/2000/svg">
<path d="M23.25 9.75V8.25M23.25 14.25V12.75M23.25 18.75V17.25M9.75 23.25H8.25M14.25 23.25H12.75M18.75 23.25H17.25M21.75 23.25C22.1478 23.25 22.5294 23.092 22.8107 22.8107C23.092 22.5294 23.25 22.1478 23.25 21.75M6 18.75H1.75C1.19772 18.75 0.75 18.3023 0.75 17.75V1.75C0.75 1.19772 1.19772 0.75 1.75 0.75H17.75C18.3023 0.75 18.75 1.19772 18.75 1.75V7M11.698 10.824C11.4757 10.6046 11.3508 10.3071 11.3508 9.99686C11.3508 9.68663 11.4757 9.3891 11.698 9.16974C11.9202 8.95037 12.2217 8.82713 12.5361 8.82713C12.8504 8.82713 13.1519 8.95037 13.3742 9.16974L14.2123 9.99686C13.99 9.7775 13.8652 9.47997 13.8652 9.16974C13.8652 8.8595 13.99 8.56198 14.2123 8.34261C14.4346 8.12324 14.7361 8 15.0504 8C15.3648 8 15.6663 8.12324 15.8886 8.34261L19.3131 11.7223C19.6892 12.093 19.9876 12.5333 20.1913 13.0179C20.3949 13.5025 20.4998 14.0219 20.5 14.5466C20.5002 15.0712 20.3956 15.5907 20.1922 16.0754C19.9888 16.5601 19.6907 17.0006 19.3148 17.3715L17.1843 19.4741C16.7841 19.8684 16.2945 20.1628 15.7559 20.3329C15.2174 20.5031 14.6455 20.544 14.0877 20.4523L12.6154 20.2125C11.4747 20.0251 10.4219 19.4905 9.60434 18.6834C9.15977 18.2446 8.91002 17.6496 8.91002 17.0291C8.91002 16.4086 9.15977 15.8136 9.60434 15.3749L8.34716 14.1342C8.12488 13.9148 8 13.6173 8 13.307C8 12.9968 8.12488 12.6993 8.34716 12.4799C8.56944 12.2605 8.87092 12.1373 9.18528 12.1373C9.49964 12.1373 9.80112 12.2605 10.0234 12.4799L9.60434 12.0663C9.38206 11.847 9.25718 11.5494 9.25718 11.2392C9.25718 10.929 9.38206 10.6315 9.60434 10.4121C9.82662 10.1927 10.1281 10.0695 10.4425 10.0695C10.7568 10.0695 11.0583 10.1927 11.2806 10.4121L11.698 10.824ZM11.698 10.824L12.5361 11.6513M9.60266 15.373L10.8598 16.6137M10.8598 13.3052L10.0217 12.478" stroke="#7D7898" stroke-width="1.5" stroke-linecap="round" stroke-linejoin="round"/>
</svg>
