<svg width="25" height="25" viewBox="0 0 25 25" fill="none" xmlns="http://www.w3.org/2000/svg">
<path d="M18.25 21.2719H21.25M19.75 19.7719V22.7719M1 5.52192H5.5M3.25 3.27192V7.77192M14.479 7.58292C14.479 8.23535 14.7382 8.86106 15.1995 9.3224C15.6609 9.78374 16.2866 10.0429 16.939 10.0429C17.5914 10.0429 18.2171 9.78374 18.6785 9.3224C19.1398 8.86106 19.399 8.23535 19.399 7.58292C19.399 6.93049 19.1398 6.30478 18.6785 5.84344C18.2171 5.3821 17.5914 5.12292 16.939 5.12292C16.2866 5.12292 15.6609 5.3821 15.1995 5.84344C14.7382 6.30478 14.479 6.93049 14.479 7.58292ZM11.104 10.5179L1.604 20.0179C1.21944 20.4025 1.00339 20.9241 1.00339 21.4679C1.00339 22.0118 1.21944 22.5334 1.604 22.9179C1.98856 23.3025 2.51014 23.5185 3.054 23.5185C3.59786 23.5185 4.11944 23.3025 4.504 22.9179L5.949 21.4719L7.407 22.9299C7.71465 23.2376 8.13192 23.4104 8.567 23.4104C9.00208 23.4104 9.41935 23.2376 9.727 22.9299C10.0347 22.6223 10.2075 22.205 10.2075 21.7699C10.2075 21.3348 10.0347 20.9176 9.727 20.6099L8.27 19.1519L14.004 13.4179C15.3967 14.121 16.9943 14.3049 18.5103 13.9364C20.0263 13.568 21.3614 12.6715 22.276 11.4076C23.1907 10.1438 23.6251 8.59535 23.5012 7.04017C23.3774 5.48499 22.7034 4.02484 21.6002 2.92168C20.4971 1.81852 19.0369 1.14456 17.4818 1.02072C15.9266 0.896868 14.3782 1.33124 13.1143 2.2459C11.8505 3.16056 10.9539 4.49564 10.5855 6.01162C10.2171 7.52759 10.4009 9.12524 11.104 10.5179Z" stroke="#7D7898" stroke-width="1.5" stroke-linecap="round" stroke-linejoin="round"/>
</svg>
