<svg width="25" height="24" viewBox="0 0 25 24" fill="none" xmlns="http://www.w3.org/2000/svg">
<path d="M10.1801 9.79654C9.76174 9.32592 9.24863 8.94902 8.67442 8.69052C8.10021 8.43202 7.47786 8.29776 6.84814 8.29654H5.34814C4.15467 8.29654 3.01008 8.77065 2.16616 9.61456C1.32225 10.4585 0.848145 11.6031 0.848145 12.7965C0.848145 13.99 1.32225 15.1346 2.16616 15.9785C3.01008 16.8224 4.15467 17.2965 5.34814 17.2965H6.84814C7.47782 17.2951 8.10009 17.1607 8.67426 16.9022C9.24844 16.6437 9.76158 16.267 10.1801 15.7965M14.0161 9.79654C14.4345 9.32587 14.9476 8.94893 15.5218 8.69043C16.0961 8.43193 16.7184 8.2977 17.3481 8.29654H18.8481C20.0416 8.29654 21.1862 8.77065 22.0301 9.61456C22.874 10.4585 23.3481 11.6031 23.3481 12.7965C23.3481 13.99 22.874 15.1346 22.0301 15.9785C21.1862 16.8224 20.0416 17.2965 18.8481 17.2965H17.3481C16.7185 17.2952 16.0961 17.1609 15.5219 16.9024C14.9478 16.6439 14.4346 16.2671 14.0161 15.7965M6.84814 12.7955H17.3481" stroke="#7D7898" stroke-width="1.5" stroke-linecap="round" stroke-linejoin="round"/>
</svg>
