<svg width="25" height="24" viewBox="0 0 25 24" fill="none" xmlns="http://www.w3.org/2000/svg">
<path d="M11.0078 14.6377C10.8864 14.5869 10.7561 14.5605 10.6245 14.5602C10.4928 14.5598 10.3624 14.5855 10.2407 14.6356C10.119 14.6858 10.0084 14.7595 9.91522 14.8525C9.82206 14.9455 9.74818 15.056 9.69783 15.1777C9.65024 15.3004 9.57887 15.4126 9.48783 15.5077C9.39439 15.6004 9.28358 15.6737 9.16174 15.7234C9.0399 15.7732 8.90944 15.7984 8.77783 15.7977H4.77783C4.2474 15.7977 3.73869 15.587 3.36362 15.2119C2.98855 14.8368 2.77783 14.3281 2.77783 13.7977V10.7977C2.77783 10.2672 2.98855 9.75853 3.36362 9.38346C3.73869 9.00839 4.2474 8.79767 4.77783 8.79767H8.77783C8.90944 8.79691 9.0399 8.82214 9.16174 8.8719C9.28358 8.92167 9.39439 8.99499 9.48783 9.08767C9.57887 9.18278 9.65024 9.29492 9.69783 9.41767C9.74839 9.53915 9.82238 9.64947 9.91558 9.74235C10.0088 9.83523 10.1193 9.90884 10.241 9.95898C10.3626 10.0091 10.493 10.0348 10.6245 10.0346C10.7561 10.0344 10.8864 10.0082 11.0078 9.95767C11.1293 9.90711 11.2396 9.83312 11.3325 9.73993C11.4254 9.64673 11.499 9.53616 11.5491 9.41451C11.5993 9.29287 11.625 9.16254 11.6248 9.03096C11.6245 8.89939 11.5984 8.76915 11.5478 8.64767C11.4028 8.27291 11.1814 7.93237 10.8978 7.64767C10.3309 7.09589 9.56893 6.79039 8.77783 6.79767H4.77783C3.71697 6.79767 2.69955 7.2191 1.9494 7.96925C1.19926 8.71939 0.777832 9.73681 0.777832 10.7977V13.7977C0.777832 14.8585 1.19926 15.876 1.9494 16.6261C2.69955 17.3762 3.71697 17.7977 4.77783 17.7977H8.77783C9.57321 17.797 10.3358 17.4804 10.8978 16.9177C11.1792 16.6312 11.4003 16.2912 11.5478 15.9177C11.6412 15.6759 11.6371 15.4074 11.5364 15.1686C11.4357 14.9298 11.2462 14.7395 11.0078 14.6377Z" fill="#7D7898"/>
<path d="M6.77783 12.2977C6.77783 12.5629 6.88319 12.8172 7.07073 13.0048C7.25826 13.1923 7.51262 13.2977 7.77783 13.2977H18.7778C19.043 13.2977 19.2974 13.1923 19.4849 13.0048C19.6725 12.8172 19.7778 12.5629 19.7778 12.2977C19.7778 12.0325 19.6725 11.7781 19.4849 11.5906C19.2974 11.403 19.043 11.2977 18.7778 11.2977H7.77783C7.51262 11.2977 7.25826 11.403 7.07073 11.5906C6.88319 11.7781 6.77783 12.0325 6.77783 12.2977Z" fill="#7D7898"/>
<path d="M20.7778 6.79767H16.7778C15.9825 6.79837 15.2199 7.1149 14.6578 7.67767C14.3742 7.96237 14.1529 8.30291 14.0078 8.67767C13.9057 8.923 13.9053 9.19884 14.0065 9.44451C14.1078 9.69018 14.3025 9.88557 14.5478 9.98767C14.7932 10.0898 15.069 10.0903 15.3147 9.98898C15.5603 9.88771 15.7557 9.693 15.8578 9.44767C15.9054 9.32492 15.9768 9.21278 16.0678 9.11767C16.1588 9.01956 16.2684 8.94068 16.3904 8.88572C16.5124 8.83075 16.6441 8.80081 16.7778 8.79767H20.7778C21.3083 8.79767 21.817 9.00839 22.192 9.38346C22.5671 9.75853 22.7778 10.2672 22.7778 10.7977V13.7977C22.7778 14.3281 22.5671 14.8368 22.192 15.2119C21.817 15.587 21.3083 15.7977 20.7778 15.7977H16.7778C16.6462 15.7984 16.5158 15.7732 16.3939 15.7234C16.2721 15.6737 16.1613 15.6004 16.0678 15.5077C15.9768 15.4126 15.9054 15.3004 15.8578 15.1777C15.7557 14.9323 15.5603 14.7376 15.3147 14.6364C15.069 14.5351 14.7932 14.5356 14.5478 14.6377C14.3025 14.7398 14.1078 14.9352 14.0065 15.1808C13.9053 15.4265 13.9057 15.7023 14.0078 15.9477C14.1554 16.3212 14.3764 16.6612 14.6578 16.9477C15.2248 17.4995 15.9867 17.805 16.7778 17.7977H20.7778C21.8387 17.7977 22.8561 17.3762 23.6063 16.6261C24.3564 15.876 24.7778 14.8585 24.7778 13.7977V10.7977C24.7778 9.73681 24.3564 8.71939 23.6063 7.96925C22.8561 7.2191 21.8387 6.79767 20.7778 6.79767Z" fill="#7D7898"/>
</svg>
