<svg width="24" height="24" viewBox="0 0 24 24" fill="none" xmlns="http://www.w3.org/2000/svg">
<path fill-rule="evenodd" clip-rule="evenodd" d="M4.99382 4.04914C5.43954 3.58971 5.68468 2.976 5.67954 2.33829C5.65652 1.71929 5.3979 1.13247 4.95656 0.697826C4.51523 0.263185 3.92453 0.0135605 3.30525 0C2.6841 0.0133046 2.09125 0.262291 1.64686 0.696489C1.20248 1.13069 0.939812 1.71761 0.912109 2.33829C0.92092 2.97539 1.17422 3.58475 1.61963 4.04038C2.06504 4.496 2.66851 4.76304 3.30525 4.78629C3.94295 4.7713 4.54929 4.5066 4.99382 4.04914ZM2.86297 7.93714C1.85668 7.91486 1.17097 7.89943 1.17097 9.13029V22.8309C1.17097 24.036 1.82582 24.012 2.76868 23.976C2.94011 23.9691 3.12011 23.9623 3.30697 23.9623C3.49554 23.9623 3.67554 23.9691 3.84525 23.976C4.78468 24.0103 5.42582 24.036 5.42582 22.8309V9.132C5.42582 7.90114 4.75382 7.91486 3.75268 7.93886C3.45615 7.94566 3.1595 7.94566 2.86297 7.93886V7.93714ZM9.86411 7.96286C9.40811 8.05371 9.11497 8.34514 9.11497 9.13029V22.8309C9.11497 24.036 9.74411 24.012 10.6887 23.976C10.8601 23.9691 11.0435 23.9623 11.2338 23.9623C11.4258 23.9623 11.6075 23.9691 11.7807 23.976C12.7304 24.0103 13.3715 24.036 13.3715 22.8309V15.5246C13.335 15.1511 13.3782 14.7741 13.4983 14.4186C13.6185 14.0631 13.8128 13.7372 14.0684 13.4625C14.324 13.1877 14.6351 12.9704 14.981 12.825C15.3269 12.6796 15.6998 12.6093 16.075 12.6189C16.4519 12.5963 16.8293 12.6552 17.1815 12.7915C17.5336 12.9278 17.8523 13.1384 18.1158 13.4089C18.3793 13.6794 18.5814 14.0035 18.7085 14.3591C18.8356 14.7147 18.8845 15.0935 18.8521 15.4697V22.7743C18.8521 23.9811 19.4795 23.9571 20.4241 23.9211C20.5955 23.9143 20.779 23.9074 20.9693 23.9074C21.1613 23.9074 21.343 23.9143 21.5161 23.9211C22.4607 23.9554 23.0881 23.9811 23.0881 22.776V13.4229C23.1232 12.6549 22.9963 11.8882 22.7157 11.1726C22.435 10.457 22.0068 9.80843 21.459 9.26917C20.9111 8.72991 20.2559 8.31201 19.536 8.04264C18.816 7.77327 18.0474 7.65848 17.2801 7.70571C16.4987 7.63462 15.712 7.76531 14.9956 8.08528C14.2791 8.40525 13.6567 8.90378 13.1881 9.53314C13.207 8.85771 12.9875 7.96286 12.4407 7.96286C12.283 7.96286 12.0413 7.95429 11.767 7.94571C11.0813 7.92514 10.1898 7.89771 9.86411 7.96286Z" fill="#7D7898"/>
</svg>
