<svg width="24" height="25" viewBox="0 0 24 25" fill="none" xmlns="http://www.w3.org/2000/svg">
<path d="M9.039 23.4682V19.0102M12.039 19.0102V20.3032C12.0481 21.4545 12.4444 22.5694 13.164 23.4682C13.8845 22.5698 14.2811 21.4548 14.29 20.3032V19.0102M3.79 19.0102V22.5432C3.81249 22.82 3.94323 23.0768 4.15384 23.2578C4.36445 23.4388 4.63795 23.5295 4.915 23.5102H6.039M19.206 23.5102H18.248C18.0016 23.5177 17.7622 23.4272 17.5824 23.2585C17.4026 23.0897 17.2971 22.8566 17.289 22.6102V19.9102C17.2971 19.6637 17.4026 19.4306 17.5824 19.2619C17.7622 19.0931 18.0016 19.0026 18.248 19.0102H19.206M17.289 21.2602H19.539M6.09 12.1452C5.72624 11.2339 5.59151 10.2474 5.6976 9.27197C5.80368 8.29655 6.14736 7.36204 6.69852 6.55031C7.24967 5.73857 7.99149 5.07439 8.85896 4.61594C9.72644 4.1575 10.6931 3.91879 11.6743 3.92073C12.6554 3.92267 13.6212 4.1652 14.4868 4.62706C15.3525 5.08893 16.0917 5.75604 16.6396 6.56995C17.1875 7.38385 17.5275 8.31972 17.6298 9.29554C17.732 10.2714 17.5934 11.2574 17.226 12.1672M4.58 14.6522C3.66635 13.3546 3.12661 11.8311 3.01969 10.2478C2.91277 8.66443 3.24276 7.08214 3.97367 5.67355C4.70458 4.26496 5.80832 3.08416 7.16447 2.26001C8.52061 1.43586 10.0771 1 11.664 1C13.2509 1 14.8074 1.43586 16.1635 2.26001C17.5197 3.08416 18.6234 4.26496 19.3543 5.67355C20.0852 7.08214 20.4152 8.66443 20.3083 10.2478C20.2014 11.8311 19.6617 13.3546 18.748 14.6522M9.039 9.54217C9.039 9.88689 9.1069 10.2282 9.23882 10.5467C9.37074 10.8652 9.56409 11.1546 9.80785 11.3983C10.0516 11.6421 10.341 11.8354 10.6595 11.9674C10.9779 12.0993 11.3193 12.1672 11.664 12.1672C12.0087 12.1672 12.3501 12.0993 12.6685 11.9674C12.987 11.8354 13.2764 11.6421 13.5202 11.3983C13.7639 11.1546 13.9573 10.8652 14.0892 10.5467C14.2211 10.2282 14.289 9.88689 14.289 9.54217C14.289 9.19745 14.2211 8.85611 14.0892 8.53763C13.9573 8.21915 13.7639 7.92977 13.5202 7.68601C13.2764 7.44226 12.987 7.2489 12.6685 7.11699C12.3501 6.98507 12.0087 6.91717 11.664 6.91717C11.3193 6.91717 10.9779 6.98507 10.6595 7.11699C10.341 7.2489 10.0516 7.44226 9.80785 7.68601C9.56409 7.92977 9.37074 8.21915 9.23882 8.53763C9.1069 8.85611 9.039 9.19745 9.039 9.54217ZM15.89 15.9172C15.5843 15.0405 15.0134 14.2806 14.2564 13.7429C13.4995 13.2052 12.594 12.9164 11.6655 12.9164C10.737 12.9164 9.83154 13.2052 9.07459 13.7429C8.31764 14.2806 7.74673 15.0405 7.441 15.9172H15.89Z" stroke="#7D7898" stroke-width="1.5" stroke-linecap="round" stroke-linejoin="round"/>
</svg>
