<svg width="25" height="24" viewBox="0 0 25 24" fill="none" xmlns="http://www.w3.org/2000/svg">
<path d="M12.2501 12.822C11.6534 12.822 11.0811 12.5849 10.6591 12.163C10.2372 11.741 10.0001 11.1687 10.0001 10.572C10.0001 9.97526 10.2372 9.40297 10.6591 8.98101C11.0811 8.55905 11.6534 8.322 12.2501 8.322C12.8469 8.322 13.4192 8.55905 13.8411 8.98101C14.2631 9.40297 14.5001 9.97526 14.5001 10.572C14.5001 11.1687 14.2631 11.741 13.8411 12.163C13.4192 12.5849 12.8469 12.822 12.2501 12.822ZM12.2501 12.822V22.506M19.5361 19.143C20.7787 18.087 21.7767 16.7734 22.4612 15.2934C23.1457 13.8133 23.5003 12.2022 23.5003 10.5715C23.5003 8.94083 23.1457 7.32966 22.4612 5.84961C21.7767 4.36956 20.7787 3.05602 19.5361 2M16.6211 15.715C17.3667 15.0814 17.9657 14.2933 18.3764 13.4052C18.7872 12.5172 18.9999 11.5504 18.9999 10.572C18.9999 9.59355 18.7872 8.62681 18.3764 7.73875C17.9657 6.8507 17.3667 6.06258 16.6211 5.429M4.96413 19.143C3.72159 18.087 2.72351 16.7734 2.03902 15.2934C1.35453 13.8133 1 12.2022 1 10.5715C1 8.94083 1.35453 7.32966 2.03902 5.84961C2.72351 4.36956 3.72159 3.05602 4.96413 2M7.87913 15.715C7.13351 15.0814 6.53457 14.2933 6.12382 13.4052C5.71306 12.5172 5.50031 11.5504 5.50031 10.572C5.50031 9.59355 5.71306 8.62681 6.12382 7.73875C6.53457 6.8507 7.13351 6.06258 7.87913 5.429" stroke="#7D7898" stroke-width="1.5" stroke-linecap="round" stroke-linejoin="round"/>
</svg>
