<svg width="24" height="25" viewBox="0 0 24 25" fill="none" xmlns="http://www.w3.org/2000/svg">
<path d="M18.479 18.034C21.211 18.575 23 19.478 23 20.5C23 22.157 18.3 23.5 12.5 23.5C6.7 23.5 2 22.157 2 20.5C2 19.48 3.781 18.579 6.5 18.037M9.5 7.75C9.5 8.54565 9.81607 9.30871 10.3787 9.87132C10.9413 10.4339 11.7044 10.75 12.5 10.75C13.2956 10.75 14.0587 10.4339 14.6213 9.87132C15.1839 9.30871 15.5 8.54565 15.5 7.75C15.5 6.95435 15.1839 6.19129 14.6213 5.62868C14.0587 5.06607 13.2956 4.75 12.5 4.75C11.7044 4.75 10.9413 5.06607 10.3787 5.62868C9.81607 6.19129 9.5 6.95435 9.5 7.75ZM12.5 1C14.2902 1 16.0071 1.71116 17.273 2.97703C18.5388 4.2429 19.25 5.95979 19.25 7.75C19.25 11.001 14.118 18.277 12.804 20.087C12.769 20.1347 12.7232 20.1736 12.6704 20.2003C12.6176 20.2271 12.5592 20.241 12.5 20.241C12.4408 20.241 12.3824 20.2271 12.3296 20.2003C12.2768 20.1736 12.231 20.1347 12.196 20.087C10.882 18.277 5.75 11.001 5.75 7.75C5.75 5.95979 6.46116 4.2429 7.72703 2.97703C8.9929 1.71116 10.7098 1 12.5 1Z" stroke="#7D7898" stroke-width="1.5" stroke-linecap="round" stroke-linejoin="round"/>
</svg>
