<svg width="24" height="25" viewBox="0 0 24 25" fill="none" xmlns="http://www.w3.org/2000/svg">
<path d="M7 10V6.25C7 4.85761 7.55312 3.52226 8.53769 2.53769C9.52226 1.55312 10.8576 1 12.25 1C13.6424 1 14.9777 1.55312 15.9623 2.53769C16.9469 3.52226 17.5 4.85761 17.5 6.25V10M12.25 15.25V18.25M5.5 10H19C19.8284 10 20.5 10.6716 20.5 11.5V22C20.5 22.8284 19.8284 23.5 19 23.5H5.5C4.67157 23.5 4 22.8284 4 22V11.5C4 10.6716 4.67157 10 5.5 10Z" stroke="#7D7898" stroke-width="1.5" stroke-linecap="round" stroke-linejoin="round"/>
</svg>
