<svg width="25" height="25" viewBox="0 0 25 25" fill="none" xmlns="http://www.w3.org/2000/svg">
<path d="M21.25 18.9873C21.25 18.5731 20.9142 18.2373 20.5 18.2373C20.0858 18.2373 19.75 18.5731 19.75 18.9873H21.25ZM14.5 21.2373C14.0858 21.2373 13.75 21.5731 13.75 21.9873C13.75 22.4015 14.0858 22.7373 14.5 22.7373V21.2373ZM14.5 3.2373C14.0858 3.2373 13.75 3.57309 13.75 3.9873C13.75 4.40152 14.0858 4.7373 14.5 4.7373V3.2373ZM19.75 6.9873C19.75 7.40152 20.0858 7.7373 20.5 7.7373C20.9142 7.7373 21.25 7.40152 21.25 6.9873H19.75ZM10.64 23.4773L10.7616 22.7372C10.7552 22.7362 10.7488 22.7352 10.7424 22.7343L10.64 23.4773ZM1.64004 22.2373L1.52997 22.9792L1.53767 22.9803L1.64004 22.2373ZM1.17948 21.9822L1.75004 21.4954L1.75004 21.4954L1.17948 21.9822ZM1.00004 21.4873L1.75004 21.4954V21.4873H1.00004ZM1.00004 3.95726L0.250044 3.9445V3.95726H1.00004ZM1.16983 3.49465L0.589715 3.01929L0.589713 3.01929L1.16983 3.49465ZM1.59004 3.23726L1.74994 3.97002C1.75654 3.96858 1.76311 3.96705 1.76966 3.96544L1.59004 3.23726ZM10.59 1.01727L10.43 0.284525C10.4235 0.28596 10.4169 0.287482 10.4104 0.289092L10.59 1.01727ZM10.9214 1.01984L10.75 1.75L10.75 1.75001L10.9214 1.01984ZM11.2194 1.16498L11.6889 0.580071L11.6885 0.579805L11.2194 1.16498ZM11.4257 1.42432L12.1015 1.09904L12.1012 1.09847L11.4257 1.42432ZM11.5 1.74726H12.25L12.25 1.74458L11.5 1.74726ZM11.4316 23.058L12.1122 23.3731L12.1124 23.3726L11.4316 23.058ZM11.2389 23.3112L10.7537 22.7393L10.7533 22.7396L11.2389 23.3112ZM10.9578 23.4602L11.1576 24.1831L11.1584 24.1829L10.9578 23.4602ZM21.0303 9.45697C20.7374 9.16408 20.2626 9.16408 19.9697 9.45697C19.6768 9.74987 19.6768 10.2247 19.9697 10.5176L21.0303 9.45697ZM23.5 12.9873L24.0303 13.5176C24.3232 13.2247 24.3232 12.7499 24.0303 12.457L23.5 12.9873ZM15.25 12.2373C14.8358 12.2373 14.5 12.5731 14.5 12.9873C14.5 13.4015 14.8358 13.7373 15.25 13.7373V12.2373ZM19.9697 15.457C19.6768 15.7499 19.6768 16.2247 19.9697 16.5176C20.2626 16.8105 20.7374 16.8105 21.0303 16.5176L19.9697 15.457ZM19.75 18.9873V20.4873H21.25V18.9873H19.75ZM19.75 20.4873C19.75 20.6863 19.671 20.8771 19.5304 21.0177L20.591 22.0783C21.013 21.6563 21.25 21.0839 21.25 20.4873H19.75ZM19.5304 21.0177C19.3898 21.1583 19.199 21.2373 19 21.2373V22.7373C19.5966 22.7373 20.169 22.5003 20.591 22.0783L19.5304 21.0177ZM19 21.2373H14.5V22.7373H19V21.2373ZM14.5 4.7373H19V3.2373H14.5V4.7373ZM19 4.7373C19.1989 4.7373 19.3897 4.81634 19.5304 4.95697L20.591 3.89631C20.1691 3.47434 19.5967 3.2373 19 3.2373V4.7373ZM19.5304 4.95697C19.671 5.09759 19.75 5.28835 19.75 5.4873H21.25C21.25 4.89062 21.013 4.3183 20.591 3.89631L19.5304 4.95697ZM19.75 5.4873V6.9873H21.25V5.4873H19.75ZM10.7424 22.7343L1.74241 21.4943L1.53767 22.9803L10.5376 24.2203L10.7424 22.7343ZM1.75011 21.4954L1.75004 21.4954L0.60893 22.469C0.844265 22.7448 1.17148 22.926 1.52997 22.9792L1.75011 21.4954ZM1.75004 21.4954L1.75 21.4954L0.250088 21.4792C0.246169 21.8417 0.373694 22.1933 0.608932 22.469L1.75004 21.4954ZM1.75004 21.4873V3.95726H0.250044V21.4873H1.75004ZM1.74994 3.97002L1.74994 3.97002L0.589713 3.01929C0.375549 3.28065 0.2559 3.60666 0.250152 3.94451L1.74994 3.97002ZM1.74994 3.97002L1.74994 3.97002L1.43014 2.50451C1.10003 2.57655 0.803892 2.75792 0.589715 3.01929L1.74994 3.97002ZM1.76966 3.96544L10.7696 1.74544L10.4104 0.289092L1.41042 2.50909L1.76966 3.96544ZM10.75 1.75001L10.75 1.75L11.0928 0.289683C10.875 0.238571 10.6486 0.236813 10.43 0.284525L10.75 1.75001ZM10.75 1.75001L10.7503 1.75015L11.6885 0.579805C11.5141 0.43996 11.3106 0.340797 11.0928 0.289681L10.75 1.75001ZM10.7499 1.74988L10.7502 1.75018L12.1012 1.09847C12.0041 0.897075 11.8632 0.719967 11.6889 0.580071L10.7499 1.74988ZM10.7499 1.74961L10.75 1.74995L12.25 1.74458C12.2492 1.52095 12.1984 1.3004 12.1015 1.09904L10.7499 1.74961ZM10.75 1.74726V22.7473H12.25V1.74726H10.75ZM10.75 22.7473C10.75 22.7455 10.7504 22.7442 10.7508 22.7434L12.1124 23.3726C12.2028 23.177 12.25 22.9637 12.25 22.7473H10.75ZM10.751 22.7429C10.7517 22.7413 10.7527 22.7402 10.7537 22.7393L11.7241 23.8831C11.8887 23.7434 12.0213 23.5695 12.1122 23.3731L10.751 22.7429ZM10.7533 22.7396C10.7545 22.7386 10.7559 22.7379 10.7572 22.7375L11.1584 24.1829C11.3665 24.1251 11.5597 24.0228 11.7245 23.8828L10.7533 22.7396ZM10.758 22.7373C10.7586 22.7371 10.7599 22.7369 10.7616 22.7372L10.5184 24.2174C10.7319 24.2525 10.95 24.2405 11.1576 24.1831L10.758 22.7373ZM19.9697 10.5176L22.9697 13.5176L24.0303 12.457L21.0303 9.45697L19.9697 10.5176ZM23.5 12.2373H15.25V13.7373H23.5V12.2373ZM21.0303 16.5176L24.0303 13.5176L22.9697 12.457L19.9697 15.457L21.0303 16.5176ZM7.625 11.8315C7.83212 11.8315 8 11.9994 8 12.2065H6.5C6.5 12.8278 7.00366 13.3315 7.625 13.3315V11.8315ZM8 12.2065C8 12.4136 7.83212 12.5815 7.625 12.5815V11.0815C7.00366 11.0815 6.5 11.5852 6.5 12.2065H8ZM7.625 13.3315C8.24634 13.3315 8.75 12.8278 8.75 12.2065H7.25C7.25 11.9994 7.41788 11.8315 7.625 11.8315V13.3315ZM8.75 12.2065C8.75 11.5852 8.24634 11.0815 7.625 11.0815V12.5815C7.41788 12.5815 7.25 12.4136 7.25 12.2065H8.75Z" fill="#7D7898"/>
</svg>
