<svg width="24" height="24" viewBox="0 0 24 24" fill="none" xmlns="http://www.w3.org/2000/svg">
<path d="M23.5 10.5H17.6L22.71 7.55C22.7672 7.51789 22.8174 7.47463 22.8576 7.42276C22.8977 7.3709 22.9271 7.3115 22.9439 7.24808C22.9607 7.18467 22.9645 7.11852 22.9553 7.05358C22.946 6.98863 22.9238 6.92621 22.89 6.87L21.89 5.13C21.8153 5.02478 21.7029 4.9525 21.5761 4.92827C21.4494 4.90405 21.3182 4.92975 21.21 5L16.1 8L19.05 2.89C19.1156 2.7758 19.1335 2.64032 19.0998 2.51299C19.0661 2.38567 18.9835 2.27679 18.87 2.21L17.13 1.21C17.0738 1.17617 17.0114 1.15397 16.9464 1.14471C16.8815 1.13546 16.8153 1.13934 16.7519 1.15613C16.6885 1.17292 16.6291 1.20227 16.5772 1.24244C16.5254 1.28261 16.4821 1.33279 16.45 1.39L13.5 6.4V0.5C13.5 0.367392 13.4473 0.240215 13.3536 0.146447C13.2598 0.0526784 13.1326 0 13 0H11C10.8674 0 10.7402 0.0526784 10.6464 0.146447C10.5527 0.240215 10.5 0.367392 10.5 0.5V6.4L7.55 1.29C7.51789 1.23279 7.47463 1.18261 7.42276 1.14244C7.3709 1.10227 7.3115 1.07292 7.24808 1.05613C7.18467 1.03934 7.11852 1.03546 7.05358 1.04471C6.98863 1.05397 6.92621 1.07617 6.87 1.11L5.13 2.11C5.02478 2.18467 4.9525 2.29713 4.92827 2.42386C4.90405 2.55059 4.92975 2.68178 5 2.79L8 7.9L2.79 5C2.6758 4.93439 2.54032 4.9165 2.41299 4.9502C2.28567 4.9839 2.17679 5.06648 2.11 5.18L1.11 6.92C1.07617 6.97621 1.05397 7.03863 1.04471 7.10358C1.03546 7.16852 1.03934 7.23467 1.05613 7.29808C1.07292 7.3615 1.10227 7.4209 1.14244 7.47276C1.18261 7.52463 1.23279 7.56789 1.29 7.6L6.4 10.6H0.5C0.383027 10.5976 0.26893 10.6364 0.177571 10.7095C0.0862119 10.7826 0.0233756 10.8854 0 11V13C0 13.1326 0.0526784 13.2598 0.146447 13.3536C0.240215 13.4473 0.367392 13.5 0.5 13.5H6.4L1.29 16.45C1.23279 16.4821 1.18261 16.5254 1.14244 16.5772C1.10227 16.6291 1.07292 16.6885 1.05613 16.7519C1.03934 16.8153 1.03546 16.8815 1.04471 16.9464C1.05397 17.0114 1.07617 17.0738 1.11 17.13L2.11 18.87C2.17679 18.9835 2.28567 19.0661 2.41299 19.0998C2.54032 19.1335 2.6758 19.1156 2.79 19.05L7.9 16.1L5 21.21C4.93439 21.3242 4.9165 21.4597 4.9502 21.587C4.9839 21.7143 5.06648 21.8232 5.18 21.89L6.92 22.89C7.0342 22.9556 7.16968 22.9735 7.29701 22.9398C7.42433 22.9061 7.53321 22.8235 7.6 22.71L10.6 17.6V23.5C10.6 23.6326 10.6527 23.7598 10.7464 23.8536C10.8402 23.9473 10.9674 24 11.1 24H13.1C13.2326 24 13.3598 23.9473 13.4536 23.8536C13.5473 23.7598 13.6 23.6326 13.6 23.5V17.6L16.55 22.71C16.5821 22.7672 16.6254 22.8174 16.6772 22.8576C16.7291 22.8977 16.7885 22.9271 16.8519 22.9439C16.9153 22.9607 16.9815 22.9645 17.0464 22.9553C17.1114 22.946 17.1738 22.9238 17.23 22.89L18.97 21.89C19.0835 21.8232 19.1661 21.7143 19.1998 21.587C19.2335 21.4597 19.2156 21.3242 19.15 21.21L16.1 16.1L21.21 19.05C21.3242 19.1156 21.4597 19.1335 21.587 19.0998C21.7143 19.0661 21.8232 18.9835 21.89 18.87L22.89 17.13C22.9238 17.0738 22.946 17.0114 22.9553 16.9464C22.9645 16.8815 22.9607 16.8153 22.9439 16.7519C22.9271 16.6885 22.8977 16.6291 22.8576 16.5772C22.8174 16.5254 22.7672 16.4821 22.71 16.45L17.6 13.5H23.5C23.6326 13.5 23.7598 13.4473 23.8536 13.3536C23.9473 13.2598 24 13.1326 24 13V11C24 10.8674 23.9473 10.7402 23.8536 10.6464C23.7598 10.5527 23.6326 10.5 23.5 10.5ZM9.5 12C9.5 11.5055 9.64662 11.0222 9.92133 10.6111C10.196 10.2 10.5865 9.87952 11.0433 9.6903C11.5001 9.50108 12.0028 9.45157 12.4877 9.54804C12.9727 9.6445 13.4181 9.8826 13.7678 10.2322C14.1174 10.5819 14.3555 11.0273 14.452 11.5123C14.5484 11.9972 14.4989 12.4999 14.3097 12.9567C14.1205 13.4135 13.8 13.804 13.3889 14.0787C12.9778 14.3534 12.4945 14.5 12 14.5C11.337 14.5 10.7011 14.2366 10.2322 13.7678C9.76339 13.2989 9.5 12.663 9.5 12Z" fill="#7D7898"/>
</svg>
