<svg width="25" height="25" viewBox="0 0 25 25" fill="none" xmlns="http://www.w3.org/2000/svg">
<path d="M20.174 15.756L17.269 19.629C17.2044 19.7149 17.1221 19.7859 17.0277 19.8372C16.9334 19.8886 16.8291 19.9191 16.7219 19.9268C16.6148 19.9345 16.5072 19.9191 16.4065 19.8817C16.3057 19.8443 16.2142 19.7858 16.138 19.71L14.638 18.21M8.5 16H2.5C2.10218 16 1.72064 15.842 1.43934 15.5607C1.15804 15.2794 1 14.8978 1 14.5V2.50002C1 2.10219 1.15804 1.72066 1.43934 1.43936C1.72064 1.15805 2.10218 1.00002 2.5 1.00002H20.5C20.8978 1.00002 21.2794 1.15805 21.5607 1.43936C21.842 1.72066 22 2.10219 22 2.50002V9.25002M21.661 1.55002L13.517 7.81402C12.9387 8.25887 12.2296 8.50007 11.5 8.50007C10.7704 8.50007 10.0613 8.25887 9.483 7.81402L1.339 1.55002M11.5 17.5C11.5 19.0913 12.1321 20.6174 13.2574 21.7427C14.3826 22.8679 15.9087 23.5 17.5 23.5C19.0913 23.5 20.6174 22.8679 21.7426 21.7427C22.8679 20.6174 23.5 19.0913 23.5 17.5C23.5 15.9087 22.8679 14.3826 21.7426 13.2574C20.6174 12.1322 19.0913 11.5 17.5 11.5C15.9087 11.5 14.3826 12.1322 13.2574 13.2574C12.1321 14.3826 11.5 15.9087 11.5 17.5Z" stroke="#7D7898" stroke-width="1.5" stroke-linecap="round" stroke-linejoin="round"/>
</svg>
