<svg width="25" height="25" viewBox="0 0 25 25" fill="none" xmlns="http://www.w3.org/2000/svg">
<path d="M23.5 16V22C23.5 22.3978 23.342 22.7794 23.0607 23.0607C22.7794 23.342 22.3978 23.5 22 23.5H13C12.6022 23.5 12.2206 23.342 11.9393 23.0607C11.658 22.7794 11.5 22.3978 11.5 22V16M23.5 16C23.5 15.6022 23.342 15.2206 23.0607 14.9393C22.7794 14.658 22.3978 14.5 22 14.5H13C12.6022 14.5 12.2206 14.658 11.9393 14.9393C11.658 15.2206 11.5 15.6022 11.5 16M23.5 16L18.295 19.25C18.0566 19.399 17.7811 19.478 17.5 19.478C17.2189 19.478 16.9434 19.399 16.705 19.25L11.5 16M11.702 11.495C10.9582 10.5756 9.96131 9.89437 8.83454 9.5354C7.70777 9.17643 6.50051 9.1555 5.36197 9.47519C4.22344 9.79487 3.20353 10.4412 2.4283 11.3342C1.65308 12.2272 1.15652 13.3278 1 14.5M21.25 11.5C21.2531 10.5625 20.9622 9.64756 20.4182 8.88393C19.8743 8.1203 19.1047 7.54638 18.2177 7.24286C17.3306 6.93934 16.3708 6.9215 15.473 7.19184C14.5753 7.46218 13.7849 8.00711 13.213 8.75M3.625 4.375C3.625 5.27011 3.98058 6.12855 4.61351 6.76149C5.24645 7.39442 6.10489 7.75 7 7.75C7.89511 7.75 8.75355 7.39442 9.38649 6.76149C10.0194 6.12855 10.375 5.27011 10.375 4.375C10.375 3.47989 10.0194 2.62145 9.38649 1.98851C8.75355 1.35558 7.89511 1 7 1C6.10489 1 5.24645 1.35558 4.61351 1.98851C3.98058 2.62145 3.625 3.47989 3.625 4.375ZM14.125 3.625C14.125 4.32119 14.4016 4.98887 14.8938 5.48116C15.3861 5.97344 16.0538 6.25 16.75 6.25C17.4462 6.25 18.1139 5.97344 18.6062 5.48116C19.0984 4.98887 19.375 4.32119 19.375 3.625C19.375 2.92881 19.0984 2.26113 18.6062 1.76884C18.1139 1.27656 17.4462 1 16.75 1C16.0538 1 15.3861 1.27656 14.8938 1.76884C14.4016 2.26113 14.125 2.92881 14.125 3.625Z" stroke="#7D7898" stroke-width="1.5" stroke-linecap="round" stroke-linejoin="round"/>
</svg>
