<svg width="24" height="24" viewBox="0 0 24 24" fill="none" xmlns="http://www.w3.org/2000/svg">
<path d="M21.75 9V9.75H21.7503L21.75 9ZM8.25 4.5H7.5C7.5 4.91421 7.83579 5.25 8.25 5.25V4.5ZM8.25 3H9H8.25ZM2.25 1.5V0.75V1.5ZM0.75 3H0H0.75ZM0.75 20.8H-7.15852e-05L7.15852e-05 20.8104L0.75 20.8ZM4.086 21.238L4.80784 21.4416C4.8124 21.4254 4.81641 21.4091 4.81988 21.3927L4.086 21.238ZM6.437 10.084L5.71642 9.876C5.71134 9.8936 5.7069 9.91139 5.70312 9.92932L6.437 10.084ZM7.879 9L7.87858 9.75H7.879V9ZM23.2 10.886L22.4753 10.693C22.4718 10.706 22.4687 10.719 22.4659 10.7322L23.2 10.886ZM21 21.386L21.7247 21.579C21.7282 21.566 21.7313 21.5529 21.7341 21.5398L21 21.386ZM19.55 22.5L19.5503 21.75H19.55V22.5ZM2.447 21.75C2.03279 21.75 1.697 22.0858 1.697 22.5C1.697 22.9142 2.03279 23.25 2.447 23.25V21.75ZM17.755 19.9161C17.9848 20.2607 18.4505 20.3538 18.7951 20.124C19.1397 19.8942 19.2328 19.4285 19.003 19.0839L17.755 19.9161ZM15.468 15.135L14.8439 15.5509L14.844 15.5511L15.468 15.135ZM14.23 15.12L13.6161 14.6891L13.616 14.6893L14.23 15.12ZM12.23 17.971L11.76 18.5555C11.9217 18.6855 12.13 18.7427 12.3353 18.7136C12.5407 18.6844 12.7249 18.5715 12.844 18.4017L12.23 17.971ZM11 16.982L11.47 16.3975L11.4671 16.3952L11 16.982ZM9.908 17.152L9.2846 16.735L9.28429 16.7355L9.908 17.152ZM7.71629 19.0835C7.48625 19.4279 7.57902 19.8937 7.92348 20.1237C8.26795 20.3537 8.73368 20.261 8.96371 19.9165L7.71629 19.0835ZM22.5 9V6H21V9H22.5ZM22.5 6C22.5 5.40326 22.2629 4.83097 21.841 4.40901L20.7803 5.46967C20.921 5.61032 21 5.80109 21 6H22.5ZM21.841 4.40901C21.419 3.98705 20.8467 3.75 20.25 3.75V5.25C20.4489 5.25 20.6397 5.32902 20.7803 5.46967L21.841 4.40901ZM20.25 3.75H8.25V5.25H20.25V3.75ZM9 4.5V3H7.5V4.5H9ZM9 3C9 2.40326 8.76295 1.83097 8.34099 1.40901L7.28033 2.46967C7.42098 2.61032 7.5 2.80109 7.5 3H9ZM8.34099 1.40901C7.91903 0.987053 7.34674 0.75 6.75 0.75V2.25C6.94891 2.25 7.13968 2.32902 7.28033 2.46967L8.34099 1.40901ZM6.75 0.75H2.25V2.25H6.75V0.75ZM2.25 0.75C1.65326 0.75 1.08097 0.987053 0.65901 1.40901L1.71967 2.46967C1.86032 2.32902 2.05109 2.25 2.25 2.25V0.75ZM0.65901 1.40901C0.237053 1.83097 0 2.40326 0 3H1.5C1.5 2.80109 1.57902 2.61032 1.71967 2.46967L0.65901 1.40901ZM0 3V20.8H1.5V3H0ZM7.15852e-05 20.8104C0.00820619 21.399 0.22803 21.9651 0.619321 22.4049L1.74005 21.4079C1.58832 21.2374 1.50308 21.0179 1.49993 20.7896L7.15852e-05 20.8104ZM0.619321 22.4049C1.01061 22.8448 1.5472 23.129 2.1309 23.2057L2.32617 21.7184C2.09983 21.6887 1.89177 21.5785 1.74005 21.4079L0.619321 22.4049ZM2.1309 23.2057C2.7146 23.2823 3.30638 23.1462 3.79796 22.8223L2.97258 21.5698C2.78197 21.6954 2.5525 21.7481 2.32617 21.7184L2.1309 23.2057ZM3.79796 22.8223C4.28953 22.4983 4.64802 22.0082 4.80784 21.4416L3.36416 21.0344C3.3022 21.2541 3.16319 21.4441 2.97258 21.5698L3.79796 22.8223ZM4.81988 21.3927L7.17088 10.2387L5.70312 9.92932L3.35212 21.0833L4.81988 21.3927ZM7.15758 10.292C7.2027 10.1357 7.29744 9.99827 7.4275 9.9005L6.52617 8.7015C6.136 8.9948 5.85179 9.40703 5.71642 9.876L7.15758 10.292ZM7.4275 9.9005C7.55755 9.80273 7.71588 9.74991 7.87858 9.75L7.87942 8.25C7.3913 8.24973 6.91633 8.4082 6.52617 8.7015L7.4275 9.9005ZM7.879 9.75H21.75V8.25H7.879V9.75ZM21.7503 9.75C21.8652 9.74996 21.9787 9.77635 22.0818 9.82713L22.7444 8.4814C22.4349 8.32905 22.0946 8.24988 21.7497 8.25L21.7503 9.75ZM22.0818 9.82713C22.1849 9.87791 22.275 9.95173 22.3451 10.0429L23.5343 9.12861C23.3241 8.85518 23.0538 8.63374 22.7444 8.4814L22.0818 9.82713ZM22.3451 10.0429C22.4152 10.134 22.4634 10.24 22.4859 10.3528L23.9567 10.0583C23.889 9.72013 23.7445 9.40203 23.5343 9.12861L22.3451 10.0429ZM22.4859 10.3528C22.5085 10.4655 22.5048 10.5819 22.4753 10.693L23.9247 11.079C24.0135 10.7457 24.0244 10.3965 23.9567 10.0583L22.4859 10.3528ZM22.4659 10.7322L20.2659 21.2322L21.7341 21.5398L23.9341 11.0398L22.4659 10.7322ZM20.2753 21.193C20.2327 21.3528 20.1386 21.494 20.0074 21.5947L20.9213 22.7842C21.3146 22.482 21.5971 22.0583 21.7247 21.579L20.2753 21.193ZM20.0074 21.5947C19.8763 21.6955 19.7156 21.7501 19.5503 21.75L19.5497 23.25C20.0458 23.2502 20.5279 23.0864 20.9213 22.7842L20.0074 21.5947ZM19.55 21.75H2.447V23.25H19.55V21.75ZM9.75 12.375C9.84945 12.375 9.94484 12.4145 10.0152 12.4848L8.9545 13.5455C9.16548 13.7565 9.45163 13.875 9.75 13.875V12.375ZM10.0152 12.4848C10.0855 12.5552 10.125 12.6505 10.125 12.75H8.625C8.625 13.0484 8.74352 13.3345 8.9545 13.5455L10.0152 12.4848ZM10.125 12.75C10.125 12.8495 10.0855 12.9448 10.0152 13.0152L8.9545 11.9545C8.74352 12.1655 8.625 12.4516 8.625 12.75H10.125ZM10.0152 13.0152C9.94484 13.0855 9.84945 13.125 9.75 13.125V11.625C9.45163 11.625 9.16548 11.7435 8.9545 11.9545L10.0152 13.0152ZM9.75 13.875C10.0484 13.875 10.3345 13.7565 10.5455 13.5455L9.48484 12.4848C9.55516 12.4145 9.65055 12.375 9.75 12.375V13.875ZM10.5455 13.5455C10.7565 13.3345 10.875 13.0484 10.875 12.75H9.375C9.375 12.6505 9.41451 12.5552 9.48484 12.4848L10.5455 13.5455ZM10.875 12.75C10.875 12.4516 10.7565 12.1655 10.5455 11.9545L9.48484 13.0152C9.41451 12.9448 9.375 12.8495 9.375 12.75H10.875ZM10.5455 11.9545C10.3345 11.7435 10.0484 11.625 9.75 11.625V13.125C9.65055 13.125 9.55516 13.0855 9.48484 13.0152L10.5455 11.9545ZM19.003 19.0839L16.092 14.7189L14.844 15.5511L17.755 19.9161L19.003 19.0839ZM16.0921 14.7191C15.9569 14.5161 15.7741 14.3492 15.5598 14.2328L14.8439 15.5509L16.0921 14.7191ZM15.5598 14.2328C15.3455 14.1163 15.106 14.054 14.862 14.051L14.8439 15.5509V15.5509L15.5598 14.2328ZM14.862 14.051C14.6181 14.048 14.3772 14.1046 14.1601 14.2158L14.8439 15.5509L14.862 14.051ZM14.1601 14.2158C13.943 14.327 13.7563 14.4895 13.6161 14.6891L14.8439 15.5509L14.8439 15.5509L14.1601 14.2158ZM13.616 14.6893L11.616 17.5403L12.844 18.4017L14.844 15.5507L13.616 14.6893ZM12.7 17.3865L11.47 16.3975L10.53 17.5665L11.76 18.5555L12.7 17.3865ZM11.4671 16.3952C11.3047 16.266 11.1173 16.1717 10.9166 16.1186L10.5325 17.5686L10.5329 17.5688L11.4671 16.3952ZM10.9166 16.1186C10.716 16.0654 10.5065 16.0545 10.3013 16.0864L10.5321 17.5685L10.5325 17.5686L10.9166 16.1186ZM10.3013 16.0864C10.0962 16.1183 9.89996 16.1925 9.72496 16.3041L10.5317 17.5687L10.5321 17.5685L10.3013 16.0864ZM9.72496 16.3041C9.54996 16.4157 9.40001 16.5625 9.2846 16.735L10.5314 17.569L10.5317 17.5687L9.72496 16.3041ZM9.28429 16.7355L7.71629 19.0835L8.96371 19.9165L10.5317 17.5685L9.28429 16.7355Z" fill="#7D7898"/>
</svg>
