<svg width="25" height="25" viewBox="0 0 25 25" fill="none" xmlns="http://www.w3.org/2000/svg">
<path d="M8.69894 14.8173C8.02092 14.3674 7.23361 14.1098 6.42079 14.0718C5.60798 14.0339 4.80009 14.217 4.08311 14.6018C3.36612 14.9865 2.76688 15.5585 2.34916 16.2568C1.93144 16.9551 1.71087 17.7536 1.71094 18.5673M23.4609 18.5673C23.461 17.7536 23.2404 16.9551 22.8227 16.2568C22.405 15.5585 21.8058 14.9865 21.0888 14.6018C20.3718 14.217 19.5639 14.0339 18.7511 14.0718C17.9383 14.1098 17.151 14.3674 16.4729 14.8173M15.9609 9.56726C15.9609 10.3629 16.277 11.126 16.8396 11.6886C17.4022 12.2512 18.1653 12.5673 18.9609 12.5673C19.7566 12.5673 20.5196 12.2512 21.0823 11.6886C21.6449 11.126 21.9609 10.3629 21.9609 9.56726M15.9609 9.56726C15.9609 8.77161 16.277 8.00855 16.8396 7.44594C17.4022 6.88333 18.1653 6.56726 18.9609 6.56726C19.7566 6.56726 20.5196 6.88333 21.0823 7.44594C21.6449 8.00855 21.9609 8.77161 21.9609 9.56726M15.9609 9.56726C15.9609 9.56726 15.9609 13.3173 13.7109 13.3173M21.9609 9.56726C21.9609 9.56726 21.9609 13.3173 24.2109 13.3173M16.1079 23.8173C15.7129 23.1335 15.1449 22.5657 14.4609 22.1709C13.7769 21.7761 13.0011 21.5683 12.2114 21.5683C11.4217 21.5683 10.6459 21.7761 9.96197 22.1709C9.27801 22.5657 8.70998 23.1335 8.31494 23.8173M9.21094 4.31726H15.2109M12.2109 1.31726V7.31726M3.21094 9.56726C3.21094 10.3629 3.52701 11.126 4.08962 11.6886C4.65223 12.2512 5.41529 12.5673 6.21094 12.5673C7.00659 12.5673 7.76965 12.2512 8.33226 11.6886C8.89487 11.126 9.21094 10.3629 9.21094 9.56726C9.21094 8.77161 8.89487 8.00855 8.33226 7.44594C7.76965 6.88333 7.00659 6.56726 6.21094 6.56726C5.41529 6.56726 4.65223 6.88333 4.08962 7.44594C3.52701 8.00855 3.21094 8.77161 3.21094 9.56726ZM9.96094 18.5673C9.96094 19.164 10.198 19.7363 10.6199 20.1583C11.0419 20.5802 11.6142 20.8173 12.2109 20.8173C12.8077 20.8173 13.38 20.5802 13.8019 20.1583C14.2239 19.7363 14.4609 19.164 14.4609 18.5673C14.4609 17.9705 14.2239 17.3982 13.8019 16.9763C13.38 16.5543 12.8077 16.3173 12.2109 16.3173C11.6142 16.3173 11.0419 16.5543 10.6199 16.9763C10.198 17.3982 9.96094 17.9705 9.96094 18.5673Z" stroke="#7D7898" stroke-width="1.5" stroke-linecap="round" stroke-linejoin="round"/>
</svg>
