<svg width="24" height="24" viewBox="0 0 24 24" fill="none" xmlns="http://www.w3.org/2000/svg">
<path d="M21.75 3.75H2.25V5.25H21.75V3.75ZM2.25 3.75C1.00736 3.75 0 4.75736 0 6H1.5C1.5 5.58578 1.83578 5.25 2.25 5.25V3.75ZM0 6V18H1.5V6H0ZM0 18C0 19.2426 1.00735 20.25 2.25 20.25V18.75C1.83579 18.75 1.5 18.4142 1.5 18H0ZM2.25 20.25H21.75V18.75H2.25V20.25ZM21.75 20.25C22.9926 20.25 24 19.2426 24 18H22.5C22.5 18.4142 22.1642 18.75 21.75 18.75V20.25ZM24 18V6H22.5V18H24ZM24 6C24 4.75735 22.9926 3.75 21.75 3.75V5.25C22.1642 5.25 22.5 5.58579 22.5 6H24ZM12 15.75C14.0711 15.75 15.75 14.0711 15.75 12H14.25C14.25 13.2427 13.2427 14.25 12 14.25V15.75ZM15.75 12C15.75 9.92889 14.0711 8.25 12 8.25V9.75C13.2427 9.75 14.25 10.7573 14.25 12H15.75ZM12 8.25C9.92889 8.25 8.25 9.92889 8.25 12H9.75C9.75 10.7573 10.7573 9.75 12 9.75V8.25ZM8.25 12C8.25 14.0711 9.92889 15.75 12 15.75V14.25C10.7573 14.25 9.75 13.2427 9.75 12H8.25ZM4.5 7.875C4.7071 7.875 4.875 8.0429 4.875 8.25H3.375C3.375 8.87132 3.87868 9.375 4.5 9.375V7.875ZM4.875 8.25C4.875 8.4571 4.7071 8.625 4.5 8.625V7.125C3.87868 7.125 3.375 7.62868 3.375 8.25H4.875ZM4.5 9.375C5.12132 9.375 5.625 8.87132 5.625 8.25H4.125C4.125 8.0429 4.2929 7.875 4.5 7.875V9.375ZM5.625 8.25C5.625 7.62868 5.12132 7.125 4.5 7.125V8.625C4.2929 8.625 4.125 8.4571 4.125 8.25H5.625ZM19.5 15.375C19.7071 15.375 19.875 15.5429 19.875 15.75H18.375C18.375 16.3713 18.8787 16.875 19.5 16.875V15.375ZM19.875 15.75C19.875 15.9571 19.7071 16.125 19.5 16.125V14.625C18.8787 14.625 18.375 15.1287 18.375 15.75H19.875ZM19.5 16.875C20.1213 16.875 20.625 16.3713 20.625 15.75H19.125C19.125 15.5429 19.2929 15.375 19.5 15.375V16.875ZM20.625 15.75C20.625 15.1287 20.1213 14.625 19.5 14.625V16.125C19.2929 16.125 19.125 15.9571 19.125 15.75H20.625Z" fill="#7D7898"/>
</svg>
