<svg width="25" height="25" viewBox="0 0 25 25" fill="none" xmlns="http://www.w3.org/2000/svg">
<path d="M9.24981 12.2502C9.24981 13.0459 9.56588 13.8089 10.1285 14.3715C10.6911 14.9342 11.4542 15.2502 12.2498 15.2502C13.0455 15.2502 13.8085 14.9342 14.3711 14.3715C14.9337 13.8089 15.2498 13.0459 15.2498 12.2502C15.2498 11.4546 14.9337 10.6915 14.3711 10.1289C13.8085 9.56629 13.0455 9.25022 12.2498 9.25022C11.4542 9.25022 10.6911 9.56629 10.1285 10.1289C9.56588 10.6915 9.24981 11.4546 9.24981 12.2502Z" stroke="#7D7898" stroke-width="1.5" stroke-linecap="round" stroke-linejoin="round"/>
<path d="M1.27581 11.6212C1.18886 11.7012 1.11946 11.7984 1.07199 11.9065C1.02451 12.0147 1 12.1316 1 12.2497C1 12.3679 1.02451 12.4847 1.07199 12.5929C1.11946 12.7011 1.18886 12.7982 1.27581 12.8782L4.39381 15.7362C4.48808 15.8226 4.60542 15.8798 4.73157 15.9008C4.85773 15.9218 4.98725 15.9056 5.10441 15.8544C5.22157 15.8031 5.32131 15.7189 5.3915 15.612C5.4617 15.5051 5.49933 15.3801 5.49981 15.2522V9.25222C5.49971 9.12417 5.46237 8.99891 5.39232 8.89171C5.32228 8.78451 5.22256 8.7 5.10532 8.64849C4.98809 8.59697 4.8584 8.58067 4.73206 8.60158C4.60573 8.62248 4.4882 8.67969 4.39381 8.76622L1.27581 11.6212Z" stroke="#7D7898" stroke-width="1.5" stroke-linecap="round" stroke-linejoin="round"/>
<path d="M23.2228 12.8782C23.31 12.7984 23.3797 12.7013 23.4273 12.5931C23.475 12.4849 23.4996 12.368 23.4996 12.2497C23.4996 12.1315 23.475 12.0146 23.4273 11.9064C23.3797 11.7981 23.31 11.701 23.2228 11.6212L20.1058 8.76322C20.0112 8.67651 19.8934 8.61926 19.7668 8.59845C19.6402 8.57765 19.5103 8.5942 19.3929 8.64609C19.2756 8.69797 19.1759 8.78294 19.1061 8.89059C19.0362 8.99824 18.9993 9.12391 18.9998 9.25222V15.2522C18.9996 15.3803 19.0368 15.5056 19.1067 15.6129C19.1766 15.7202 19.2763 15.8048 19.3935 15.8563C19.5107 15.9079 19.6404 15.9242 19.7667 15.9032C19.8931 15.8822 20.0105 15.8249 20.1048 15.7382L23.2228 12.8782Z" stroke="#7D7898" stroke-width="1.5" stroke-linecap="round" stroke-linejoin="round"/>
<path d="M11.6218 23.2232C11.7015 23.3105 11.7985 23.3803 11.9066 23.428C12.0147 23.4758 12.1316 23.5004 12.2498 23.5004C12.368 23.5004 12.4849 23.4758 12.593 23.428C12.7012 23.3803 12.7982 23.3105 12.8778 23.2232L15.7358 20.1052C15.8225 20.011 15.8798 19.8935 15.9008 19.7671C15.9217 19.6408 15.9055 19.5111 15.8539 19.3939C15.8023 19.2767 15.7178 19.177 15.6105 19.1071C15.5032 19.0372 15.3779 19.0001 15.2498 19.0002H9.24981C9.12186 19.0003 8.9967 19.0376 8.88955 19.1075C8.7824 19.1774 8.69788 19.277 8.64628 19.394C8.59468 19.5111 8.57822 19.6407 8.59891 19.7669C8.6196 19.8932 8.67654 20.0107 8.76281 20.1052L11.6218 23.2232Z" stroke="#7D7898" stroke-width="1.5" stroke-linecap="round" stroke-linejoin="round"/>
<path d="M12.8778 1.27622C12.798 1.18917 12.701 1.11966 12.5928 1.07211C12.4847 1.02456 12.3679 1 12.2498 1C12.1317 1 12.0149 1.02456 11.9068 1.07211C11.7987 1.11966 11.7016 1.18917 11.6218 1.27622L8.76381 4.39422C8.67728 4.48861 8.62007 4.60614 8.59916 4.73248C8.57826 4.85881 8.59456 4.9885 8.64607 5.10574C8.69759 5.22297 8.7821 5.32269 8.8893 5.39273C8.99649 5.46278 9.12176 5.50012 9.24981 5.50022H15.2498C15.3779 5.50012 15.5031 5.46278 15.6103 5.39273C15.7175 5.32269 15.802 5.22297 15.8535 5.10574C15.9051 4.9885 15.9214 4.85881 15.9005 4.73248C15.8795 4.60614 15.8223 4.48861 15.7358 4.39422L12.8778 1.27622Z" stroke="#7D7898" stroke-width="1.5" stroke-linecap="round" stroke-linejoin="round"/>
</svg>
