<svg width="24" height="25" viewBox="0 0 24 25" fill="none" xmlns="http://www.w3.org/2000/svg">
<path d="M23 22C23 22.3978 22.842 22.7794 22.5607 23.0607C22.2794 23.342 21.8978 23.5 21.5 23.5H3.5C3.10218 23.5 2.72064 23.342 2.43934 23.0607C2.15804 22.7794 2 22.3978 2 22V2.5C2 2.10218 2.15804 1.72064 2.43934 1.43934C2.72064 1.15804 3.10218 1 3.5 1H18.545C18.9365 0.999779 19.3127 1.15266 19.593 1.426L22.547 4.309C22.6904 4.44873 22.8043 4.61575 22.8821 4.8002C22.9599 4.98465 23 5.18281 23 5.383V22Z" stroke="#7D7898" stroke-width="1.5" stroke-linecap="round" stroke-linejoin="round"/>
<path d="M18.189 11.182C18.0923 11.1131 17.9805 11.068 17.863 11.0507C17.7455 11.0333 17.6256 11.044 17.513 11.082L14 12.25V11.5C14 11.1022 13.842 10.7206 13.5607 10.4393C13.2794 10.158 12.8978 10 12.5 10H8C7.60218 10 7.22064 10.158 6.93934 10.4393C6.65804 10.7206 6.5 11.1022 6.5 11.5V16C6.5 16.3978 6.65804 16.7794 6.93934 17.0607C7.22064 17.342 7.60218 17.5 8 17.5H12.5C12.8978 17.5 13.2794 17.342 13.5607 17.0607C13.842 16.7794 14 16.3978 14 16V15.25L17.513 16.421C17.6258 16.4588 17.7459 16.4692 17.8635 16.4513C17.9811 16.4335 18.0927 16.3878 18.1892 16.3183C18.2857 16.2487 18.3642 16.1571 18.4182 16.0512C18.4723 15.9452 18.5003 15.8279 18.5 15.709V11.791C18.5001 11.6721 18.4719 11.5549 18.4178 11.449C18.3638 11.3432 18.2853 11.2517 18.189 11.182Z" stroke="#7D7898" stroke-width="1.5" stroke-linecap="round" stroke-linejoin="round"/>
</svg>
