<svg width="24" height="24" viewBox="0 0 24 24" fill="none" xmlns="http://www.w3.org/2000/svg">
<path d="M4.5 15.748V14.248C4.5 13.8502 4.65804 13.4687 4.93934 13.1874C5.22064 12.9061 5.60218 12.748 6 12.748H18C18.3978 12.748 18.7794 12.9061 19.0607 13.1874C19.342 13.4687 19.5 13.8502 19.5 14.248V15.748M12 8.24805V12.748M2.25 15.748H6.75C6.75 15.748 8.25 15.748 8.25 17.248V21.748C8.25 21.748 8.25 23.248 6.75 23.248H2.25C2.25 23.248 0.75 23.248 0.75 21.748V17.248C0.75 17.248 0.75 15.748 2.25 15.748ZM9.75 0.748047H14.25C14.25 0.748047 15.75 0.748047 15.75 2.24805V6.74805C15.75 6.74805 15.75 8.24805 14.25 8.24805H9.75C9.75 8.24805 8.25 8.24805 8.25 6.74805V2.24805C8.25 2.24805 8.25 0.748047 9.75 0.748047ZM17.25 15.748H21.75C21.75 15.748 23.25 15.748 23.25 17.248V21.748C23.25 21.748 23.25 23.248 21.75 23.248H17.25C17.25 23.248 15.75 23.248 15.75 21.748V17.248C15.75 17.248 15.75 15.748 17.25 15.748Z" stroke="#7D7898" stroke-width="1.5" stroke-linecap="round" stroke-linejoin="round"/>
</svg>
