<svg width="24" height="24" viewBox="0 0 24 24" fill="none" xmlns="http://www.w3.org/2000/svg">
<path d="M15.25 13.25V17.538L12 18.531L8.75 17.538V13.25M5.5 12.031L12 9.594L18.5 12.031L12 14.469L5.5 12.031ZM5.5 12.031V15.281M0.75 4.75H23.25M19.25 0.75V4.75M15.75 0.75V4.75M2.75 0.75H21.25C21.25 0.75 23.25 0.75 23.25 2.75V21.25C23.25 21.25 23.25 23.25 21.25 23.25H2.75C2.75 23.25 0.75 23.25 0.75 21.25V2.75C0.75 2.75 0.75 0.75 2.75 0.75Z" stroke="#7D7898" stroke-width="1.5" stroke-linecap="round" stroke-linejoin="round"/>
</svg>
