<svg width="24" height="25" viewBox="0 0 24 25" fill="none" xmlns="http://www.w3.org/2000/svg">
<path d="M15.162 4.307C14.9978 3.44892 14.5402 2.67469 13.8677 2.11697C13.1952 1.55924 12.3497 1.25275 11.476 1.25C10.6067 1.25381 9.76547 1.55852 9.09535 2.11234C8.42522 2.66616 7.96753 3.43493 7.80004 4.288M14.153 14L10.633 18.693L8.49204 16.553M18.549 7.25H4.43604C4.09714 7.23618 3.76475 7.34586 3.50063 7.55866C3.23651 7.77147 3.05863 8.07292 3.00004 8.407L1.00004 22.322C0.989679 22.513 1.01983 22.7041 1.0885 22.8826C1.15718 23.0612 1.26283 23.2232 1.39852 23.358C1.53422 23.4929 1.69689 23.5975 1.87587 23.6651C2.05485 23.7326 2.24609 23.7616 2.43704 23.75H20.548C20.7389 23.7616 20.9301 23.7326 21.1091 23.6651C21.288 23.5975 21.4506 23.4929 21.5862 23.358C21.7219 23.2231 21.8274 23.0611 21.896 22.8826C21.9645 22.704 21.9945 22.513 21.984 22.322L19.984 8.407C19.9255 8.0731 19.7477 7.77178 19.4838 7.559C19.2199 7.34622 18.8878 7.23643 18.549 7.25Z" stroke="#7D7898" stroke-width="1.5" stroke-linecap="round" stroke-linejoin="round"/>
</svg>
