<svg width="24" height="24" viewBox="0 0 24 24" fill="none" xmlns="http://www.w3.org/2000/svg">
<path d="M14.25 23.115V15.75C14.25 15.3522 14.408 14.9706 14.6893 14.6893C14.9706 14.408 15.3522 14.25 15.75 14.25H23.115M5.25 0.75V3.75M18.75 0.75V3.75M13.629 23.25H2.25C1.85218 23.25 1.47064 23.092 1.18934 22.8107C0.908035 22.5294 0.75 22.1478 0.75 21.75V3.75C0.75 3.35218 0.908035 2.97064 1.18934 2.68934C1.47064 2.40804 1.85218 2.25 2.25 2.25H21.75C22.1478 2.25 22.5294 2.40804 22.8107 2.68934C23.092 2.97064 23.25 3.35218 23.25 3.75V13.629C23.2499 14.0265 23.092 14.4078 22.811 14.689L14.689 22.811C14.4078 23.092 14.0265 23.2499 13.629 23.25Z" stroke="#7D7898" stroke-width="1.5" stroke-linecap="round" stroke-linejoin="round"/>
</svg>
