<svg width="25" height="25" viewBox="0 0 25 25" fill="none" xmlns="http://www.w3.org/2000/svg">
<path d="M8.50084 20.5H2.50084C2.30251 20.5049 2.10524 20.4695 1.92102 20.3959C1.7368 20.3223 1.56946 20.2119 1.42918 20.0717C1.28889 19.9314 1.17859 19.764 1.10495 19.5798C1.03132 19.3956 0.995897 19.1983 1.00084 19V4.107C0.987337 3.69517 1.13763 3.29478 1.41879 2.99357C1.69996 2.69235 2.08906 2.51486 2.50084 2.5H17.5008C17.9126 2.51486 18.3017 2.69235 18.5829 2.99357C18.864 3.29478 19.0143 3.69517 19.0008 4.107V8.5M5.50084 1V5.5M10.0008 1V5.5M14.5008 1V5.5M22.8808 15.12L15.2508 22.75L11.5008 23.5L12.2508 19.75L19.8808 12.12C20.2776 11.7233 20.8158 11.5005 21.3768 11.5005C21.9379 11.5005 22.476 11.7233 22.8728 12.12L22.8808 12.129C23.0775 12.3253 23.2335 12.5584 23.3399 12.815C23.4463 13.0716 23.5011 13.3467 23.5011 13.6245C23.5011 13.9023 23.4463 14.1774 23.3399 14.434C23.2335 14.6906 23.0775 14.9237 22.8808 15.12Z" stroke="#7D7898" stroke-width="1.5" stroke-linecap="round" stroke-linejoin="round"/>
</svg>
