<svg width="26" height="24" viewBox="0 0 26 24" fill="none" xmlns="http://www.w3.org/2000/svg">
<path d="M23.0002 13.61C22.9972 12.9416 22.8116 12.2867 22.4636 11.716C22.1156 11.1453 21.6184 10.6805 21.0255 10.3717C20.4327 10.063 19.7668 9.92197 19.0997 9.96396C18.4326 10.0059 17.7896 10.2293 17.2402 10.61C16.7467 9.97277 16.079 9.49223 15.3181 9.22652C14.5572 8.96082 13.7356 8.92132 12.9526 9.11282C12.1697 9.30431 11.4591 9.71859 10.9067 10.3055C10.3543 10.8925 9.98389 11.6269 9.8402 12.42C8.8642 12.4452 7.93819 12.8571 7.26587 13.565C6.59356 14.273 6.23001 15.219 6.2552 16.195C6.2804 17.171 6.69227 18.097 7.40022 18.7693C8.10817 19.4416 9.0542 19.8052 10.0302 19.78H21.8002C22.5513 19.7949 23.2836 19.5443 23.868 19.0722C24.4524 18.6002 24.8515 17.937 24.9949 17.1996C25.1383 16.4622 25.0169 15.6978 24.652 15.0411C24.2871 14.3845 23.7021 13.8777 23.0002 13.61Z" fill="#7D7898"/>
<path d="M8.3502 8.19998C8.87668 8.19337 9.39036 8.36225 9.8102 8.67998C9.90754 8.75311 10.0208 8.80211 10.1408 8.82297C10.2607 8.84383 10.3839 8.83595 10.5002 8.79998C10.6167 8.76437 10.723 8.70126 10.81 8.61598C10.897 8.5307 10.9622 8.42576 11.0002 8.30998C11.2314 7.58106 11.685 6.94285 12.2975 6.48497C12.91 6.0271 13.6505 5.77257 14.415 5.75713C15.1796 5.74168 15.9298 5.9661 16.5602 6.39886C17.1907 6.83162 17.6698 7.45099 17.9302 8.16998C17.9575 8.26939 18.005 8.3621 18.0697 8.44233C18.1345 8.52256 18.215 8.58859 18.3064 8.63628C18.3978 8.68398 18.4981 8.71232 18.6009 8.71955C18.7037 8.72677 18.8069 8.71272 18.9041 8.67826C19.0013 8.64381 19.0903 8.5897 19.1656 8.5193C19.2409 8.44891 19.3009 8.36374 19.3418 8.26913C19.3827 8.17451 19.4037 8.07248 19.4034 7.96939C19.4032 7.8663 19.3816 7.76438 19.3402 7.66998C19.0056 6.72216 18.4014 5.89271 17.602 5.28349C16.8025 4.67428 15.8424 4.31183 14.8398 4.24067C13.8372 4.16951 12.8356 4.39273 11.9581 4.88292C11.0806 5.37311 10.3653 6.10892 9.9002 6.99998C9.40964 6.79454 8.88199 6.69241 8.3502 6.69998C7.30963 6.69998 6.31153 7.11266 5.5748 7.84752C4.83807 8.58237 4.42285 9.57942 4.4202 10.62C3.44155 10.6545 2.51668 11.0763 1.84905 11.7927C1.18142 12.5091 0.825724 13.4613 0.860202 14.44C0.89468 15.4186 1.31651 16.3435 2.0329 17.0111C2.74929 17.6788 3.70155 18.0345 4.6802 18C4.87911 18 5.06988 17.921 5.21053 17.7803C5.35118 17.6397 5.4302 17.4489 5.4302 17.25C5.4302 17.0511 5.35118 16.8603 5.21053 16.7197C5.06988 16.579 4.87911 16.5 4.6802 16.5C4.12625 16.4625 3.60721 16.216 3.2281 15.8103C2.84899 15.4047 2.6381 14.8702 2.6381 14.315C2.6381 13.7598 2.84899 13.2253 3.2281 12.8196C3.60721 12.414 4.12625 12.1675 4.6802 12.13C4.82647 12.1147 4.97393 12.1147 5.1202 12.13C5.2451 12.1576 5.37499 12.1528 5.49751 12.116C5.62003 12.0793 5.73111 12.0118 5.8202 11.92C5.90361 11.828 5.96355 11.7172 5.99489 11.5971C6.02623 11.4769 6.02806 11.351 6.0002 11.23C5.94842 11.0307 5.92155 10.8258 5.9202 10.62C5.92285 9.97724 6.18003 9.36173 6.63546 8.90817C7.09089 8.45462 7.70745 8.19998 8.3502 8.19998Z" fill="#7D7898"/>
</svg>
