<svg width="24" height="25" viewBox="0 0 24 25" fill="none" xmlns="http://www.w3.org/2000/svg">
<path d="M9 20.875C9 21.5712 9.27656 22.2389 9.76884 22.7312C10.2611 23.2235 10.9288 23.5 11.625 23.5C12.3212 23.5 12.9889 23.2235 13.4812 22.7312C13.9734 22.2389 14.25 21.5712 14.25 20.875C14.25 20.1788 13.9734 19.5111 13.4812 19.0189C12.9889 18.5266 12.3212 18.25 11.625 18.25C10.9288 18.25 10.2611 18.5266 9.76884 19.0189C9.27656 19.5111 9 20.1788 9 20.875Z" stroke="#7D7898" stroke-width="1.5" stroke-linecap="round" stroke-linejoin="round"/>
<path d="M9 3.62502C9 4.32121 9.27656 4.98889 9.76884 5.48117C10.2611 5.97345 10.9288 6.25002 11.625 6.25002C12.3212 6.25002 12.9889 5.97345 13.4812 5.48117C13.9734 4.98889 14.25 4.32121 14.25 3.62502C14.25 2.92882 13.9734 2.26114 13.4812 1.76886C12.9889 1.27658 12.3212 1.00002 11.625 1.00002C10.9288 1.00002 10.2611 1.27658 9.76884 1.76886C9.27656 2.26114 9 2.92882 9 3.62502Z" stroke="#7D7898" stroke-width="1.5" stroke-linecap="round" stroke-linejoin="round"/>
<path d="M9 12.25C9 12.9462 9.27656 13.6139 9.76884 14.1062C10.2611 14.5985 10.9288 14.875 11.625 14.875C12.3212 14.875 12.9889 14.5985 13.4812 14.1062C13.9734 13.6139 14.25 12.9462 14.25 12.25C14.25 11.5538 13.9734 10.8861 13.4812 10.3939C12.9889 9.90158 12.3212 9.62502 11.625 9.62502C10.9288 9.62502 10.2611 9.90158 9.76884 10.3939C9.27656 10.8861 9 11.5538 9 12.25Z" stroke="#7D7898" stroke-width="1.5" stroke-linecap="round" stroke-linejoin="round"/>
</svg>
