<svg width="24" height="24" viewBox="0 0 24 24" fill="none" xmlns="http://www.w3.org/2000/svg">
<path d="M10.5 12.526C10.5005 12.7852 10.3981 13.034 10.2153 13.2178C10.0325 13.4015 9.78421 13.5052 9.525 13.506H1.725C1.59662 13.5057 1.46954 13.4802 1.35104 13.4308C1.23254 13.3814 1.12494 13.3091 1.03439 13.2181C0.943842 13.1271 0.872118 13.0191 0.823321 12.9003C0.774524 12.7816 0.74961 12.6544 0.750005 12.526V1.73601C0.749742 1.60757 0.774778 1.48035 0.823685 1.36159C0.872591 1.24283 0.944409 1.13487 1.03504 1.04387C1.12567 0.952869 1.23334 0.880609 1.35189 0.831218C1.47045 0.781826 1.59757 0.756269 1.726 0.756007L9.526 0.769007C9.78504 0.770066 10.0331 0.873847 10.2157 1.05758C10.3983 1.2413 10.5005 1.48997 10.5 1.74901V12.526Z" stroke="#7D7898" stroke-width="1.5" stroke-linecap="round" stroke-linejoin="round"/>
<path d="M23.246 6.54401C23.2442 6.80083 23.1404 7.04641 22.9576 7.2268C22.7748 7.40718 22.5278 7.5076 22.271 7.50601H14.471C14.3438 7.50693 14.2177 7.48277 14.0998 7.43491C13.9819 7.38705 13.8747 7.31643 13.7841 7.22709C13.6936 7.13775 13.6215 7.03143 13.5721 6.91422C13.5226 6.79701 13.4968 6.67121 13.496 6.54401V1.73101C13.4976 1.47445 13.601 1.22902 13.7834 1.04863C13.9659 0.868252 14.2124 0.767677 14.469 0.769007L22.269 0.756007C22.5261 0.754143 22.7734 0.854419 22.9566 1.0348C23.1398 1.21519 23.2439 1.46092 23.246 1.71801V6.54401Z" stroke="#7D7898" stroke-width="1.5" stroke-linecap="round" stroke-linejoin="round"/>
<path d="M10.5 22.291C10.4992 22.4185 10.4733 22.5446 10.4238 22.6621C10.3743 22.7796 10.3021 22.8862 10.2114 22.9759C10.1206 23.0655 10.0132 23.1363 9.89505 23.1844C9.77694 23.2325 9.65052 23.2568 9.523 23.256L1.723 23.243C1.46618 23.2441 1.21944 23.1431 1.037 22.9624C0.854552 22.7816 0.751328 22.5358 0.750005 22.279V17.47C0.750659 17.3427 0.776405 17.2167 0.825771 17.0993C0.875136 16.982 0.947153 16.8755 1.0377 16.7859C1.12825 16.6964 1.23556 16.6256 1.35349 16.5776C1.47143 16.5295 1.59767 16.5052 1.725 16.506H9.525C9.78209 16.5047 10.0292 16.6055 10.212 16.7862C10.3948 16.967 10.4984 17.2129 10.5 17.47V22.291Z" stroke="#7D7898" stroke-width="1.5" stroke-linecap="round" stroke-linejoin="round"/>
<path d="M14.472 23.256C14.3435 23.2557 14.2163 23.2302 14.0977 23.1807C13.979 23.1312 13.8713 23.0589 13.7807 22.9678C13.69 22.8767 13.6182 22.7686 13.5694 22.6497C13.5205 22.5309 13.4956 22.4035 13.496 22.275V11.487C13.4956 11.3586 13.5205 11.2313 13.5693 11.1125C13.6181 10.9937 13.6898 10.8857 13.7803 10.7946C13.8709 10.7035 13.9785 10.6311 14.097 10.5816C14.2155 10.5321 14.3426 10.5064 14.471 10.506H22.271C22.3994 10.5064 22.5265 10.5321 22.645 10.5816C22.7635 10.6311 22.8711 10.7035 22.9617 10.7946C23.0522 10.8857 23.1239 10.9937 23.1727 11.1125C23.2215 11.2313 23.2464 11.3586 23.246 11.487V22.262C23.2465 22.5211 23.1443 22.7699 22.9617 22.9538C22.7792 23.1377 22.5311 23.2417 22.272 23.243L14.472 23.256Z" stroke="#7D7898" stroke-width="1.5" stroke-linecap="round" stroke-linejoin="round"/>
</svg>
