<svg width="25" height="25" viewBox="0 0 25 25" fill="none" xmlns="http://www.w3.org/2000/svg">
<path d="M5.5 23.5H2.5C2.10218 23.5 1.72064 23.342 1.43934 23.0607C1.15804 22.7794 1 22.3978 1 22V2.50002C1 2.10219 1.15804 1.72066 1.43934 1.43936C1.72064 1.15805 2.10218 1.00002 2.5 1.00002H13.129C13.3261 1.00006 13.5212 1.03894 13.7033 1.11444C13.8853 1.18993 14.0507 1.30057 14.19 1.44002L20.061 7.31102C20.2003 7.45037 20.3107 7.6158 20.386 7.79785C20.4614 7.97989 20.5001 8.175 20.5 8.37201V13M20.5 8.50002H14.5C14.1022 8.50002 13.7206 8.34198 13.4393 8.06068C13.158 7.77937 13 7.39784 13 7.00002V1.00002M8.5 23.5V16H9.254C9.85074 16 10.423 16.2371 10.845 16.659C11.2669 17.081 11.504 17.6533 11.504 18.25C11.504 18.8468 11.2669 19.4191 10.845 19.841C10.423 20.263 9.85074 20.5 9.254 20.5H8.504M20.5 23.5V17.5C20.5 17.1022 20.658 16.7207 20.9393 16.4394C21.2206 16.1581 21.6022 16 22 16H23.5M20.5 20.5H22.75M14.5 23.5C15.2956 23.5 16.0587 23.1839 16.6213 22.6213C17.1839 22.0587 17.5 21.2957 17.5 20.5V19C17.5 18.2044 17.1839 17.4413 16.6213 16.8787C16.0587 16.3161 15.2956 16 14.5 16V23.5Z" stroke="#7D7898" stroke-width="1.5" stroke-linecap="round" stroke-linejoin="round"/>
</svg>
