<svg width="24" height="24" viewBox="0 0 24 24" fill="none" xmlns="http://www.w3.org/2000/svg">
<path d="M8.25 18C8.66421 18 9 17.6642 9 17.25C9 16.8358 8.66421 16.5 8.25 16.5V18ZM0.75 15.75H0H0.75ZM0.75 3.765H0H0.75ZM2.25 2.265V1.515V2.265ZM15.75 2.265V3.015V2.265ZM16.5 8.25C16.5 8.66421 16.8358 9 17.25 9C17.6642 9 18 8.66421 18 8.25H16.5ZM4.493 3.75C4.493 4.16421 4.82879 4.5 5.243 4.5C5.65721 4.5 5.993 4.16421 5.993 3.75H4.493ZM5.993 0.75C5.993 0.335786 5.65721 0 5.243 0C4.82879 0 4.493 0.335786 4.493 0.75H5.993ZM11.993 3.75C11.993 4.16421 12.3288 4.5 12.743 4.5C13.1572 4.5 13.493 4.16421 13.493 3.75H11.993ZM13.493 0.75C13.493 0.335786 13.1572 0 12.743 0C12.3288 0 11.993 0.335786 11.993 0.75H13.493ZM10.5 17.25C10.5 19.0402 11.2112 20.7571 12.477 22.023L13.5377 20.9623C12.5531 19.9777 12 18.6424 12 17.25H10.5ZM12.477 22.023C13.7429 23.2888 15.4598 24 17.25 24V22.5C15.8576 22.5 14.5223 21.9469 13.5377 20.9623L12.477 22.023ZM17.25 24C19.0402 24 20.7571 23.2888 22.023 22.023L20.9623 20.9623C19.9777 21.9469 18.6424 22.5 17.25 22.5V24ZM22.023 22.023C23.2888 20.7571 24 19.0402 24 17.25H22.5C22.5 18.6424 21.9469 19.9777 20.9623 20.9623L22.023 22.023ZM24 17.25C24 15.4598 23.2888 13.7429 22.023 12.477L20.9623 13.5377C21.9469 14.5223 22.5 15.8576 22.5 17.25H24ZM22.023 12.477C20.7571 11.2112 19.0402 10.5 17.25 10.5V12C18.6424 12 19.9777 12.5531 20.9623 13.5377L22.023 12.477ZM17.25 10.5C15.4598 10.5 13.7429 11.2112 12.477 12.477L13.5377 13.5377C14.5223 12.5531 15.8576 12 17.25 12V10.5ZM12.477 12.477C11.2112 13.7429 10.5 15.4598 10.5 17.25H12C12 15.8576 12.5531 14.5223 13.5377 13.5377L12.477 12.477ZM13.5377 22.023L22.023 13.5377L20.9623 12.477L12.477 20.9623L13.5377 22.023ZM8.25 16.5H2.25V18H8.25V16.5ZM2.25 16.5C2.05109 16.5 1.86032 16.421 1.71967 16.2803L0.65901 17.341C1.08097 17.7629 1.65326 18 2.25 18V16.5ZM1.71967 16.2803C1.57902 16.1397 1.5 15.9489 1.5 15.75H0C0 16.3467 0.237053 16.919 0.65901 17.341L1.71967 16.2803ZM1.5 15.75V3.765H0V15.75H1.5ZM1.5 3.765C1.5 3.56609 1.57902 3.37532 1.71967 3.23467L0.65901 2.17401C0.237053 2.59597 0 3.16826 0 3.765H1.5ZM1.71967 3.23467C1.86032 3.09402 2.05109 3.015 2.25 3.015V1.515C1.65326 1.515 1.08097 1.75205 0.65901 2.17401L1.71967 3.23467ZM2.25 3.015H15.75V1.515H2.25V3.015ZM15.75 3.015C15.9489 3.015 16.1397 3.09402 16.2803 3.23467L17.341 2.17401C16.919 1.75205 16.3467 1.515 15.75 1.515V3.015ZM16.2803 3.23467C16.421 3.37532 16.5 3.56609 16.5 3.765H18C18 3.16826 17.7629 2.59597 17.341 2.17401L16.2803 3.23467ZM16.5 3.765V8.25H18V3.765H16.5ZM0.75 7.5H17.25V6H0.75V7.5ZM5.993 3.75V0.75H4.493V3.75H5.993ZM13.493 3.75V0.75H11.993V3.75H13.493Z" fill="#7D7898"/>
</svg>
