<svg width="25" height="24" viewBox="0 0 25 24" fill="none" xmlns="http://www.w3.org/2000/svg">
<path d="M1 20.5C1 18.7098 1.71116 16.9929 2.97703 15.7271C4.2429 14.4612 5.95979 13.75 7.75 13.75C9.54021 13.75 11.2571 14.4612 12.523 15.7271C13.7888 16.9929 14.5 18.7098 14.5 20.5M14.501 4.66605C15.1239 4.26133 15.8444 4.03232 16.5867 4.00318C17.3289 3.97404 18.0652 4.14585 18.7179 4.50049C19.3706 4.85512 19.9154 5.37941 20.2948 6.018C20.6742 6.65659 20.8741 7.38578 20.8735 8.12858C20.8729 8.87138 20.6717 9.60022 20.2911 10.2382C19.9106 10.8761 19.3649 11.3994 18.7116 11.7529C18.0583 12.1064 17.3217 12.277 16.5795 12.2465C15.8373 12.2161 15.1172 11.9858 14.495 11.58M15.25 13.917C16.2386 13.6931 17.2648 13.6944 18.2528 13.9209C19.2408 14.1474 20.1651 14.5932 20.9574 15.2254C21.7497 15.8576 22.3896 16.6599 22.8298 17.573C23.2699 18.4861 23.499 19.4864 23.5 20.5M3.625 8.12505C3.625 9.21907 4.0596 10.2683 4.83318 11.0419C5.60677 11.8155 6.65598 12.25 7.75 12.25C8.84402 12.25 9.89323 11.8155 10.6668 11.0419C11.4404 10.2683 11.875 9.21907 11.875 8.12505C11.875 7.03103 11.4404 5.98182 10.6668 5.20823C9.89323 4.43464 8.84402 4.00005 7.75 4.00005C6.65598 4.00005 5.60677 4.43464 4.83318 5.20823C4.0596 5.98182 3.625 7.03103 3.625 8.12505Z" stroke="#7D7898" stroke-width="1.5" stroke-linecap="round" stroke-linejoin="round"/>
</svg>
