<svg width="24" height="24" viewBox="0 0 24 24" fill="none" xmlns="http://www.w3.org/2000/svg">
<path d="M2.66992 21.0433L22.1699 1.5433M16.1699 18.0433C16.1699 18.839 16.486 19.602 17.0486 20.1646C17.6112 20.7272 18.3743 21.0433 19.1699 21.0433C19.9656 21.0433 20.7286 20.7272 21.2912 20.1646C21.8539 19.602 22.1699 18.839 22.1699 18.0433C22.1699 17.2477 21.8539 16.4846 21.2912 15.922C20.7286 15.3594 19.9656 15.0433 19.1699 15.0433C18.3743 15.0433 17.6112 15.3594 17.0486 15.922C16.486 16.4846 16.1699 17.2477 16.1699 18.0433ZM2.66992 4.5433C2.66992 5.33895 2.98599 6.10202 3.5486 6.66462C4.11121 7.22723 4.87427 7.5433 5.66992 7.5433C6.46557 7.5433 7.22863 7.22723 7.79124 6.66462C8.35385 6.10202 8.66992 5.33895 8.66992 4.5433C8.66992 3.74765 8.35385 2.98459 7.79124 2.42198C7.22863 1.85938 6.46557 1.5433 5.66992 1.5433C4.87427 1.5433 4.11121 1.85938 3.5486 2.42198C2.98599 2.98459 2.66992 3.74765 2.66992 4.5433Z" stroke="#7D7898" stroke-width="1.5" stroke-linecap="round" stroke-linejoin="round"/>
</svg>
