<svg width="25" height="24" viewBox="0 0 25 24" fill="none" xmlns="http://www.w3.org/2000/svg">
<path d="M23.5 12.75V6M23.5 6H16.75M23.5 6L15.561 13.939C15.4217 14.0784 15.2563 14.189 15.0742 14.2644C14.8922 14.3398 14.6971 14.3787 14.5 14.3787C14.3029 14.3787 14.1078 14.3398 13.9258 14.2644C13.7437 14.189 13.5783 14.0784 13.439 13.939L10.311 10.811C10.1717 10.6716 10.0063 10.561 9.82425 10.4856C9.6422 10.4102 9.44706 10.3713 9.25 10.3713C9.05294 10.3713 8.8578 10.4102 8.67575 10.4856C8.4937 10.561 8.3283 10.6716 8.189 10.811L1 18" stroke="#7D7898" stroke-width="1.5" stroke-linecap="round" stroke-linejoin="round"/>
</svg>
