<svg width="81" height="81" viewBox="0 0 81 81" fill="none" xmlns="http://www.w3.org/2000/svg">
<g clip-path="url(#clip0_1_394)">
<path d="M80.5 0.5H0.5V80.5H80.5V0.5Z" fill="black"/>
<path d="M59.2249 11.4942L46.4968 52.5359L62.371 57.4589L75.099 16.4172L59.2249 11.4942Z" stroke="white" stroke-width="3" stroke-linecap="round" stroke-linejoin="round"/>
<path d="M48.0777 53.0254L45.6191 60.9529L58.3605 64.9043L60.819 56.9768L48.0777 53.0254Z" stroke="white" stroke-width="3" stroke-linecap="round" stroke-linejoin="round"/>
<path d="M63.1672 6.33609L61.3604 12.1624L72.9556 15.7583L74.7624 9.93206L63.1672 6.33609Z" stroke="white" stroke-width="3" stroke-linecap="round" stroke-linejoin="round"/>
<path d="M48.1861 61.7528L46.1038 68.4673L53.6779 70.8162L55.7602 64.1017L48.1861 61.7528Z" stroke="white" stroke-width="3" stroke-linecap="round" stroke-linejoin="round"/>
<path d="M44.02 75.19H52.33L53.68 70.82L46.11 68.47L44.02 75.19Z" stroke="white" stroke-width="3" stroke-linecap="round" stroke-linejoin="round"/>
<path d="M7.77002 75.1899H52.33" stroke="white" stroke-width="3" stroke-linecap="round" stroke-linejoin="round"/>
</g>
<defs>
<clipPath id="clip0_1_394">
<rect width="80" height="80" fill="white" transform="translate(0.5 0.5)"/>
</clipPath>
</defs>
</svg>
