<svg width="82" height="82" viewBox="0 0 82 82" fill="none" xmlns="http://www.w3.org/2000/svg">
<path d="M35.7399 24.3899H69.2499V69.4699H24.1699V55.7799V35.5199" stroke="black" stroke-width="3" stroke-miterlimit="10"/>
<path d="M24.1699 59.1L39.2499 44.02L51.7499 56.52L60.7499 47.52L69.2499 56.02" stroke="black" stroke-width="3" stroke-miterlimit="10"/>
<path d="M55.75 41.03C58.7876 41.03 61.25 38.5676 61.25 35.53C61.25 32.4925 58.7876 30.03 55.75 30.03C52.7124 30.03 50.25 32.4925 50.25 35.53C50.25 38.5676 52.7124 41.03 55.75 41.03Z" stroke="black" stroke-width="3" stroke-miterlimit="10"/>
<path d="M24.25 35.53C30.6013 35.53 35.75 30.3813 35.75 24.03C35.75 17.6788 30.6013 12.53 24.25 12.53C17.8987 12.53 12.75 17.6788 12.75 24.03C12.75 30.3813 17.8987 35.53 24.25 35.53Z" fill="black" stroke="black" stroke-width="3" stroke-miterlimit="10"/>
<path d="M24.25 17.53V30.53" stroke="white" stroke-width="3" stroke-miterlimit="10"/>
<path d="M30.75 24.03H17.75" stroke="white" stroke-width="3" stroke-miterlimit="10"/>
</svg>
