<svg width="25" height="25" viewBox="0 0 25 25" fill="none" xmlns="http://www.w3.org/2000/svg">
<path d="M4.211 15.209C5.23408 14.6259 6.3708 14.2702 7.54375 14.1661C8.7167 14.062 9.8983 14.2119 11.0081 14.6057C12.1179 14.9994 13.1297 15.6277 13.9748 16.4478C14.8198 17.2679 15.4782 18.2605 15.905 19.358M14.632 17.168C15.4272 16.4431 16.4583 16.031 17.5341 16.008C18.6098 15.9851 19.6575 16.3527 20.483 17.043M2.5 1H22C22.8284 1 23.5 1.67157 23.5 2.5V22C23.5 22.8284 22.8284 23.5 22 23.5H2.5C1.67157 23.5 1 22.8284 1 22V2.5C1 1.67157 1.67157 1 2.5 1ZM19.75 7.75C19.75 9.40685 18.4069 10.75 16.75 10.75C15.0931 10.75 13.75 9.40685 13.75 7.75C13.75 6.09315 15.0931 4.75 16.75 4.75C18.4069 4.75 19.75 6.09315 19.75 7.75Z" stroke="#7D7898" stroke-width="1.5" stroke-linecap="round" stroke-linejoin="round"/>
</svg>
