<svg width="24" height="24" viewBox="0 0 24 24" fill="none" xmlns="http://www.w3.org/2000/svg">
<path d="M2.11084 3.4117V20.9017C2.11082 21.161 2.17803 21.416 2.30592 21.6416C2.43382 21.8672 2.61802 22.0558 2.84055 22.1889C3.06309 22.3221 3.31635 22.3953 3.57561 22.4014C3.83488 22.4075 4.0913 22.3463 4.31984 22.2237L20.6428 13.4787C20.882 13.3505 21.0818 13.1599 21.2212 12.9271C21.3605 12.6942 21.4341 12.428 21.4341 12.1567C21.4341 11.8854 21.3605 11.6191 21.2212 11.3863C21.0818 11.1535 20.882 10.9629 20.6428 10.8347L4.31984 2.0897C4.0913 1.96712 3.83488 1.90588 3.57561 1.91197C3.31635 1.91806 3.06309 1.99127 2.84055 2.12445C2.61802 2.25762 2.43382 2.44622 2.30592 2.67183C2.17803 2.89744 2.11082 3.15236 2.11084 3.4117Z" stroke="#7D7898" stroke-width="1.5" stroke-linecap="round" stroke-linejoin="round"/>
</svg>
