<svg width="53" height="67" viewBox="0 0 53 67" fill="none" xmlns="http://www.w3.org/2000/svg">
<g clip-path="url(#clip0_1_472)">
<path d="M19.079 7.477L19.049 15.79H8.13102L8.09802 7.527C8.14202 4.408 10.522 2 13.559 2C16.617 2 19.079 4.418 19.079 7.477Z" stroke="black" stroke-width="3" stroke-miterlimit="10"/>
<path d="M40.892 9.96798C40.892 6.90598 38.608 4.57397 35.547 4.57397C32.513 4.57397 30.539 7.04497 30.5 10.164V23.445C30.5 23.445 30.5 23.604 30.5 23.656C30.5 26.719 32.674 29.227 35.734 29.227C38.794 29.227 40.958 26.659 40.958 23.597C40.958 23.464 40.892 10.103 40.892 9.96798Z" stroke="black" stroke-width="3" stroke-miterlimit="10"/>
<path d="M51.958 13.381C51.958 10.322 49.192 7.81201 46.538 7.81201C43.911 7.81201 40.958 10.127 40.958 13.248V23.388C40.958 23.388 40.958 23.547 40.958 23.599C40.958 26.662 43.888 29.17 46.538 29.17C49.192 29.17 51.958 26.717 51.958 23.655C51.958 23.521 51.958 13.517 51.958 13.381Z" stroke="black" stroke-width="3" stroke-miterlimit="10"/>
<path d="M24.924 27.918C29.12 29.898 32.0219 34.169 32.0219 39.115" stroke="black" stroke-width="3" stroke-miterlimit="10"/>
<path d="M24.597 15.7889H7.377C4.314 15.7889 1.781 18.4319 1.781 21.4939L1.738 21.5579L1.5 34.7569V34.9549C1.5 41.0379 6.273 46.7329 12.357 46.7329" stroke="black" stroke-width="3" stroke-miterlimit="10"/>
<path d="M13 28.008C13 28.008 24.688 28.023 24.758 28.023C27.723 27.912 30.149 24.891 30.149 21.901V21.471C30.149 18.408 27.657 15.789 24.597 15.789H19.049L19.079 7.52699C19.125 4.40799 21.781 2.16199 24.818 2.16199C27.881 2.16199 30.5 4.73699 30.5 7.79599V25.015" stroke="black" stroke-width="3" stroke-miterlimit="10"/>
<path d="M49.4639 28.196L49.4999 35.425V35.623C49.4999 41.706 45.3849 46.686 40.0959 46.686" stroke="black" stroke-width="3" stroke-miterlimit="10"/>
<path d="M12.3571 46.733H25.0001" stroke="black" stroke-width="3" stroke-miterlimit="10"/>
<path d="M40.502 46.686H33.703" stroke="black" stroke-width="3" stroke-miterlimit="10"/>
<path d="M39.5 46.686V64.789H13.5V46.733" stroke="black" stroke-width="3" stroke-miterlimit="10"/>
</g>
<defs>
<clipPath id="clip0_1_472">
<rect width="53" height="65.789" fill="white" transform="translate(0 0.5)"/>
</clipPath>
</defs>
</svg>
