<svg width="25" height="25" viewBox="0 0 25 25" fill="none" xmlns="http://www.w3.org/2000/svg">
<path d="M16.75 1V3.25M12.25 3.25H22.35C22.656 3.25185 22.9488 3.37484 23.1643 3.59205C23.3798 3.80926 23.5005 4.10301 23.5 4.409V14.841C23.5005 15.147 23.3798 15.4407 23.1643 15.6579C22.9488 15.8752 22.656 15.9981 22.35 16H15.25M13.89 9.975L15.717 8.15C15.8253 8.04204 15.9721 7.98141 16.125 7.98141C16.2779 7.98141 16.4247 8.04204 16.533 8.15L17.95 9.569C18.0583 9.67696 18.2051 9.73759 18.358 9.73759C18.5109 9.73759 18.6577 9.67696 18.766 9.569L21.203 7.132M16.75 16V21.25M16.75 21.25L13.75 23.5M16.75 21.25L19.441 23.5M3.25 4C3.25 4.79565 3.56607 5.55871 4.12868 6.12132C4.69129 6.68393 5.45435 7 6.25 7C7.04565 7 7.80871 6.68393 8.37132 6.12132C8.93393 5.55871 9.25 4.79565 9.25 4C9.25 3.20435 8.93393 2.44129 8.37132 1.87868C7.80871 1.31607 7.04565 1 6.25 1C5.45435 1 4.69129 1.31607 4.12868 1.87868C3.56607 2.44129 3.25 3.20435 3.25 4ZM11.5 13.75C11.5 12.3576 10.9469 11.0223 9.96231 10.0377C8.97774 9.05312 7.64239 8.5 6.25 8.5C4.85761 8.5 3.52226 9.05312 2.53769 10.0377C1.55312 11.0223 1 12.3576 1 13.75V16H3.25L4 23.5H8.5L9.25 16H11.5V13.75Z" stroke="#7D7898" stroke-width="1.5" stroke-linecap="round" stroke-linejoin="round"/>
</svg>
