<svg width="25" height="25" viewBox="0 0 25 25" fill="none" xmlns="http://www.w3.org/2000/svg">
<path d="M6.20068 20.9293H3.20068C2.80286 20.9293 2.42133 20.7712 2.14002 20.4899C1.85872 20.2086 1.70068 19.8271 1.70068 19.4293V2.92926C1.70068 2.53144 1.85872 2.1499 2.14002 1.8686C2.42133 1.5873 2.80286 1.42926 3.20068 1.42926H13.8297C14.2272 1.42935 14.6085 1.58724 14.8897 1.86826L17.7617 4.74026C18.0427 5.02146 18.2006 5.40271 18.2007 5.80026V10.4293M21.2007 18.2623V22.8463L17.4507 23.9293L13.7007 22.8463V18.2623M10.7007 17.3293L17.4507 14.8693L24.2007 17.3293L17.4507 19.4293L10.7007 17.3293ZM10.7007 17.3293V20.6793M4.70068 5.17926H6.20068M9.20068 5.17926H13.7007M4.70068 8.92926H6.20068M9.20068 8.92926H13.7007M4.70068 12.6793H6.20068M4.70068 16.4293H6.20068M9.20068 12.6793H13.7007" stroke="#7D7898" stroke-width="1.5" stroke-linecap="round" stroke-linejoin="round"/>
</svg>
