<svg width="24" height="24" viewBox="0 0 24 24" fill="none" xmlns="http://www.w3.org/2000/svg">
<path d="M6 5.625C6 6.03921 6.33579 6.375 6.75 6.375C7.16421 6.375 7.5 6.03921 7.5 5.625H6ZM7.06599 4.58331L6.44239 4.16664L6.44238 4.16664L7.06599 4.58331ZM7.90747 3.89273L8.19448 4.58564L8.19449 4.58564L7.90747 3.89273ZM8.99079 3.78603L8.84447 4.52162L8.84447 4.52162L8.99079 3.78603ZM9.95083 4.29918L10.4812 3.7689L10.4812 3.76885L9.95083 4.29918ZM10.464 5.25921L11.1996 5.11298L11.1996 5.11279L10.464 5.25921ZM9.66669 7.18401L10.0834 7.80762L10.0834 7.80761L9.66669 7.18401ZM8.625 6.75C8.21079 6.75 7.875 7.08579 7.875 7.5C7.875 7.91421 8.21079 8.25 8.625 8.25V6.75ZM16.5 6.75C16.5 7.16421 16.8358 7.5 17.25 7.5C17.6642 7.5 18 7.16421 18 6.75H16.5ZM16.8107 1.18934L16.2804 1.71967L16.2804 1.71967L16.8107 1.18934ZM1.18934 1.18934L1.71967 1.71967L1.71967 1.71967L1.18934 1.18934ZM1.18934 13.8107L1.71967 13.2804L1.71967 13.2804L1.18934 13.8107ZM5.25 14.25H6C6 13.8358 5.66421 13.5 5.25 13.5V14.25ZM5.25 18.75H4.5C4.5 19.0341 4.6605 19.2938 4.91459 19.4208C5.16868 19.5479 5.47274 19.5204 5.7 19.35L5.25 18.75ZM8.7 17.1C9.03137 16.8515 9.09853 16.3814 8.85 16.05C8.60147 15.7186 8.13137 15.6515 7.8 15.9L8.7 17.1ZM23.25 18.75V19.5C23.6642 19.5 24 19.1642 24 18.75H23.25ZM20.25 18.75V18C19.8358 18 19.5 18.3358 19.5 18.75H20.25ZM20.25 23.25L19.7197 23.7803C19.9342 23.9948 20.2568 24.059 20.537 23.9429C20.8173 23.8268 21 23.5533 21 23.25H20.25ZM15.75 18.75L16.2803 18.2197C16.1397 18.079 15.9489 18 15.75 18V18.75ZM11.25 18.75H10.5C10.5 19.1642 10.8358 19.5 11.25 19.5V18.75ZM11.25 9.75V9C10.8358 9 10.5 9.33579 10.5 9.75H11.25ZM23.25 9.75H24C24 9.33579 23.6642 9 23.25 9V9.75ZM18 12.75C18 12.3358 17.6642 12 17.25 12C16.8358 12 16.5 12.3358 16.5 12.75H18ZM16.5 15.75C16.5 16.1642 16.8358 16.5 17.25 16.5C17.6642 16.5 18 16.1642 18 15.75H16.5ZM7.5 5.625C7.5 5.4025 7.56598 5.18499 7.6896 4.99998L6.44238 4.16664C6.15396 4.59831 6 5.10582 6 5.625H7.5ZM7.68959 4.99998C7.81321 4.81498 7.98891 4.67079 8.19448 4.58564L7.62046 3.19982C7.14081 3.39849 6.73083 3.73494 6.44239 4.16664L7.68959 4.99998ZM8.19449 4.58564C8.40005 4.50049 8.62625 4.47821 8.84447 4.52162L9.13712 3.05044C8.62792 2.94915 8.10011 3.00113 7.62045 3.19982L8.19449 4.58564ZM8.84447 4.52162C9.06271 4.56503 9.26316 4.67217 9.4205 4.82951L10.4812 3.76885C10.114 3.40173 9.64631 3.15173 9.13711 3.05044L8.84447 4.52162ZM9.42045 4.82946C9.57779 4.98683 9.68498 5.18734 9.72843 5.40563L11.1996 5.11279C11.0982 4.60364 10.8482 4.13597 10.4812 3.7689L9.42045 4.82946ZM9.72839 5.40544C9.77179 5.62376 9.74951 5.85 9.66438 6.05554L11.0502 6.62952C11.2489 6.14984 11.3008 5.62208 11.1996 5.11298L9.72839 5.40544ZM9.66438 6.05554C9.57926 6.26105 9.43506 6.43677 9.25002 6.56041L10.0834 7.80761C10.515 7.51919 10.8515 7.10923 11.0502 6.62952L9.66438 6.05554ZM9.25002 6.5604C9.06501 6.68402 8.8475 6.75 8.625 6.75V8.25C9.14418 8.25 9.65169 8.09604 10.0834 7.80762L9.25002 6.5604ZM8.625 9.75C8.83212 9.75 9 9.9179 9 10.125H7.5C7.5 10.7463 8.00366 11.25 8.625 11.25V9.75ZM9 10.125C9 10.3321 8.8321 10.5 8.625 10.5V9C8.00368 9 7.5 9.50368 7.5 10.125H9ZM8.625 11.25C9.24634 11.25 9.75 10.7463 9.75 10.125H8.25C8.25 9.9179 8.41788 9.75 8.625 9.75V11.25ZM9.75 10.125C9.75 9.50368 9.24632 9 8.625 9V10.5C8.4179 10.5 8.25 10.3321 8.25 10.125H9.75ZM16.5 2.25V6.75H18V2.25H16.5ZM15.75 1.5C15.9489 1.5 16.1397 1.57904 16.2804 1.71967L17.341 0.659015C16.9191 0.237031 16.3467 0 15.75 0V1.5ZM16.2804 1.71967C16.421 1.86028 16.5 2.05104 16.5 2.25H18C18 1.65332 17.763 1.081 17.341 0.65901L16.2804 1.71967ZM2.25 1.5H15.75V0H2.25V1.5ZM1.5 2.25C1.5 2.05109 1.57902 1.86032 1.71967 1.71967L0.659015 0.659005C0.237049 1.08096 0 1.65327 0 2.25H1.5ZM1.71967 1.71967C1.86032 1.57902 2.05109 1.5 2.25 1.5V0C1.65327 0 1.08096 0.237049 0.659005 0.659015L1.71967 1.71967ZM1.5 12.75V2.25H0V12.75H1.5ZM2.25 13.5C2.05104 13.5 1.86028 13.421 1.71967 13.2804L0.65901 14.341C1.081 14.763 1.65332 15 2.25 15V13.5ZM1.71967 13.2804C1.57904 13.1397 1.5 12.9489 1.5 12.75H0C0 13.3467 0.23703 13.9191 0.659015 14.341L1.71967 13.2804ZM5.25 13.5H2.25V15H5.25V13.5ZM6 18.75V14.25H4.5V18.75H6ZM7.8 15.9L4.8 18.15L5.7 19.35L8.7 17.1L7.8 15.9ZM23.25 18H20.25V19.5H23.25V18ZM19.5 18.75V23.25H21V18.75H19.5ZM20.7803 22.7197L16.2803 18.2197L15.2197 19.2803L19.7197 23.7803L20.7803 22.7197ZM15.75 18H11.25V19.5H15.75V18ZM12 18.75V9.75H10.5V18.75H12ZM11.25 10.5H23.25V9H11.25V10.5ZM22.5 9.75V18.75H24V9.75H22.5ZM16.5 12.75V15.75H18V12.75H16.5Z" fill="#7D7898"/>
</svg>
