<svg width="25" height="24" viewBox="0 0 25 24" fill="none" xmlns="http://www.w3.org/2000/svg">
<path d="M5.5 13.9944V18.4944H1M19 9.49435V4.99435H23.5M19.282 4.99135C20.8337 6.60793 21.7813 8.70955 21.9655 10.9427C22.1497 13.1759 21.5593 15.4044 20.2934 17.2534C19.0276 19.1024 17.1637 20.459 15.0151 21.0952C12.8665 21.7313 10.5644 21.6081 8.496 20.7464M5.217 18.4974C3.66868 16.88 2.72401 14.7791 2.54162 12.5475C2.35923 10.3159 2.95022 8.08951 4.21537 6.24217C5.48051 4.39483 7.34275 3.03905 9.48938 2.40248C11.636 1.76592 13.9363 1.88734 16.004 2.74635" stroke="#7D7898" stroke-width="1.5" stroke-linecap="round" stroke-linejoin="round"/>
</svg>
