<svg width="25" height="25" viewBox="0 0 25 25" fill="none" xmlns="http://www.w3.org/2000/svg">
<path d="M7.64307 16.7688L16.6431 7.7688M16.6431 16.7688L7.64307 7.7688M0.893066 12.2688C0.893066 15.2525 2.07833 18.114 4.18812 20.2237C6.2979 22.3335 9.15938 23.5188 12.1431 23.5188C15.1268 23.5188 17.9882 22.3335 20.098 20.2237C22.2078 18.114 23.3931 15.2525 23.3931 12.2688C23.3931 9.28511 22.2078 6.42363 20.098 4.31385C17.9882 2.20406 15.1268 1.0188 12.1431 1.0188C9.15938 1.0188 6.2979 2.20406 4.18812 4.31385C2.07833 6.42363 0.893066 9.28511 0.893066 12.2688Z" stroke="#7D7898" stroke-width="1.5" stroke-linecap="round" stroke-linejoin="round"/>
</svg>
