<svg width="24" height="25" viewBox="0 0 24 25" fill="none" xmlns="http://www.w3.org/2000/svg">
<path d="M15.771 17.1142L17.271 24.0152L12.021 21.0152L6.771 24.0152L8.271 17.1142M3.771 9.7652C3.771 11.9532 4.64019 14.0517 6.18737 15.5988C7.73454 17.146 9.83296 18.0152 12.021 18.0152C14.209 18.0152 16.3075 17.146 17.8546 15.5988C19.4018 14.0517 20.271 11.9532 20.271 9.7652C20.271 7.57716 19.4018 5.47874 17.8546 3.93157C16.3075 2.38439 14.209 1.5152 12.021 1.5152C9.83296 1.5152 7.73454 2.38439 6.18737 3.93157C4.64019 5.47874 3.771 7.57716 3.771 9.7652ZM12.552 5.0572L13.8 7.5152H15.927C16.0441 7.51234 16.1593 7.54487 16.2576 7.60855C16.3559 7.67223 16.4327 7.76408 16.478 7.87211C16.5233 7.98014 16.5349 8.09931 16.5113 8.21404C16.4878 8.32878 16.4302 8.43373 16.346 8.5152L14.394 10.4332L15.475 12.9182C15.5227 13.032 15.5334 13.1579 15.5057 13.2782C15.478 13.3984 15.4132 13.5069 15.3205 13.5884C15.2278 13.6698 15.1118 13.7201 14.989 13.7321C14.8662 13.7441 14.7427 13.7172 14.636 13.6552L12.021 12.1842L9.406 13.6552C9.29928 13.7172 9.1758 13.7441 9.05298 13.7321C8.93017 13.7201 8.81422 13.6698 8.72151 13.5884C8.6288 13.5069 8.56401 13.3984 8.53628 13.2782C8.50856 13.1579 8.5193 13.032 8.567 12.9182L9.649 10.4332L7.696 8.5112C7.61184 8.42973 7.55422 8.32478 7.53067 8.21004C7.50712 8.09531 7.51874 7.97614 7.564 7.86811C7.60926 7.76008 7.68607 7.66823 7.78437 7.60455C7.88268 7.54087 7.99791 7.50834 8.115 7.5112H10.242L11.491 5.0572C11.542 4.9607 11.6183 4.87994 11.7118 4.8236C11.8053 4.76727 11.9124 4.7375 12.0215 4.7375C12.1306 4.7375 12.2377 4.76727 12.3312 4.8236C12.4247 4.87994 12.501 4.9607 12.552 5.0572Z" stroke="#7D7898" stroke-width="1.5" stroke-linecap="round" stroke-linejoin="round"/>
</svg>
