<svg width="24" height="24" viewBox="0 0 24 24" fill="none" xmlns="http://www.w3.org/2000/svg">
<path d="M6.24 14.198L16.047 4.391C17.2512 3.18672 18.8294 2.42813 20.522 2.24L22.68 2L22.44 4.158C22.2523 5.85075 21.4937 7.42909 20.289 8.633L10.48 18.44M6.24 14.198L10.48 18.44M6.24 14.198L2.618 12.99C2.49671 12.9497 2.38774 12.8791 2.30146 12.7848C2.21519 12.6905 2.15448 12.5757 2.12511 12.4513C2.09574 12.3269 2.09869 12.1971 2.13368 12.0741C2.16867 11.9512 2.23453 11.8393 2.325 11.749L2.557 11.517C3.34485 10.729 4.33657 10.176 5.42104 9.91986C6.5055 9.66376 7.63986 9.71471 8.697 10.067L9.952 10.485L6.24 14.198ZM10.48 18.44L11.688 22.062C11.7283 22.1833 11.7989 22.2923 11.8932 22.3785C11.9875 22.4648 12.1023 22.5255 12.2267 22.5549C12.3511 22.5843 12.4809 22.5813 12.6039 22.5463C12.7268 22.5113 12.8387 22.4455 12.929 22.355L13.162 22.123C13.9498 21.335 14.5027 20.3433 14.7586 19.2588C15.0145 18.1744 14.9634 17.04 14.611 15.983L14.195 14.733L10.48 18.44ZM7.959 18.971C7.95938 19.2665 7.90136 19.5592 7.78827 19.8323C7.67518 20.1053 7.50924 20.3533 7.3 20.562C6.422 21.44 2 22.683 2 22.683C2 22.683 3.243 18.258 4.121 17.383C4.50669 16.9964 5.02004 16.7635 5.565 16.728" stroke="#7D7898" stroke-width="1.5" stroke-linecap="round" stroke-linejoin="round"/>
</svg>
