<svg width="25" height="25" viewBox="0 0 25 25" fill="none" xmlns="http://www.w3.org/2000/svg">
<path d="M14.51 14.5H20.51M14.51 17.5H20.51M14.51 20.5H16.76M22.743 8.49998C22.3912 7.94805 21.9317 7.47277 21.3919 7.1026C20.8521 6.73244 20.2432 6.47499 19.6016 6.34568C18.96 6.21637 18.2989 6.21785 17.6579 6.35004C17.0169 6.48223 16.4091 6.7424 15.871 7.11498C15.608 5.71497 14.9516 4.41882 13.9788 3.3782C13.006 2.33758 11.7569 1.59553 10.3778 1.23887C8.99866 0.882207 7.54646 0.92569 6.19112 1.36423C4.83579 1.80277 3.63337 2.61822 2.72457 3.71519C1.81576 4.81215 1.23816 6.14524 1.05933 7.55849C0.88051 8.97174 1.10786 10.4067 1.71479 11.6954C2.32172 12.9842 3.28313 14.0734 4.48651 14.8358C5.6899 15.5981 7.0855 16.0019 8.51001 16M13.01 11.5H22.01C22.8384 11.5 23.51 12.1716 23.51 13V22C23.51 22.8284 22.8384 23.5 22.01 23.5H13.01C12.1816 23.5 11.51 22.8284 11.51 22V13C11.51 12.1716 12.1816 11.5 13.01 11.5Z" stroke="#7D7898" stroke-width="1.5" stroke-linecap="round" stroke-linejoin="round"/>
</svg>
