<svg width="24" height="25" viewBox="0 0 24 25" fill="none" xmlns="http://www.w3.org/2000/svg">
<path d="M11.005 15.8823L16.215 22.8373C16.4088 23.0954 16.6734 23.2916 16.9767 23.402C17.2801 23.5124 17.6089 23.5321 17.9233 23.4589C18.2376 23.3856 18.5239 23.2226 18.7472 22.9895C18.9705 22.7565 19.1212 22.4635 19.181 22.1463L22.781 2.97328C22.8413 2.65551 22.8077 2.32703 22.6842 2.02808C22.5607 1.72913 22.3527 1.47267 22.0857 1.29013C21.8187 1.10759 21.5042 1.00688 21.1808 1.00033C20.8574 0.993788 20.5392 1.08169 20.265 1.25328L1.78197 12.8073C1.4756 12.9988 1.23989 13.2848 1.11045 13.6222C0.98101 13.9595 0.96488 14.3298 1.0645 14.6771C1.16411 15.0244 1.37406 15.3298 1.66262 15.5472C1.95118 15.7647 2.30267 15.8823 2.66397 15.8823H11.005ZM11.005 15.8823H8.50497V21.0533C8.50495 21.3558 8.58744 21.6526 8.74356 21.9117C8.89968 22.1708 9.12352 22.3824 9.39097 22.5237C9.65842 22.665 9.95935 22.7307 10.2614 22.7138C10.5634 22.6968 10.8551 22.5977 11.105 22.4273L14.283 20.2613L11.005 15.8823ZM11.004 15.8823L22.084 1.29228" stroke="#7D7898" stroke-width="1.5" stroke-linecap="round" stroke-linejoin="round"/>
</svg>
