<svg width="24" height="24" viewBox="0 0 24 24" fill="none" xmlns="http://www.w3.org/2000/svg">
<path d="M22.5876 12.4823C22.5876 12.3439 22.5493 12.2082 22.4769 12.0902C22.4046 11.9722 22.301 11.8765 22.1776 11.8138L3.16361 2.15478C2.87661 2.0132 2.55184 1.96712 2.23678 2.02328C1.92172 2.07944 1.63287 2.23489 1.41246 2.46692C1.19205 2.69895 1.05163 2.99539 1.01171 3.31292C0.971799 3.63045 1.03449 3.95242 1.19061 4.23178L6.24861 12.4818L1.19061 20.7458C1.03449 21.0251 0.971799 21.3471 1.01171 21.6646C1.05163 21.9822 1.19205 22.2786 1.41246 22.5106C1.63287 22.7427 1.92172 22.8981 2.23678 22.9543C2.55184 23.0104 2.87661 22.9644 3.16361 22.8228L22.1776 13.1508C22.301 13.088 22.4046 12.9924 22.4769 12.8744C22.5493 12.7564 22.5876 12.6207 22.5876 12.4823ZM22.5876 12.4823L6.24361 12.4818" stroke="#7D7898" stroke-width="1.5" stroke-linecap="round" stroke-linejoin="round"/>
</svg>
