<svg width="25" height="25" viewBox="0 0 25 25" fill="none" xmlns="http://www.w3.org/2000/svg">
<path d="M10.7901 2.68363C10.9736 2.88733 11.1978 3.0502 11.4483 3.16168C11.6988 3.27317 11.9699 3.33077 12.2441 3.33077C12.5182 3.33077 12.7893 3.27317 13.0398 3.16168C13.2903 3.0502 13.5146 2.88733 13.6981 2.68363L14.6441 1.64563C14.9152 1.34557 15.2725 1.13677 15.667 1.04789C16.0616 0.959012 16.4739 0.994404 16.8475 1.14921C17.2211 1.30402 17.5376 1.57066 17.7537 1.91253C17.9697 2.2544 18.0746 2.65475 18.0541 3.05863L17.9831 4.45863C17.9693 4.73174 18.013 5.00469 18.1111 5.25992C18.2093 5.51514 18.3598 5.74696 18.5531 5.94046C18.7463 6.13397 18.9779 6.28485 19.233 6.3834C19.488 6.48194 19.7609 6.52597 20.0341 6.51263L21.4341 6.44163C21.8377 6.42173 22.2376 6.52715 22.579 6.74342C22.9203 6.9597 23.1864 7.27625 23.3409 7.6497C23.4953 8.02315 23.5304 8.43521 23.4415 8.82941C23.3525 9.22362 23.1439 9.58067 22.8441 9.85163L21.8021 10.7916C21.5986 10.9754 21.436 11.1998 21.3247 11.4503C21.2134 11.7009 21.1558 11.972 21.1558 12.2461C21.1558 12.5203 21.2134 12.7914 21.3247 13.0419C21.436 13.2925 21.5986 13.5169 21.8021 13.7006L22.8441 14.6406C23.1441 14.9118 23.3529 15.2691 23.4418 15.6636C23.5307 16.0581 23.4953 16.4705 23.3405 16.8441C23.1857 17.2177 22.919 17.5342 22.5772 17.7502C22.2353 17.9663 21.8349 18.0712 21.4311 18.0506L20.0311 17.9796C19.7573 17.9656 19.4837 18.0091 19.2279 18.1074C18.9721 18.2058 18.7398 18.3567 18.546 18.5505C18.3522 18.7443 18.2012 18.9767 18.1029 19.2325C18.0045 19.4883 17.961 19.7619 17.9751 20.0356L18.0461 21.4356C18.064 21.8375 17.9577 22.2351 17.7418 22.5745C17.5258 22.9139 17.2107 23.1785 16.8391 23.3325C16.4675 23.4866 16.0575 23.5224 15.6648 23.4353C15.272 23.3482 14.9157 23.1423 14.6441 22.8456L13.7031 21.8046C13.5194 21.6012 13.2951 21.4386 13.0446 21.3273C12.7942 21.216 12.5231 21.1585 12.2491 21.1585C11.975 21.1585 11.704 21.216 11.4535 21.3273C11.203 21.4386 10.9787 21.6012 10.7951 21.8046L9.85006 22.8456C9.57887 23.1437 9.22235 23.3509 8.82911 23.439C8.43586 23.527 8.02502 23.4917 7.6526 23.3377C7.28018 23.1838 6.9643 22.9187 6.74803 22.5787C6.53175 22.2387 6.42561 21.8402 6.44406 21.4376L6.51606 20.0376C6.53014 19.7639 6.4866 19.4903 6.38826 19.2345C6.28991 18.9787 6.13896 18.7463 5.94516 18.5525C5.75136 18.3587 5.51903 18.2078 5.26321 18.1094C5.00739 18.0111 4.73377 17.9676 4.46006 17.9816L3.06006 18.0526C2.65634 18.0737 2.256 17.9693 1.914 17.7537C1.57199 17.5382 1.30509 17.2221 1.14994 16.8488C0.99479 16.4754 0.958992 16.0633 1.04746 15.6688C1.13593 15.2743 1.34434 14.9169 1.64406 14.6456L2.68506 13.7056C2.88851 13.5219 3.05114 13.2975 3.16245 13.0469C3.27376 12.7964 3.33127 12.5253 3.33127 12.2511C3.33127 11.977 3.27376 11.7059 3.16245 11.4553C3.05114 11.2048 2.88851 10.9804 2.68506 10.7966L1.64406 9.85163C1.34531 9.58063 1.13754 9.22398 1.04916 8.83043C0.960779 8.43689 0.996095 8.02565 1.15028 7.65293C1.30447 7.28021 1.57 6.9642 1.91058 6.74811C2.25116 6.53201 2.65017 6.42638 3.05306 6.44563L4.45306 6.51663C4.72729 6.53105 5.00148 6.48762 5.25784 6.38917C5.51419 6.29072 5.74697 6.13945 5.94105 5.94518C6.13513 5.7509 6.28618 5.51798 6.38438 5.26153C6.48258 5.00509 6.52574 4.73085 6.51106 4.45663L6.44406 3.05563C6.42516 2.6529 6.53099 2.25414 6.7471 1.91377C6.96321 1.57341 7.27908 1.30801 7.6516 1.1538C8.02412 0.999582 8.43515 0.964063 8.8286 1.05209C9.22205 1.14011 9.57876 1.34739 9.85006 1.64563L10.7901 2.68363Z" stroke="#7D7898" stroke-width="1.5" stroke-linecap="round" stroke-linejoin="round"/>
<path d="M7.74406 12.2466C7.74406 13.4401 8.21817 14.5847 9.06208 15.4286C9.90599 16.2725 11.0506 16.7466 12.2441 16.7466C13.4375 16.7466 14.5821 16.2725 15.426 15.4286C16.27 14.5847 16.7441 13.4401 16.7441 12.2466C16.7441 11.0532 16.27 9.90857 15.426 9.06465C14.5821 8.22074 13.4375 7.74663 12.2441 7.74663C11.0506 7.74663 9.90599 8.22074 9.06208 9.06465C8.21817 9.90857 7.74406 11.0532 7.74406 12.2466Z" stroke="#7D7898" stroke-width="1.5" stroke-linecap="round" stroke-linejoin="round"/>
</svg>
