<svg width="25" height="25" viewBox="0 0 25 25" fill="none" xmlns="http://www.w3.org/2000/svg">
<path d="M16 11.515V5.51502M16 11.515C15.555 11.515 15.12 11.647 14.75 11.8942C14.38 12.1414 14.0916 12.4928 13.9213 12.904C13.751 13.3151 13.7064 13.7675 13.7932 14.204C13.88 14.6404 14.0943 15.0413 14.409 15.356C14.7237 15.6707 15.1246 15.885 15.561 15.9718C15.9975 16.0586 16.4499 16.014 16.861 15.8437C17.2722 15.6734 17.6236 15.3851 17.8708 15.015C18.118 14.645 18.25 14.21 18.25 13.765C18.25 13.1683 18.0129 12.596 17.591 12.174C17.169 11.7521 16.5967 11.515 16 11.515ZM16 19.015V16.015M8.5 10.015V19.015M8.5 10.015C8.05499 10.015 7.61998 9.88306 7.24997 9.63582C6.87996 9.38859 6.59157 9.03719 6.42127 8.62605C6.25097 8.21492 6.20642 7.76252 6.29323 7.32606C6.38005 6.8896 6.59434 6.48869 6.90901 6.17402C7.22368 5.85936 7.62459 5.64507 8.06105 5.55825C8.4975 5.47143 8.9499 5.51599 9.36104 5.68629C9.77217 5.85658 10.1236 6.14497 10.3708 6.51498C10.618 6.88499 10.75 7.32001 10.75 7.76501C10.75 8.36175 10.5129 8.93405 10.091 9.35601C9.66903 9.77796 9.09674 10.015 8.5 10.015ZM2.5 1.00002H22C22.8284 1.00002 23.5 1.67159 23.5 2.50002V22C23.5 22.8284 22.8284 23.5 22 23.5H2.5C1.67157 23.5 1 22.8284 1 22V2.50002C1 1.67159 1.67157 1.00002 2.5 1.00002Z" stroke="#7D7898" stroke-width="1.5" stroke-linecap="round" stroke-linejoin="round"/>
</svg>
