<svg width="24" height="24" viewBox="0 0 24 24" fill="none" xmlns="http://www.w3.org/2000/svg">
<path d="M9.246 9.64098L15.754 7.10998M9.105 12.678L15.895 16.073M2 11C2 11.9945 2.39509 12.9484 3.09835 13.6516C3.80161 14.3549 4.75544 14.75 5.75 14.75C6.74456 14.75 7.69839 14.3549 8.40165 13.6516C9.10491 12.9484 9.5 11.9945 9.5 11C9.5 10.0054 9.10491 9.0516 8.40165 8.34833C7.69839 7.64507 6.74456 7.24998 5.75 7.24998C4.75544 7.24998 3.80161 7.64507 3.09835 8.34833C2.39509 9.0516 2 10.0054 2 11ZM15.5 5.74998C15.5 6.74455 15.8951 7.69837 16.5983 8.40164C17.3016 9.1049 18.2554 9.49998 19.25 9.49998C20.2446 9.49998 21.1984 9.1049 21.9017 8.40164C22.6049 7.69837 23 6.74455 23 5.74998C23 4.75542 22.6049 3.8016 21.9017 3.09833C21.1984 2.39507 20.2446 1.99998 19.25 1.99998C18.2554 1.99998 17.3016 2.39507 16.5983 3.09833C15.8951 3.8016 15.5 4.75542 15.5 5.74998ZM15.5 17.75C15.5 18.7445 15.8951 19.6984 16.5983 20.4016C17.3016 21.1049 18.2554 21.5 19.25 21.5C20.2446 21.5 21.1984 21.1049 21.9017 20.4016C22.6049 19.6984 23 18.7445 23 17.75C23 16.7554 22.6049 15.8016 21.9017 15.0983C21.1984 14.3951 20.2446 14 19.25 14C18.2554 14 17.3016 14.3951 16.5983 15.0983C15.8951 15.8016 15.5 16.7554 15.5 17.75Z" stroke="#7D7898" stroke-width="1.5" stroke-linecap="round" stroke-linejoin="round"/>
</svg>
