<svg width="25" height="24" viewBox="0 0 25 24" fill="none" xmlns="http://www.w3.org/2000/svg">
<path d="M14.269 3.944L10.334 9.194C10.2467 9.31043 10.1354 9.40674 10.0076 9.4764C9.87979 9.54607 9.73854 9.58748 9.59337 9.59781C9.4482 9.60815 9.3025 9.58717 9.16614 9.53631C9.02978 9.48545 8.90594 9.40588 8.803 9.303L6.769 7.269M1 6.937L3.329 14.824C3.41428 15.1434 3.60267 15.4256 3.86488 15.6269C4.12709 15.8282 4.44845 15.9372 4.779 15.937H15.597C15.9281 15.9378 16.2501 15.8291 16.5129 15.6278C16.7758 15.4265 16.9646 15.1439 17.05 14.824L20.288 2.67C20.4156 2.19094 20.698 1.76749 21.0911 1.46547C21.4843 1.16346 21.9662 0.999822 22.462 1H23.5M4.75 20.812C4.75 21.3093 4.94754 21.7862 5.29917 22.1378C5.65081 22.4895 6.12772 22.687 6.625 22.687C7.12228 22.687 7.59919 22.4895 7.95083 22.1378C8.30246 21.7862 8.5 21.3093 8.5 20.812C8.5 20.3147 8.30246 19.8378 7.95083 19.4862C7.59919 19.1345 7.12228 18.937 6.625 18.937C6.12772 18.937 5.65081 19.1345 5.29917 19.4862C4.94754 19.8378 4.75 20.3147 4.75 20.812ZM12.25 20.812C12.25 21.3093 12.4475 21.7862 12.7992 22.1378C13.1508 22.4895 13.6277 22.687 14.125 22.687C14.6223 22.687 15.0992 22.4895 15.4508 22.1378C15.8025 21.7862 16 21.3093 16 20.812C16 20.3147 15.8025 19.8378 15.4508 19.4862C15.0992 19.1345 14.6223 18.937 14.125 18.937C13.6277 18.937 13.1508 19.1345 12.7992 19.4862C12.4475 19.8378 12.25 20.3147 12.25 20.812Z" stroke="#7D7898" stroke-width="1.5" stroke-linecap="round" stroke-linejoin="round"/>
</svg>
