<svg width="26" height="24" viewBox="0 0 26 24" fill="none" xmlns="http://www.w3.org/2000/svg">
<path d="M5 8.5L8 2.5M21 8.5L18 2.5M12.5 14.5V18M17 14.5L16.5 18M8 14.5L8.5 18M23 11.5H3L4.7 20.007C4.80662 20.4442 5.06062 20.8314 5.41924 21.1033C5.77786 21.3753 6.2192 21.5153 6.669 21.5H19.331C19.7808 21.5153 20.2221 21.3753 20.5808 21.1033C20.9394 20.8314 21.1934 20.4442 21.3 20.007L23 11.5ZM2.5 8.5H23.5C23.5 8.5 24.5 8.5 24.5 9.5V10.5C24.5 10.5 24.5 11.5 23.5 11.5H2.5C2.5 11.5 1.5 11.5 1.5 10.5V9.5C1.5 9.5 1.5 8.5 2.5 8.5Z" stroke="#7D7898" stroke-width="1.5" stroke-linecap="round" stroke-linejoin="round"/>
</svg>
