<svg width="25" height="25" viewBox="0 0 25 25" fill="none" xmlns="http://www.w3.org/2000/svg">
<path d="M18.97 15.583C19.1539 15.2119 19.0021 14.7619 18.631 14.578C18.2599 14.3941 17.8099 14.5459 17.626 14.917L18.97 15.583ZM15.8081 17.9894L16.2035 18.6267L16.2036 18.6267L15.8081 17.9894ZM8.68793 17.9894L8.29245 18.6267L8.2925 18.6267L8.68793 17.9894ZM6.87003 14.917C6.68613 14.5459 6.23617 14.3941 5.86502 14.578C5.49387 14.7619 5.34207 15.2118 5.52597 15.583L6.87003 14.917ZM12.25 24.25C18.8774 24.25 24.25 18.8774 24.25 12.25H22.75C22.75 18.049 18.049 22.75 12.25 22.75V24.25ZM24.25 12.25C24.25 5.6226 18.8774 0.250015 12.25 0.250015V1.75002C18.049 1.75002 22.75 6.45103 22.75 12.25H24.25ZM12.25 0.250015C5.62259 0.250015 0.25 5.6226 0.25 12.25H1.75C1.75 6.45103 6.45101 1.75002 12.25 1.75002V0.250015ZM0.25 12.25C0.25 18.8774 5.62259 24.25 12.25 24.25V22.75C6.45101 22.75 1.75 18.049 1.75 12.25H0.25ZM8.5 8.87502C8.7071 8.87502 8.875 9.04291 8.875 9.25002H7.375C7.375 9.87134 7.87868 10.375 8.5 10.375V8.87502ZM8.875 9.25002C8.875 9.45712 8.7071 9.62502 8.5 9.62502V8.12502C7.87868 8.12502 7.375 8.62869 7.375 9.25002H8.875ZM8.5 10.375C9.12132 10.375 9.625 9.87134 9.625 9.25002H8.125C8.125 9.04291 8.2929 8.87502 8.5 8.87502V10.375ZM9.625 9.25002C9.625 8.62869 9.12132 8.12502 8.5 8.12502V9.62502C8.2929 9.62502 8.125 9.45712 8.125 9.25002H9.625ZM16 8.87502C16.2071 8.87502 16.375 9.0429 16.375 9.25002H14.875C14.875 9.87135 15.3787 10.375 16 10.375V8.87502ZM16.375 9.25002C16.375 9.45713 16.2071 9.62502 16 9.62502V8.12502C15.3787 8.12502 14.875 8.62868 14.875 9.25002H16.375ZM16 10.375C16.6213 10.375 17.125 9.87135 17.125 9.25002H15.625C15.625 9.0429 15.7929 8.87502 16 8.87502V10.375ZM17.125 9.25002C17.125 8.62868 16.6213 8.12502 16 8.12502V9.62502C15.7929 9.62502 15.625 9.45713 15.625 9.25002H17.125ZM17.626 14.917C17.1294 15.9191 16.3628 16.7624 15.4126 17.3522L16.2036 18.6267C17.3912 17.8896 18.3494 16.8355 18.97 15.583L17.626 14.917ZM15.4127 17.3521C14.4624 17.9418 13.3663 18.2542 12.248 18.2542V19.7542C13.6459 19.7542 15.0158 19.3637 16.2035 18.6267L15.4127 17.3521ZM12.248 18.2542C11.1297 18.2542 10.0336 17.9418 9.08336 17.3521L8.2925 18.6267C9.4802 19.3637 10.8501 19.7542 12.248 19.7542V18.2542ZM9.08341 17.3522C8.13313 16.7624 7.36653 15.9191 6.87003 14.917L5.52597 15.583C6.14659 16.8355 7.10479 17.8896 8.29245 18.6267L9.08341 17.3522Z" fill="#7D7898"/>
</svg>
