<svg width="24" height="24" viewBox="0 0 24 24" fill="none" xmlns="http://www.w3.org/2000/svg">
<path d="M2.25 9.74805H11.25M2.25 15.748V5.24805C2.25 4.05457 2.72411 2.90998 3.56802 2.06607C4.41193 1.22215 5.55653 0.748047 6.75 0.748047C7.94347 0.748047 9.08807 1.22215 9.93198 2.06607C10.7759 2.90998 11.25 4.05457 11.25 5.24805V15.748M9.22 20.028L12.22 23.028C12.2896 23.0977 12.3722 23.153 12.4631 23.1907C12.5541 23.2284 12.6516 23.2478 12.75 23.2478C12.8484 23.2478 12.9459 23.2284 13.0369 23.1907C13.1278 23.153 13.2104 23.0977 13.28 23.028L21.75 14.558V14.472" stroke="#7D7898" stroke-width="1.5" stroke-linecap="round" stroke-linejoin="round"/>
</svg>
