<svg width="24" height="24" viewBox="0 0 24 24" fill="none" xmlns="http://www.w3.org/2000/svg">
<path d="M13.563 15.75C14.3466 15.6418 15.1008 15.3791 15.782 14.977L20.689 19.883C20.9719 20.1562 21.3508 20.3074 21.7441 20.304C22.1374 20.3006 22.5136 20.1428 22.7917 19.8647C23.0698 19.5866 23.2276 19.2104 23.231 18.8171C23.2344 18.4238 23.0832 18.0449 22.81 17.762L17.9 12.856C18.5736 11.715 18.8506 10.3831 18.6878 9.06808C18.5249 7.75309 17.9313 6.529 16.9996 5.58682C16.068 4.64464 14.8506 4.03736 13.5375 3.85975C12.2244 3.68214 10.8895 3.94419 9.741 4.605M6.75 7.557C5.92157 7.557 5.25 8.22857 5.25 9.057C5.25 9.88543 5.92157 10.557 6.75 10.557C7.57843 10.557 8.25 9.88543 8.25 9.057C8.25 8.22857 7.57843 7.557 6.75 7.557ZM6.75 7.557V3C6.75 2.40326 6.98705 1.83097 7.40901 1.40901C7.83097 0.987053 8.40326 0.75 9 0.75C9.59674 0.75 10.169 0.987053 10.591 1.40901C11.0129 1.83097 11.25 2.40326 11.25 3V3.989M12.75 9.807C12.7497 8.68486 12.4348 7.58529 11.8409 6.63318C11.247 5.68107 10.3981 4.91457 9.39043 4.42075C8.38279 3.92693 7.25687 3.72558 6.14053 3.83956C5.0242 3.95354 3.9622 4.3783 3.07516 5.06558C2.18812 5.75285 1.51159 6.67511 1.12241 7.7276C0.733232 8.78009 0.647 9.92062 0.87351 11.0197C1.10002 12.1187 1.63019 13.1322 2.40381 13.945C3.17744 14.7579 4.1635 15.3375 5.25 15.618V21.754C5.25 22.1518 5.40804 22.5334 5.68934 22.8147C5.97065 23.096 6.35218 23.254 6.75 23.254C7.14783 23.254 7.52936 23.096 7.81066 22.8147C8.09197 22.5334 8.25 22.1518 8.25 21.754V15.618C9.53819 15.2854 10.6793 14.5341 11.4939 13.4822C12.3085 12.4303 12.7503 11.1374 12.75 9.807Z" stroke="#7D7898" stroke-width="1.5" stroke-linecap="round" stroke-linejoin="round"/>
</svg>
