<svg width="24" height="24" viewBox="0 0 24 24" fill="none" xmlns="http://www.w3.org/2000/svg">
<path d="M12.7288 1.19999L16.0748 7.82899L22.5148 8.46699C22.6681 8.47973 22.8146 8.53613 22.9368 8.62952C23.0591 8.72291 23.152 8.84937 23.2046 8.99394C23.2572 9.13851 23.2673 9.29512 23.2337 9.44524C23.2 9.59536 23.1241 9.73269 23.0148 9.84099L17.7148 15.094L19.6798 22.232C19.72 22.3834 19.7156 22.5432 19.6672 22.6921C19.6187 22.8411 19.5282 22.9729 19.4066 23.0717C19.2851 23.1704 19.1375 23.232 18.9818 23.2489C18.8261 23.2658 18.6688 23.2374 18.5288 23.167L11.9998 19.934L5.4798 23.163C5.33985 23.2334 5.18255 23.2618 5.02681 23.2449C4.87108 23.228 4.72354 23.1664 4.60196 23.0677C4.48037 22.9689 4.38991 22.8371 4.34145 22.6881C4.29299 22.5392 4.2886 22.3794 4.3288 22.228L6.2938 15.09L0.9898 9.83699C0.880532 9.72869 0.804582 9.59136 0.770944 9.44124C0.737306 9.29112 0.747388 9.13451 0.799996 8.98994C0.852603 8.84537 0.945534 8.71891 1.06779 8.62552C1.19004 8.53213 1.33649 8.47573 1.4898 8.46299L7.9298 7.82499L11.2708 1.19999C11.3395 1.06579 11.4439 0.953157 11.5726 0.874508C11.7012 0.795859 11.849 0.754242 11.9998 0.754242C12.1506 0.754242 12.2984 0.795859 12.427 0.874508C12.5557 0.953157 12.6601 1.06579 12.7288 1.19999Z" stroke="#7D7898" stroke-width="1.5" stroke-linecap="round" stroke-linejoin="round"/>
</svg>
