<svg width="24" height="24" viewBox="0 0 24 24" fill="none" xmlns="http://www.w3.org/2000/svg">
<path d="M16.62 12.277L22.852 4.02401C23.0184 3.79757 23.1362 3.53916 23.1979 3.26503C23.2597 2.99089 23.2641 2.70694 23.2108 2.43102C23.1576 2.15511 23.0478 1.89319 22.8885 1.66171C22.7292 1.43024 22.5237 1.23421 22.285 1.08595C22.0463 0.937687 21.7795 0.840394 21.5014 0.800181C21.2233 0.759968 20.9398 0.777704 20.6689 0.852275C20.398 0.926847 20.1454 1.05664 19.927 1.23351C19.7087 1.41037 19.5292 1.63048 19.4 1.88001L14.871 11M13.5 5.22401H3.75C2.95435 5.22401 2.19129 5.54009 1.62868 6.10269C1.06607 6.6653 0.75 7.42837 0.75 8.22401V20.224C0.75 21.0197 1.06607 21.7827 1.62868 22.3453C2.19129 22.9079 2.95435 23.224 3.75 23.224H15.75C16.5456 23.224 17.3087 22.9079 17.8713 22.3453C18.4339 21.7827 18.75 21.0197 18.75 20.224V18.724M10.644 17.865C12.233 15.965 10.744 13.527 12.157 11.884C12.3905 11.6 12.6783 11.3656 13.0037 11.1944C13.3291 11.0233 13.6853 10.9189 14.0516 10.8874C14.4179 10.8558 14.7868 10.8978 15.1366 11.0109C15.4864 11.1239 15.8101 11.3058 16.0886 11.5457C16.3672 11.7856 16.595 12.0787 16.7587 12.4079C16.9223 12.7371 17.0186 13.0957 17.0417 13.4626C17.0648 13.8295 17.0144 14.1973 16.8934 14.5444C16.7724 14.8916 16.5832 15.211 16.337 15.484C15.6593 16.3211 14.7844 16.9768 13.7907 17.3924C12.7971 17.808 11.7159 17.9704 10.644 17.865Z" stroke="#7D7898" stroke-width="1.5" stroke-linecap="round" stroke-linejoin="round"/>
</svg>
