<svg width="24" height="24" viewBox="0 0 24 24" fill="none" xmlns="http://www.w3.org/2000/svg">
<path d="M8.25 8.183V10.25M15.75 8.183V10.25M6 13.2C6.60549 14.1747 7.46404 14.9669 8.48419 15.4922C9.50434 16.0175 10.6479 16.2563 11.793 16.183C12.9885 16.204 14.1724 15.9452 15.2501 15.4273C16.3278 14.9094 17.2695 14.1466 18 13.2M1.75 3H22.25C22.8023 3 23.25 3.44772 23.25 4V20C23.25 20.5523 22.8023 21 22.25 21H1.75C1.19772 21 0.75 20.5523 0.75 20V4C0.75 3.44772 1.19772 3 1.75 3Z" stroke="#7D7898" stroke-width="1.5" stroke-linecap="round" stroke-linejoin="round"/>
</svg>
