<svg width="25" height="25" viewBox="0 0 25 25" fill="none" xmlns="http://www.w3.org/2000/svg">
<path d="M16.75 1L14.5 3.25L16.75 5.5M19 7.75L21.25 10M21.25 10L23.5 7.75M21.25 10V8.31C21.2513 7.64467 21.1214 6.98561 20.8677 6.37055C20.614 5.75549 20.2415 5.1965 19.7715 4.72557C19.3015 4.25465 18.7433 3.88104 18.1287 3.62612C17.5141 3.37121 16.8553 3.24 16.19 3.24H14.5M12.5 10.98H17.5C17.7652 10.98 18.0196 11.0854 18.2071 11.2729C18.3946 11.4604 18.5 11.7148 18.5 11.98V22.49C18.5 22.7552 18.3946 23.0096 18.2071 23.1971C18.0196 23.3846 17.7652 23.49 17.5 23.49H7C6.73478 23.49 6.48043 23.3846 6.29289 23.1971C6.10536 23.0096 6 22.7552 6 22.49V16.49M12.49 14.24H14.75C14.8826 14.24 15.0098 14.2927 15.1036 14.3864C15.1973 14.4802 15.25 14.6074 15.25 14.74V19.74C15.25 19.8726 15.1973 19.9998 15.1036 20.0936C15.0098 20.1873 14.8826 20.24 14.75 20.24H9.75C9.61739 20.24 9.49021 20.1873 9.39645 20.0936C9.30268 19.9998 9.25 19.8726 9.25 19.74V16.48M2 4.98H11.5C12.0523 4.98 12.5 5.42771 12.5 5.98V15.48C12.5 16.0323 12.0523 16.48 11.5 16.48H2C1.44772 16.48 1 16.0323 1 15.48V5.98C1 5.42771 1.44772 4.98 2 4.98Z" stroke="#7D7898" stroke-width="1.5" stroke-linecap="round" stroke-linejoin="round"/>
</svg>
