<svg width="24" height="24" viewBox="0 0 24 24" fill="none" xmlns="http://www.w3.org/2000/svg">
<path d="M18.71 5C17.495 3.64075 15.8958 2.68256 14.1242 2.25226C12.3526 1.82196 10.4921 1.93985 8.78892 2.59031C7.08578 3.24078 5.62035 4.39315 4.58661 5.89488C3.55288 7.39661 2.99959 9.17687 3 11V11.75M3 11.75L5.25 9.5M3 11.75L0.75 9.5M5.29 19C6.50501 20.3592 8.10417 21.3174 9.87579 21.7477C11.6474 22.178 13.5079 22.0601 15.2111 21.4097C16.9142 20.7592 18.3797 19.6068 19.4134 18.1051C20.4471 16.6034 21.0004 14.8231 21 13V12.25M21 12.25L18.75 14.5M21 12.25L23.25 14.5M9.75 10.25H14.25M9.75 10.25C8.92157 10.25 8.25 10.9216 8.25 11.75V14.75C8.25 15.5784 8.92157 16.25 9.75 16.25H14.25C15.0784 16.25 15.75 15.5784 15.75 14.75V11.75C15.75 10.9216 15.0784 10.25 14.25 10.25M9.75 10.25V8.5C9.75 7.90326 9.98705 7.33096 10.409 6.90901C10.831 6.48705 11.4033 6.25 12 6.25C12.5967 6.25 13.169 6.48705 13.591 6.90901C14.0129 7.33096 14.25 7.90326 14.25 8.5V10.25" stroke="#7D7898" stroke-width="1.5" stroke-linecap="round" stroke-linejoin="round"/>
</svg>
