<svg width="24" height="24" viewBox="0 0 24 24" fill="none" xmlns="http://www.w3.org/2000/svg">
<path d="M1 2.5V8.757C0.999905 9.55244 1.31572 10.3154 1.878 10.878L13.439 22.44C13.7203 22.7212 14.1018 22.8792 14.4995 22.8792C14.8972 22.8792 15.2787 22.7212 15.56 22.44L22.439 15.56C22.7202 15.2787 22.8782 14.8972 22.8782 14.4995C22.8782 14.1018 22.7202 13.7203 22.439 13.439L10.878 1.878C10.3154 1.31572 9.55244 0.999905 8.757 1H2.5C2.10218 1 1.72064 1.15804 1.43934 1.43934C1.15804 1.72064 1 2.10218 1 2.5Z" stroke="#7D7898" stroke-width="1.5" stroke-linecap="round" stroke-linejoin="round"/>
<path d="M4.75 6.25C4.75 6.44698 4.7888 6.64204 4.86418 6.82403C4.93956 7.00601 5.05005 7.17137 5.18934 7.31066C5.32863 7.44995 5.49399 7.56044 5.67597 7.63582C5.85796 7.7112 6.05302 7.75 6.25 7.75C6.44698 7.75 6.64204 7.7112 6.82403 7.63582C7.00601 7.56044 7.17137 7.44995 7.31066 7.31066C7.44995 7.17137 7.56044 7.00601 7.63582 6.82403C7.7112 6.64204 7.75 6.44698 7.75 6.25C7.75 6.05302 7.7112 5.85796 7.63582 5.67597C7.56044 5.49399 7.44995 5.32863 7.31066 5.18934C7.17137 5.05005 7.00601 4.93956 6.82403 4.86418C6.64204 4.7888 6.44698 4.75 6.25 4.75C6.05302 4.75 5.85796 4.7888 5.67597 4.86418C5.49399 4.93956 5.32863 5.05005 5.18934 5.18934C5.05005 5.32863 4.93956 5.49399 4.86418 5.67597C4.7888 5.85796 4.75 6.05302 4.75 6.25Z" stroke="#7D7898" stroke-width="1.5" stroke-linecap="round" stroke-linejoin="round"/>
</svg>
