<svg width="24" height="24" viewBox="0 0 24 24" fill="none" xmlns="http://www.w3.org/2000/svg">
<path d="M5.3009 3.35926L11.9889 21.9423L18.6759 3.35926M1.1499 9.19226H22.8229M7.4889 9.19226L11.9889 3.19226L16.4889 9.19226M19.1889 3.79226C19.0492 3.60597 18.868 3.45476 18.6597 3.35062C18.4514 3.24648 18.2218 3.19226 17.9889 3.19226H5.9889C5.75604 3.19226 5.52637 3.24648 5.31808 3.35062C5.1098 3.45476 4.92862 3.60597 4.7889 3.79226L1.4519 8.24326C1.24939 8.51345 1.14396 8.84406 1.15267 9.1816C1.16138 9.51915 1.28372 9.84388 1.4999 10.1033L10.8379 21.4033C10.9787 21.5714 11.1546 21.7066 11.3533 21.7993C11.552 21.8921 11.7686 21.9402 11.9879 21.9402C12.2072 21.9402 12.4238 21.8921 12.6225 21.7993C12.8212 21.7066 12.9971 21.5714 13.1379 21.4033L22.4759 10.1033C22.6921 9.84388 22.8144 9.51915 22.8231 9.1816C22.8318 8.84406 22.7264 8.51345 22.5239 8.24326L19.1889 3.79226Z" stroke="#7D7898" stroke-width="1.5" stroke-linecap="round" stroke-linejoin="round"/>
</svg>
