<svg width="24" height="24" viewBox="0 0 24 24" fill="none" xmlns="http://www.w3.org/2000/svg">
<path d="M8.25 8.99999V7.87299C8.25079 7.77396 8.29062 7.67924 8.36083 7.6094C8.43104 7.53956 8.52597 7.50025 8.625 7.49999H15.375C15.4744 7.50025 15.5696 7.53984 15.6399 7.61011C15.7101 7.68038 15.7497 7.77561 15.75 7.87499V8.99999M12 7.49799V16.498M10.875 16.498H13.125M3 15.748V8.24799M21 15.748V8.24799M8.25 2.99799H15.75M8.25 20.998H15.75M0.75 0.747986H5.25V5.24799H0.75V0.747986ZM0.75 18.748H5.25V23.248H0.75V18.748ZM18.75 0.747986H23.25V5.24799H18.75V0.747986ZM18.75 18.748H23.25V23.248H18.75V18.748Z" stroke="#7D7898" stroke-width="1.5" stroke-linecap="round" stroke-linejoin="round"/>
</svg>
