<svg width="24" height="25" viewBox="0 0 24 25" fill="none" xmlns="http://www.w3.org/2000/svg">
<path d="M5.977 8.5H19.023M19.048 23.397C17.764 20.701 15.313 18.25 12.5 18.25C9.687 18.25 7.236 20.701 5.952 23.397M6.5 1C6.10218 1 5.72064 1.15804 5.43934 1.43934C5.15804 1.72064 5 2.10218 5 2.5V4.867C5 6.85612 5.79018 8.76378 7.1967 10.1703C8.60322 11.5768 10.5109 12.367 12.5 12.367C14.4891 12.367 16.3968 11.5768 17.8033 10.1703C19.2098 8.76378 20 6.85612 20 4.867V2.5C20 2.10218 19.842 1.72064 19.5607 1.43934C19.2794 1.15804 18.8978 1 18.5 1H6.5ZM6.5 23.5C6.10218 23.5 5.72064 23.342 5.43934 23.0607C5.15804 22.7794 5 22.3978 5 22V19.633C5 17.6439 5.79018 15.7362 7.1967 14.3297C8.60322 12.9232 10.5109 12.133 12.5 12.133C14.4891 12.133 16.3968 12.9232 17.8033 14.3297C19.2098 15.7362 20 17.6439 20 19.633V22C20 22.3978 19.842 22.7794 19.5607 23.0607C19.2794 23.342 18.8978 23.5 18.5 23.5H6.5Z" stroke="#7D7898" stroke-width="1.5" stroke-linecap="round" stroke-linejoin="round"/>
</svg>
