<svg width="24" height="24" viewBox="0 0 24 24" fill="none" xmlns="http://www.w3.org/2000/svg">
<path d="M19.65 0.75L15.9 3L18.15 6.75M23.25 8.19C22.7477 6.80004 21.8017 5.61408 20.5583 4.81523C19.3148 4.01639 17.843 3.64907 16.37 3.77M4.35 23.25L8.1 21L5.85 17.25M0.75 15.81C1.25234 17.2 2.19825 18.3859 3.44171 19.1848C4.68516 19.9836 6.157 20.3509 7.63 20.23M15.75 11.25H21.75C22.1478 11.25 22.5294 11.408 22.8107 11.6893C23.092 11.9706 23.25 12.3522 23.25 12.75V21.75C23.25 22.1478 23.092 22.5294 22.8107 22.8107C22.5294 23.092 22.1478 23.25 21.75 23.25H12.75C12.3522 23.25 11.9706 23.092 11.6893 22.8107C11.408 22.5294 11.25 22.1478 11.25 21.75V15.75M15.5 18H19M6.75 3.75V5.25M3.75 5.25H9.75M8.25 5.25C8.25 5.25 6.75 9.75 3.75 9.75M6.75 8C7.08416 8.49886 7.52845 8.9143 8.0486 9.21425C8.56875 9.5142 9.15085 9.69066 9.75 9.73M15.5 20.25V16.25C15.5 15.7859 15.6844 15.3408 16.0126 15.0126C16.3408 14.6844 16.7859 14.5 17.25 14.5C17.7141 14.5 18.1592 14.6844 18.4874 15.0126C18.8156 15.3408 19 15.7859 19 16.25V20.25M2.25 0.75H11.25C11.25 0.75 12.75 0.75 12.75 2.25V11.25C12.75 11.25 12.75 12.75 11.25 12.75H2.25C2.25 12.75 0.75 12.75 0.75 11.25V2.25C0.75 2.25 0.75 0.75 2.25 0.75Z" stroke="#7D7898" stroke-width="1.5" stroke-linecap="round" stroke-linejoin="round"/>
</svg>
