<svg width="24" height="25" viewBox="0 0 24 25" fill="none" xmlns="http://www.w3.org/2000/svg">
<path d="M11.9388 23.5L1.21975 12.78C1.15009 12.7104 1.09482 12.6278 1.05712 12.5369C1.01941 12.4459 1 12.3484 1 12.25C1 12.1516 1.01941 12.0541 1.05712 11.9631C1.09482 11.8722 1.15009 11.7896 1.21975 11.72L11.9388 1M23.1888 23.5L12.4698 12.78C12.4001 12.7104 12.3448 12.6278 12.3071 12.5369C12.2694 12.4459 12.25 12.3484 12.25 12.25C12.25 12.1516 12.2694 12.0541 12.3071 11.9631C12.3448 11.8722 12.4001 11.7896 12.4698 11.72L23.1888 1" stroke="#7D7898" stroke-width="1.5" stroke-linecap="round" stroke-linejoin="round"/>
</svg>
