<svg width="24" height="25" viewBox="0 0 24 25" fill="none" xmlns="http://www.w3.org/2000/svg">
<path d="M23.25 12.13H17.75C17.5511 12.13 17.3603 12.209 17.2197 12.3497C17.079 12.4903 17 12.6811 17 12.88V17.13H7V12.88C7 12.6811 6.92098 12.4903 6.78033 12.3497C6.63968 12.209 6.44891 12.13 6.25 12.13H0.75C0.551088 12.13 0.360322 12.209 0.21967 12.3497C0.0790176 12.4903 0 12.6811 0 12.88V23.38C0.00258996 23.5781 0.0824391 23.7674 0.222534 23.9075C0.362629 24.0476 0.551893 24.1274 0.75 24.13H23.25C23.4481 24.1274 23.6374 24.0476 23.7775 23.9075C23.9176 23.7674 23.9974 23.5781 24 23.38V12.88C24 12.6811 23.921 12.4903 23.7803 12.3497C23.6397 12.209 23.4489 12.13 23.25 12.13Z" fill="#7D7898"/>
<path d="M7.5 0.130005H16.5C16.5 0.130005 17 0.130005 17 0.630005V7.63C17 7.63 17 8.13 16.5 8.13H7.5C7.5 8.13 7 8.13 7 7.63V0.630005C7 0.630005 7 0.130005 7.5 0.130005Z" fill="#7D7898"/>
</svg>
