<svg width="25" height="25" viewBox="0 0 25 25" fill="none" xmlns="http://www.w3.org/2000/svg">
<path d="M1.14209 19.3233V22.3233C1.14209 22.7211 1.30013 23.1027 1.58143 23.384C1.86273 23.6653 2.24427 23.8233 2.64209 23.8233H5.64209M1.14209 5.8233V2.8233C1.14209 2.42548 1.30013 2.04395 1.58143 1.76264C1.86273 1.48134 2.24427 1.3233 2.64209 1.3233H5.64209M1.14209 14.8233V10.3233M23.6421 19.3233V22.3233C23.6421 22.7211 23.4841 23.1027 23.2027 23.384C22.9214 23.6653 22.5399 23.8233 22.1421 23.8233H19.1421M23.6421 5.8233V2.8233C23.6421 2.42548 23.4841 2.04395 23.2027 1.76264C22.9214 1.48134 22.5399 1.3233 22.1421 1.3233H19.1421M23.6421 14.8233V10.3233M14.6421 1.3233H10.1421M14.6421 23.8233H10.1421M12.3921 18.5733V6.5733M12.3921 6.5733L7.89209 11.0733M12.3921 6.5733L16.8921 11.0733" stroke="#7D7898" stroke-width="1.5" stroke-linecap="round" stroke-linejoin="round"/>
</svg>
