<svg width="24" height="24" viewBox="0 0 24 24" fill="none" xmlns="http://www.w3.org/2000/svg">
<path d="M7 11.34C6.94138 11.2132 6.91788 11.073 6.93195 10.9341C6.94602 10.7951 6.99715 10.6625 7.08 10.55L11.57 4.55C11.6409 4.45797 11.7317 4.38318 11.8356 4.33123C11.9395 4.27927 12.0538 4.2515 12.17 4.25C12.2881 4.2523 12.4041 4.28248 12.5084 4.33809C12.6126 4.3937 12.7023 4.47316 12.77 4.57L17.02 10.57C17.0907 10.686 17.128 10.8192 17.128 10.955C17.128 11.0908 17.0907 11.224 17.02 11.34C16.9588 11.4628 16.8647 11.5662 16.7481 11.6386C16.6316 11.711 16.4972 11.7496 16.36 11.75H13.89C13.8237 11.75 13.7601 11.7763 13.7132 11.8232C13.6663 11.8701 13.64 11.9337 13.64 12V17.5C13.64 17.8978 13.482 18.2794 13.2007 18.5607C12.9194 18.842 12.5378 19 12.14 19C11.7422 19 11.3606 18.842 11.0793 18.5607C10.798 18.2794 10.64 17.8978 10.64 17.5V12C10.64 11.9337 10.6137 11.8701 10.5668 11.8232C10.5199 11.7763 10.4563 11.75 10.39 11.75H7.65C7.515 11.7456 7.38361 11.7053 7.26936 11.6332C7.15511 11.5611 7.06213 11.4599 7 11.34Z" fill="#7D7898"/>
<path d="M17.23 22H16.23C15.9648 22 15.7104 22.1054 15.5229 22.2929C15.3354 22.4804 15.23 22.7348 15.23 23C15.23 23.2652 15.3354 23.5196 15.5229 23.7071C15.7104 23.8946 15.9648 24 16.23 24H17.23C17.4952 24 17.7496 23.8946 17.9371 23.7071C18.1246 23.5196 18.23 23.2652 18.23 23C18.23 22.7348 18.1246 22.4804 17.9371 22.2929C17.7496 22.1054 17.4952 22 17.23 22Z" fill="#7D7898"/>
<path d="M6.77 24H7.77C8.03522 24 8.28957 23.8946 8.47711 23.7071C8.66464 23.5196 8.77 23.2652 8.77 23C8.77 22.7348 8.66464 22.4804 8.47711 22.2929C8.28957 22.1054 8.03522 22 7.77 22H6.77C6.50478 22 6.25043 22.1054 6.06289 22.2929C5.87536 22.4804 5.77 22.7348 5.77 23C5.77 23.2652 5.87536 23.5196 6.06289 23.7071C6.25043 23.8946 6.50478 24 6.77 24Z" fill="#7D7898"/>
<path d="M11.52 22C11.2548 22 11.0004 22.1054 10.8129 22.2929C10.6254 22.4804 10.52 22.7348 10.52 23C10.52 23.2652 10.6254 23.5196 10.8129 23.7071C11.0004 23.8946 11.2548 24 11.52 24H12.52C12.7852 24 13.0396 23.8946 13.2271 23.7071C13.4146 23.5196 13.52 23.2652 13.52 23C13.52 22.7348 13.4146 22.4804 13.2271 22.2929C13.0396 22.1054 12.7852 22 12.52 22H11.52Z" fill="#7D7898"/>
<path d="M17.27 0H16.27C16.0048 0 15.7504 0.105357 15.5629 0.292893C15.3754 0.48043 15.27 0.734784 15.27 1C15.27 1.26522 15.3754 1.51957 15.5629 1.70711C15.7504 1.89464 16.0048 2 16.27 2H17.27C17.5352 2 17.7896 1.89464 17.9771 1.70711C18.1646 1.51957 18.27 1.26522 18.27 1C18.27 0.734784 18.1646 0.48043 17.9771 0.292893C17.7896 0.105357 17.5352 0 17.27 0Z" fill="#7D7898"/>
<path d="M7.77 0H6.77C6.50478 0 6.25043 0.105357 6.06289 0.292893C5.87536 0.48043 5.77 0.734784 5.77 1C5.77 1.26522 5.87536 1.51957 6.06289 1.70711C6.25043 1.89464 6.50478 2 6.77 2H7.77C8.03522 2 8.28957 1.89464 8.47711 1.70711C8.66464 1.51957 8.77 1.26522 8.77 1C8.77 0.734784 8.66464 0.48043 8.47711 0.292893C8.28957 0.105357 8.03522 0 7.77 0Z" fill="#7D7898"/>
<path d="M11.52 2H12.52C12.7852 2 13.0396 1.89464 13.2271 1.70711C13.4146 1.51957 13.52 1.26522 13.52 1C13.52 0.734784 13.4146 0.48043 13.2271 0.292893C13.0396 0.105357 12.7852 0 12.52 0H11.52C11.2548 0 11.0004 0.105357 10.8129 0.292893C10.6254 0.48043 10.52 0.734784 10.52 1C10.52 1.26522 10.6254 1.51957 10.8129 1.70711C11.0004 1.89464 11.2548 2 11.52 2Z" fill="#7D7898"/>
<path d="M0 17.25C0 17.5152 0.105357 17.7696 0.292893 17.9571C0.48043 18.1446 0.734784 18.25 1 18.25C1.26522 18.25 1.51957 18.1446 1.70711 17.9571C1.89464 17.7696 2 17.5152 2 17.25V16.25C2 15.9848 1.89464 15.7304 1.70711 15.5429C1.51957 15.3554 1.26522 15.25 1 15.25C0.734784 15.25 0.48043 15.3554 0.292893 15.5429C0.105357 15.7304 0 15.9848 0 16.25V17.25Z" fill="#7D7898"/>
<path d="M1 8.75C1.26522 8.75 1.51957 8.64464 1.70711 8.45711C1.89464 8.26957 2 8.01522 2 7.75V6.75C2 6.48478 1.89464 6.23043 1.70711 6.04289C1.51957 5.85536 1.26522 5.75 1 5.75C0.734784 5.75 0.48043 5.85536 0.292893 6.04289C0.105357 6.23043 0 6.48478 0 6.75V7.75C0 8.01522 0.105357 8.26957 0.292893 8.45711C0.48043 8.64464 0.734784 8.75 1 8.75Z" fill="#7D7898"/>
<path d="M0 12.5C0 12.7652 0.105357 13.0196 0.292893 13.2071C0.48043 13.3946 0.734784 13.5 1 13.5C1.26522 13.5 1.51957 13.3946 1.70711 13.2071C1.89464 13.0196 2 12.7652 2 12.5V11.5C2 11.2348 1.89464 10.9804 1.70711 10.7929C1.51957 10.6054 1.26522 10.5 1 10.5C0.734784 10.5 0.48043 10.6054 0.292893 10.7929C0.105357 10.9804 0 11.2348 0 11.5V12.5Z" fill="#7D7898"/>
<path d="M23 15.25C22.7348 15.25 22.4804 15.3554 22.2929 15.5429C22.1054 15.7304 22 15.9848 22 16.25V17.25C22 17.5152 22.1054 17.7696 22.2929 17.9571C22.4804 18.1446 22.7348 18.25 23 18.25C23.2652 18.25 23.5196 18.1446 23.7071 17.9571C23.8946 17.7696 24 17.5152 24 17.25V16.25C24 15.9848 23.8946 15.7304 23.7071 15.5429C23.5196 15.3554 23.2652 15.25 23 15.25Z" fill="#7D7898"/>
<path d="M23 5.75C22.7348 5.75 22.4804 5.85536 22.2929 6.04289C22.1054 6.23043 22 6.48478 22 6.75V7.75C22 8.01522 22.1054 8.26957 22.2929 8.45711C22.4804 8.64464 22.7348 8.75 23 8.75C23.2652 8.75 23.5196 8.64464 23.7071 8.45711C23.8946 8.26957 24 8.01522 24 7.75V6.75C24 6.48478 23.8946 6.23043 23.7071 6.04289C23.5196 5.85536 23.2652 5.75 23 5.75Z" fill="#7D7898"/>
<path d="M23 10.5C22.7348 10.5 22.4804 10.6054 22.2929 10.7929C22.1054 10.9804 22 11.2348 22 11.5V12.5C22 12.7652 22.1054 13.0196 22.2929 13.2071C22.4804 13.3946 22.7348 13.5 23 13.5C23.2652 13.5 23.5196 13.3946 23.7071 13.2071C23.8946 13.0196 24 12.7652 24 12.5V11.5C24 11.2348 23.8946 10.9804 23.7071 10.7929C23.5196 10.6054 23.2652 10.5 23 10.5Z" fill="#7D7898"/>
<path d="M23 20C22.7348 20 22.4804 20.1054 22.2929 20.2929C22.1054 20.4804 22 20.7348 22 21V21.75C22 21.8163 21.9737 21.8799 21.9268 21.9268C21.8799 21.9737 21.8163 22 21.75 22H21C20.7348 22 20.4804 22.1054 20.2929 22.2929C20.1054 22.4804 20 22.7348 20 23C20 23.2652 20.1054 23.5196 20.2929 23.7071C20.4804 23.8946 20.7348 24 21 24H22C22.5304 24 23.0391 23.7893 23.4142 23.4142C23.7893 23.0391 24 22.5304 24 22V21C24 20.7348 23.8946 20.4804 23.7071 20.2929C23.5196 20.1054 23.2652 20 23 20Z" fill="#7D7898"/>
<path d="M3 22H2.23C2.16722 21.995 2.10866 21.9664 2.06602 21.9201C2.02337 21.8737 1.9998 21.813 2 21.75V21C2 20.7348 1.89464 20.4804 1.70711 20.2929C1.51957 20.1054 1.26522 20 1 20C0.734784 20 0.48043 20.1054 0.292893 20.2929C0.105357 20.4804 0 20.7348 0 21V22C0 22.5304 0.210714 23.0391 0.585786 23.4142C0.960859 23.7893 1.46957 24 2 24H3C3.26522 24 3.51957 23.8946 3.70711 23.7071C3.89464 23.5196 4 23.2652 4 23C4 22.7348 3.89464 22.4804 3.70711 22.2929C3.51957 22.1054 3.26522 22 3 22Z" fill="#7D7898"/>
<path d="M22 0H21C20.7348 0 20.4804 0.105357 20.2929 0.292893C20.1054 0.48043 20 0.734784 20 1C20 1.26522 20.1054 1.51957 20.2929 1.70711C20.4804 1.89464 20.7348 2 21 2H21.75C21.8163 2 21.8799 2.02634 21.9268 2.07322C21.9737 2.12011 22 2.1837 22 2.25V3C22 3.26522 22.1054 3.51957 22.2929 3.70711C22.4804 3.89464 22.7348 4 23 4C23.2652 4 23.5196 3.89464 23.7071 3.70711C23.8946 3.51957 24 3.26522 24 3V2C24 1.46957 23.7893 0.960859 23.4142 0.585786C23.0391 0.210714 22.5304 0 22 0Z" fill="#7D7898"/>
<path d="M3 0H2C1.46957 0 0.960859 0.210714 0.585786 0.585786C0.210714 0.960859 0 1.46957 0 2V3C0 3.26522 0.105357 3.51957 0.292893 3.70711C0.48043 3.89464 0.734784 4 1 4C1.26522 4 1.51957 3.89464 1.70711 3.70711C1.89464 3.51957 2 3.26522 2 3V2.25C1.9998 2.18702 2.02337 2.12628 2.06602 2.07993C2.10866 2.03359 2.16722 2.00504 2.23 2H3C3.26522 2 3.51957 1.89464 3.70711 1.70711C3.89464 1.51957 4 1.26522 4 1C4 0.734784 3.89464 0.48043 3.70711 0.292893C3.51957 0.105357 3.26522 0 3 0Z" fill="#7D7898"/>
</svg>
