<svg width="24" height="24" viewBox="0 0 24 24" fill="none" xmlns="http://www.w3.org/2000/svg">
<path d="M1.78814e-07 17.2495C-0.00028193 17.6637 0.335276 17.9997 0.749489 18C1.1637 18.0003 1.49972 17.6647 1.5 17.2505L1.78814e-07 17.2495ZM9.85602 11.732C10.2371 11.8943 10.6776 11.717 10.84 11.336C11.0023 10.9549 10.825 10.5144 10.444 10.352L9.85602 11.732ZM7.5 9V9.75V9ZM11.625 4.875H12.375H11.625ZM7.5 0.75V0V0.75ZM3.375 4.875H2.625H3.375ZM17.25 23.25V24V23.25ZM16.5 20.25C16.5 20.6642 16.8358 21 17.25 21C17.6642 21 18 20.6642 18 20.25H16.5ZM18 17.25C18 16.8358 17.6642 16.5 17.25 16.5C16.8358 16.5 16.5 16.8358 16.5 17.25H18ZM1.5 17.2505C1.50068 16.2585 1.74716 15.2822 2.21742 14.4088L0.896691 13.6977C0.308924 14.7893 0.000844598 16.0096 1.78814e-07 17.2495L1.5 17.2505ZM2.21742 14.4088C2.68769 13.5354 3.36706 12.7921 4.19481 12.2454L3.36817 10.9938C2.33359 11.677 1.48446 12.606 0.896691 13.6977L2.21742 14.4088ZM4.19481 12.2454C5.02255 11.6988 5.97287 11.3657 6.96079 11.2761L6.8253 9.78227C5.59053 9.89425 4.40275 10.3105 3.36817 10.9938L4.19481 12.2454ZM6.96079 11.2761C7.94871 11.1865 8.94343 11.3432 9.85602 11.732L10.444 10.352C9.30336 9.86603 8.06008 9.67028 6.8253 9.78227L6.96079 11.2761ZM7.5 9.75C8.14019 9.75 8.77412 9.6239 9.36558 9.37891L8.79156 7.99309C8.38208 8.1627 7.94321 8.25 7.5 8.25V9.75ZM9.36558 9.37891C9.95704 9.13392 10.4945 8.77483 10.9471 8.32215L9.88649 7.26149C9.57309 7.57488 9.20103 7.82348 8.79156 7.99309L9.36558 9.37891ZM10.9471 8.32215C11.3998 7.86946 11.7589 7.33204 12.0039 6.74058L10.6181 6.16656C10.4485 6.57603 10.1999 6.94809 9.88649 7.26149L10.9471 8.32215ZM12.0039 6.74058C12.2489 6.14912 12.375 5.51519 12.375 4.875H10.875C10.875 5.31821 10.7877 5.75708 10.6181 6.16656L12.0039 6.74058ZM12.375 4.875C12.375 4.23481 12.2489 3.60088 12.0039 3.00942L10.6181 3.58344C10.7877 3.99292 10.875 4.43179 10.875 4.875H12.375ZM12.0039 3.00942C11.7589 2.41796 11.3998 1.88054 10.9471 1.42785L9.88649 2.48851C10.1999 2.80191 10.4485 3.17397 10.6181 3.58344L12.0039 3.00942ZM10.9471 1.42785C10.4945 0.975169 9.95704 0.616079 9.36558 0.371087L8.79156 1.75691C9.20103 1.92652 9.57309 2.17512 9.88649 2.48851L10.9471 1.42785ZM9.36558 0.371087C8.77412 0.126096 8.14019 0 7.5 0V1.5C7.94321 1.5 8.38208 1.5873 8.79156 1.75691L9.36558 0.371087ZM7.5 0C6.20707 0 4.96709 0.513615 4.05285 1.42785L5.11351 2.48851C5.74645 1.85558 6.60489 1.5 7.5 1.5V0ZM4.05285 1.42785C3.13861 2.34209 2.625 3.58207 2.625 4.875H4.125C4.125 3.97989 4.48058 3.12145 5.11351 2.48851L4.05285 1.42785ZM2.625 4.875C2.625 6.16793 3.13861 7.40791 4.05285 8.32215L5.11351 7.26149C4.48058 6.62855 4.125 5.77011 4.125 4.875H2.625ZM4.05285 8.32215C4.96709 9.23639 6.20707 9.75 7.5 9.75V8.25C6.60489 8.25 5.74645 7.89442 5.11351 7.26149L4.05285 8.32215ZM17.25 24C19.0402 24 20.7571 23.2888 22.023 22.023L20.9623 20.9623C19.9777 21.9469 18.6424 22.5 17.25 22.5V24ZM22.023 22.023C23.2888 20.7571 24 19.0402 24 17.25H22.5C22.5 18.6424 21.9469 19.9777 20.9623 20.9623L22.023 22.023ZM24 17.25C24 15.4598 23.2888 13.7429 22.023 12.477L20.9623 13.5377C21.9469 14.5223 22.5 15.8576 22.5 17.25H24ZM22.023 12.477C20.7571 11.2112 19.0402 10.5 17.25 10.5V12C18.6424 12 19.9777 12.5531 20.9623 13.5377L22.023 12.477ZM17.25 10.5C15.4598 10.5 13.7429 11.2112 12.477 12.477L13.5377 13.5377C14.5223 12.5531 15.8576 12 17.25 12V10.5ZM12.477 12.477C11.2112 13.7429 10.5 15.4598 10.5 17.25H12C12 15.8576 12.5531 14.5223 13.5377 13.5377L12.477 12.477ZM10.5 17.25C10.5 19.0402 11.2112 20.7571 12.477 22.023L13.5377 20.9623C12.5531 19.9777 12 18.6424 12 17.25H10.5ZM12.477 22.023C13.7429 23.2888 15.4598 24 17.25 24V22.5C15.8576 22.5 14.5223 21.9469 13.5377 20.9623L12.477 22.023ZM18 20.25V17.25H16.5V20.25H18ZM17.25 14.25C17.3495 14.25 17.4448 14.2895 17.5152 14.3598L16.4545 15.4205C16.6655 15.6315 16.9516 15.75 17.25 15.75V14.25ZM17.5152 14.3598C17.5855 14.4302 17.625 14.5255 17.625 14.625H16.125C16.125 14.9234 16.2435 15.2095 16.4545 15.4205L17.5152 14.3598ZM17.625 14.625C17.625 14.7245 17.5855 14.8198 17.5152 14.8902L16.4545 13.8295C16.2435 14.0405 16.125 14.3266 16.125 14.625H17.625ZM17.5152 14.8902C17.4448 14.9605 17.3495 15 17.25 15V13.5C16.9516 13.5 16.6655 13.6185 16.4545 13.8295L17.5152 14.8902ZM17.25 15.75C17.5484 15.75 17.8345 15.6315 18.0455 15.4205L16.9848 14.3598C17.0552 14.2895 17.1505 14.25 17.25 14.25V15.75ZM18.0455 15.4205C18.2565 15.2095 18.375 14.9234 18.375 14.625H16.875C16.875 14.5255 16.9145 14.4302 16.9848 14.3598L18.0455 15.4205ZM18.375 14.625C18.375 14.3266 18.2565 14.0405 18.0455 13.8295L16.9848 14.8902C16.9145 14.8198 16.875 14.7245 16.875 14.625H18.375ZM18.0455 13.8295C17.8345 13.6185 17.5484 13.5 17.25 13.5V15C17.1505 15 17.0552 14.9605 16.9848 14.8902L18.0455 13.8295Z" fill="#7D7898"/>
</svg>
