<svg width="24" height="25" viewBox="0 0 24 25" fill="none" xmlns="http://www.w3.org/2000/svg">
<path d="M23 22C23 22.3978 22.842 22.7794 22.5607 23.0607C22.2794 23.342 21.8978 23.5 21.5 23.5H3.5C3.10218 23.5 2.72064 23.342 2.43934 23.0607C2.15804 22.7794 2 22.3978 2 22V2.5C2 2.10218 2.15804 1.72064 2.43934 1.43934C2.72064 1.15804 3.10218 1 3.5 1H18.5C18.8912 1.00004 19.2669 1.1529 19.547 1.426L22.547 4.309C22.6904 4.44873 22.8043 4.61575 22.8821 4.8002C22.9599 4.98465 23 5.18281 23 5.383V22Z" stroke="#7D7898" stroke-width="1.5" stroke-linecap="round" stroke-linejoin="round"/>
<path d="M11.049 16.296C10.9353 16.3529 10.8089 16.3799 10.6818 16.3742C10.5547 16.3685 10.4312 16.3305 10.323 16.2637C10.2148 16.1968 10.1255 16.1034 10.0635 15.9923C10.0015 15.8813 9.96901 15.7562 9.969 15.629V10.371C9.96901 10.2438 10.0015 10.1187 10.0635 10.0077C10.1255 9.89657 10.2148 9.80318 10.323 9.73634C10.4312 9.66951 10.5547 9.63145 10.6818 9.62579C10.8089 9.62013 10.9353 9.64705 11.049 9.704L15.463 12.333C15.5868 12.395 15.6909 12.4902 15.7636 12.608C15.8364 12.7258 15.8749 12.8616 15.8749 13C15.8749 13.1384 15.8364 13.2742 15.7636 13.392C15.6909 13.5098 15.5868 13.605 15.463 13.667L11.049 16.296Z" stroke="#7D7898" stroke-width="1.5" stroke-linecap="round" stroke-linejoin="round"/>
<path d="M5.75 13C5.75 14.7902 6.46116 16.5071 7.72703 17.773C8.9929 19.0388 10.7098 19.75 12.5 19.75C14.2902 19.75 16.0071 19.0388 17.273 17.773C18.5388 16.5071 19.25 14.7902 19.25 13C19.25 11.2098 18.5388 9.4929 17.273 8.22703C16.0071 6.96116 14.2902 6.25 12.5 6.25C10.7098 6.25 8.9929 6.96116 7.72703 8.22703C6.46116 9.4929 5.75 11.2098 5.75 13Z" stroke="#7D7898" stroke-width="1.5" stroke-linecap="round" stroke-linejoin="round"/>
</svg>
