<svg width="25" height="24" viewBox="0 0 25 24" fill="none" xmlns="http://www.w3.org/2000/svg">
<path d="M23.5 7.44C23.5 6.52766 23.1376 5.65268 22.4924 5.00755C21.8473 4.36243 20.9723 4 20.06 4H4.44C3.98825 4 3.54093 4.08898 3.12357 4.26185C2.70621 4.43473 2.32699 4.68812 2.00755 5.00755C1.36243 5.65268 1 6.52766 1 7.44V16.56C1 17.4723 1.36243 18.3473 2.00755 18.9924C2.32699 19.3119 2.70621 19.5653 3.12357 19.7381C3.54093 19.911 3.98825 20 4.44 20H20.06C20.9723 20 21.8473 19.6376 22.4924 18.9924C23.1376 18.3473 23.5 17.4723 23.5 16.56V7.44ZM9.75 15.94V7.28L16.52 11.61L9.75 15.94Z" stroke="#7D7898" stroke-width="1.5" stroke-linecap="round" stroke-linejoin="round"/>
</svg>
