<svg width="25" height="24" viewBox="0 0 25 24" fill="none" xmlns="http://www.w3.org/2000/svg">
<path d="M12.2484 5.00121C8.21736 4.93321 4.04836 7.75021 1.42736 10.6352C1.15225 10.9406 1 11.3371 1 11.7482C1 12.1593 1.15225 12.5558 1.42736 12.8612C3.99136 15.6852 8.14836 18.5672 12.2484 18.4982C16.3484 18.5672 20.5064 15.6852 23.0724 12.8612C23.3475 12.5558 23.4997 12.1593 23.4997 11.7482C23.4997 11.3371 23.3475 10.9406 23.0724 10.6352C20.4484 7.75021 16.2794 4.93321 12.2484 5.00121Z" stroke="#7D7898" stroke-width="1.5" stroke-linecap="round" stroke-linejoin="round"/>
<path d="M15.9984 11.7502C15.9982 12.4918 15.7781 13.2168 15.3659 13.8333C14.9537 14.4499 14.368 14.9304 13.6827 15.214C12.9975 15.4977 12.2435 15.5718 11.5162 15.427C10.7888 15.2822 10.1207 14.925 9.59636 14.4005C9.07201 13.876 8.71496 13.2078 8.57034 12.4804C8.42573 11.753 8.50005 10.9991 8.78391 10.3139C9.06777 9.62875 9.54842 9.04314 10.1651 8.63113C10.7817 8.21912 11.5067 7.99921 12.2484 7.99921C12.7409 7.99908 13.2287 8.09602 13.6838 8.28449C14.1389 8.47296 14.5524 8.74927 14.9007 9.09762C15.2489 9.44597 15.5251 9.85954 15.7135 10.3147C15.9018 10.7698 15.9986 11.2576 15.9984 11.7502Z" stroke="#7D7898" stroke-width="1.5" stroke-linecap="round" stroke-linejoin="round"/>
</svg>
