<svg width="24" height="24" viewBox="0 0 24 24" fill="none" xmlns="http://www.w3.org/2000/svg">
<path d="M0.700081 7.12C0.627818 7.20908 0.588379 7.3203 0.588379 7.435C0.588379 7.54971 0.627818 7.66092 0.700081 7.75L1.10008 8.27C1.17594 8.37132 1.28805 8.43935 1.41294 8.45985C1.53783 8.48036 1.66581 8.45174 1.77008 8.38C2.37008 7.98 3.50008 7.38 3.96008 7.89C4.60008 8.65 7.05008 17.82 7.87008 19.51C8.59008 20.99 10.5601 22.95 12.7201 21.51C14.8801 20.07 22.0001 14 23.3101 6.78C24.5201 9.53674e-07 15.7901 0.910001 13.8901 6.31C13.86 6.39856 13.8543 6.4936 13.8736 6.58512C13.893 6.67663 13.9367 6.76123 14.0001 6.83C14.0664 6.89421 14.1484 6.93998 14.2378 6.96278C14.3273 6.98558 14.4211 6.98462 14.5101 6.96C16.5101 6.33 17.5101 8.31 16.3101 10.52C15.0001 13 13.7401 14.67 13.1001 14.67C12.4601 14.67 12.0001 13 11.2301 10.05C10.4601 7.1 10.4701 1.55 7.32008 2.17C4.81008 2.66 1.63008 6.06 0.700081 7.12Z" fill="#7D7898"/>
</svg>
