<svg width="25" height="25" viewBox="0 0 25 25" fill="none" xmlns="http://www.w3.org/2000/svg">
<path d="M10.3167 13.3553C10.7386 12.8726 11.259 12.4858 11.8429 12.2211C12.4267 11.9563 13.0606 11.8196 13.7017 11.8203H16.7017C17.3428 11.8196 17.9766 11.9563 18.5604 12.2211C19.1443 12.4858 19.6647 12.8726 20.0867 13.3553M7.70166 17.8203V12.5703L15.2017 14.8203M7.70166 17.8203C7.30384 17.8203 6.9223 17.9783 6.641 18.2596C6.3597 18.5409 6.20166 18.9224 6.20166 19.3203C6.20166 19.7181 6.3597 20.0996 6.641 20.3809C6.9223 20.6622 7.30384 20.8203 7.70166 20.8203M7.70166 17.8203H8.45166C8.65057 17.8203 8.84134 17.8993 8.98199 18.0399C9.12264 18.1806 9.20166 18.3713 9.20166 18.5703V20.0703C9.20166 20.2692 9.12264 20.4599 8.98199 20.6006C8.84134 20.7412 8.65057 20.8203 8.45166 20.8203H7.70166M15.2017 14.8203V23.8203M15.2017 14.8203L22.7017 12.5703V17.8203M15.2017 23.8203L7.70166 21.5703V20.8203M15.2017 23.8203L22.7017 21.5703V20.8203M22.7017 17.8203C23.0995 17.8203 23.481 17.9783 23.7623 18.2596C24.0436 18.5409 24.2017 18.9224 24.2017 19.3203C24.2017 19.7181 24.0436 20.0996 23.7623 20.3809C23.481 20.6622 23.0995 20.8203 22.7017 20.8203M22.7017 17.8203H21.9517C21.7527 17.8203 21.562 17.8993 21.4213 18.0399C21.2807 18.1806 21.2017 18.3713 21.2017 18.5703V20.0703C21.2017 20.2692 21.2807 20.4599 21.4213 20.6006C21.562 20.7412 21.7527 20.8203 21.9517 20.8203H22.7017M6.20166 3.57025V5.82025H7.70166M12.5767 7.69525C12.5767 8.39144 12.8532 9.05912 13.3455 9.55141C13.8378 10.0437 14.5055 10.3203 15.2017 10.3203C15.8979 10.3203 16.5655 10.0437 17.0578 9.55141C17.5501 9.05912 17.8267 8.39144 17.8267 7.69525C17.8267 6.99906 17.5501 6.33138 17.0578 5.8391C16.5655 5.34681 15.8979 5.07025 15.2017 5.07025C14.5055 5.07025 13.8378 5.34681 13.3455 5.8391C12.8532 6.33138 12.5767 6.99906 12.5767 7.69525ZM1.70166 5.82025C1.70166 6.4112 1.81806 6.99636 2.0442 7.54233C2.27035 8.08829 2.60182 8.58437 3.01968 9.00223C3.43754 9.4201 3.93362 9.75156 4.47958 9.97771C5.02555 10.2039 5.61071 10.3203 6.20166 10.3203C6.79261 10.3203 7.37777 10.2039 7.92374 9.97771C8.4697 9.75156 8.96578 9.4201 9.38364 9.00223C9.8015 8.58437 10.133 8.08829 10.3591 7.54233C10.5853 6.99636 10.7017 6.4112 10.7017 5.82025C10.7017 5.2293 10.5853 4.64414 10.3591 4.09818C10.133 3.55221 9.8015 3.05613 9.38364 2.63827C8.96578 2.22041 8.4697 1.88894 7.92374 1.66279C7.37777 1.43665 6.79261 1.32025 6.20166 1.32025C5.61071 1.32025 5.02555 1.43665 4.47958 1.66279C3.93362 1.88894 3.43754 2.22041 3.01968 2.63827C2.60182 3.05613 2.27035 3.55221 2.0442 4.09818C1.81806 4.64414 1.70166 5.2293 1.70166 5.82025Z" stroke="#7D7898" stroke-width="1.5" stroke-linecap="round" stroke-linejoin="round"/>
</svg>
