<svg width="24" height="24" viewBox="0 0 24 24" fill="none" xmlns="http://www.w3.org/2000/svg">
<path d="M15.5 21C17.3 22.8 20.1 22.8 21.9 21C23.7 19.2 23.7 16.4 21.9 14.6C20.4 13.1 18.1 12.9 16.4 13.9L12.6268 7.54505M3.95 13.4C2.15 13.9 0.75 15.7 0.75 17.7C0.75 20.2 2.75 22.2 5.25 22.2C7.75 22.2 9.75 20.2 9.75 17.7H17.1808M16.375 7.39998C16.675 5.89998 16.275 4.29998 15.175 3.19998C13.375 1.39998 10.575 1.39998 8.77499 3.19998C6.77499 5.29998 7.07499 8.69998 9.67499 10.3L6.08945 16.502M11.975 7.70003C12.8035 7.70003 13.475 7.02846 13.475 6.20003C13.475 5.37161 12.8035 4.70003 11.975 4.70003C11.1466 4.70003 10.475 5.37161 10.475 6.20003C10.475 7.02846 11.1466 7.70003 11.975 7.70003ZM5.17499 19.2C6.00341 19.2 6.67499 18.5285 6.67499 17.7C6.67499 16.8716 6.00341 16.2 5.17499 16.2C4.34656 16.2 3.67499 16.8716 3.67499 17.7C3.67499 18.5285 4.34656 19.2 5.17499 19.2ZM18.675 19.2C19.5034 19.2 20.175 18.5285 20.175 17.7C20.175 16.8716 19.5034 16.2 18.675 16.2C17.8466 16.2 17.175 16.8716 17.175 17.7C17.175 18.5285 17.8466 19.2 18.675 19.2Z" stroke="#7D7898" stroke-width="1.5" stroke-miterlimit="10" stroke-linecap="round" stroke-linejoin="round"/>
</svg>
