<svg width="25" height="25" viewBox="0 0 25 25" fill="none" xmlns="http://www.w3.org/2000/svg">
<path d="M5.25 21.05L6.25 16H7.33C7.55808 16.0008 7.78325 15.9489 7.98795 15.8482C8.19264 15.7476 8.3713 15.6011 8.51 15.42C8.65286 15.2431 8.75181 15.0349 8.79874 14.8124C8.84567 14.59 8.83925 14.3595 8.78 14.14L8.03 11.14C7.95141 10.8148 7.76563 10.5255 7.5026 10.3187C7.23957 10.1119 6.91459 9.99964 6.58 10H1.25M21.25 5.50002H17.17C16.8354 5.49964 16.5104 5.61188 16.2474 5.81868C15.9844 6.02548 15.7986 6.31479 15.72 6.64002L14.97 9.64002C14.9121 9.86031 14.9073 10.0912 14.956 10.3137C15.0047 10.5362 15.1054 10.744 15.25 10.92C15.3887 11.1011 15.5674 11.2476 15.7721 11.3482C15.9767 11.4489 16.2019 11.5008 16.43 11.5H18.01L18.79 16.25C18.8485 16.5963 19.0267 16.9111 19.2935 17.1396C19.5603 17.368 19.8988 17.4956 20.25 17.5H22.25M23.5 12.25C23.5 18.4632 18.4632 23.5 12.25 23.5C6.0368 23.5 1 18.4632 1 12.25C1 6.03681 6.0368 1.00002 12.25 1.00002C18.4632 1.00002 23.5 6.03681 23.5 12.25Z" stroke="#7D7898" stroke-width="1.5" stroke-linecap="round" stroke-linejoin="round"/>
</svg>
