<svg width="25" height="25" viewBox="0 0 25 25" fill="none" xmlns="http://www.w3.org/2000/svg">
<path d="M5.5 23.5H2.5C2.10218 23.5 1.72064 23.342 1.43934 23.0607C1.15804 22.7794 1 22.3978 1 22V2.5C1 2.10217 1.15804 1.72064 1.43934 1.43934C1.72064 1.15803 2.10218 0.999996 2.5 0.999996H13.129C13.5265 1.00008 13.9078 1.15798 14.189 1.439L20.061 7.311C20.342 7.59219 20.4999 7.97345 20.5 8.371V13M20.5 8.5H14.5C14.1022 8.5 13.7206 8.34196 13.4393 8.06066C13.158 7.77935 13 7.39782 13 7V0.999996M8.5 16L11.5 23.5M11.5 16L8.5 23.5M14.5 16V22C14.5 22.3978 14.658 22.7794 14.9393 23.0607C15.2206 23.342 15.6022 23.5 16 23.5H17.5M23.5 16H22C21.6022 16 21.2206 16.158 20.9393 16.4393C20.658 16.7206 20.5 17.1022 20.5 17.5C20.5 19.75 23.5 19.75 23.5 22C23.5 22.3978 23.342 22.7794 23.0607 23.0607C22.7794 23.342 22.3978 23.5 22 23.5H20.5" stroke="#7D7898" stroke-width="1.5" stroke-linecap="round" stroke-linejoin="round"/>
</svg>
