<svg width="24" height="24" viewBox="0 0 24 24" fill="none" xmlns="http://www.w3.org/2000/svg">
<path d="M5.9 5.12002V9.38002C5.9 9.57894 5.97902 9.7697 6.11967 9.91035C6.26032 10.051 6.45109 10.13 6.65 10.13C6.84891 10.13 7.03968 10.051 7.18033 9.91035C7.32098 9.7697 7.4 9.57894 7.4 9.38002V5.12002L10.25 1.33002C10.3098 1.25123 10.3534 1.16144 10.3784 1.06578C10.4035 0.970117 10.4095 0.870458 10.396 0.772492C10.3825 0.674527 10.3499 0.580172 10.3 0.494816C10.25 0.40946 10.1838 0.334774 10.105 0.275023C10.0262 0.215271 9.93642 0.171625 9.84076 0.146574C9.74509 0.121524 9.64544 0.115561 9.54747 0.129025C9.4495 0.14249 9.35515 0.175118 9.26979 0.225048C9.18444 0.274977 9.10975 0.34123 9.05 0.420023L6.65 3.62002L4.25 0.420023C4.12933 0.260893 3.95038 0.156218 3.75253 0.129025C3.55468 0.101832 3.35413 0.154349 3.195 0.275023C3.03587 0.395696 2.9312 0.574642 2.904 0.772492C2.87681 0.970343 2.92933 1.17089 3.05 1.33002L5.9 5.12002Z" fill="#7D7898"/>
<path d="M9.45 4.88002V7.88002C9.45 8.47676 9.68705 9.04906 10.109 9.47101C10.531 9.89297 11.1033 10.13 11.7 10.13C12.2967 10.13 12.869 9.89297 13.291 9.47101C13.7129 9.04906 13.95 8.47676 13.95 7.88002V4.88002C13.95 4.28329 13.7129 3.71099 13.291 3.28903C12.869 2.86708 12.2967 2.63002 11.7 2.63002C11.1033 2.63002 10.531 2.86708 10.109 3.28903C9.68705 3.71099 9.45 4.28329 9.45 4.88002ZM10.95 4.88002C10.95 4.68111 11.029 4.49035 11.1697 4.34969C11.3103 4.20904 11.5011 4.13002 11.7 4.13002C11.8989 4.13002 12.0897 4.20904 12.2303 4.34969C12.371 4.49035 12.45 4.68111 12.45 4.88002V7.88002C12.45 8.07894 12.371 8.2697 12.2303 8.41035C12.0897 8.55101 11.8989 8.63002 11.7 8.63002C11.5011 8.63002 11.3103 8.55101 11.1697 8.41035C11.029 8.2697 10.95 8.07894 10.95 7.88002V4.88002Z" fill="#7D7898"/>
<path d="M15.81 9.32002C16.0643 9.57519 16.3667 9.77731 16.6997 9.91464C17.0328 10.052 17.3898 10.1218 17.75 10.12C18.228 10.1188 18.6972 9.99115 19.11 9.75002C19.1749 9.86239 19.2682 9.95573 19.3805 10.0207C19.4928 10.0856 19.6202 10.1199 19.75 10.12C19.9489 10.12 20.1397 10.041 20.2803 9.90035C20.421 9.7597 20.5 9.56894 20.5 9.37002V3.37002C20.5 3.17111 20.421 2.98035 20.2803 2.83969C20.1397 2.69904 19.9489 2.62002 19.75 2.62002C19.5511 2.62002 19.3603 2.69904 19.2197 2.83969C19.079 2.98035 19 3.17111 19 3.37002V7.37002C18.9974 7.69981 18.8645 8.01519 18.6304 8.24745C18.3962 8.47971 18.0798 8.61003 17.75 8.61002C17.4202 8.61003 17.1038 8.47971 16.8696 8.24745C16.6355 8.01519 16.5026 7.69981 16.5 7.37002V3.37002C16.5 3.17111 16.421 2.98035 16.2803 2.83969C16.1397 2.69904 15.9489 2.62002 15.75 2.62002C15.5511 2.62002 15.3603 2.69904 15.2197 2.83969C15.079 2.98035 15 3.17111 15 3.37002V7.37002C14.9993 7.73248 15.0706 8.09146 15.2096 8.42618C15.3487 8.76091 15.5527 9.06472 15.81 9.32002Z" fill="#7D7898"/>
<path d="M18.5 17.37C18.5 17.2374 18.4473 17.1102 18.3536 17.0165C18.2598 16.9227 18.1326 16.87 18 16.87C17.8674 16.87 17.7402 16.9227 17.6464 17.0165C17.5527 17.1102 17.5 17.2374 17.5 17.37V17.87H18.5V17.37Z" fill="#7D7898"/>
<path d="M14 16.87C13.8674 16.87 13.7402 16.9227 13.6464 17.0165C13.5527 17.1102 13.5 17.2374 13.5 17.37V19.37C13.5 19.5026 13.5527 19.6298 13.6464 19.7236C13.7402 19.8173 13.8674 19.87 14 19.87C14.1326 19.87 14.2598 19.8173 14.3536 19.7236C14.4473 19.6298 14.5 19.5026 14.5 19.37V17.37C14.5 17.2374 14.4473 17.1102 14.3536 17.0165C14.2598 16.9227 14.1326 16.87 14 16.87Z" fill="#7D7898"/>
<path d="M19 11.87H5C3.80734 11.8727 2.66428 12.3476 1.82094 13.191C0.977596 14.0343 0.502642 15.1774 0.5 16.37V19.37C0.5 20.5635 0.974106 21.7081 1.81802 22.552C2.66193 23.3959 3.80653 23.87 5 23.87H19C20.1935 23.87 21.3381 23.3959 22.182 22.552C23.0259 21.7081 23.5 20.5635 23.5 19.37V16.37C23.4974 15.1774 23.0224 14.0343 22.1791 13.191C21.3357 12.3476 20.1927 11.8727 19 11.87ZM8 15.87H6.5V20.35C6.5 20.4826 6.44732 20.6098 6.35355 20.7036C6.25979 20.7973 6.13261 20.85 6 20.85C5.86739 20.85 5.74021 20.7973 5.64645 20.7036C5.55268 20.6098 5.5 20.4826 5.5 20.35V15.87H4C3.86739 15.87 3.74021 15.8173 3.64645 15.7236C3.55268 15.6298 3.5 15.5026 3.5 15.37C3.5 15.2374 3.55268 15.1102 3.64645 15.0165C3.74021 14.9227 3.86739 14.87 4 14.87H8C8.13261 14.87 8.25979 14.9227 8.35355 15.0165C8.44732 15.1102 8.5 15.2374 8.5 15.37C8.5 15.5026 8.44732 15.6298 8.35355 15.7236C8.25979 15.8173 8.13261 15.87 8 15.87ZM11.48 20.37C11.48 20.5026 11.4273 20.6298 11.3336 20.7236C11.2398 20.8173 11.1126 20.87 10.98 20.87C10.9128 20.8716 10.8461 20.8591 10.7841 20.8332C10.7221 20.8074 10.6662 20.7688 10.62 20.72C10.422 20.8212 10.2023 20.8727 9.98 20.87C9.58218 20.87 9.20064 20.712 8.91934 20.4307C8.63804 20.1494 8.48 19.7678 8.48 19.37V16.37C8.48 16.2374 8.53268 16.1102 8.62645 16.0165C8.72021 15.9227 8.84739 15.87 8.98 15.87C9.11261 15.87 9.23979 15.9227 9.33355 16.0165C9.42732 16.1102 9.48 16.2374 9.48 16.37V19.37C9.48 19.5026 9.53268 19.6298 9.62645 19.7236C9.72021 19.8173 9.84739 19.87 9.98 19.87C10.1126 19.87 10.2398 19.8173 10.3336 19.7236C10.4273 19.6298 10.48 19.5026 10.48 19.37V16.37C10.48 16.2374 10.5327 16.1102 10.6264 16.0165C10.7202 15.9227 10.8474 15.87 10.98 15.87C11.1126 15.87 11.2398 15.9227 11.3336 16.0165C11.4273 16.1102 11.48 16.2374 11.48 16.37V20.37ZM15.48 19.37C15.48 19.7678 15.322 20.1494 15.0407 20.4307C14.7594 20.712 14.3778 20.87 13.98 20.87C13.7518 20.8677 13.5268 20.8165 13.32 20.72C13.2265 20.8037 13.1055 20.85 12.98 20.85C12.8474 20.85 12.7202 20.7973 12.6264 20.7036C12.5327 20.6098 12.48 20.4826 12.48 20.35V14.35C12.48 14.2174 12.5327 14.0902 12.6264 13.9965C12.7202 13.9027 12.8474 13.85 12.98 13.85C13.1126 13.85 13.2398 13.9027 13.3336 13.9965C13.4273 14.0902 13.48 14.2174 13.48 14.35V16C13.6391 15.9361 13.8086 15.9022 13.98 15.9C14.3778 15.9 14.7594 16.0581 15.0407 16.3394C15.322 16.6207 15.48 17.0022 15.48 17.4V19.37ZM18.07 20.87C17.6504 20.8478 17.2544 20.6691 16.96 20.3692C16.6657 20.0693 16.4944 19.67 16.48 19.25V17.37C16.48 16.9722 16.638 16.5907 16.9193 16.3094C17.2006 16.0281 17.5822 15.87 17.98 15.87C18.3778 15.87 18.7594 16.0281 19.0407 16.3094C19.322 16.5907 19.48 16.9722 19.48 17.37V18.37C19.48 18.5026 19.4273 18.6298 19.3336 18.7236C19.2398 18.8173 19.1126 18.87 18.98 18.87H17.5V19.25C17.5142 19.4047 17.5802 19.55 17.6873 19.6625C17.7943 19.7751 17.9362 19.8482 18.09 19.87C18.31 19.87 18.67 19.77 18.67 19.5C18.67 19.3674 18.7227 19.2402 18.8164 19.1465C18.9102 19.0527 19.0374 19 19.17 19C19.3026 19 19.4298 19.0527 19.5236 19.1465C19.6173 19.2402 19.67 19.3674 19.67 19.5C19.66 19.6951 19.6108 19.8861 19.5252 20.0616C19.4395 20.2372 19.3194 20.3936 19.1718 20.5216C19.0242 20.6495 18.8524 20.7463 18.6665 20.8062C18.4806 20.8661 18.2845 20.8878 18.09 20.87H18.07Z" fill="#7D7898"/>
</svg>
