<svg width="46" height="68" viewBox="0 0 46 68" fill="none" xmlns="http://www.w3.org/2000/svg">
<g clip-path="url(#clip0)">
<path d="M35.2666 22.9214H19.1666C18.7432 22.9214 18.3999 23.2635 18.3999 23.6854V24.4495C18.3999 24.8714 18.7432 25.2135 19.1666 25.2135H35.2666C35.69 25.2135 36.0332 24.8714 36.0332 24.4495V23.6854C36.0332 23.2635 35.69 22.9214 35.2666 22.9214Z" fill="black"/>
<path d="M44.4668 1.52832H9.9668V48.1351H44.4668V1.52832Z" stroke="black" stroke-width="3" stroke-linecap="round" stroke-linejoin="round"/>
<path d="M21.7979 18.3368H23.9645L24.8477 16.1777H28.9324L29.8156 18.3368H32.0374L27.8975 8.64111H25.9379L21.7979 18.3368ZM25.6067 14.3073L26.8901 11.1854L28.1735 14.3073H25.6067Z" fill="black"/>
<path d="M23.1025 39.7305H31.1479V37.8739H25.8349L31.1479 31.7126V30.1035H23.2681V31.9601H28.4155L23.1025 38.1214V39.7305Z" fill="black"/>
<path d="M9.96654 49.2811V1.52832H5.36654C3.24945 1.52832 1.5332 3.2387 1.5332 5.34855V52.7193" stroke="black" stroke-width="3" stroke-linejoin="round"/>
<path d="M21.0832 58.0674H44.4665V48.1348H6.1332C3.59269 48.1348 1.5332 50.1872 1.5332 52.719V53.4831C1.5332 56.0149 3.59269 58.0674 6.1332 58.0674H11.3082" stroke="black" stroke-width="3" stroke-linejoin="round"/>
<path d="M43.7 51.9551H6.89997C6.47655 51.9551 6.1333 52.2972 6.1333 52.7191V53.4832C6.1333 53.9051 6.47655 54.2472 6.89997 54.2472H43.7C44.1234 54.2472 44.4666 53.9051 44.4666 53.4832V52.7191C44.4666 52.2972 44.1234 51.9551 43.7 51.9551Z" fill="black"/>
<path d="M12.2666 53.4834H19.9333V65.7081L16.0999 63.1913L12.2666 65.7081V53.4834Z" stroke="black" stroke-width="3"/>
</g>
<defs>
<clipPath id="clip0">
<rect width="46" height="68" fill="white"/>
</clipPath>
</defs>
</svg>
