<svg width="80" height="70" viewBox="0 0 80 70" fill="none" xmlns="http://www.w3.org/2000/svg">
<path d="M77.7778 68.0001H35C35 68.0001 35 57.8684 35 57.8012C35 53.624 37.9509 49.7097 43.4314 47.3684C47.2507 45.7409 51.8991 44.7778 57.0534 44.7778C62.2137 44.7778 66.924 45.7409 70.7388 47.3658C76.2238 49.7071 77.7778 53.4207 77.7778 57.5979C77.7763 57.6651 77.7778 68.0001 77.7778 68.0001Z" stroke="black" stroke-width="3" stroke-miterlimit="10"/>
<path d="M70.4543 25.2247C70.4543 28.0383 69.589 30.6477 68.1126 32.8025C65.6938 36.3445 61.6189 38.6802 57.0001 38.6802C52.3874 38.6802 48.3138 36.3445 45.8913 32.8025C44.4186 30.6477 43.5557 28.0395 43.5557 25.2247C43.5557 22.4148 44.4186 19.8054 45.8913 17.6506C48.3138 14.1062 52.3874 11.7778 57.0001 11.7778C61.6189 11.7778 65.6926 14.1062 68.1126 17.6506C69.589 19.8054 70.4543 22.4161 70.4543 25.2247Z" stroke="black" stroke-width="3" stroke-miterlimit="10"/>
<path d="M44.7778 47.82C44.7778 43.6428 43.2238 39.9293 37.7388 37.588C33.924 35.9631 29.2137 35 24.0534 35C18.8991 35 14.2507 35.9631 10.4314 37.5906C4.95092 39.9318 2 43.8462 2 48.0234C2 48.0906 2 58.2222 2 58.2222H35" stroke="black" stroke-width="3" stroke-miterlimit="10"/>
<path d="M37.4543 15.4469C37.4543 18.2604 36.589 20.8699 35.1126 23.0247C32.6938 26.5667 28.6189 28.9023 24.0001 28.9023C19.3874 28.9023 15.3138 26.5667 12.8913 23.0247C11.4186 20.8699 10.5557 18.2617 10.5557 15.4469C10.5557 12.637 11.4186 10.0276 12.8913 7.87278C15.3138 4.32833 19.3874 2 24.0001 2C28.6189 2 32.6926 4.32833 35.1126 7.87278C36.589 10.0276 37.4543 12.6382 37.4543 15.4469Z" stroke="black" stroke-width="3" stroke-miterlimit="10"/>
</svg>
