<?xml version="1.0" encoding="utf-8"?>
<!-- Generator: Adobe Illustrator 16.0.2, SVG Export Plug-In . SVG Version: 6.00 Build 0)  -->
<!DOCTYPE svg PUBLIC "-//W3C//DTD SVG 1.1//EN" "http://www.w3.org/Graphics/SVG/1.1/DTD/svg11.dtd">
<svg version="1.1" xmlns="http://www.w3.org/2000/svg" xmlns:xlink="http://www.w3.org/1999/xlink" x="0px" y="0px"
	 width="70.074px" height="67.214px" viewBox="-3.136 -1.707 70.074 67.214" enable-background="new -3.136 -1.707 70.074 67.214"
	 xml:space="preserve">
<g id="fond">
	<rect x="-48.933" y="-74.267" fill="#FFFFFF" width="488" height="311.333"/>
</g>
<g id="Layer_1">
	<g>
		<g>
			<path fill="none" stroke="#000000" stroke-width="3" stroke-linecap="round" stroke-linejoin="round" stroke-miterlimit="10" d="
				M60.484,35.425c0,15.789-12.795,28.582-28.582,28.582c-13.464,0-24.754-9.305-27.773-21.85"/>
			<path fill="none" stroke="#000000" stroke-width="3" stroke-linecap="round" stroke-linejoin="round" stroke-miterlimit="10" d="
				M3.317,35.425c0-15.789,12.794-28.583,28.583-28.583c13.322,0,24.507,9.104,27.678,21.429"/>
			
				<polyline fill="none" stroke="#000000" stroke-width="3" stroke-linecap="round" stroke-linejoin="round" stroke-miterlimit="10" points="
				8.271,30.473 3.317,35.425 -1.636,30.473 			"/>
			
				<polyline fill="none" stroke="#000000" stroke-width="3" stroke-linecap="round" stroke-linejoin="round" stroke-miterlimit="10" points="
				55.53,40.38 60.484,35.425 65.438,40.38 			"/>
			
				<line fill="none" stroke="#000000" stroke-width="3" stroke-linecap="round" stroke-linejoin="round" stroke-miterlimit="10" x1="31.634" y1="36.64" x2="31.634" y2="16.259"/>
			
				<line fill="none" stroke="#000000" stroke-width="3" stroke-linecap="round" stroke-linejoin="round" stroke-miterlimit="10" x1="31.701" y1="36.601" x2="42.861" y2="41.888"/>
			
				<line fill="none" stroke="#000000" stroke-width="3" stroke-linecap="round" stroke-linejoin="round" stroke-miterlimit="10" x1="31.701" y1="6.843" x2="31.701" y2="-0.207"/>
			
				<line fill="none" stroke="#000000" stroke-width="3" stroke-linecap="round" stroke-linejoin="round" stroke-miterlimit="10" x1="26.147" y1="-0.2" x2="37.12" y2="-0.2"/>
		</g>
	</g>
</g>
</svg>
