<svg width="77" height="85" viewBox="0 0 77 85" fill="none" xmlns="http://www.w3.org/2000/svg">
<path d="M26.6835 82.4433L21.683 71.4433M52.003 9.00002L49.5433 2.16052L3.07636 18.8918L19.0008 62.4997" stroke="black" stroke-width="3" stroke-linejoin="round"/>
<rect x="12" y="24.9741" width="5.77027" height="3" transform="rotate(-20 12 24.9741)" fill="black"/>
<rect x="14.7363" y="32.4917" width="4.77944" height="3" transform="rotate(-20 14.7363 32.4917)" fill="black"/>
<path d="M20.9995 44.0005L15.4985 15.6699L63.7541 7.16116L65.1363 15" stroke="black" stroke-width="3" stroke-linejoin="round"/>
<rect x="22.2173" y="22.1011" width="4.07945" height="3" transform="rotate(-10 22.2173 22.1011)" fill="black"/>
<rect x="23.6064" y="29.9795" width="2.71997" height="3" transform="rotate(-10 23.6064 29.9795)" fill="black"/>
<path d="M26.4985 38.5005V15.1611H75.4985V82.1611H26.4985V68.0005" stroke="black" stroke-width="3" stroke-linejoin="round"/>
<rect x="31.9985" y="22.6611" width="37" height="3" fill="black"/>
<rect x="31.9985" y="30.6611" width="37" height="3" fill="black"/>
<path d="M40.5 38.6611H49.9987V41.6611H40.5V38.6611Z" fill="black"/>
<path d="M43 62.6611H68.9986V65.6611H43V62.6611Z" fill="black"/>
<rect x="54.4985" y="40.1611" width="13" height="16" stroke="black" stroke-width="3" stroke-linejoin="round"/>
<path d="M31.9985 70.6611H68.9985V73.6611H31.9985V70.6611Z" fill="black"/>
<path fill-rule="evenodd" clip-rule="evenodd" d="M42.5457 43.4537C37.274 38.1821 28.7237 38.1821 23.452 43.4537C19.1955 47.7092 18.373 54.1103 21.0029 59.1809L21.0099 59.1946C21.617 60.3951 22.437 61.529 23.4518 62.5469C24.4705 63.5615 25.6039 64.3801 26.8062 64.99L26.8187 64.9963C31.8868 67.6268 38.2888 66.8039 42.5457 62.5471C47.8174 57.2755 47.8174 48.7254 42.5457 43.4537ZM17.6692 59.0962C15.3036 53.1664 16.528 46.134 21.3308 41.3323C27.7741 34.8892 38.2238 34.8892 44.667 41.3324C51.1103 47.7756 51.1103 58.2252 44.667 64.6684C39.8003 69.5352 32.6422 70.7287 26.6646 68.2329L12.4361 82.4635C9.93394 84.9627 5.86866 84.9643 3.36789 82.4636C2.12621 81.2219 1.49174 79.5753 1.50058 77.9295C1.49174 76.2832 2.12654 74.6382 3.36727 73.396L17.6692 59.0962ZM19.0498 61.9581L5.48983 75.5161C4.82855 76.1782 4.49445 77.0499 4.50057 77.9189V77.9401C4.49445 78.8096 4.82889 79.6819 5.48921 80.3422C6.81773 81.6708 8.98376 81.6716 10.3153 80.3416L23.8738 66.7812C22.937 66.1543 22.0502 65.4273 21.2275 64.6069L21.2241 64.6035C20.4047 63.7811 19.6771 62.895 19.0498 61.9581Z" fill="black"/>
</svg>
