<svg width="55" height="61" viewBox="0 0 55 61" fill="none" xmlns="http://www.w3.org/2000/svg">
<path d="M53 5.65025C52.5526 3.87192 52.1053 2.44458 50.3158 2H4.68421C3.34211 2 2.44737 3.87192 2 5.65025V17.2094C2 18.0985 2.00008 18.0985 2.89474 18.0985H4.68421C6.02632 18.0985 6.02632 18.0985 6.02632 17.3341V14.5419C6.02632 13.2081 6.47368 12.7635 7.36842 12.319C14.0789 10.0961 14.3421 10.5406 21.5 12.7635V50.1084C21.5 52.7759 20.7895 52.7759 19.4474 52.7759H13.1842C11.3947 53.665 11.3947 54.5542 11.3947 55.8879C11.3947 57.2217 11.3947 58.1108 13.1842 59H41.8158C43.6053 58.1108 43.6053 57.2217 43.6053 55.8879C43.6053 54.5542 43.6053 53.665 41.8158 52.7759H36C34.2105 52.7759 33.5 52.7759 33.5 50.1084V12.7635C40.6579 10.9852 40.9211 10.5406 47.6316 12.319C48.5263 12.7635 48.9737 13.2081 48.9737 14.5419V17.2094C48.9737 18.0985 48.9737 18.0985 50.3158 18.0985H52.1053C53 18.0985 53 18.0985 53 17.3341V5.65025Z" stroke="black" stroke-width="3"/>
</svg>
