<svg width="59" height="59" viewBox="0 0 59 59" fill="none" xmlns="http://www.w3.org/2000/svg">
<path d="M29.6774 17.0451C33.7279 17.0451 34.2076 17.0629 35.8005 17.134C37.281 17.1991 38.0804 17.4478 38.6134 17.6551C39.3181 17.9275 39.8274 18.2591 40.3544 18.7861C40.8874 19.3191 41.2131 19.8225 41.4855 20.5272C41.6927 21.0601 41.9414 21.8655 42.0066 23.34C42.0776 24.9389 42.0954 25.4186 42.0954 29.4632C42.0954 33.5137 42.0776 33.9933 42.0066 35.5863C41.9414 37.0667 41.6927 37.8662 41.4855 38.3992C41.2131 39.1038 40.8814 39.6131 40.3544 40.1402C39.8214 40.6731 39.3181 40.9988 38.6134 41.2712C38.0804 41.4785 37.2751 41.7272 35.8005 41.7923C34.2017 41.8634 33.722 41.8812 29.6774 41.8812C25.6269 41.8812 25.1472 41.8634 23.5542 41.7923C22.0738 41.7272 21.2744 41.4785 20.7414 41.2712C20.0367 40.9988 19.5274 40.6672 19.0004 40.1402C18.4674 39.6072 18.1417 39.1038 17.8693 38.3992C17.6621 37.8662 17.4133 37.0608 17.3482 35.5863C17.2771 33.9874 17.2594 33.5077 17.2594 29.4632C17.2594 25.4126 17.2771 24.933 17.3482 23.34C17.4133 21.8596 17.6621 21.0601 17.8693 20.5272C18.1417 19.8225 18.4733 19.3132 19.0004 18.7861C19.5333 18.2532 20.0367 17.9275 20.7414 17.6551C21.2744 17.4478 22.0797 17.1991 23.5542 17.134C25.1472 17.0629 25.6269 17.0451 29.6774 17.0451ZM29.6774 14.3152C25.5617 14.3152 25.0465 14.333 23.4299 14.404C21.8192 14.4751 20.7118 14.7356 19.7525 15.1087C18.7517 15.4995 17.9048 16.0147 17.064 16.8616C16.2171 17.7025 15.7019 18.5493 15.3111 19.5441C14.938 20.5094 14.6775 21.6108 14.6064 23.2216C14.5353 24.8441 14.5176 25.3593 14.5176 29.475C14.5176 33.5906 14.5353 34.1058 14.6064 35.7225C14.6775 37.3332 14.938 38.4406 15.3111 39.3999C15.7019 40.4007 16.2171 41.2475 17.064 42.0884C17.9048 42.9293 18.7517 43.4504 19.7465 43.8354C20.7118 44.2084 21.8132 44.469 23.424 44.5401C25.0406 44.6111 25.5558 44.6289 29.6715 44.6289C33.7871 44.6289 34.3023 44.6111 35.919 44.5401C37.5297 44.469 38.6371 44.2084 39.5964 43.8354C40.5913 43.4504 41.4381 42.9293 42.279 42.0884C43.1199 41.2475 43.641 40.4007 44.0259 39.4059C44.399 38.4406 44.6596 37.3391 44.7306 35.7284C44.8017 34.1118 44.8194 33.5966 44.8194 29.4809C44.8194 25.3653 44.8017 24.8501 44.7306 23.2334C44.6596 21.6227 44.399 20.5153 44.0259 19.556C43.6528 18.5493 43.1377 17.7025 42.2908 16.8616C41.4499 16.0207 40.6031 15.4995 39.6083 15.1146C38.643 14.7416 37.5415 14.481 35.9308 14.4099C34.3082 14.333 33.793 14.3152 29.6774 14.3152Z" fill="white"/>
<path d="M29.6778 21.6882C25.3786 21.6882 21.8906 25.1762 21.8906 29.4754C21.8906 33.7746 25.3786 37.2626 29.6778 37.2626C33.977 37.2626 37.465 33.7746 37.465 29.4754C37.465 25.1762 33.977 21.6882 29.6778 21.6882ZM29.6778 34.5267C26.8886 34.5267 24.6265 32.2646 24.6265 29.4754C24.6265 26.6862 26.8886 24.4241 29.6778 24.4241C32.467 24.4241 34.7291 26.6862 34.7291 29.4754C34.7291 32.2646 32.467 34.5267 29.6778 34.5267Z" fill="white"/>
<path d="M39.5901 21.3798C39.5901 22.3865 38.7729 23.1978 37.7721 23.1978C36.7654 23.1978 35.9541 22.3805 35.9541 21.3798C35.9541 20.3731 36.7713 19.5618 37.7721 19.5618C38.7729 19.5618 39.5901 20.379 39.5901 21.3798Z" fill="white"/>
<circle cx="29.2528" cy="29.0506" r="27.5506" stroke="white" stroke-width="3"/>
</svg>
