<svg width="59" height="59" viewBox="0 0 59 59" fill="none" xmlns="http://www.w3.org/2000/svg">
<path d="M23.6404 42.1027C35.7121 42.1027 42.3166 32.3829 42.3166 23.9565C42.3166 23.6832 42.3104 23.4039 42.2979 23.1306C43.5827 22.2279 44.6914 21.1097 45.572 19.8286C44.3755 20.3458 43.105 20.6836 41.8042 20.8305C43.1739 20.0327 44.1995 18.7795 44.6908 17.3031C43.4022 18.0451 41.993 18.5685 40.5236 18.8509C39.5336 17.8288 38.2245 17.152 36.7989 16.9252C35.3732 16.6984 33.9104 16.9343 32.6366 17.5963C31.3627 18.2583 30.3488 19.3096 29.7516 20.5877C29.1543 21.8657 29.0071 23.2994 29.3325 24.6669C26.7233 24.5397 24.1707 23.8811 21.8403 22.7339C19.5098 21.5867 17.4535 19.9764 15.8047 18.0075C14.9667 19.4114 14.7102 21.0726 15.0875 22.6536C15.4648 24.2346 16.4474 25.6166 17.8358 26.5189C16.7935 26.4868 15.774 26.2141 14.8616 25.7235V25.8024C14.8607 27.2757 15.3849 28.7038 16.3451 29.844C17.3053 30.9842 18.6423 31.7661 20.1288 32.0568C19.1632 32.3135 18.1499 32.3509 17.1671 32.1661C17.5865 33.4331 18.4027 34.5413 19.5015 35.336C20.6004 36.1306 21.9271 36.5721 23.2967 36.5989C20.9716 38.3734 18.0995 39.3359 15.1429 39.3314C14.6185 39.3306 14.0947 39.2994 13.5742 39.2378C16.5778 41.1101 20.0718 42.1045 23.6404 42.1027Z" fill="white"/>
<circle cx="29.1522" cy="29.0506" r="27.5506" stroke="white" stroke-width="3"/>
</svg>
