<svg width="33" height="27" viewBox="0 0 33 27" fill="none" xmlns="http://www.w3.org/2000/svg">
<path d="M10.6404 26.1027C22.7121 26.1027 29.3166 16.3829 29.3166 7.95647C29.3166 7.68322 29.3104 7.40389 29.2979 7.13064C30.5827 6.22787 31.6914 5.10967 32.572 3.82856C31.3755 4.34582 30.105 4.68364 28.8042 4.83048C30.1739 4.03273 31.1995 2.77951 31.6908 1.30312C30.4022 2.04512 28.993 2.56854 27.5236 2.85093C26.5336 1.82879 25.2245 1.15201 23.7989 0.92523C22.3732 0.698448 20.9104 0.934297 19.6366 1.59631C18.3627 2.25832 17.3488 3.30963 16.7516 4.58769C16.1543 5.86575 16.0071 7.29938 16.3325 8.66692C13.7233 8.5397 11.1707 7.88113 8.84029 6.73391C6.50985 5.58669 4.45354 3.97642 2.80469 2.0075C1.96666 3.41137 1.71022 5.07261 2.08749 6.65358C2.46476 8.23456 3.44744 9.61665 4.8358 10.5189C3.7935 10.4868 2.77404 10.2141 1.86163 9.72349V9.80243C1.8607 11.2757 2.38489 12.7038 3.34511 13.844C4.30532 14.9842 5.6423 15.7661 7.12877 16.0568C6.16324 16.3135 5.14988 16.3509 4.1671 16.1661C4.58655 17.4331 5.40265 18.5413 6.50151 19.336C7.60036 20.1306 8.92714 20.5721 10.2967 20.5989C7.97161 22.3734 5.09947 23.3359 2.14286 23.3314C1.61853 23.3306 1.09471 23.2994 0.574219 23.2378C3.57782 25.1101 7.07181 26.1045 10.6404 26.1027Z" fill="white"/>
</svg>
