<svg width="31" height="31" viewBox="0 0 31 31" fill="none" xmlns="http://www.w3.org/2000/svg">
<path d="M15.6774 3.04514C19.7279 3.04514 20.2076 3.0629 21.8005 3.13396C23.281 3.1991 24.0804 3.44782 24.6134 3.65508C25.3181 3.92748 25.8274 4.25911 26.3544 4.78615C26.8874 5.31911 27.2131 5.82246 27.4855 6.52716C27.6927 7.06012 27.9414 7.86548 28.0066 9.34001C28.0776 10.9389 28.0954 11.4186 28.0954 15.4632C28.0954 19.5137 28.0776 19.9933 28.0066 21.5863C27.9414 23.0667 27.6927 23.8662 27.4855 24.3992C27.2131 25.1038 26.8814 25.6131 26.3544 26.1402C25.8214 26.6731 25.3181 26.9988 24.6134 27.2712C24.0804 27.4785 23.2751 27.7272 21.8005 27.7923C20.2017 27.8634 19.722 27.8812 15.6774 27.8812C11.6269 27.8812 11.1472 27.8634 9.55425 27.7923C8.0738 27.7272 7.27435 27.4785 6.74139 27.2712C6.0367 26.9988 5.52742 26.6672 5.00038 26.1402C4.46742 25.6072 4.14172 25.1038 3.86932 24.3992C3.66206 23.8662 3.41334 23.0608 3.3482 21.5863C3.27714 19.9874 3.25937 19.5077 3.25937 15.4632C3.25937 11.4126 3.27714 10.933 3.3482 9.34001C3.41334 7.85956 3.66206 7.06012 3.86932 6.52716C4.14172 5.82246 4.47334 5.31319 5.00038 4.78615C5.53334 4.25318 6.0367 3.92748 6.74139 3.65508C7.27435 3.44782 8.07972 3.1991 9.55425 3.13396C11.1472 3.0629 11.6269 3.04514 15.6774 3.04514ZM15.6774 0.315186C11.5617 0.315186 11.0465 0.332951 9.42989 0.404013C7.81916 0.475074 6.71178 0.735633 5.75245 1.10871C4.75167 1.49955 3.90485 2.01474 3.06395 2.86156C2.21714 3.70246 1.70194 4.54927 1.3111 5.54414C0.938026 6.50939 0.677467 7.61084 0.606405 9.22157C0.535344 10.8441 0.517578 11.3593 0.517578 15.475C0.517578 19.5906 0.535344 20.1058 0.606405 21.7225C0.677467 23.3332 0.938026 24.4406 1.3111 25.3999C1.70194 26.4007 2.21714 27.2475 3.06395 28.0884C3.90485 28.9293 4.75167 29.4504 5.74653 29.8354C6.71178 30.2084 7.81324 30.469 9.42397 30.5401C11.0406 30.6111 11.5558 30.6289 15.6715 30.6289C19.7871 30.6289 20.3023 30.6111 21.919 30.5401C23.5297 30.469 24.6371 30.2084 25.5964 29.8354C26.5913 29.4504 27.4381 28.9293 28.279 28.0884C29.1199 27.2475 29.641 26.4007 30.0259 25.4059C30.399 24.4406 30.6596 23.3391 30.7306 21.7284C30.8017 20.1118 30.8194 19.5966 30.8194 15.4809C30.8194 11.3653 30.8017 10.8501 30.7306 9.23342C30.6596 7.62269 30.399 6.51531 30.0259 5.55598C29.6528 4.54927 29.1377 3.70246 28.2908 2.86156C27.4499 2.02066 26.6031 1.49955 25.6083 1.11463C24.643 0.741555 23.5415 0.480996 21.9308 0.409934C20.3082 0.332951 19.793 0.315186 15.6774 0.315186Z" fill="white"/>
<path d="M15.6778 7.68823C11.3786 7.68823 7.89062 11.1762 7.89062 15.4754C7.89062 19.7746 11.3786 23.2626 15.6778 23.2626C19.977 23.2626 23.465 19.7746 23.465 15.4754C23.465 11.1762 19.977 7.68823 15.6778 7.68823ZM15.6778 20.5267C12.8886 20.5267 10.6265 18.2646 10.6265 15.4754C10.6265 12.6862 12.8886 10.4241 15.6778 10.4241C18.467 10.4241 20.7291 12.6862 20.7291 15.4754C20.7291 18.2646 18.467 20.5267 15.6778 20.5267Z" fill="white"/>
<path d="M25.5901 7.37976C25.5901 8.38647 24.7729 9.19776 23.7721 9.19776C22.7654 9.19776 21.9541 8.38055 21.9541 7.37976C21.9541 6.37306 22.7713 5.56177 23.7721 5.56177C24.7729 5.56177 25.5901 6.37898 25.5901 7.37976Z" fill="white"/>
</svg>
