<svg width="60" height="59" viewBox="0 0 60 59" fill="none" xmlns="http://www.w3.org/2000/svg">
<g clip-path="url(#clip0_1_500)">
<path d="M30.1774 17.0451C34.2279 17.0451 34.7076 17.0629 36.3005 17.134C37.781 17.1991 38.5804 17.4478 39.1134 17.6551C39.8181 17.9275 40.3274 18.2591 40.8544 18.7861C41.3874 19.3191 41.7131 19.8225 41.9855 20.5272C42.1927 21.0601 42.4414 21.8655 42.5066 23.34C42.5776 24.9389 42.5954 25.4186 42.5954 29.4632C42.5954 33.5137 42.5776 33.9933 42.5066 35.5863C42.4414 37.0667 42.1927 37.8662 41.9855 38.3992C41.7131 39.1038 41.3814 39.6131 40.8544 40.1402C40.3214 40.6731 39.8181 40.9988 39.1134 41.2712C38.5804 41.4785 37.7751 41.7272 36.3005 41.7923C34.7017 41.8634 34.222 41.8812 30.1774 41.8812C26.1269 41.8812 25.6472 41.8634 24.0542 41.7923C22.5738 41.7272 21.7744 41.4785 21.2414 41.2712C20.5367 40.9988 20.0274 40.6672 19.5004 40.1402C18.9674 39.6072 18.6417 39.1038 18.3693 38.3992C18.1621 37.8662 17.9133 37.0608 17.8482 35.5863C17.7771 33.9874 17.7594 33.5077 17.7594 29.4632C17.7594 25.4126 17.7771 24.933 17.8482 23.34C17.9133 21.8596 18.1621 21.0601 18.3693 20.5272C18.6417 19.8225 18.9733 19.3132 19.5004 18.7861C20.0333 18.2532 20.5367 17.9275 21.2414 17.6551C21.7744 17.4478 22.5797 17.1991 24.0542 17.134C25.6472 17.0629 26.1269 17.0451 30.1774 17.0451ZM30.1774 14.3152C26.0617 14.3152 25.5465 14.333 23.9299 14.404C22.3192 14.4751 21.2118 14.7356 20.2525 15.1087C19.2517 15.4995 18.4048 16.0147 17.564 16.8616C16.7171 17.7025 16.2019 18.5493 15.8111 19.5441C15.438 20.5094 15.1775 21.6108 15.1064 23.2216C15.0353 24.8441 15.0176 25.3593 15.0176 29.475C15.0176 33.5906 15.0353 34.1058 15.1064 35.7225C15.1775 37.3332 15.438 38.4406 15.8111 39.3999C16.2019 40.4007 16.7171 41.2475 17.564 42.0884C18.4048 42.9293 19.2517 43.4504 20.2465 43.8354C21.2118 44.2084 22.3132 44.469 23.924 44.5401C25.5406 44.6111 26.0558 44.6289 30.1715 44.6289C34.2871 44.6289 34.8023 44.6111 36.419 44.5401C38.0297 44.469 39.1371 44.2084 40.0964 43.8354C41.0913 43.4504 41.9381 42.9293 42.779 42.0884C43.6199 41.2475 44.141 40.4007 44.5259 39.4059C44.899 38.4406 45.1596 37.3391 45.2306 35.7284C45.3017 34.1118 45.3194 33.5966 45.3194 29.4809C45.3194 25.3653 45.3017 24.8501 45.2306 23.2334C45.1596 21.6227 44.899 20.5153 44.5259 19.556C44.1528 18.5493 43.6377 17.7025 42.7908 16.8616C41.9499 16.0207 41.1031 15.4995 40.1083 15.1146C39.143 14.7416 38.0415 14.481 36.4308 14.4099C34.8082 14.333 34.293 14.3152 30.1774 14.3152Z" fill="white"/>
<path d="M30.1778 21.6882C25.8786 21.6882 22.3906 25.1762 22.3906 29.4754C22.3906 33.7746 25.8786 37.2626 30.1778 37.2626C34.477 37.2626 37.965 33.7746 37.965 29.4754C37.965 25.1762 34.477 21.6882 30.1778 21.6882ZM30.1778 34.5267C27.3886 34.5267 25.1265 32.2646 25.1265 29.4754C25.1265 26.6862 27.3886 24.4241 30.1778 24.4241C32.967 24.4241 35.2291 26.6862 35.2291 29.4754C35.2291 32.2646 32.967 34.5267 30.1778 34.5267Z" fill="white"/>
<path d="M40.0901 21.3798C40.0901 22.3865 39.2729 23.1978 38.2721 23.1978C37.2654 23.1978 36.4541 22.3805 36.4541 21.3798C36.4541 20.3731 37.2713 19.5618 38.2721 19.5618C39.2729 19.5618 40.0901 20.379 40.0901 21.3798Z" fill="white"/>
<path d="M29.7527 56.6012C44.9685 56.6012 57.3033 44.2664 57.3033 29.0506C57.3033 13.8348 44.9685 1.5 29.7527 1.5C14.537 1.5 2.20215 13.8348 2.20215 29.0506C2.20215 44.2664 14.537 56.6012 29.7527 56.6012Z" stroke="white" stroke-width="3"/>
</g>
<defs>
<clipPath id="clip0_1_500">
<rect width="59" height="59" fill="white" transform="translate(0.5)"/>
</clipPath>
</defs>
</svg>
