<svg width="50" height="49" viewBox="0 0 50 49" fill="none" xmlns="http://www.w3.org/2000/svg">
<g clip-path="url(#clip0_1_179)">
<path d="M48 1.5H2V47.5H48V1.5Z" stroke="black" stroke-width="3" stroke-miterlimit="10" stroke-linecap="round" stroke-linejoin="round"/>
<path d="M25.25 35.5C31.3251 35.5 36.25 30.5751 36.25 24.5C36.25 18.4249 31.3251 13.5 25.25 13.5C19.1749 13.5 14.25 18.4249 14.25 24.5C14.25 30.5751 19.1749 35.5 25.25 35.5Z" stroke="black" stroke-width="3" stroke-miterlimit="10" stroke-linecap="round" stroke-linejoin="round"/>
<path d="M39.125 13.5C40.5747 13.5 41.75 12.3247 41.75 10.875C41.75 9.42525 40.5747 8.25 39.125 8.25C37.6753 8.25 36.5 9.42525 36.5 10.875C36.5 12.3247 37.6753 13.5 39.125 13.5Z" fill="black"/>
</g>
<defs>
<clipPath id="clip0_1_179">
<rect width="49" height="49" fill="white" transform="translate(0.5)"/>
</clipPath>
</defs>
</svg>
