<svg width="63" height="94" viewBox="0 0 63 94" fill="none" xmlns="http://www.w3.org/2000/svg">
<g clip-path="url(#clip0_1_195)">
<path d="M62.975 31.238C62.975 58.309 32.477 93.8 32.477 93.8C32.477 93.8 0.5 58.309 0.5 31.238C0.5 13.985 14.485 0 31.737 0C48.99 0 62.975 13.985 62.975 31.238Z" fill="black"/>
<path d="M15.9566 28.6459L8.46437 30.5072L11.7727 43.8244L19.265 41.9631L15.9566 28.6459Z" stroke="white" stroke-width="3" stroke-miterlimit="10" stroke-linejoin="round"/>
<path d="M34.143 41.355L35.49 46.769L29.245 48.321" stroke="white" stroke-width="3" stroke-miterlimit="10" stroke-linejoin="round"/>
<path d="M29.004 57.219L21.425 59.102L22.039 43.924L29.619 42.039L29.004 57.219Z" stroke="white" stroke-width="3" stroke-miterlimit="10" stroke-linejoin="round"/>
<path d="M34.2757 20.5536L15.1287 25.3142L19.8891 44.4602L39.0361 39.6996L34.2757 20.5536Z" stroke="white" stroke-width="3" stroke-miterlimit="10" stroke-linejoin="round"/>
<path d="M53.326 43.857L39.126 40.071L34.329 20.783L45.105 10.791L53.326 43.857Z" stroke="white" stroke-width="3" stroke-miterlimit="10" stroke-linejoin="round"/>
</g>
<defs>
<clipPath id="clip0_1_195">
<rect width="62.475" height="93.8" fill="white" transform="translate(0.5)"/>
</clipPath>
</defs>
</svg>
