<svg width="82" height="82" viewBox="0 0 82 82" fill="none" xmlns="http://www.w3.org/2000/svg">
<path d="M58.69 17.5H30.6C28.7835 17.4301 26.9715 17.7275 25.2726 18.3744C23.5737 19.0213 22.0228 20.0045 20.7128 21.265C19.4029 22.5255 18.3608 24.0374 17.649 25.7101C16.9372 27.3829 16.5703 29.1821 16.5703 31C16.5703 32.8179 16.9372 34.6171 17.649 36.2899C18.3608 37.9626 19.4029 39.4745 20.7128 40.735C22.0228 41.9955 23.5737 42.9787 25.2726 43.6256C26.9715 44.2725 28.7835 44.5699 30.6 44.5H39.5" stroke="black" stroke-width="3" stroke-miterlimit="10"/>
<path d="M39.54 68.35V17.5" stroke="black" stroke-width="3" stroke-miterlimit="10"/>
<path d="M49.03 68.35V17.5" stroke="black" stroke-width="3" stroke-miterlimit="10"/>
</svg>
