<svg width="71" height="73" viewBox="0 0 71 73" fill="none" xmlns="http://www.w3.org/2000/svg">
<g clip-path="url(#clip0_1_475)">
<path d="M188.167 -59.0779H-299.833V252.255H188.167V-59.0779Z" fill="white"/>
<path d="M40.2339 48.1929L56.1086 53.1161L68.8349 12.0802L52.9602 7.15708L40.2339 48.1929Z" stroke="black" stroke-width="3" stroke-miterlimit="10" stroke-linecap="round" stroke-linejoin="round"/>
<path d="M39.3482 56.6234L52.0845 60.5719L54.5412 52.6474L41.8049 48.6989L39.3482 56.6234Z" stroke="black" stroke-width="3" stroke-miterlimit="10" stroke-linecap="round" stroke-linejoin="round"/>
<path d="M55.1009 7.82191L66.6948 11.4175L68.5005 5.59519L56.9065 1.99962L55.1009 7.82191Z" stroke="black" stroke-width="3" stroke-miterlimit="10" stroke-linecap="round" stroke-linejoin="round"/>
<path d="M39.8368 64.1112L47.4146 66.462L49.4981 59.7458L41.9204 57.3949L39.8368 64.1112Z" stroke="black" stroke-width="3" stroke-miterlimit="10" stroke-linecap="round" stroke-linejoin="round"/>
<path d="M37.75 70.841L46.054 70.847L47.411 66.475L39.832 64.124L37.75 70.841Z" stroke="black" stroke-width="3" stroke-miterlimit="10" stroke-linecap="round" stroke-linejoin="round"/>
<path d="M1.5 70.8409H46.054" stroke="black" stroke-width="3" stroke-miterlimit="10" stroke-linecap="round" stroke-linejoin="round"/>
</g>
<defs>
<clipPath id="clip0_1_475">
<rect width="70.325" height="71.847" fill="white" transform="translate(0 0.5)"/>
</clipPath>
</defs>
</svg>
