<svg width="71" height="68" viewBox="0 0 71 68" fill="none" xmlns="http://www.w3.org/2000/svg">
<g clip-path="url(#clip0_1_268)">
<path d="M442.703 -72.5601H-45.297V238.773H442.703V-72.5601Z" fill="white"/>
<path d="M64.12 37.1321C64.12 52.9211 51.325 65.7141 35.538 65.7141C22.074 65.7141 10.784 56.4091 7.765 43.8641" stroke="black" stroke-width="3" stroke-miterlimit="10" stroke-linecap="round" stroke-linejoin="round"/>
<path d="M6.953 37.1321C6.953 21.3431 19.747 8.54907 35.536 8.54907C48.858 8.54907 60.043 17.6531 63.214 29.9781" stroke="black" stroke-width="3" stroke-miterlimit="10" stroke-linecap="round" stroke-linejoin="round"/>
<path d="M11.907 32.1799L6.953 37.1319L2 32.1799" stroke="black" stroke-width="3" stroke-miterlimit="10" stroke-linecap="round" stroke-linejoin="round"/>
<path d="M59.166 42.0871L64.12 37.1321L69.074 42.0871" stroke="black" stroke-width="3" stroke-miterlimit="10" stroke-linecap="round" stroke-linejoin="round"/>
<path d="M35.27 38.3471V17.9661" stroke="black" stroke-width="3" stroke-miterlimit="10" stroke-linecap="round" stroke-linejoin="round"/>
<path d="M35.337 38.3081L46.497 43.5951" stroke="black" stroke-width="3" stroke-miterlimit="10" stroke-linecap="round" stroke-linejoin="round"/>
<path d="M35.337 8.55V1.5" stroke="black" stroke-width="3" stroke-miterlimit="10" stroke-linecap="round" stroke-linejoin="round"/>
<path d="M29.783 1.50708H40.756" stroke="black" stroke-width="3" stroke-miterlimit="10" stroke-linecap="round" stroke-linejoin="round"/>
</g>
<defs>
<clipPath id="clip0_1_268">
<rect width="70.074" height="67.214" fill="white" transform="translate(0.5)"/>
</clipPath>
</defs>
</svg>
