<svg width="82" height="82" viewBox="0 0 82 82" fill="none" xmlns="http://www.w3.org/2000/svg">
<g clip-path="url(#clip0_1_390)">
<path d="M19.7029 71.6V67.1949L25.4015 66.216V25.906H13.8644L12.8505 32.9681H7.67632V20.6969H49.9791V32.9681H44.8748L43.8259 25.906H32.2888V66.216L37.9875 67.1949V71.6H19.7029Z" fill="black"/>
<path d="M55.4469 46.832V44.0946L65.1192 33.3476C66.2817 32.0498 67.1807 30.9481 67.8161 30.0424C68.4649 29.1367 68.9178 28.3121 69.1746 27.5686C69.4315 26.8115 69.5599 26.041 69.5599 25.2569C69.5599 23.7835 69.1138 22.5465 68.2216 21.5462C67.3294 20.5323 66.0519 20.0254 64.3892 20.0254C62.6589 20.0254 61.307 20.5458 60.3337 21.5867C59.3739 22.6276 58.894 24.1011 58.894 26.0072H55.0616L55.0211 25.8855C54.9805 24.1822 55.3387 22.6547 56.0958 21.3029C56.8528 19.9375 57.9478 18.8628 59.3807 18.0788C60.8271 17.2812 62.544 16.8824 64.5311 16.8824C66.3966 16.8824 67.9986 17.2406 69.3369 17.9571C70.6887 18.66 71.7296 19.6266 72.4596 20.8568C73.1896 22.0869 73.5545 23.4996 73.5545 25.0947C73.5545 26.1762 73.3383 27.2509 72.9057 28.3188C72.4866 29.3868 71.8715 30.4817 71.0604 31.6037C70.2493 32.7258 69.2625 33.9086 68.0999 35.1523L60.3337 43.6079L60.3743 43.7093H70.8577L71.1821 40.323H74.5684V46.832H55.4469Z" fill="black"/>
</g>
<defs>
<clipPath id="clip0_1_390">
<rect width="81" height="81" fill="white" transform="translate(0.5 0.5)"/>
</clipPath>
</defs>
</svg>
