<svg width="35" height="47" viewBox="0 0 35 47" fill="none" xmlns="http://www.w3.org/2000/svg">
<g clip-path="url(#clip0_1_471)">
<path d="M35 46.5H0C0 46.5 0 38.2105 0 38.1555C0 34.7378 2.41439 31.5351 6.89843 29.6195C10.0233 28.288 13.8265 27.5 18.0437 27.5C22.2658 27.5 26.1196 28.288 29.2408 29.6175C33.7286 31.533 35 34.5714 35 37.9891C34.9988 38.0441 35 46.5 35 46.5Z" fill="white"/>
<path d="M29.008 11.502C29.008 13.804 28.3 15.939 27.092 17.702C25.113 20.6 21.779 22.511 18 22.511C14.226 22.511 10.893 20.6 8.911 17.702C7.706 15.939 7 13.805 7 11.502C7 9.203 7.706 7.068 8.911 5.305C10.893 2.405 14.226 0.5 18 0.5C21.779 0.5 25.112 2.405 27.092 5.305C28.3 7.068 29.008 9.204 29.008 11.502Z" fill="white"/>
</g>
<defs>
<clipPath id="clip0_1_471">
<rect width="35" height="46" fill="white" transform="translate(0 0.5)"/>
</clipPath>
</defs>
</svg>
