<?xml version="1.0" encoding="utf-8"?>
<!-- Generator: Adobe Illustrator 16.0.2, SVG Export Plug-In . SVG Version: 6.00 Build 0)  -->
<!DOCTYPE svg PUBLIC "-//W3C//DTD SVG 1.1//EN" "http://www.w3.org/Graphics/SVG/1.1/DTD/svg11.dtd">
<svg version="1.1" id="Layer_1" xmlns="http://www.w3.org/2000/svg" xmlns:xlink="http://www.w3.org/1999/xlink" x="0px" y="0px"
	 width="291.435px" height="48.665px" viewBox="0 0 291.435 48.665" enable-background="new 0 0 291.435 48.665"
	 xml:space="preserve">
<g>
	<path fill="#FFFFFF" d="M0.139,11.557h8v29h18v7h-26V11.557z"/>
	<path fill="#FFFFFF" d="M32.967,24.789c3.633-0.369,5.424-2.232,5.16-5.232h-2.988v-8h8v6.718c0,6.952-3.349,9.735-9.616,9.84
		L32.967,24.789z"/>
	<path fill="#FFFFFF" d="M56.139,11.557h8v36h-8V11.557z"/>
	<path fill="#FFFFFF" d="M79.139,11.557h7.385l17.615,22.309V11.557h8v36h-7.234L87.139,24.596v22.961h-8V11.557z"/>
	<path fill="#C1272D" d="M139.822,48.665c-6.741,0-11.683-2.633-15.683-5.846V26.557h16v7h-8v5.522c2,1.475,4.787,2.212,7.736,2.212
		c6.531,0,11.264-4.951,11.264-11.692v-0.105c0-6.268-4.79-11.482-10.689-11.482c-4.266,0-6.846,1.37-9.69,3.739l-5.133-6.162
		c3.844-3.266,7.697-5.056,14.333-5.056c11.165,0,19.18,8.585,19.18,19.065v0.105C159.139,40.607,151.303,48.665,139.822,48.665z"/>
	<path fill="#FFFFFF" d="M172.139,11.557h28v7h-20v7h18v8h-18v7h20v7h-28V11.557z M189.585,0.144l6.899,3.074l-7.164,5.339h-6.108
		L189.585,0.144z"/>
	<path fill="#FFFFFF" d="M213.139,11.557h7.357l17.643,22.309V11.557h8v36h-7.262l-17.738-22.961v22.961h-8V11.557z"/>
	<path fill="#FFFFFF" d="M259.139,32.233V11.557h8v20.465c0,6.004,3.049,9.112,8,9.112s8-3.002,8-8.848V11.557h8v20.412
		c0,11.166-6.203,16.643-16.105,16.643C265.132,48.612,259.139,43.082,259.139,32.233z"/>
</g>
</svg>
