<?xml version="1.0" encoding="utf-8"?>
<!-- Generator: Adobe Illustrator 16.0.2, SVG Export Plug-In . SVG Version: 6.00 Build 0)  -->
<!DOCTYPE svg PUBLIC "-//W3C//DTD SVG 1.1//EN" "http://www.w3.org/Graphics/SVG/1.1/DTD/svg11.dtd">
<svg version="1.1" id="Layer_1" xmlns="http://www.w3.org/2000/svg" xmlns:xlink="http://www.w3.org/1999/xlink" x="0px" y="0px"
	 width="291.435px" height="48.666px" viewBox="0 0 291.435 48.666" enable-background="new 0 0 291.435 48.666"
	 xml:space="preserve">
<g>
	<path d="M0.139,11.436h8v29h18v8h-26V11.436z"/>
	<path d="M32.967,24.728c3.633-0.368,5.424-2.292,5.16-5.292h-2.988v-8h8v6.84c0,6.953-3.349,9.705-9.616,9.811L32.967,24.728z"/>
	<path d="M56.139,11.436h8v37h-8V11.436z"/>
	<path d="M79.139,11.436h7.385l17.615,22.431V11.436h8v37h-7.234l-17.766-23.84v23.84h-8V11.436z"/>
	<path fill="#C1272D" d="M139.822,48.666c-6.741,0-11.683-2.634-15.683-5.847V26.436h16v7h-8v5.645c2,1.475,4.787,2.212,7.736,2.212
		c6.531,0,11.264-4.95,11.264-11.692v-0.105c0-6.268-4.79-11.481-10.689-11.481c-4.266,0-6.846,1.37-9.69,3.739l-5.133-6.162
		c3.844-3.266,7.697-5.056,14.333-5.056c11.165,0,19.18,8.585,19.18,19.065v0.105C159.139,40.607,151.303,48.666,139.822,48.666z"/>
	<path d="M172.139,11.436h28v7h-20v7h18v8h-18v7h20v8h-28V11.436z M189.585,0.083l6.899,3.043l-7.164,5.309h-6.108L189.585,0.083z"
		/>
	<path d="M213.139,11.436h7.357l17.643,22.431V11.436h8v37h-7.262l-17.738-23.84v23.84h-8V11.436z"/>
	<path d="M259.139,32.233V11.436h8v20.587c0,6.004,3.049,9.112,8,9.112s8-3.003,8-8.849V11.436h8V31.97
		c0,11.165-6.203,16.644-16.105,16.644C265.132,48.613,259.139,43.082,259.139,32.233z"/>
</g>
</svg>
