<?xml version="1.0" encoding="utf-8"?>
<!-- Generator: Adobe Illustrator 16.0.2, SVG Export Plug-In . SVG Version: 6.00 Build 0)  -->
<!DOCTYPE svg PUBLIC "-//W3C//DTD SVG 1.1//EN" "http://www.w3.org/Graphics/SVG/1.1/DTD/svg11.dtd">
<svg version="1.1" id="Layer_1" xmlns="http://www.w3.org/2000/svg" xmlns:xlink="http://www.w3.org/1999/xlink" x="0px" y="0px"
	 width="62.475px" height="93.8px" viewBox="0 0 62.475 93.8" enable-background="new 0 0 62.475 93.8" xml:space="preserve">
<g>
	<path d="M62.475,31.238c0,27.071-30.499,62.562-30.499,62.562S0,58.309,0,31.238C0,13.985,13.985,0,31.238,0
		C48.49,0,62.475,13.985,62.475,31.238z"/>
	<g>
		<g>
			<path fill="none" stroke="#FFFFFF" stroke-width="3" stroke-miterlimit="10" d="M25.518,17.354l-0.021,5.681h-7.461l-0.023-5.646
				l0,0c0.03-2.131,1.657-3.777,3.731-3.777C23.835,13.611,25.518,15.264,25.518,17.354z"/>
			<path fill="none" stroke="#FFFFFF" stroke-width="3" stroke-miterlimit="10" d="M40.423,19.056c0-2.091-1.562-3.686-3.652-3.686
				c-2.074,0-3.422,1.689-3.449,3.82l0,0v9.076l0,0c0,0,0,0.109,0,0.145c0,2.092,1.485,3.807,3.576,3.807
				c2.092,0,3.571-1.755,3.571-3.847C40.469,28.278,40.423,19.148,40.423,19.056z"/>
			<path fill="none" stroke="#FFFFFF" stroke-width="3" stroke-miterlimit="10" d="M47.986,21.388c0-2.09-1.89-3.806-3.704-3.806
				c-1.795,0-3.813,1.582-3.813,3.714l0,0v6.929l0,0c0,0,0,0.108,0,0.144c0,2.093,2.002,3.808,3.813,3.808
				c1.813,0,3.704-1.677,3.704-3.769C47.986,28.317,47.986,21.481,47.986,21.388z"/>
			<path fill="none" stroke="#FFFFFF" stroke-width="3" stroke-miterlimit="10" d="M29.512,31.323
				c2.868,1.353,4.85,4.271,4.85,7.651"/>
			<path fill="none" stroke="#FFFFFF" stroke-width="3" stroke-miterlimit="10" d="M29.289,23.034H17.521
				c-2.093,0-3.824,1.805-3.824,3.898l-0.03,0.043l-0.163,9.019v0.136c0,4.156,3.262,8.048,7.419,8.048"/>
			<path fill="none" stroke="#FFFFFF" stroke-width="3" stroke-miterlimit="10" d="M21.363,31.383c0,0,7.987,0.01,8.035,0.01
				c2.026-0.077,3.684-2.14,3.684-4.184v-0.293c0-2.092-1.703-3.882-3.793-3.882h-3.791l0.021-5.646l0,0
				c0.031-2.131,1.846-3.667,3.921-3.667c2.093,0,3.883,1.76,3.883,3.85v11.767"/>
			<path fill="none" stroke="#FFFFFF" stroke-width="3" stroke-miterlimit="10" d="M46.281,31.512l0.025,4.939v0.136
				c0,4.156-2.813,7.56-6.427,7.56"/>
			<line fill="none" stroke="#FFFFFF" stroke-width="3" stroke-miterlimit="10" x1="20.925" y1="44.179" x2="29.564" y2="44.179"/>
			<line fill="none" stroke="#FFFFFF" stroke-width="3" stroke-miterlimit="10" x1="40.157" y1="44.147" x2="35.511" y2="44.147"/>
			<polyline fill="none" stroke="#FFFFFF" stroke-width="3" stroke-miterlimit="10" points="39.472,44.147 39.472,56.518 
				21.705,56.518 21.705,44.179 			"/>
		</g>
	</g>
</g>
</svg>
