<?xml version="1.0" encoding="utf-8"?>
<!-- Generator: Adobe Illustrator 16.0.2, SVG Export Plug-In . SVG Version: 6.00 Build 0)  -->
<!DOCTYPE svg PUBLIC "-//W3C//DTD SVG 1.1//EN" "http://www.w3.org/Graphics/SVG/1.1/DTD/svg11.dtd">
<svg version="1.1" id="Layer_1" xmlns="http://www.w3.org/2000/svg" xmlns:xlink="http://www.w3.org/1999/xlink" x="0px" y="0px"
	 width="62.475px" height="93.8px" viewBox="0 0 62.475 93.8" enable-background="new 0 0 62.475 93.8" xml:space="preserve">
<g>
	<path d="M62.475,31.238c0,27.071-30.499,62.562-30.499,62.562S0,58.309,0,31.238C0,13.985,13.985,0,31.237,0
		C48.49,0,62.475,13.985,62.475,31.238z"/>
	<g>
		<g>
			<path fill="none" stroke="#FFFFFF" stroke-width="3" stroke-miterlimit="10" d="M21.726,41.61
				C21.726,41.661,21.726,41.61,21.726,41.61L21.726,41.61v7.751H9.684l-0.053-7.759c0,0-0.003-0.099-0.003-0.153
				c0-5.382,4.361-9.743,9.745-9.743c2.208,0,4.329,0.736,5.962,1.974C22.989,35.458,21.726,38.435,21.726,41.61z"/>
			<path fill="none" stroke="#FFFFFF" stroke-width="3" stroke-miterlimit="10" d="M24.013,24.594c0,1.489,0.456,2.869,1.235,4.009
				c-1.278,1.874-3.434,3.109-5.875,3.109c-3.93,0-7.117-3.187-7.117-7.118c0-3.929,3.188-7.114,7.117-7.114
				c2.441,0,4.597,1.232,5.875,3.107C24.469,21.727,24.013,23.107,24.013,24.594z"/>
		</g>
		<g>
			<path fill="none" stroke="#FFFFFF" stroke-width="3" stroke-miterlimit="10" d="M39.83,49.361H21.726c0,0,0-7.7,0-7.751
				c0-3.175,1.263-6.149,3.609-7.93c1.635-1.236,3.625-1.968,5.832-1.968c2.209,0,4.226,0.732,5.859,1.967
				c2.349,1.779,3.013,4.602,3.013,7.777C40.04,41.506,39.83,49.361,39.83,49.361z"/>
			<path fill="none" stroke="#FFFFFF" stroke-width="3" stroke-miterlimit="10" d="M38.242,24.594c0,1.489-0.458,2.869-1.238,4.009
				c-1.281,1.874-3.436,3.109-5.878,3.109c-2.441,0-4.596-1.235-5.878-3.109c-0.779-1.14-1.235-2.52-1.235-4.009
				c0-1.486,0.456-2.867,1.235-4.007c1.282-1.875,3.437-3.107,5.878-3.107c2.442,0,4.598,1.232,5.878,3.107
				C37.784,21.727,38.242,23.107,38.242,24.594z"/>
		</g>
		<g>
			<path fill="none" stroke="#FFFFFF" stroke-width="3" stroke-miterlimit="10" d="M52.493,49.361H39.83
				c0,0,0.198-7.855,0.198-7.905c0-3.175-0.655-5.998-3.001-7.777c1.633-1.237,3.436-1.967,5.645-1.967
				c5.383,0,9.849,4.355,9.849,9.737C52.521,41.503,52.493,49.361,52.493,49.361z"/>
			<path fill="none" stroke="#FFFFFF" stroke-width="3" stroke-miterlimit="10" d="M49.997,24.594c0,3.931-3.186,7.118-7.116,7.118
				c-2.439,0-4.596-1.235-5.876-3.109c0.78-1.14,1.238-2.52,1.238-4.009c0-1.486-0.458-2.867-1.238-4.007
				c1.28-1.875,3.437-3.107,5.876-3.107C46.811,17.479,49.997,20.665,49.997,24.594z"/>
		</g>
	</g>
</g>
</svg>
