<?xml version="1.0" encoding="utf-8"?>
<!-- Generator: Adobe Illustrator 16.0.2, SVG Export Plug-In . SVG Version: 6.00 Build 0)  -->
<!DOCTYPE svg PUBLIC "-//W3C//DTD SVG 1.1//EN" "http://www.w3.org/Graphics/SVG/1.1/DTD/svg11.dtd">
<svg version="1.1" id="Layer_1" xmlns="http://www.w3.org/2000/svg" xmlns:xlink="http://www.w3.org/1999/xlink" x="0px" y="0px"
	 width="62.475px" height="93.8px" viewBox="0 0 62.475 93.8" enable-background="new 0 0 62.475 93.8" xml:space="preserve">
<g>
	<path fill="#C1272D" d="M62.475,31.238c0,27.071-30.498,62.562-30.498,62.562S0,58.309,0,31.238C0,13.985,13.985,0,31.237,0
		C48.49,0,62.475,13.985,62.475,31.238z"/>
	<g>
		
			<rect x="9.505" y="29.374" transform="matrix(0.9705 -0.2411 0.2411 0.9705 -8.3423 4.2914)" fill="none" stroke="#FFFFFF" stroke-width="3" stroke-linejoin="round" stroke-miterlimit="10" width="7.72" height="13.722"/>
		<polyline fill="none" stroke="#FFFFFF" stroke-width="3" stroke-linejoin="round" stroke-miterlimit="10" points="33.643,41.355 
			34.99,46.769 28.745,48.321 		"/>
		<polygon fill="none" stroke="#FFFFFF" stroke-width="3" stroke-linejoin="round" stroke-miterlimit="10" points="28.504,57.219 
			20.925,59.102 21.539,43.924 29.119,42.039 		"/>
		
			<rect x="16.716" y="22.642" transform="matrix(0.9705 -0.2413 0.2413 0.9705 -7.0577 7.3737)" fill="none" stroke="#FFFFFF" stroke-width="3" stroke-linejoin="round" stroke-miterlimit="10" width="19.729" height="19.728"/>
		<polygon fill="none" stroke="#FFFFFF" stroke-width="3" stroke-linejoin="round" stroke-miterlimit="10" points="52.826,43.857 
			38.626,40.071 33.829,20.783 44.605,10.791 		"/>
	</g>
</g>
</svg>
